G75*
%MOIN*%
%OFA0B0*%
%FSLAX24Y24*%
%IPPOS*%
%LPD*%
%AMOC8*
5,1,8,0,0,1.08239X$1,22.5*
%
%ADD10C,0.0000*%
%ADD11C,0.0100*%
%ADD12C,0.0060*%
%ADD13C,0.0087*%
%ADD14C,0.0030*%
%ADD15C,0.0080*%
D10*
X004874Y004874D02*
X011174Y004874D01*
X011174Y001725D01*
X023772Y001725D01*
X023772Y004874D01*
X033221Y004874D01*
X033221Y030071D01*
X023772Y030071D01*
X023772Y033221D01*
X011174Y033221D01*
X011174Y030071D01*
X004874Y030071D01*
X004874Y026922D01*
X001725Y026922D01*
X001725Y008024D01*
X004874Y008024D01*
X004874Y004874D01*
X004230Y007774D02*
X004232Y007813D01*
X004238Y007852D01*
X004248Y007890D01*
X004261Y007927D01*
X004278Y007962D01*
X004298Y007996D01*
X004322Y008027D01*
X004349Y008056D01*
X004378Y008082D01*
X004410Y008105D01*
X004444Y008125D01*
X004480Y008141D01*
X004517Y008153D01*
X004556Y008162D01*
X004595Y008167D01*
X004634Y008168D01*
X004673Y008165D01*
X004712Y008158D01*
X004749Y008147D01*
X004786Y008133D01*
X004821Y008115D01*
X004854Y008094D01*
X004885Y008069D01*
X004913Y008042D01*
X004938Y008012D01*
X004960Y007979D01*
X004979Y007945D01*
X004994Y007909D01*
X005006Y007871D01*
X005014Y007833D01*
X005018Y007794D01*
X005018Y007754D01*
X005014Y007715D01*
X005006Y007677D01*
X004994Y007639D01*
X004979Y007603D01*
X004960Y007569D01*
X004938Y007536D01*
X004913Y007506D01*
X004885Y007479D01*
X004854Y007454D01*
X004821Y007433D01*
X004786Y007415D01*
X004749Y007401D01*
X004712Y007390D01*
X004673Y007383D01*
X004634Y007380D01*
X004595Y007381D01*
X004556Y007386D01*
X004517Y007395D01*
X004480Y007407D01*
X004444Y007423D01*
X004410Y007443D01*
X004378Y007466D01*
X004349Y007492D01*
X004322Y007521D01*
X004298Y007552D01*
X004278Y007586D01*
X004261Y007621D01*
X004248Y007658D01*
X004238Y007696D01*
X004232Y007735D01*
X004230Y007774D01*
X002276Y009599D02*
X002278Y009663D01*
X002284Y009726D01*
X002294Y009789D01*
X002308Y009851D01*
X002325Y009912D01*
X002347Y009972D01*
X002372Y010031D01*
X002400Y010088D01*
X002432Y010143D01*
X002468Y010196D01*
X002507Y010246D01*
X002548Y010294D01*
X002593Y010340D01*
X002640Y010382D01*
X002690Y010422D01*
X002743Y010458D01*
X002797Y010491D01*
X002854Y010521D01*
X002912Y010547D01*
X002971Y010569D01*
X003032Y010587D01*
X003094Y010602D01*
X003157Y010613D01*
X003220Y010620D01*
X003284Y010623D01*
X003348Y010622D01*
X003411Y010617D01*
X003474Y010608D01*
X003537Y010595D01*
X003598Y010579D01*
X003659Y010558D01*
X003717Y010534D01*
X003775Y010506D01*
X003830Y010475D01*
X003884Y010440D01*
X003935Y010402D01*
X003984Y010361D01*
X004030Y010317D01*
X004073Y010271D01*
X004113Y010221D01*
X004150Y010170D01*
X004184Y010116D01*
X004215Y010060D01*
X004241Y010002D01*
X004265Y009943D01*
X004284Y009882D01*
X004300Y009820D01*
X004312Y009758D01*
X004320Y009694D01*
X004324Y009631D01*
X004324Y009567D01*
X004320Y009504D01*
X004312Y009440D01*
X004300Y009378D01*
X004284Y009316D01*
X004265Y009255D01*
X004241Y009196D01*
X004215Y009138D01*
X004184Y009082D01*
X004150Y009028D01*
X004113Y008977D01*
X004073Y008927D01*
X004030Y008881D01*
X003984Y008837D01*
X003935Y008796D01*
X003884Y008758D01*
X003830Y008723D01*
X003775Y008692D01*
X003717Y008664D01*
X003659Y008640D01*
X003598Y008619D01*
X003537Y008603D01*
X003474Y008590D01*
X003411Y008581D01*
X003348Y008576D01*
X003284Y008575D01*
X003220Y008578D01*
X003157Y008585D01*
X003094Y008596D01*
X003032Y008611D01*
X002971Y008629D01*
X002912Y008651D01*
X002854Y008677D01*
X002797Y008707D01*
X002743Y008740D01*
X002690Y008776D01*
X002640Y008816D01*
X002593Y008858D01*
X002548Y008904D01*
X002507Y008952D01*
X002468Y009002D01*
X002432Y009055D01*
X002400Y009110D01*
X002372Y009167D01*
X002347Y009226D01*
X002325Y009286D01*
X002308Y009347D01*
X002294Y009409D01*
X002284Y009472D01*
X002278Y009535D01*
X002276Y009599D01*
X002276Y012748D02*
X002278Y012812D01*
X002284Y012875D01*
X002294Y012938D01*
X002308Y013000D01*
X002325Y013061D01*
X002347Y013121D01*
X002372Y013180D01*
X002400Y013237D01*
X002432Y013292D01*
X002468Y013345D01*
X002507Y013395D01*
X002548Y013443D01*
X002593Y013489D01*
X002640Y013531D01*
X002690Y013571D01*
X002743Y013607D01*
X002797Y013640D01*
X002854Y013670D01*
X002912Y013696D01*
X002971Y013718D01*
X003032Y013736D01*
X003094Y013751D01*
X003157Y013762D01*
X003220Y013769D01*
X003284Y013772D01*
X003348Y013771D01*
X003411Y013766D01*
X003474Y013757D01*
X003537Y013744D01*
X003598Y013728D01*
X003659Y013707D01*
X003717Y013683D01*
X003775Y013655D01*
X003830Y013624D01*
X003884Y013589D01*
X003935Y013551D01*
X003984Y013510D01*
X004030Y013466D01*
X004073Y013420D01*
X004113Y013370D01*
X004150Y013319D01*
X004184Y013265D01*
X004215Y013209D01*
X004241Y013151D01*
X004265Y013092D01*
X004284Y013031D01*
X004300Y012969D01*
X004312Y012907D01*
X004320Y012843D01*
X004324Y012780D01*
X004324Y012716D01*
X004320Y012653D01*
X004312Y012589D01*
X004300Y012527D01*
X004284Y012465D01*
X004265Y012404D01*
X004241Y012345D01*
X004215Y012287D01*
X004184Y012231D01*
X004150Y012177D01*
X004113Y012126D01*
X004073Y012076D01*
X004030Y012030D01*
X003984Y011986D01*
X003935Y011945D01*
X003884Y011907D01*
X003830Y011872D01*
X003775Y011841D01*
X003717Y011813D01*
X003659Y011789D01*
X003598Y011768D01*
X003537Y011752D01*
X003474Y011739D01*
X003411Y011730D01*
X003348Y011725D01*
X003284Y011724D01*
X003220Y011727D01*
X003157Y011734D01*
X003094Y011745D01*
X003032Y011760D01*
X002971Y011778D01*
X002912Y011800D01*
X002854Y011826D01*
X002797Y011856D01*
X002743Y011889D01*
X002690Y011925D01*
X002640Y011965D01*
X002593Y012007D01*
X002548Y012053D01*
X002507Y012101D01*
X002468Y012151D01*
X002432Y012204D01*
X002400Y012259D01*
X002372Y012316D01*
X002347Y012375D01*
X002325Y012435D01*
X002308Y012496D01*
X002294Y012558D01*
X002284Y012621D01*
X002278Y012684D01*
X002276Y012748D01*
X002276Y015898D02*
X002278Y015962D01*
X002284Y016025D01*
X002294Y016088D01*
X002308Y016150D01*
X002325Y016211D01*
X002347Y016271D01*
X002372Y016330D01*
X002400Y016387D01*
X002432Y016442D01*
X002468Y016495D01*
X002507Y016545D01*
X002548Y016593D01*
X002593Y016639D01*
X002640Y016681D01*
X002690Y016721D01*
X002743Y016757D01*
X002797Y016790D01*
X002854Y016820D01*
X002912Y016846D01*
X002971Y016868D01*
X003032Y016886D01*
X003094Y016901D01*
X003157Y016912D01*
X003220Y016919D01*
X003284Y016922D01*
X003348Y016921D01*
X003411Y016916D01*
X003474Y016907D01*
X003537Y016894D01*
X003598Y016878D01*
X003659Y016857D01*
X003717Y016833D01*
X003775Y016805D01*
X003830Y016774D01*
X003884Y016739D01*
X003935Y016701D01*
X003984Y016660D01*
X004030Y016616D01*
X004073Y016570D01*
X004113Y016520D01*
X004150Y016469D01*
X004184Y016415D01*
X004215Y016359D01*
X004241Y016301D01*
X004265Y016242D01*
X004284Y016181D01*
X004300Y016119D01*
X004312Y016057D01*
X004320Y015993D01*
X004324Y015930D01*
X004324Y015866D01*
X004320Y015803D01*
X004312Y015739D01*
X004300Y015677D01*
X004284Y015615D01*
X004265Y015554D01*
X004241Y015495D01*
X004215Y015437D01*
X004184Y015381D01*
X004150Y015327D01*
X004113Y015276D01*
X004073Y015226D01*
X004030Y015180D01*
X003984Y015136D01*
X003935Y015095D01*
X003884Y015057D01*
X003830Y015022D01*
X003775Y014991D01*
X003717Y014963D01*
X003659Y014939D01*
X003598Y014918D01*
X003537Y014902D01*
X003474Y014889D01*
X003411Y014880D01*
X003348Y014875D01*
X003284Y014874D01*
X003220Y014877D01*
X003157Y014884D01*
X003094Y014895D01*
X003032Y014910D01*
X002971Y014928D01*
X002912Y014950D01*
X002854Y014976D01*
X002797Y015006D01*
X002743Y015039D01*
X002690Y015075D01*
X002640Y015115D01*
X002593Y015157D01*
X002548Y015203D01*
X002507Y015251D01*
X002468Y015301D01*
X002432Y015354D01*
X002400Y015409D01*
X002372Y015466D01*
X002347Y015525D01*
X002325Y015585D01*
X002308Y015646D01*
X002294Y015708D01*
X002284Y015771D01*
X002278Y015834D01*
X002276Y015898D01*
X002276Y019048D02*
X002278Y019112D01*
X002284Y019175D01*
X002294Y019238D01*
X002308Y019300D01*
X002325Y019361D01*
X002347Y019421D01*
X002372Y019480D01*
X002400Y019537D01*
X002432Y019592D01*
X002468Y019645D01*
X002507Y019695D01*
X002548Y019743D01*
X002593Y019789D01*
X002640Y019831D01*
X002690Y019871D01*
X002743Y019907D01*
X002797Y019940D01*
X002854Y019970D01*
X002912Y019996D01*
X002971Y020018D01*
X003032Y020036D01*
X003094Y020051D01*
X003157Y020062D01*
X003220Y020069D01*
X003284Y020072D01*
X003348Y020071D01*
X003411Y020066D01*
X003474Y020057D01*
X003537Y020044D01*
X003598Y020028D01*
X003659Y020007D01*
X003717Y019983D01*
X003775Y019955D01*
X003830Y019924D01*
X003884Y019889D01*
X003935Y019851D01*
X003984Y019810D01*
X004030Y019766D01*
X004073Y019720D01*
X004113Y019670D01*
X004150Y019619D01*
X004184Y019565D01*
X004215Y019509D01*
X004241Y019451D01*
X004265Y019392D01*
X004284Y019331D01*
X004300Y019269D01*
X004312Y019207D01*
X004320Y019143D01*
X004324Y019080D01*
X004324Y019016D01*
X004320Y018953D01*
X004312Y018889D01*
X004300Y018827D01*
X004284Y018765D01*
X004265Y018704D01*
X004241Y018645D01*
X004215Y018587D01*
X004184Y018531D01*
X004150Y018477D01*
X004113Y018426D01*
X004073Y018376D01*
X004030Y018330D01*
X003984Y018286D01*
X003935Y018245D01*
X003884Y018207D01*
X003830Y018172D01*
X003775Y018141D01*
X003717Y018113D01*
X003659Y018089D01*
X003598Y018068D01*
X003537Y018052D01*
X003474Y018039D01*
X003411Y018030D01*
X003348Y018025D01*
X003284Y018024D01*
X003220Y018027D01*
X003157Y018034D01*
X003094Y018045D01*
X003032Y018060D01*
X002971Y018078D01*
X002912Y018100D01*
X002854Y018126D01*
X002797Y018156D01*
X002743Y018189D01*
X002690Y018225D01*
X002640Y018265D01*
X002593Y018307D01*
X002548Y018353D01*
X002507Y018401D01*
X002468Y018451D01*
X002432Y018504D01*
X002400Y018559D01*
X002372Y018616D01*
X002347Y018675D01*
X002325Y018735D01*
X002308Y018796D01*
X002294Y018858D01*
X002284Y018921D01*
X002278Y018984D01*
X002276Y019048D01*
X002276Y022197D02*
X002278Y022261D01*
X002284Y022324D01*
X002294Y022387D01*
X002308Y022449D01*
X002325Y022510D01*
X002347Y022570D01*
X002372Y022629D01*
X002400Y022686D01*
X002432Y022741D01*
X002468Y022794D01*
X002507Y022844D01*
X002548Y022892D01*
X002593Y022938D01*
X002640Y022980D01*
X002690Y023020D01*
X002743Y023056D01*
X002797Y023089D01*
X002854Y023119D01*
X002912Y023145D01*
X002971Y023167D01*
X003032Y023185D01*
X003094Y023200D01*
X003157Y023211D01*
X003220Y023218D01*
X003284Y023221D01*
X003348Y023220D01*
X003411Y023215D01*
X003474Y023206D01*
X003537Y023193D01*
X003598Y023177D01*
X003659Y023156D01*
X003717Y023132D01*
X003775Y023104D01*
X003830Y023073D01*
X003884Y023038D01*
X003935Y023000D01*
X003984Y022959D01*
X004030Y022915D01*
X004073Y022869D01*
X004113Y022819D01*
X004150Y022768D01*
X004184Y022714D01*
X004215Y022658D01*
X004241Y022600D01*
X004265Y022541D01*
X004284Y022480D01*
X004300Y022418D01*
X004312Y022356D01*
X004320Y022292D01*
X004324Y022229D01*
X004324Y022165D01*
X004320Y022102D01*
X004312Y022038D01*
X004300Y021976D01*
X004284Y021914D01*
X004265Y021853D01*
X004241Y021794D01*
X004215Y021736D01*
X004184Y021680D01*
X004150Y021626D01*
X004113Y021575D01*
X004073Y021525D01*
X004030Y021479D01*
X003984Y021435D01*
X003935Y021394D01*
X003884Y021356D01*
X003830Y021321D01*
X003775Y021290D01*
X003717Y021262D01*
X003659Y021238D01*
X003598Y021217D01*
X003537Y021201D01*
X003474Y021188D01*
X003411Y021179D01*
X003348Y021174D01*
X003284Y021173D01*
X003220Y021176D01*
X003157Y021183D01*
X003094Y021194D01*
X003032Y021209D01*
X002971Y021227D01*
X002912Y021249D01*
X002854Y021275D01*
X002797Y021305D01*
X002743Y021338D01*
X002690Y021374D01*
X002640Y021414D01*
X002593Y021456D01*
X002548Y021502D01*
X002507Y021550D01*
X002468Y021600D01*
X002432Y021653D01*
X002400Y021708D01*
X002372Y021765D01*
X002347Y021824D01*
X002325Y021884D01*
X002308Y021945D01*
X002294Y022007D01*
X002284Y022070D01*
X002278Y022133D01*
X002276Y022197D01*
X002276Y025347D02*
X002278Y025411D01*
X002284Y025474D01*
X002294Y025537D01*
X002308Y025599D01*
X002325Y025660D01*
X002347Y025720D01*
X002372Y025779D01*
X002400Y025836D01*
X002432Y025891D01*
X002468Y025944D01*
X002507Y025994D01*
X002548Y026042D01*
X002593Y026088D01*
X002640Y026130D01*
X002690Y026170D01*
X002743Y026206D01*
X002797Y026239D01*
X002854Y026269D01*
X002912Y026295D01*
X002971Y026317D01*
X003032Y026335D01*
X003094Y026350D01*
X003157Y026361D01*
X003220Y026368D01*
X003284Y026371D01*
X003348Y026370D01*
X003411Y026365D01*
X003474Y026356D01*
X003537Y026343D01*
X003598Y026327D01*
X003659Y026306D01*
X003717Y026282D01*
X003775Y026254D01*
X003830Y026223D01*
X003884Y026188D01*
X003935Y026150D01*
X003984Y026109D01*
X004030Y026065D01*
X004073Y026019D01*
X004113Y025969D01*
X004150Y025918D01*
X004184Y025864D01*
X004215Y025808D01*
X004241Y025750D01*
X004265Y025691D01*
X004284Y025630D01*
X004300Y025568D01*
X004312Y025506D01*
X004320Y025442D01*
X004324Y025379D01*
X004324Y025315D01*
X004320Y025252D01*
X004312Y025188D01*
X004300Y025126D01*
X004284Y025064D01*
X004265Y025003D01*
X004241Y024944D01*
X004215Y024886D01*
X004184Y024830D01*
X004150Y024776D01*
X004113Y024725D01*
X004073Y024675D01*
X004030Y024629D01*
X003984Y024585D01*
X003935Y024544D01*
X003884Y024506D01*
X003830Y024471D01*
X003775Y024440D01*
X003717Y024412D01*
X003659Y024388D01*
X003598Y024367D01*
X003537Y024351D01*
X003474Y024338D01*
X003411Y024329D01*
X003348Y024324D01*
X003284Y024323D01*
X003220Y024326D01*
X003157Y024333D01*
X003094Y024344D01*
X003032Y024359D01*
X002971Y024377D01*
X002912Y024399D01*
X002854Y024425D01*
X002797Y024455D01*
X002743Y024488D01*
X002690Y024524D01*
X002640Y024564D01*
X002593Y024606D01*
X002548Y024652D01*
X002507Y024700D01*
X002468Y024750D01*
X002432Y024803D01*
X002400Y024858D01*
X002372Y024915D01*
X002347Y024974D01*
X002325Y025034D01*
X002308Y025095D01*
X002294Y025157D01*
X002284Y025220D01*
X002278Y025283D01*
X002276Y025347D01*
X004230Y027172D02*
X004232Y027211D01*
X004238Y027250D01*
X004248Y027288D01*
X004261Y027325D01*
X004278Y027360D01*
X004298Y027394D01*
X004322Y027425D01*
X004349Y027454D01*
X004378Y027480D01*
X004410Y027503D01*
X004444Y027523D01*
X004480Y027539D01*
X004517Y027551D01*
X004556Y027560D01*
X004595Y027565D01*
X004634Y027566D01*
X004673Y027563D01*
X004712Y027556D01*
X004749Y027545D01*
X004786Y027531D01*
X004821Y027513D01*
X004854Y027492D01*
X004885Y027467D01*
X004913Y027440D01*
X004938Y027410D01*
X004960Y027377D01*
X004979Y027343D01*
X004994Y027307D01*
X005006Y027269D01*
X005014Y027231D01*
X005018Y027192D01*
X005018Y027152D01*
X005014Y027113D01*
X005006Y027075D01*
X004994Y027037D01*
X004979Y027001D01*
X004960Y026967D01*
X004938Y026934D01*
X004913Y026904D01*
X004885Y026877D01*
X004854Y026852D01*
X004821Y026831D01*
X004786Y026813D01*
X004749Y026799D01*
X004712Y026788D01*
X004673Y026781D01*
X004634Y026778D01*
X004595Y026779D01*
X004556Y026784D01*
X004517Y026793D01*
X004480Y026805D01*
X004444Y026821D01*
X004410Y026841D01*
X004378Y026864D01*
X004349Y026890D01*
X004322Y026919D01*
X004298Y026950D01*
X004278Y026984D01*
X004261Y027019D01*
X004248Y027056D01*
X004238Y027094D01*
X004232Y027133D01*
X004230Y027172D01*
X010530Y030321D02*
X010532Y030360D01*
X010538Y030399D01*
X010548Y030437D01*
X010561Y030474D01*
X010578Y030509D01*
X010598Y030543D01*
X010622Y030574D01*
X010649Y030603D01*
X010678Y030629D01*
X010710Y030652D01*
X010744Y030672D01*
X010780Y030688D01*
X010817Y030700D01*
X010856Y030709D01*
X010895Y030714D01*
X010934Y030715D01*
X010973Y030712D01*
X011012Y030705D01*
X011049Y030694D01*
X011086Y030680D01*
X011121Y030662D01*
X011154Y030641D01*
X011185Y030616D01*
X011213Y030589D01*
X011238Y030559D01*
X011260Y030526D01*
X011279Y030492D01*
X011294Y030456D01*
X011306Y030418D01*
X011314Y030380D01*
X011318Y030341D01*
X011318Y030301D01*
X011314Y030262D01*
X011306Y030224D01*
X011294Y030186D01*
X011279Y030150D01*
X011260Y030116D01*
X011238Y030083D01*
X011213Y030053D01*
X011185Y030026D01*
X011154Y030001D01*
X011121Y029980D01*
X011086Y029962D01*
X011049Y029948D01*
X011012Y029937D01*
X010973Y029930D01*
X010934Y029927D01*
X010895Y029928D01*
X010856Y029933D01*
X010817Y029942D01*
X010780Y029954D01*
X010744Y029970D01*
X010710Y029990D01*
X010678Y030013D01*
X010649Y030039D01*
X010622Y030068D01*
X010598Y030099D01*
X010578Y030133D01*
X010561Y030168D01*
X010548Y030205D01*
X010538Y030243D01*
X010532Y030282D01*
X010530Y030321D01*
X011724Y031646D02*
X011726Y031710D01*
X011732Y031773D01*
X011742Y031836D01*
X011756Y031898D01*
X011773Y031959D01*
X011795Y032019D01*
X011820Y032078D01*
X011848Y032135D01*
X011880Y032190D01*
X011916Y032243D01*
X011955Y032293D01*
X011996Y032341D01*
X012041Y032387D01*
X012088Y032429D01*
X012138Y032469D01*
X012191Y032505D01*
X012245Y032538D01*
X012302Y032568D01*
X012360Y032594D01*
X012419Y032616D01*
X012480Y032634D01*
X012542Y032649D01*
X012605Y032660D01*
X012668Y032667D01*
X012732Y032670D01*
X012796Y032669D01*
X012859Y032664D01*
X012922Y032655D01*
X012985Y032642D01*
X013046Y032626D01*
X013107Y032605D01*
X013165Y032581D01*
X013223Y032553D01*
X013278Y032522D01*
X013332Y032487D01*
X013383Y032449D01*
X013432Y032408D01*
X013478Y032364D01*
X013521Y032318D01*
X013561Y032268D01*
X013598Y032217D01*
X013632Y032163D01*
X013663Y032107D01*
X013689Y032049D01*
X013713Y031990D01*
X013732Y031929D01*
X013748Y031867D01*
X013760Y031805D01*
X013768Y031741D01*
X013772Y031678D01*
X013772Y031614D01*
X013768Y031551D01*
X013760Y031487D01*
X013748Y031425D01*
X013732Y031363D01*
X013713Y031302D01*
X013689Y031243D01*
X013663Y031185D01*
X013632Y031129D01*
X013598Y031075D01*
X013561Y031024D01*
X013521Y030974D01*
X013478Y030928D01*
X013432Y030884D01*
X013383Y030843D01*
X013332Y030805D01*
X013278Y030770D01*
X013223Y030739D01*
X013165Y030711D01*
X013107Y030687D01*
X013046Y030666D01*
X012985Y030650D01*
X012922Y030637D01*
X012859Y030628D01*
X012796Y030623D01*
X012732Y030622D01*
X012668Y030625D01*
X012605Y030632D01*
X012542Y030643D01*
X012480Y030658D01*
X012419Y030676D01*
X012360Y030698D01*
X012302Y030724D01*
X012245Y030754D01*
X012191Y030787D01*
X012138Y030823D01*
X012088Y030863D01*
X012041Y030905D01*
X011996Y030951D01*
X011955Y030999D01*
X011916Y031049D01*
X011880Y031102D01*
X011848Y031157D01*
X011820Y031214D01*
X011795Y031273D01*
X011773Y031333D01*
X011756Y031394D01*
X011742Y031456D01*
X011732Y031519D01*
X011726Y031582D01*
X011724Y031646D01*
X014874Y031646D02*
X014876Y031710D01*
X014882Y031773D01*
X014892Y031836D01*
X014906Y031898D01*
X014923Y031959D01*
X014945Y032019D01*
X014970Y032078D01*
X014998Y032135D01*
X015030Y032190D01*
X015066Y032243D01*
X015105Y032293D01*
X015146Y032341D01*
X015191Y032387D01*
X015238Y032429D01*
X015288Y032469D01*
X015341Y032505D01*
X015395Y032538D01*
X015452Y032568D01*
X015510Y032594D01*
X015569Y032616D01*
X015630Y032634D01*
X015692Y032649D01*
X015755Y032660D01*
X015818Y032667D01*
X015882Y032670D01*
X015946Y032669D01*
X016009Y032664D01*
X016072Y032655D01*
X016135Y032642D01*
X016196Y032626D01*
X016257Y032605D01*
X016315Y032581D01*
X016373Y032553D01*
X016428Y032522D01*
X016482Y032487D01*
X016533Y032449D01*
X016582Y032408D01*
X016628Y032364D01*
X016671Y032318D01*
X016711Y032268D01*
X016748Y032217D01*
X016782Y032163D01*
X016813Y032107D01*
X016839Y032049D01*
X016863Y031990D01*
X016882Y031929D01*
X016898Y031867D01*
X016910Y031805D01*
X016918Y031741D01*
X016922Y031678D01*
X016922Y031614D01*
X016918Y031551D01*
X016910Y031487D01*
X016898Y031425D01*
X016882Y031363D01*
X016863Y031302D01*
X016839Y031243D01*
X016813Y031185D01*
X016782Y031129D01*
X016748Y031075D01*
X016711Y031024D01*
X016671Y030974D01*
X016628Y030928D01*
X016582Y030884D01*
X016533Y030843D01*
X016482Y030805D01*
X016428Y030770D01*
X016373Y030739D01*
X016315Y030711D01*
X016257Y030687D01*
X016196Y030666D01*
X016135Y030650D01*
X016072Y030637D01*
X016009Y030628D01*
X015946Y030623D01*
X015882Y030622D01*
X015818Y030625D01*
X015755Y030632D01*
X015692Y030643D01*
X015630Y030658D01*
X015569Y030676D01*
X015510Y030698D01*
X015452Y030724D01*
X015395Y030754D01*
X015341Y030787D01*
X015288Y030823D01*
X015238Y030863D01*
X015191Y030905D01*
X015146Y030951D01*
X015105Y030999D01*
X015066Y031049D01*
X015030Y031102D01*
X014998Y031157D01*
X014970Y031214D01*
X014945Y031273D01*
X014923Y031333D01*
X014906Y031394D01*
X014892Y031456D01*
X014882Y031519D01*
X014876Y031582D01*
X014874Y031646D01*
X018024Y031646D02*
X018026Y031710D01*
X018032Y031773D01*
X018042Y031836D01*
X018056Y031898D01*
X018073Y031959D01*
X018095Y032019D01*
X018120Y032078D01*
X018148Y032135D01*
X018180Y032190D01*
X018216Y032243D01*
X018255Y032293D01*
X018296Y032341D01*
X018341Y032387D01*
X018388Y032429D01*
X018438Y032469D01*
X018491Y032505D01*
X018545Y032538D01*
X018602Y032568D01*
X018660Y032594D01*
X018719Y032616D01*
X018780Y032634D01*
X018842Y032649D01*
X018905Y032660D01*
X018968Y032667D01*
X019032Y032670D01*
X019096Y032669D01*
X019159Y032664D01*
X019222Y032655D01*
X019285Y032642D01*
X019346Y032626D01*
X019407Y032605D01*
X019465Y032581D01*
X019523Y032553D01*
X019578Y032522D01*
X019632Y032487D01*
X019683Y032449D01*
X019732Y032408D01*
X019778Y032364D01*
X019821Y032318D01*
X019861Y032268D01*
X019898Y032217D01*
X019932Y032163D01*
X019963Y032107D01*
X019989Y032049D01*
X020013Y031990D01*
X020032Y031929D01*
X020048Y031867D01*
X020060Y031805D01*
X020068Y031741D01*
X020072Y031678D01*
X020072Y031614D01*
X020068Y031551D01*
X020060Y031487D01*
X020048Y031425D01*
X020032Y031363D01*
X020013Y031302D01*
X019989Y031243D01*
X019963Y031185D01*
X019932Y031129D01*
X019898Y031075D01*
X019861Y031024D01*
X019821Y030974D01*
X019778Y030928D01*
X019732Y030884D01*
X019683Y030843D01*
X019632Y030805D01*
X019578Y030770D01*
X019523Y030739D01*
X019465Y030711D01*
X019407Y030687D01*
X019346Y030666D01*
X019285Y030650D01*
X019222Y030637D01*
X019159Y030628D01*
X019096Y030623D01*
X019032Y030622D01*
X018968Y030625D01*
X018905Y030632D01*
X018842Y030643D01*
X018780Y030658D01*
X018719Y030676D01*
X018660Y030698D01*
X018602Y030724D01*
X018545Y030754D01*
X018491Y030787D01*
X018438Y030823D01*
X018388Y030863D01*
X018341Y030905D01*
X018296Y030951D01*
X018255Y030999D01*
X018216Y031049D01*
X018180Y031102D01*
X018148Y031157D01*
X018120Y031214D01*
X018095Y031273D01*
X018073Y031333D01*
X018056Y031394D01*
X018042Y031456D01*
X018032Y031519D01*
X018026Y031582D01*
X018024Y031646D01*
X021173Y031646D02*
X021175Y031710D01*
X021181Y031773D01*
X021191Y031836D01*
X021205Y031898D01*
X021222Y031959D01*
X021244Y032019D01*
X021269Y032078D01*
X021297Y032135D01*
X021329Y032190D01*
X021365Y032243D01*
X021404Y032293D01*
X021445Y032341D01*
X021490Y032387D01*
X021537Y032429D01*
X021587Y032469D01*
X021640Y032505D01*
X021694Y032538D01*
X021751Y032568D01*
X021809Y032594D01*
X021868Y032616D01*
X021929Y032634D01*
X021991Y032649D01*
X022054Y032660D01*
X022117Y032667D01*
X022181Y032670D01*
X022245Y032669D01*
X022308Y032664D01*
X022371Y032655D01*
X022434Y032642D01*
X022495Y032626D01*
X022556Y032605D01*
X022614Y032581D01*
X022672Y032553D01*
X022727Y032522D01*
X022781Y032487D01*
X022832Y032449D01*
X022881Y032408D01*
X022927Y032364D01*
X022970Y032318D01*
X023010Y032268D01*
X023047Y032217D01*
X023081Y032163D01*
X023112Y032107D01*
X023138Y032049D01*
X023162Y031990D01*
X023181Y031929D01*
X023197Y031867D01*
X023209Y031805D01*
X023217Y031741D01*
X023221Y031678D01*
X023221Y031614D01*
X023217Y031551D01*
X023209Y031487D01*
X023197Y031425D01*
X023181Y031363D01*
X023162Y031302D01*
X023138Y031243D01*
X023112Y031185D01*
X023081Y031129D01*
X023047Y031075D01*
X023010Y031024D01*
X022970Y030974D01*
X022927Y030928D01*
X022881Y030884D01*
X022832Y030843D01*
X022781Y030805D01*
X022727Y030770D01*
X022672Y030739D01*
X022614Y030711D01*
X022556Y030687D01*
X022495Y030666D01*
X022434Y030650D01*
X022371Y030637D01*
X022308Y030628D01*
X022245Y030623D01*
X022181Y030622D01*
X022117Y030625D01*
X022054Y030632D01*
X021991Y030643D01*
X021929Y030658D01*
X021868Y030676D01*
X021809Y030698D01*
X021751Y030724D01*
X021694Y030754D01*
X021640Y030787D01*
X021587Y030823D01*
X021537Y030863D01*
X021490Y030905D01*
X021445Y030951D01*
X021404Y030999D01*
X021365Y031049D01*
X021329Y031102D01*
X021297Y031157D01*
X021269Y031214D01*
X021244Y031273D01*
X021222Y031333D01*
X021205Y031394D01*
X021191Y031456D01*
X021181Y031519D01*
X021175Y031582D01*
X021173Y031646D01*
X023628Y030321D02*
X023630Y030360D01*
X023636Y030399D01*
X023646Y030437D01*
X023659Y030474D01*
X023676Y030509D01*
X023696Y030543D01*
X023720Y030574D01*
X023747Y030603D01*
X023776Y030629D01*
X023808Y030652D01*
X023842Y030672D01*
X023878Y030688D01*
X023915Y030700D01*
X023954Y030709D01*
X023993Y030714D01*
X024032Y030715D01*
X024071Y030712D01*
X024110Y030705D01*
X024147Y030694D01*
X024184Y030680D01*
X024219Y030662D01*
X024252Y030641D01*
X024283Y030616D01*
X024311Y030589D01*
X024336Y030559D01*
X024358Y030526D01*
X024377Y030492D01*
X024392Y030456D01*
X024404Y030418D01*
X024412Y030380D01*
X024416Y030341D01*
X024416Y030301D01*
X024412Y030262D01*
X024404Y030224D01*
X024392Y030186D01*
X024377Y030150D01*
X024358Y030116D01*
X024336Y030083D01*
X024311Y030053D01*
X024283Y030026D01*
X024252Y030001D01*
X024219Y029980D01*
X024184Y029962D01*
X024147Y029948D01*
X024110Y029937D01*
X024071Y029930D01*
X024032Y029927D01*
X023993Y029928D01*
X023954Y029933D01*
X023915Y029942D01*
X023878Y029954D01*
X023842Y029970D01*
X023808Y029990D01*
X023776Y030013D01*
X023747Y030039D01*
X023720Y030068D01*
X023696Y030099D01*
X023676Y030133D01*
X023659Y030168D01*
X023646Y030205D01*
X023636Y030243D01*
X023630Y030282D01*
X023628Y030321D01*
X030622Y028496D02*
X030624Y028560D01*
X030630Y028623D01*
X030640Y028686D01*
X030654Y028748D01*
X030671Y028809D01*
X030693Y028869D01*
X030718Y028928D01*
X030746Y028985D01*
X030778Y029040D01*
X030814Y029093D01*
X030853Y029143D01*
X030894Y029191D01*
X030939Y029237D01*
X030986Y029279D01*
X031036Y029319D01*
X031089Y029355D01*
X031143Y029388D01*
X031200Y029418D01*
X031258Y029444D01*
X031317Y029466D01*
X031378Y029484D01*
X031440Y029499D01*
X031503Y029510D01*
X031566Y029517D01*
X031630Y029520D01*
X031694Y029519D01*
X031757Y029514D01*
X031820Y029505D01*
X031883Y029492D01*
X031944Y029476D01*
X032005Y029455D01*
X032063Y029431D01*
X032121Y029403D01*
X032176Y029372D01*
X032230Y029337D01*
X032281Y029299D01*
X032330Y029258D01*
X032376Y029214D01*
X032419Y029168D01*
X032459Y029118D01*
X032496Y029067D01*
X032530Y029013D01*
X032561Y028957D01*
X032587Y028899D01*
X032611Y028840D01*
X032630Y028779D01*
X032646Y028717D01*
X032658Y028655D01*
X032666Y028591D01*
X032670Y028528D01*
X032670Y028464D01*
X032666Y028401D01*
X032658Y028337D01*
X032646Y028275D01*
X032630Y028213D01*
X032611Y028152D01*
X032587Y028093D01*
X032561Y028035D01*
X032530Y027979D01*
X032496Y027925D01*
X032459Y027874D01*
X032419Y027824D01*
X032376Y027778D01*
X032330Y027734D01*
X032281Y027693D01*
X032230Y027655D01*
X032176Y027620D01*
X032121Y027589D01*
X032063Y027561D01*
X032005Y027537D01*
X031944Y027516D01*
X031883Y027500D01*
X031820Y027487D01*
X031757Y027478D01*
X031694Y027473D01*
X031630Y027472D01*
X031566Y027475D01*
X031503Y027482D01*
X031440Y027493D01*
X031378Y027508D01*
X031317Y027526D01*
X031258Y027548D01*
X031200Y027574D01*
X031143Y027604D01*
X031089Y027637D01*
X031036Y027673D01*
X030986Y027713D01*
X030939Y027755D01*
X030894Y027801D01*
X030853Y027849D01*
X030814Y027899D01*
X030778Y027952D01*
X030746Y028007D01*
X030718Y028064D01*
X030693Y028123D01*
X030671Y028183D01*
X030654Y028244D01*
X030640Y028306D01*
X030630Y028369D01*
X030624Y028432D01*
X030622Y028496D01*
X030622Y006449D02*
X030624Y006513D01*
X030630Y006576D01*
X030640Y006639D01*
X030654Y006701D01*
X030671Y006762D01*
X030693Y006822D01*
X030718Y006881D01*
X030746Y006938D01*
X030778Y006993D01*
X030814Y007046D01*
X030853Y007096D01*
X030894Y007144D01*
X030939Y007190D01*
X030986Y007232D01*
X031036Y007272D01*
X031089Y007308D01*
X031143Y007341D01*
X031200Y007371D01*
X031258Y007397D01*
X031317Y007419D01*
X031378Y007437D01*
X031440Y007452D01*
X031503Y007463D01*
X031566Y007470D01*
X031630Y007473D01*
X031694Y007472D01*
X031757Y007467D01*
X031820Y007458D01*
X031883Y007445D01*
X031944Y007429D01*
X032005Y007408D01*
X032063Y007384D01*
X032121Y007356D01*
X032176Y007325D01*
X032230Y007290D01*
X032281Y007252D01*
X032330Y007211D01*
X032376Y007167D01*
X032419Y007121D01*
X032459Y007071D01*
X032496Y007020D01*
X032530Y006966D01*
X032561Y006910D01*
X032587Y006852D01*
X032611Y006793D01*
X032630Y006732D01*
X032646Y006670D01*
X032658Y006608D01*
X032666Y006544D01*
X032670Y006481D01*
X032670Y006417D01*
X032666Y006354D01*
X032658Y006290D01*
X032646Y006228D01*
X032630Y006166D01*
X032611Y006105D01*
X032587Y006046D01*
X032561Y005988D01*
X032530Y005932D01*
X032496Y005878D01*
X032459Y005827D01*
X032419Y005777D01*
X032376Y005731D01*
X032330Y005687D01*
X032281Y005646D01*
X032230Y005608D01*
X032176Y005573D01*
X032121Y005542D01*
X032063Y005514D01*
X032005Y005490D01*
X031944Y005469D01*
X031883Y005453D01*
X031820Y005440D01*
X031757Y005431D01*
X031694Y005426D01*
X031630Y005425D01*
X031566Y005428D01*
X031503Y005435D01*
X031440Y005446D01*
X031378Y005461D01*
X031317Y005479D01*
X031258Y005501D01*
X031200Y005527D01*
X031143Y005557D01*
X031089Y005590D01*
X031036Y005626D01*
X030986Y005666D01*
X030939Y005708D01*
X030894Y005754D01*
X030853Y005802D01*
X030814Y005852D01*
X030778Y005905D01*
X030746Y005960D01*
X030718Y006017D01*
X030693Y006076D01*
X030671Y006136D01*
X030654Y006197D01*
X030640Y006259D01*
X030630Y006322D01*
X030624Y006385D01*
X030622Y006449D01*
X023628Y004624D02*
X023630Y004663D01*
X023636Y004702D01*
X023646Y004740D01*
X023659Y004777D01*
X023676Y004812D01*
X023696Y004846D01*
X023720Y004877D01*
X023747Y004906D01*
X023776Y004932D01*
X023808Y004955D01*
X023842Y004975D01*
X023878Y004991D01*
X023915Y005003D01*
X023954Y005012D01*
X023993Y005017D01*
X024032Y005018D01*
X024071Y005015D01*
X024110Y005008D01*
X024147Y004997D01*
X024184Y004983D01*
X024219Y004965D01*
X024252Y004944D01*
X024283Y004919D01*
X024311Y004892D01*
X024336Y004862D01*
X024358Y004829D01*
X024377Y004795D01*
X024392Y004759D01*
X024404Y004721D01*
X024412Y004683D01*
X024416Y004644D01*
X024416Y004604D01*
X024412Y004565D01*
X024404Y004527D01*
X024392Y004489D01*
X024377Y004453D01*
X024358Y004419D01*
X024336Y004386D01*
X024311Y004356D01*
X024283Y004329D01*
X024252Y004304D01*
X024219Y004283D01*
X024184Y004265D01*
X024147Y004251D01*
X024110Y004240D01*
X024071Y004233D01*
X024032Y004230D01*
X023993Y004231D01*
X023954Y004236D01*
X023915Y004245D01*
X023878Y004257D01*
X023842Y004273D01*
X023808Y004293D01*
X023776Y004316D01*
X023747Y004342D01*
X023720Y004371D01*
X023696Y004402D01*
X023676Y004436D01*
X023659Y004471D01*
X023646Y004508D01*
X023636Y004546D01*
X023630Y004585D01*
X023628Y004624D01*
X021173Y003300D02*
X021175Y003364D01*
X021181Y003427D01*
X021191Y003490D01*
X021205Y003552D01*
X021222Y003613D01*
X021244Y003673D01*
X021269Y003732D01*
X021297Y003789D01*
X021329Y003844D01*
X021365Y003897D01*
X021404Y003947D01*
X021445Y003995D01*
X021490Y004041D01*
X021537Y004083D01*
X021587Y004123D01*
X021640Y004159D01*
X021694Y004192D01*
X021751Y004222D01*
X021809Y004248D01*
X021868Y004270D01*
X021929Y004288D01*
X021991Y004303D01*
X022054Y004314D01*
X022117Y004321D01*
X022181Y004324D01*
X022245Y004323D01*
X022308Y004318D01*
X022371Y004309D01*
X022434Y004296D01*
X022495Y004280D01*
X022556Y004259D01*
X022614Y004235D01*
X022672Y004207D01*
X022727Y004176D01*
X022781Y004141D01*
X022832Y004103D01*
X022881Y004062D01*
X022927Y004018D01*
X022970Y003972D01*
X023010Y003922D01*
X023047Y003871D01*
X023081Y003817D01*
X023112Y003761D01*
X023138Y003703D01*
X023162Y003644D01*
X023181Y003583D01*
X023197Y003521D01*
X023209Y003459D01*
X023217Y003395D01*
X023221Y003332D01*
X023221Y003268D01*
X023217Y003205D01*
X023209Y003141D01*
X023197Y003079D01*
X023181Y003017D01*
X023162Y002956D01*
X023138Y002897D01*
X023112Y002839D01*
X023081Y002783D01*
X023047Y002729D01*
X023010Y002678D01*
X022970Y002628D01*
X022927Y002582D01*
X022881Y002538D01*
X022832Y002497D01*
X022781Y002459D01*
X022727Y002424D01*
X022672Y002393D01*
X022614Y002365D01*
X022556Y002341D01*
X022495Y002320D01*
X022434Y002304D01*
X022371Y002291D01*
X022308Y002282D01*
X022245Y002277D01*
X022181Y002276D01*
X022117Y002279D01*
X022054Y002286D01*
X021991Y002297D01*
X021929Y002312D01*
X021868Y002330D01*
X021809Y002352D01*
X021751Y002378D01*
X021694Y002408D01*
X021640Y002441D01*
X021587Y002477D01*
X021537Y002517D01*
X021490Y002559D01*
X021445Y002605D01*
X021404Y002653D01*
X021365Y002703D01*
X021329Y002756D01*
X021297Y002811D01*
X021269Y002868D01*
X021244Y002927D01*
X021222Y002987D01*
X021205Y003048D01*
X021191Y003110D01*
X021181Y003173D01*
X021175Y003236D01*
X021173Y003300D01*
X018024Y003300D02*
X018026Y003364D01*
X018032Y003427D01*
X018042Y003490D01*
X018056Y003552D01*
X018073Y003613D01*
X018095Y003673D01*
X018120Y003732D01*
X018148Y003789D01*
X018180Y003844D01*
X018216Y003897D01*
X018255Y003947D01*
X018296Y003995D01*
X018341Y004041D01*
X018388Y004083D01*
X018438Y004123D01*
X018491Y004159D01*
X018545Y004192D01*
X018602Y004222D01*
X018660Y004248D01*
X018719Y004270D01*
X018780Y004288D01*
X018842Y004303D01*
X018905Y004314D01*
X018968Y004321D01*
X019032Y004324D01*
X019096Y004323D01*
X019159Y004318D01*
X019222Y004309D01*
X019285Y004296D01*
X019346Y004280D01*
X019407Y004259D01*
X019465Y004235D01*
X019523Y004207D01*
X019578Y004176D01*
X019632Y004141D01*
X019683Y004103D01*
X019732Y004062D01*
X019778Y004018D01*
X019821Y003972D01*
X019861Y003922D01*
X019898Y003871D01*
X019932Y003817D01*
X019963Y003761D01*
X019989Y003703D01*
X020013Y003644D01*
X020032Y003583D01*
X020048Y003521D01*
X020060Y003459D01*
X020068Y003395D01*
X020072Y003332D01*
X020072Y003268D01*
X020068Y003205D01*
X020060Y003141D01*
X020048Y003079D01*
X020032Y003017D01*
X020013Y002956D01*
X019989Y002897D01*
X019963Y002839D01*
X019932Y002783D01*
X019898Y002729D01*
X019861Y002678D01*
X019821Y002628D01*
X019778Y002582D01*
X019732Y002538D01*
X019683Y002497D01*
X019632Y002459D01*
X019578Y002424D01*
X019523Y002393D01*
X019465Y002365D01*
X019407Y002341D01*
X019346Y002320D01*
X019285Y002304D01*
X019222Y002291D01*
X019159Y002282D01*
X019096Y002277D01*
X019032Y002276D01*
X018968Y002279D01*
X018905Y002286D01*
X018842Y002297D01*
X018780Y002312D01*
X018719Y002330D01*
X018660Y002352D01*
X018602Y002378D01*
X018545Y002408D01*
X018491Y002441D01*
X018438Y002477D01*
X018388Y002517D01*
X018341Y002559D01*
X018296Y002605D01*
X018255Y002653D01*
X018216Y002703D01*
X018180Y002756D01*
X018148Y002811D01*
X018120Y002868D01*
X018095Y002927D01*
X018073Y002987D01*
X018056Y003048D01*
X018042Y003110D01*
X018032Y003173D01*
X018026Y003236D01*
X018024Y003300D01*
X014874Y003300D02*
X014876Y003364D01*
X014882Y003427D01*
X014892Y003490D01*
X014906Y003552D01*
X014923Y003613D01*
X014945Y003673D01*
X014970Y003732D01*
X014998Y003789D01*
X015030Y003844D01*
X015066Y003897D01*
X015105Y003947D01*
X015146Y003995D01*
X015191Y004041D01*
X015238Y004083D01*
X015288Y004123D01*
X015341Y004159D01*
X015395Y004192D01*
X015452Y004222D01*
X015510Y004248D01*
X015569Y004270D01*
X015630Y004288D01*
X015692Y004303D01*
X015755Y004314D01*
X015818Y004321D01*
X015882Y004324D01*
X015946Y004323D01*
X016009Y004318D01*
X016072Y004309D01*
X016135Y004296D01*
X016196Y004280D01*
X016257Y004259D01*
X016315Y004235D01*
X016373Y004207D01*
X016428Y004176D01*
X016482Y004141D01*
X016533Y004103D01*
X016582Y004062D01*
X016628Y004018D01*
X016671Y003972D01*
X016711Y003922D01*
X016748Y003871D01*
X016782Y003817D01*
X016813Y003761D01*
X016839Y003703D01*
X016863Y003644D01*
X016882Y003583D01*
X016898Y003521D01*
X016910Y003459D01*
X016918Y003395D01*
X016922Y003332D01*
X016922Y003268D01*
X016918Y003205D01*
X016910Y003141D01*
X016898Y003079D01*
X016882Y003017D01*
X016863Y002956D01*
X016839Y002897D01*
X016813Y002839D01*
X016782Y002783D01*
X016748Y002729D01*
X016711Y002678D01*
X016671Y002628D01*
X016628Y002582D01*
X016582Y002538D01*
X016533Y002497D01*
X016482Y002459D01*
X016428Y002424D01*
X016373Y002393D01*
X016315Y002365D01*
X016257Y002341D01*
X016196Y002320D01*
X016135Y002304D01*
X016072Y002291D01*
X016009Y002282D01*
X015946Y002277D01*
X015882Y002276D01*
X015818Y002279D01*
X015755Y002286D01*
X015692Y002297D01*
X015630Y002312D01*
X015569Y002330D01*
X015510Y002352D01*
X015452Y002378D01*
X015395Y002408D01*
X015341Y002441D01*
X015288Y002477D01*
X015238Y002517D01*
X015191Y002559D01*
X015146Y002605D01*
X015105Y002653D01*
X015066Y002703D01*
X015030Y002756D01*
X014998Y002811D01*
X014970Y002868D01*
X014945Y002927D01*
X014923Y002987D01*
X014906Y003048D01*
X014892Y003110D01*
X014882Y003173D01*
X014876Y003236D01*
X014874Y003300D01*
X011724Y003300D02*
X011726Y003364D01*
X011732Y003427D01*
X011742Y003490D01*
X011756Y003552D01*
X011773Y003613D01*
X011795Y003673D01*
X011820Y003732D01*
X011848Y003789D01*
X011880Y003844D01*
X011916Y003897D01*
X011955Y003947D01*
X011996Y003995D01*
X012041Y004041D01*
X012088Y004083D01*
X012138Y004123D01*
X012191Y004159D01*
X012245Y004192D01*
X012302Y004222D01*
X012360Y004248D01*
X012419Y004270D01*
X012480Y004288D01*
X012542Y004303D01*
X012605Y004314D01*
X012668Y004321D01*
X012732Y004324D01*
X012796Y004323D01*
X012859Y004318D01*
X012922Y004309D01*
X012985Y004296D01*
X013046Y004280D01*
X013107Y004259D01*
X013165Y004235D01*
X013223Y004207D01*
X013278Y004176D01*
X013332Y004141D01*
X013383Y004103D01*
X013432Y004062D01*
X013478Y004018D01*
X013521Y003972D01*
X013561Y003922D01*
X013598Y003871D01*
X013632Y003817D01*
X013663Y003761D01*
X013689Y003703D01*
X013713Y003644D01*
X013732Y003583D01*
X013748Y003521D01*
X013760Y003459D01*
X013768Y003395D01*
X013772Y003332D01*
X013772Y003268D01*
X013768Y003205D01*
X013760Y003141D01*
X013748Y003079D01*
X013732Y003017D01*
X013713Y002956D01*
X013689Y002897D01*
X013663Y002839D01*
X013632Y002783D01*
X013598Y002729D01*
X013561Y002678D01*
X013521Y002628D01*
X013478Y002582D01*
X013432Y002538D01*
X013383Y002497D01*
X013332Y002459D01*
X013278Y002424D01*
X013223Y002393D01*
X013165Y002365D01*
X013107Y002341D01*
X013046Y002320D01*
X012985Y002304D01*
X012922Y002291D01*
X012859Y002282D01*
X012796Y002277D01*
X012732Y002276D01*
X012668Y002279D01*
X012605Y002286D01*
X012542Y002297D01*
X012480Y002312D01*
X012419Y002330D01*
X012360Y002352D01*
X012302Y002378D01*
X012245Y002408D01*
X012191Y002441D01*
X012138Y002477D01*
X012088Y002517D01*
X012041Y002559D01*
X011996Y002605D01*
X011955Y002653D01*
X011916Y002703D01*
X011880Y002756D01*
X011848Y002811D01*
X011820Y002868D01*
X011795Y002927D01*
X011773Y002987D01*
X011756Y003048D01*
X011742Y003110D01*
X011732Y003173D01*
X011726Y003236D01*
X011724Y003300D01*
X010530Y004624D02*
X010532Y004663D01*
X010538Y004702D01*
X010548Y004740D01*
X010561Y004777D01*
X010578Y004812D01*
X010598Y004846D01*
X010622Y004877D01*
X010649Y004906D01*
X010678Y004932D01*
X010710Y004955D01*
X010744Y004975D01*
X010780Y004991D01*
X010817Y005003D01*
X010856Y005012D01*
X010895Y005017D01*
X010934Y005018D01*
X010973Y005015D01*
X011012Y005008D01*
X011049Y004997D01*
X011086Y004983D01*
X011121Y004965D01*
X011154Y004944D01*
X011185Y004919D01*
X011213Y004892D01*
X011238Y004862D01*
X011260Y004829D01*
X011279Y004795D01*
X011294Y004759D01*
X011306Y004721D01*
X011314Y004683D01*
X011318Y004644D01*
X011318Y004604D01*
X011314Y004565D01*
X011306Y004527D01*
X011294Y004489D01*
X011279Y004453D01*
X011260Y004419D01*
X011238Y004386D01*
X011213Y004356D01*
X011185Y004329D01*
X011154Y004304D01*
X011121Y004283D01*
X011086Y004265D01*
X011049Y004251D01*
X011012Y004240D01*
X010973Y004233D01*
X010934Y004230D01*
X010895Y004231D01*
X010856Y004236D01*
X010817Y004245D01*
X010780Y004257D01*
X010744Y004273D01*
X010710Y004293D01*
X010678Y004316D01*
X010649Y004342D01*
X010622Y004371D01*
X010598Y004402D01*
X010578Y004436D01*
X010561Y004471D01*
X010548Y004508D01*
X010538Y004546D01*
X010532Y004585D01*
X010530Y004624D01*
D11*
X014225Y007475D02*
X014725Y007225D01*
X015225Y007475D01*
X015225Y008475D01*
X016225Y008475D02*
X016225Y007475D01*
X017225Y007475D02*
X017225Y008475D01*
X018225Y008475D02*
X018225Y007475D01*
X019225Y007475D02*
X019225Y008475D01*
X020225Y008475D02*
X020225Y007475D01*
X021225Y007475D02*
X021225Y008475D01*
X022225Y008475D02*
X022225Y007475D01*
X014225Y007475D01*
X014225Y008475D01*
X022225Y008475D01*
X023225Y008475D02*
X023225Y007475D01*
X023725Y007225D01*
X024225Y007475D01*
X024225Y008475D01*
X025225Y008475D02*
X025225Y007475D01*
X026225Y007475D02*
X026225Y008475D01*
X027225Y008475D02*
X027225Y007475D01*
X028225Y007475D02*
X028225Y008475D01*
X029225Y008475D02*
X029225Y007475D01*
X023225Y007475D01*
X023225Y008475D02*
X029225Y008475D01*
X029406Y007473D02*
X028406Y007473D01*
X028156Y006973D01*
X028406Y006473D01*
X029406Y006473D01*
X029406Y007473D02*
X029406Y005473D01*
X028406Y005473D01*
X028406Y007473D01*
X028225Y026475D02*
X028225Y027475D01*
X028406Y027473D02*
X029406Y027473D01*
X029406Y029473D01*
X028406Y029473D01*
X028156Y028973D01*
X028406Y028473D01*
X029406Y028473D01*
X029225Y027475D02*
X029225Y026475D01*
X021225Y026475D01*
X021725Y026225D01*
X022225Y026475D01*
X022225Y027475D01*
X023225Y027475D02*
X023225Y026475D01*
X024225Y026475D02*
X024225Y027475D01*
X025225Y027475D02*
X025225Y026475D01*
X026225Y026475D02*
X026225Y027475D01*
X027225Y027475D02*
X027225Y026475D01*
X028406Y027473D02*
X028406Y029473D01*
X029225Y027475D02*
X021225Y027475D01*
X021225Y026475D01*
X020625Y026475D02*
X020625Y027475D01*
X010625Y027475D01*
X010625Y026475D01*
X011125Y026225D01*
X011625Y026475D01*
X011625Y027475D01*
X012625Y027475D02*
X012625Y026475D01*
X013625Y026475D02*
X013625Y027475D01*
X014625Y027475D02*
X014625Y026475D01*
X015625Y026475D02*
X015625Y027475D01*
X016625Y027475D02*
X016625Y026475D01*
X017625Y026475D02*
X017625Y027475D01*
X018625Y027475D02*
X018625Y026475D01*
X019625Y026475D02*
X019625Y027475D01*
X020625Y026475D02*
X010625Y026475D01*
X008375Y027475D02*
X008375Y029475D01*
X007375Y029475D01*
X007375Y027475D01*
X008375Y027475D01*
X007375Y027475D02*
X006375Y027475D01*
X005875Y027225D01*
X005375Y027475D01*
X006375Y027475D01*
X006375Y029475D01*
X007375Y029475D01*
X006375Y029475D02*
X005375Y029475D01*
X005375Y028475D01*
X008375Y028475D01*
X005375Y028475D02*
X005375Y027475D01*
X005475Y026075D02*
X005475Y025075D01*
X004975Y025575D02*
X005975Y025575D01*
X006975Y025075D02*
X007975Y025075D01*
X007475Y025575D02*
X007475Y024575D01*
X007725Y024075D02*
X007727Y024119D01*
X007733Y024163D01*
X007743Y024206D01*
X007756Y024248D01*
X007773Y024289D01*
X007794Y024328D01*
X007818Y024365D01*
X007845Y024400D01*
X007875Y024432D01*
X007908Y024462D01*
X007944Y024488D01*
X007981Y024512D01*
X008021Y024531D01*
X008062Y024548D01*
X008105Y024560D01*
X008148Y024569D01*
X008192Y024574D01*
X008236Y024575D01*
X008280Y024572D01*
X008324Y024565D01*
X008367Y024554D01*
X008409Y024540D01*
X008449Y024522D01*
X008488Y024500D01*
X008524Y024476D01*
X008558Y024448D01*
X008590Y024417D01*
X008619Y024383D01*
X008645Y024347D01*
X008667Y024309D01*
X008686Y024269D01*
X008701Y024227D01*
X008713Y024185D01*
X008721Y024141D01*
X008725Y024097D01*
X008725Y024053D01*
X008721Y024009D01*
X008713Y023965D01*
X008701Y023923D01*
X008686Y023881D01*
X008667Y023841D01*
X008645Y023803D01*
X008619Y023767D01*
X008590Y023733D01*
X008558Y023702D01*
X008524Y023674D01*
X008488Y023650D01*
X008449Y023628D01*
X008409Y023610D01*
X008367Y023596D01*
X008324Y023585D01*
X008280Y023578D01*
X008236Y023575D01*
X008192Y023576D01*
X008148Y023581D01*
X008105Y023590D01*
X008062Y023602D01*
X008021Y023619D01*
X007981Y023638D01*
X007944Y023662D01*
X007908Y023688D01*
X007875Y023718D01*
X007845Y023750D01*
X007818Y023785D01*
X007794Y023822D01*
X007773Y023861D01*
X007756Y023902D01*
X007743Y023944D01*
X007733Y023987D01*
X007727Y024031D01*
X007725Y024075D01*
X005725Y024075D02*
X005727Y024174D01*
X005733Y024274D01*
X005743Y024373D01*
X005757Y024471D01*
X005774Y024569D01*
X005796Y024666D01*
X005821Y024762D01*
X005850Y024857D01*
X005883Y024951D01*
X005920Y025043D01*
X005960Y025134D01*
X006004Y025223D01*
X006052Y025311D01*
X006103Y025396D01*
X006157Y025479D01*
X006214Y025561D01*
X006275Y025639D01*
X006339Y025716D01*
X006405Y025789D01*
X006475Y025860D01*
X006547Y025928D01*
X006622Y025994D01*
X006700Y026056D01*
X006780Y026115D01*
X006862Y026171D01*
X006946Y026223D01*
X007033Y026272D01*
X007121Y026318D01*
X007211Y026360D01*
X007303Y026399D01*
X007396Y026434D01*
X007490Y026465D01*
X007586Y026492D01*
X007683Y026515D01*
X007780Y026535D01*
X007878Y026551D01*
X007977Y026563D01*
X008076Y026571D01*
X008175Y026575D01*
X008275Y026575D01*
X008374Y026571D01*
X008473Y026563D01*
X008572Y026551D01*
X008670Y026535D01*
X008767Y026515D01*
X008864Y026492D01*
X008960Y026465D01*
X009054Y026434D01*
X009147Y026399D01*
X009239Y026360D01*
X009329Y026318D01*
X009417Y026272D01*
X009504Y026223D01*
X009588Y026171D01*
X009670Y026115D01*
X009750Y026056D01*
X009828Y025994D01*
X009903Y025928D01*
X009975Y025860D01*
X010045Y025789D01*
X010111Y025716D01*
X010175Y025639D01*
X010236Y025561D01*
X010293Y025479D01*
X010347Y025396D01*
X010398Y025311D01*
X010446Y025223D01*
X010490Y025134D01*
X010530Y025043D01*
X010567Y024951D01*
X010600Y024857D01*
X010629Y024762D01*
X010654Y024666D01*
X010676Y024569D01*
X010693Y024471D01*
X010707Y024373D01*
X010717Y024274D01*
X010723Y024174D01*
X010725Y024075D01*
X010723Y023976D01*
X010717Y023876D01*
X010707Y023777D01*
X010693Y023679D01*
X010676Y023581D01*
X010654Y023484D01*
X010629Y023388D01*
X010600Y023293D01*
X010567Y023199D01*
X010530Y023107D01*
X010490Y023016D01*
X010446Y022927D01*
X010398Y022839D01*
X010347Y022754D01*
X010293Y022671D01*
X010236Y022589D01*
X010175Y022511D01*
X010111Y022434D01*
X010045Y022361D01*
X009975Y022290D01*
X009903Y022222D01*
X009828Y022156D01*
X009750Y022094D01*
X009670Y022035D01*
X009588Y021979D01*
X009504Y021927D01*
X009417Y021878D01*
X009329Y021832D01*
X009239Y021790D01*
X009147Y021751D01*
X009054Y021716D01*
X008960Y021685D01*
X008864Y021658D01*
X008767Y021635D01*
X008670Y021615D01*
X008572Y021599D01*
X008473Y021587D01*
X008374Y021579D01*
X008275Y021575D01*
X008175Y021575D01*
X008076Y021579D01*
X007977Y021587D01*
X007878Y021599D01*
X007780Y021615D01*
X007683Y021635D01*
X007586Y021658D01*
X007490Y021685D01*
X007396Y021716D01*
X007303Y021751D01*
X007211Y021790D01*
X007121Y021832D01*
X007033Y021878D01*
X006946Y021927D01*
X006862Y021979D01*
X006780Y022035D01*
X006700Y022094D01*
X006622Y022156D01*
X006547Y022222D01*
X006475Y022290D01*
X006405Y022361D01*
X006339Y022434D01*
X006275Y022511D01*
X006214Y022589D01*
X006157Y022671D01*
X006103Y022754D01*
X006052Y022839D01*
X006004Y022927D01*
X005960Y023016D01*
X005920Y023107D01*
X005883Y023199D01*
X005850Y023293D01*
X005821Y023388D01*
X005796Y023484D01*
X005774Y023581D01*
X005757Y023679D01*
X005743Y023777D01*
X005733Y023876D01*
X005727Y023976D01*
X005725Y024075D01*
D12*
X005709Y026805D02*
X005629Y026805D01*
X005589Y026845D01*
X005629Y026925D02*
X005589Y026965D01*
X005589Y027005D01*
X005629Y027045D01*
X005709Y027045D01*
X005749Y027005D01*
X005709Y026925D02*
X005749Y026885D01*
X005749Y026845D01*
X005709Y026805D01*
X005709Y026925D02*
X005629Y026925D01*
X005485Y027045D02*
X005405Y027045D01*
X005445Y027045D02*
X005445Y026805D01*
X005405Y026805D02*
X005485Y026805D01*
X005865Y026805D02*
X005865Y027045D01*
X005985Y027045D01*
X006025Y027005D01*
X006025Y026925D01*
X005985Y026885D01*
X005865Y026885D01*
X006141Y026925D02*
X006302Y026925D01*
X006418Y026925D02*
X006578Y026925D01*
X006578Y026965D02*
X006578Y026805D01*
X006694Y026885D02*
X006694Y027045D01*
X006578Y026965D02*
X006498Y027045D01*
X006418Y026965D01*
X006418Y026805D01*
X006694Y026885D02*
X006774Y026805D01*
X006854Y026885D01*
X006854Y027045D01*
X006970Y027045D02*
X007090Y027045D01*
X007130Y027005D01*
X007130Y026925D01*
X007090Y026885D01*
X006970Y026885D01*
X006970Y026805D02*
X006970Y027045D01*
X007050Y026885D02*
X007130Y026805D01*
X009080Y027696D02*
X009240Y027696D01*
X009160Y027696D02*
X009160Y027936D01*
X009080Y027856D01*
X009356Y027896D02*
X009396Y027936D01*
X009476Y027936D01*
X009516Y027896D01*
X009356Y027736D01*
X009396Y027696D01*
X009476Y027696D01*
X009516Y027736D01*
X009516Y027896D01*
X009632Y027936D02*
X009632Y027696D01*
X009632Y027776D02*
X009753Y027856D01*
X009632Y027776D02*
X009753Y027696D01*
X009356Y027736D02*
X009356Y027896D01*
X009182Y028123D02*
X009182Y028626D01*
X010167Y028626D01*
X010167Y028123D01*
X009182Y028123D01*
X009182Y029073D02*
X009182Y029576D01*
X010167Y029576D01*
X010167Y029073D01*
X009182Y029073D01*
X010334Y029396D02*
X010494Y029556D01*
X010494Y029596D01*
X010454Y029636D01*
X010374Y029636D01*
X010334Y029596D01*
X010334Y029396D02*
X010494Y029396D01*
X010610Y029396D02*
X010770Y029556D01*
X010770Y029596D01*
X010730Y029636D01*
X010650Y029636D01*
X010610Y029596D01*
X010610Y029396D02*
X010770Y029396D01*
X010886Y029396D02*
X011007Y029396D01*
X011047Y029436D01*
X011047Y029516D01*
X011007Y029556D01*
X010886Y029556D01*
X010886Y029316D01*
X010664Y029205D02*
X011764Y029205D01*
X011781Y029203D01*
X011798Y029199D01*
X011814Y029192D01*
X011828Y029182D01*
X011841Y029169D01*
X011851Y029155D01*
X011858Y029139D01*
X011862Y029122D01*
X011864Y029105D01*
X011864Y028505D01*
X011862Y028488D01*
X011858Y028471D01*
X011851Y028455D01*
X011841Y028441D01*
X011828Y028428D01*
X011814Y028418D01*
X011798Y028411D01*
X011781Y028407D01*
X011764Y028405D01*
X010664Y028405D01*
X010647Y028407D01*
X010630Y028411D01*
X010614Y028418D01*
X010600Y028428D01*
X010587Y028441D01*
X010577Y028455D01*
X010570Y028471D01*
X010566Y028488D01*
X010564Y028505D01*
X010564Y029105D01*
X010566Y029122D01*
X010570Y029139D01*
X010577Y029155D01*
X010587Y029169D01*
X010600Y029182D01*
X010614Y029192D01*
X010630Y029199D01*
X010647Y029203D01*
X010664Y029205D01*
X012158Y027906D02*
X012238Y027986D01*
X012238Y027746D01*
X012158Y027746D02*
X012318Y027746D01*
X012434Y027786D02*
X012594Y027946D01*
X012594Y027786D01*
X012554Y027746D01*
X012474Y027746D01*
X012434Y027786D01*
X012434Y027946D01*
X012474Y027986D01*
X012554Y027986D01*
X012594Y027946D01*
X012710Y027946D02*
X012750Y027986D01*
X012830Y027986D01*
X012870Y027946D01*
X012710Y027786D01*
X012750Y027746D01*
X012830Y027746D01*
X012870Y027786D01*
X012870Y027946D01*
X012986Y027906D02*
X013107Y027906D01*
X013147Y027866D01*
X013147Y027746D01*
X012986Y027746D02*
X012986Y027906D01*
X012710Y027946D02*
X012710Y027786D01*
X012232Y028123D02*
X012232Y028626D01*
X013217Y028626D01*
X013217Y028123D01*
X012232Y028123D01*
X012232Y029023D02*
X012232Y029526D01*
X013217Y029526D01*
X013217Y029023D01*
X012232Y029023D01*
X012556Y029646D02*
X012716Y029646D01*
X012636Y029646D02*
X012636Y029886D01*
X012556Y029806D01*
X012832Y029726D02*
X012953Y029806D01*
X012832Y029726D02*
X012953Y029646D01*
X012832Y029646D02*
X012832Y029886D01*
X012476Y026217D02*
X011973Y026217D01*
X011973Y025232D01*
X012476Y025232D01*
X012476Y026217D01*
X012693Y026003D02*
X012773Y025882D01*
X012853Y026003D01*
X012853Y025882D02*
X012613Y025882D01*
X012653Y025766D02*
X012813Y025606D01*
X012853Y025646D01*
X012853Y025726D01*
X012813Y025766D01*
X012653Y025766D01*
X012613Y025726D01*
X012613Y025646D01*
X012653Y025606D01*
X012813Y025606D01*
X012853Y025490D02*
X012853Y025330D01*
X012853Y025410D02*
X012613Y025410D01*
X012693Y025330D01*
X012070Y024774D02*
X011949Y024694D01*
X012070Y024613D01*
X011949Y024613D02*
X011949Y024854D01*
X011833Y024814D02*
X011673Y024653D01*
X011713Y024613D01*
X011793Y024613D01*
X011833Y024653D01*
X011833Y024814D01*
X011793Y024854D01*
X011713Y024854D01*
X011673Y024814D01*
X011673Y024653D01*
X011557Y024613D02*
X011397Y024613D01*
X011477Y024613D02*
X011477Y024854D01*
X011397Y024774D01*
X011232Y024476D02*
X011232Y023973D01*
X012217Y023973D01*
X012217Y024476D01*
X011232Y024476D01*
X011477Y023854D02*
X011477Y023613D01*
X011397Y023613D02*
X011557Y023613D01*
X011673Y023653D02*
X011833Y023814D01*
X011833Y023653D01*
X011793Y023613D01*
X011713Y023613D01*
X011673Y023653D01*
X011673Y023814D01*
X011713Y023854D01*
X011793Y023854D01*
X011833Y023814D01*
X011949Y023854D02*
X011949Y023613D01*
X011949Y023694D02*
X012070Y023774D01*
X011949Y023694D02*
X012070Y023613D01*
X012217Y023476D02*
X012217Y022973D01*
X011232Y022973D01*
X011232Y023476D01*
X012217Y023476D01*
X011949Y022804D02*
X011949Y022563D01*
X011949Y022644D02*
X012070Y022724D01*
X011949Y022644D02*
X012070Y022563D01*
X012217Y022426D02*
X012217Y021923D01*
X011232Y021923D01*
X011232Y022426D01*
X012217Y022426D01*
X011833Y022603D02*
X011833Y022764D01*
X011673Y022603D01*
X011713Y022563D01*
X011793Y022563D01*
X011833Y022603D01*
X011673Y022603D02*
X011673Y022764D01*
X011713Y022804D01*
X011793Y022804D01*
X011833Y022764D01*
X011557Y022563D02*
X011397Y022563D01*
X011477Y022563D02*
X011477Y022804D01*
X011397Y022724D01*
X011513Y021804D02*
X011593Y021804D01*
X011633Y021764D01*
X011473Y021603D01*
X011513Y021563D01*
X011593Y021563D01*
X011633Y021603D01*
X011633Y021764D01*
X011749Y021804D02*
X011749Y021563D01*
X011749Y021644D02*
X011870Y021724D01*
X011749Y021644D02*
X011870Y021563D01*
X012217Y021476D02*
X012217Y020973D01*
X011232Y020973D01*
X011232Y021476D01*
X012217Y021476D01*
X012601Y020827D02*
X012521Y020747D01*
X012601Y020827D02*
X012601Y020587D01*
X012521Y020587D02*
X012681Y020587D01*
X012797Y020627D02*
X012837Y020587D01*
X012917Y020587D01*
X012957Y020627D01*
X012957Y020787D01*
X012797Y020627D01*
X012797Y020787D01*
X012837Y020827D01*
X012917Y020827D01*
X012957Y020787D01*
X013073Y020827D02*
X013073Y020587D01*
X013073Y020667D02*
X013193Y020587D01*
X013073Y020667D02*
X013193Y020747D01*
X013256Y020950D02*
X013256Y020446D01*
X014241Y020446D01*
X014241Y020950D01*
X013256Y020950D01*
X013256Y021371D02*
X013256Y021874D01*
X014241Y021874D01*
X014241Y021371D01*
X013256Y021371D01*
X013256Y022246D02*
X013256Y022749D01*
X014241Y022749D01*
X014241Y022246D01*
X013256Y022246D01*
X013256Y023096D02*
X013256Y023599D01*
X014241Y023599D01*
X014241Y023096D01*
X013256Y023096D01*
X013256Y023921D02*
X013256Y024424D01*
X014241Y024424D01*
X014241Y023921D01*
X013256Y023921D01*
X013421Y024561D02*
X013581Y024561D01*
X013501Y024561D02*
X013501Y024801D01*
X013421Y024721D01*
X013697Y024761D02*
X013737Y024801D01*
X013817Y024801D01*
X013857Y024761D01*
X013697Y024601D01*
X013737Y024561D01*
X013817Y024561D01*
X013857Y024601D01*
X013857Y024761D01*
X013973Y024801D02*
X013973Y024561D01*
X013973Y024641D02*
X014093Y024721D01*
X013973Y024641D02*
X014093Y024561D01*
X013697Y024601D02*
X013697Y024761D01*
X014451Y023476D02*
X014451Y023236D01*
X014371Y023236D02*
X014531Y023236D01*
X014647Y023276D02*
X014807Y023436D01*
X014807Y023276D01*
X014767Y023236D01*
X014687Y023236D01*
X014647Y023276D01*
X014647Y023436D01*
X014687Y023476D01*
X014767Y023476D01*
X014807Y023436D01*
X014923Y023476D02*
X014923Y023236D01*
X014923Y023316D02*
X015043Y023396D01*
X014923Y023316D02*
X015043Y023236D01*
X014923Y022727D02*
X014923Y022486D01*
X014923Y022566D02*
X015043Y022646D01*
X014923Y022566D02*
X015043Y022486D01*
X014807Y022526D02*
X014767Y022486D01*
X014687Y022486D01*
X014647Y022526D01*
X014807Y022686D01*
X014807Y022526D01*
X014647Y022526D02*
X014647Y022686D01*
X014687Y022727D01*
X014767Y022727D01*
X014807Y022686D01*
X014531Y022486D02*
X014371Y022486D01*
X014451Y022486D02*
X014451Y022727D01*
X014371Y022646D01*
X014428Y022043D02*
X014508Y021923D01*
X014588Y022043D01*
X014588Y021923D02*
X014348Y021923D01*
X014388Y021807D02*
X014548Y021647D01*
X014588Y021687D01*
X014588Y021767D01*
X014548Y021807D01*
X014388Y021807D01*
X014348Y021767D01*
X014348Y021687D01*
X014388Y021647D01*
X014548Y021647D01*
X014588Y021531D02*
X014588Y021371D01*
X014588Y021451D02*
X014348Y021451D01*
X014428Y021371D01*
X014873Y021082D02*
X015376Y021082D01*
X015376Y022067D01*
X014873Y022067D01*
X014873Y021082D01*
X014977Y021004D02*
X014977Y020763D01*
X014897Y020763D02*
X015057Y020763D01*
X015173Y020763D02*
X015173Y021004D01*
X015253Y020924D01*
X015333Y021004D01*
X015333Y020763D01*
X014977Y021004D02*
X014897Y020924D01*
X014896Y019936D02*
X014976Y019936D01*
X015016Y019896D01*
X014856Y019736D01*
X014896Y019696D01*
X014976Y019696D01*
X015016Y019736D01*
X015016Y019896D01*
X015132Y019936D02*
X015132Y019696D01*
X015132Y019776D02*
X015253Y019856D01*
X015132Y019776D02*
X015253Y019696D01*
X014856Y019736D02*
X014856Y019896D01*
X014896Y019936D01*
X014740Y019896D02*
X014700Y019936D01*
X014620Y019936D01*
X014580Y019896D01*
X014580Y019736D01*
X014740Y019896D01*
X014740Y019736D01*
X014700Y019696D01*
X014620Y019696D01*
X014580Y019736D01*
X014464Y019696D02*
X014304Y019696D01*
X014384Y019696D02*
X014384Y019936D01*
X014304Y019856D01*
X014217Y020026D02*
X014217Y019523D01*
X013232Y019523D01*
X013232Y020026D01*
X014217Y020026D01*
X014217Y019076D02*
X013232Y019076D01*
X013232Y018573D01*
X014217Y018573D01*
X014217Y019076D01*
X014456Y018856D02*
X014536Y018936D01*
X014536Y018696D01*
X014456Y018696D02*
X014616Y018696D01*
X014732Y018696D02*
X014732Y018936D01*
X014853Y018856D02*
X014732Y018776D01*
X014853Y018696D01*
X015330Y017224D02*
X015490Y017064D01*
X015490Y017144D02*
X015330Y017144D01*
X015330Y017064D02*
X015490Y017224D01*
X015410Y017224D02*
X015410Y017064D01*
X015800Y016937D02*
X015800Y016434D01*
X014815Y016434D01*
X014815Y016937D01*
X015800Y016937D01*
X016193Y016937D02*
X016193Y016434D01*
X017178Y016434D01*
X017178Y016937D01*
X016193Y016937D01*
X016497Y017097D02*
X016657Y017257D01*
X016577Y017257D02*
X016577Y017097D01*
X016657Y017097D02*
X016497Y017257D01*
X016497Y017177D02*
X016657Y017177D01*
X016193Y016150D02*
X016193Y015646D01*
X017178Y015646D01*
X017178Y016150D01*
X016193Y016150D01*
X015800Y016150D02*
X015800Y015646D01*
X014815Y015646D01*
X014815Y016150D01*
X015800Y016150D01*
X015772Y015577D02*
X015612Y015577D01*
X015612Y015457D01*
X015692Y015497D01*
X015732Y015497D01*
X015772Y015457D01*
X015772Y015377D01*
X015732Y015337D01*
X015652Y015337D01*
X015612Y015377D01*
X015457Y015268D02*
X013961Y015268D01*
X013764Y015327D02*
X013764Y015487D01*
X013724Y015527D01*
X013644Y015527D01*
X013604Y015487D01*
X013604Y015447D01*
X013644Y015407D01*
X013764Y015407D01*
X013764Y015327D02*
X013724Y015287D01*
X013644Y015287D01*
X013604Y015327D01*
X013488Y015287D02*
X013488Y015407D01*
X013448Y015447D01*
X013328Y015447D01*
X013328Y015287D01*
X013212Y015327D02*
X013172Y015287D01*
X013092Y015287D01*
X013052Y015327D01*
X013132Y015407D02*
X013172Y015407D01*
X013212Y015367D01*
X013212Y015327D01*
X013172Y015407D02*
X013212Y015447D01*
X013212Y015487D01*
X013172Y015527D01*
X013092Y015527D01*
X013052Y015487D01*
X013437Y015646D02*
X013437Y016150D01*
X014422Y016150D01*
X014422Y015646D01*
X013437Y015646D01*
X013437Y016434D02*
X013437Y016937D01*
X014422Y016937D01*
X014422Y016434D01*
X013437Y016434D01*
X013635Y017057D02*
X013795Y017057D01*
X013715Y017057D02*
X013715Y017297D01*
X013635Y017217D01*
X013911Y017257D02*
X013951Y017297D01*
X014031Y017297D01*
X014071Y017257D01*
X013911Y017097D01*
X013951Y017057D01*
X014031Y017057D01*
X014071Y017097D01*
X014071Y017257D01*
X014187Y017297D02*
X014187Y017057D01*
X014187Y017137D02*
X014307Y017057D01*
X014187Y017137D02*
X014307Y017217D01*
X013911Y017257D02*
X013911Y017097D01*
X014950Y015577D02*
X014830Y015457D01*
X014990Y015457D01*
X015106Y015417D02*
X015226Y015337D01*
X015336Y015337D02*
X015336Y015377D01*
X015496Y015537D01*
X015496Y015577D01*
X015336Y015577D01*
X015226Y015497D02*
X015106Y015417D01*
X015106Y015337D02*
X015106Y015577D01*
X014950Y015577D02*
X014950Y015337D01*
X016719Y014759D02*
X016759Y014799D01*
X016839Y014799D01*
X016879Y014759D01*
X016879Y014719D01*
X016719Y014559D01*
X016879Y014559D01*
X016995Y014559D02*
X017155Y014719D01*
X017155Y014759D01*
X017115Y014799D01*
X017035Y014799D01*
X016995Y014759D01*
X016995Y014559D02*
X017155Y014559D01*
X017271Y014599D02*
X017311Y014559D01*
X017431Y014559D01*
X017431Y014719D01*
X017271Y014719D02*
X017271Y014599D01*
X017479Y014461D02*
X017479Y012611D01*
X016679Y012611D01*
X016679Y014461D01*
X017479Y014461D01*
X017860Y014461D02*
X018660Y014461D01*
X018660Y012611D01*
X017860Y012611D01*
X017860Y014461D01*
X017869Y014640D02*
X018029Y014800D01*
X018029Y014840D01*
X017989Y014880D01*
X017909Y014880D01*
X017869Y014840D01*
X017869Y014640D02*
X018029Y014640D01*
X018145Y014640D02*
X018305Y014800D01*
X018305Y014840D01*
X018265Y014880D01*
X018185Y014880D01*
X018145Y014840D01*
X018145Y014640D02*
X018305Y014640D01*
X018421Y014680D02*
X018461Y014640D01*
X018581Y014640D01*
X018581Y014800D01*
X018421Y014800D02*
X018421Y014680D01*
X018845Y015031D02*
X019200Y015385D01*
X021089Y015385D01*
X021444Y015031D01*
X021444Y012787D01*
X018845Y012787D01*
X018845Y015031D01*
X018260Y015737D02*
X018300Y015777D01*
X018300Y015937D01*
X018260Y015977D01*
X018180Y015977D01*
X018140Y015937D01*
X018140Y015897D01*
X018180Y015857D01*
X018300Y015857D01*
X018260Y015737D02*
X018180Y015737D01*
X018140Y015777D01*
X018030Y015737D02*
X017910Y015817D01*
X018030Y015897D01*
X017910Y015977D02*
X017910Y015737D01*
X017754Y015737D02*
X017754Y015977D01*
X017634Y015857D01*
X017794Y015857D01*
X017518Y015897D02*
X017518Y015937D01*
X017478Y015977D01*
X017398Y015977D01*
X017358Y015937D01*
X017518Y015897D02*
X017358Y015737D01*
X017518Y015737D01*
X019782Y017073D02*
X019782Y017576D01*
X020767Y017576D01*
X020767Y017073D01*
X019782Y017073D01*
X020897Y017263D02*
X021057Y017263D01*
X020977Y017263D02*
X020977Y017504D01*
X020897Y017424D01*
X021173Y017464D02*
X021213Y017504D01*
X021293Y017504D01*
X021333Y017464D01*
X021173Y017303D01*
X021213Y017263D01*
X021293Y017263D01*
X021333Y017303D01*
X021333Y017464D01*
X021449Y017464D02*
X021489Y017504D01*
X021570Y017504D01*
X021610Y017464D01*
X021449Y017303D01*
X021489Y017263D01*
X021570Y017263D01*
X021610Y017303D01*
X021610Y017464D01*
X021726Y017424D02*
X021846Y017424D01*
X021886Y017384D01*
X021886Y017263D01*
X021726Y017263D02*
X021726Y017424D01*
X021449Y017464D02*
X021449Y017303D01*
X021173Y017303D02*
X021173Y017464D01*
X023285Y018613D02*
X017773Y018613D01*
X017773Y024125D01*
X022989Y024125D01*
X023285Y023830D01*
X023285Y018613D01*
X024097Y018624D02*
X024177Y018704D01*
X024177Y018463D01*
X024097Y018463D02*
X024257Y018463D01*
X024373Y018503D02*
X024533Y018664D01*
X024533Y018503D01*
X024493Y018463D01*
X024413Y018463D01*
X024373Y018503D01*
X024373Y018664D01*
X024413Y018704D01*
X024493Y018704D01*
X024533Y018664D01*
X024649Y018664D02*
X024689Y018704D01*
X024770Y018704D01*
X024810Y018664D01*
X024649Y018503D01*
X024689Y018463D01*
X024770Y018463D01*
X024810Y018503D01*
X024810Y018664D01*
X024926Y018624D02*
X024926Y018463D01*
X025086Y018463D02*
X025086Y018584D01*
X025046Y018624D01*
X024926Y018624D01*
X024649Y018664D02*
X024649Y018503D01*
X025232Y018473D02*
X025232Y018976D01*
X026217Y018976D01*
X026217Y018473D01*
X025232Y018473D01*
X025097Y019286D02*
X024936Y019446D01*
X024936Y019366D02*
X025097Y019366D01*
X025097Y019446D02*
X024936Y019286D01*
X025017Y019286D02*
X025017Y019446D01*
X025232Y019473D02*
X025232Y019976D01*
X026217Y019976D01*
X026217Y019473D01*
X025232Y019473D01*
X025097Y020286D02*
X024936Y020446D01*
X024936Y020366D02*
X025097Y020366D01*
X025097Y020446D02*
X024936Y020286D01*
X025017Y020286D02*
X025017Y020446D01*
X025232Y020373D02*
X025232Y020876D01*
X026217Y020876D01*
X026217Y020373D01*
X025232Y020373D01*
X025232Y021223D02*
X025232Y021726D01*
X026217Y021726D01*
X026217Y021223D01*
X025232Y021223D01*
X024686Y021197D02*
X024686Y021357D01*
X024686Y021277D02*
X024446Y021277D01*
X024526Y021197D01*
X024486Y021473D02*
X024446Y021513D01*
X024446Y021593D01*
X024486Y021633D01*
X024646Y021473D01*
X024686Y021513D01*
X024686Y021593D01*
X024646Y021633D01*
X024486Y021633D01*
X024486Y021749D02*
X024446Y021789D01*
X024446Y021870D01*
X024486Y021910D01*
X024646Y021749D01*
X024686Y021789D01*
X024686Y021870D01*
X024646Y021910D01*
X024486Y021910D01*
X024526Y022026D02*
X024526Y022146D01*
X024566Y022186D01*
X024686Y022186D01*
X024686Y022026D02*
X024526Y022026D01*
X024486Y021749D02*
X024646Y021749D01*
X024646Y021473D02*
X024486Y021473D01*
X025232Y022223D02*
X025232Y022726D01*
X026217Y022726D01*
X026217Y022223D01*
X025232Y022223D01*
X024826Y022382D02*
X024323Y022382D01*
X024323Y023367D01*
X024826Y023367D01*
X024826Y022382D01*
X025243Y023408D02*
X025163Y023488D01*
X025403Y023488D01*
X025403Y023408D02*
X025403Y023568D01*
X025363Y023684D02*
X025203Y023844D01*
X025363Y023844D01*
X025403Y023804D01*
X025403Y023724D01*
X025363Y023684D01*
X025203Y023684D01*
X025163Y023724D01*
X025163Y023804D01*
X025203Y023844D01*
X025203Y023960D02*
X025163Y024000D01*
X025163Y024080D01*
X025203Y024120D01*
X025363Y023960D01*
X025403Y024000D01*
X025403Y024080D01*
X025363Y024120D01*
X025203Y024120D01*
X025243Y024236D02*
X025243Y024357D01*
X025283Y024397D01*
X025403Y024397D01*
X025403Y024236D02*
X025243Y024236D01*
X025203Y023960D02*
X025363Y023960D01*
X024826Y023482D02*
X024323Y023482D01*
X024323Y024467D01*
X024826Y024467D01*
X024826Y023482D01*
X025986Y023096D02*
X026147Y022936D01*
X026147Y023016D02*
X025986Y023016D01*
X025986Y022936D02*
X026147Y023096D01*
X026067Y023096D02*
X026067Y022936D01*
X026077Y022014D02*
X026077Y021853D01*
X026157Y021853D02*
X025997Y022014D01*
X025997Y021934D02*
X026157Y021934D01*
X026157Y022014D02*
X025997Y021853D01*
X025263Y024760D02*
X025103Y024760D01*
X025063Y024800D01*
X025063Y024880D01*
X025103Y024920D01*
X025263Y024760D01*
X025303Y024800D01*
X025303Y024880D01*
X025263Y024920D01*
X025103Y024920D01*
X025063Y025036D02*
X025063Y025157D01*
X025103Y025197D01*
X025183Y025197D01*
X025223Y025157D01*
X025223Y025036D01*
X025303Y025036D02*
X025063Y025036D01*
X025223Y025117D02*
X025303Y025197D01*
X024826Y024732D02*
X024826Y025717D01*
X024323Y025717D01*
X024323Y024732D01*
X024826Y024732D01*
X023293Y024231D02*
X023295Y024250D01*
X023300Y024269D01*
X023310Y024285D01*
X023322Y024300D01*
X023337Y024312D01*
X023353Y024322D01*
X023372Y024327D01*
X023391Y024329D01*
X023410Y024327D01*
X023429Y024322D01*
X023445Y024312D01*
X023460Y024300D01*
X023472Y024285D01*
X023482Y024269D01*
X023487Y024250D01*
X023489Y024231D01*
X023487Y024212D01*
X023482Y024193D01*
X023472Y024177D01*
X023460Y024162D01*
X023445Y024150D01*
X023429Y024140D01*
X023410Y024135D01*
X023391Y024133D01*
X023372Y024135D01*
X023353Y024140D01*
X023337Y024150D01*
X023322Y024162D01*
X023310Y024177D01*
X023300Y024193D01*
X023295Y024212D01*
X023293Y024231D01*
X022747Y025146D02*
X022747Y025266D01*
X022707Y025306D01*
X022586Y025306D01*
X022586Y025146D01*
X022470Y025186D02*
X022430Y025146D01*
X022350Y025146D01*
X022310Y025186D01*
X022470Y025346D01*
X022470Y025186D01*
X022310Y025186D02*
X022310Y025346D01*
X022350Y025386D01*
X022430Y025386D01*
X022470Y025346D01*
X022194Y025346D02*
X022034Y025186D01*
X022074Y025146D01*
X022154Y025146D01*
X022194Y025186D01*
X022194Y025346D01*
X022154Y025386D01*
X022074Y025386D01*
X022034Y025346D01*
X022034Y025186D01*
X021918Y025146D02*
X021758Y025146D01*
X021838Y025146D02*
X021838Y025386D01*
X021758Y025306D01*
X021567Y025526D02*
X021567Y025023D01*
X020582Y025023D01*
X020582Y025526D01*
X021567Y025526D01*
X023255Y027516D02*
X023255Y027637D01*
X023295Y027677D01*
X023335Y027677D01*
X023375Y027637D01*
X023375Y027516D01*
X023495Y027516D02*
X023255Y027516D01*
X023375Y027637D02*
X023415Y027677D01*
X023455Y027677D01*
X023495Y027637D01*
X023495Y027516D01*
X023495Y027793D02*
X023255Y027793D01*
X023255Y027913D01*
X023295Y027953D01*
X023455Y027953D01*
X023495Y027913D01*
X023495Y027793D01*
X023455Y028069D02*
X023375Y028069D01*
X023375Y028189D01*
X023415Y028229D01*
X023455Y028229D01*
X023495Y028189D01*
X023495Y028109D01*
X023455Y028069D01*
X023375Y028069D02*
X023295Y028149D01*
X023255Y028229D01*
X023295Y028345D02*
X023255Y028385D01*
X023255Y028465D01*
X023295Y028505D01*
X023335Y028505D01*
X023495Y028345D01*
X023495Y028505D01*
X023495Y028621D02*
X023335Y028782D01*
X023295Y028782D01*
X023255Y028742D01*
X023255Y028661D01*
X023295Y028621D01*
X023495Y028621D02*
X023495Y028782D01*
X023495Y028898D02*
X023495Y029058D01*
X023495Y028978D02*
X023255Y028978D01*
X023335Y028898D01*
X023375Y029174D02*
X023375Y029254D01*
X023255Y029174D02*
X023255Y029334D01*
X023255Y029174D02*
X023495Y029174D01*
X023375Y029450D02*
X023375Y029610D01*
X023375Y029726D02*
X023375Y029806D01*
X023255Y029726D02*
X023495Y029726D01*
X023495Y029886D01*
X023495Y030003D02*
X023335Y030163D01*
X023295Y030163D01*
X023255Y030123D01*
X023255Y030043D01*
X023295Y030003D01*
X023255Y029886D02*
X023255Y029726D01*
X023495Y030003D02*
X023495Y030163D01*
X024601Y029669D02*
X026097Y029669D01*
X027143Y029307D02*
X027183Y029347D01*
X027303Y029347D01*
X027423Y029267D02*
X027926Y029267D01*
X027926Y028282D01*
X027423Y028282D01*
X027423Y029267D01*
X027303Y029186D02*
X027143Y029186D01*
X027143Y029307D01*
X027103Y029070D02*
X027263Y028910D01*
X027303Y028950D01*
X027303Y029030D01*
X027263Y029070D01*
X027103Y029070D01*
X027063Y029030D01*
X027063Y028950D01*
X027103Y028910D01*
X027263Y028910D01*
X027263Y028794D02*
X027303Y028754D01*
X027303Y028674D01*
X027263Y028634D01*
X027103Y028794D01*
X027263Y028794D01*
X027103Y028794D02*
X027063Y028754D01*
X027063Y028674D01*
X027103Y028634D01*
X027263Y028634D01*
X027303Y028518D02*
X027303Y028358D01*
X027303Y028438D02*
X027063Y028438D01*
X027143Y028358D01*
X026097Y027780D02*
X025743Y027780D01*
X024955Y027780D01*
X024601Y027780D01*
X024955Y027780D02*
X024957Y027819D01*
X024963Y027857D01*
X024972Y027894D01*
X024985Y027931D01*
X025002Y027966D01*
X025021Y027999D01*
X025044Y028030D01*
X025070Y028059D01*
X025099Y028085D01*
X025130Y028108D01*
X025163Y028127D01*
X025198Y028144D01*
X025235Y028157D01*
X025272Y028166D01*
X025310Y028172D01*
X025349Y028174D01*
X025388Y028172D01*
X025426Y028166D01*
X025463Y028157D01*
X025500Y028144D01*
X025535Y028127D01*
X025568Y028108D01*
X025599Y028085D01*
X025628Y028059D01*
X025654Y028030D01*
X025677Y027999D01*
X025696Y027966D01*
X025713Y027931D01*
X025726Y027894D01*
X025735Y027857D01*
X025741Y027819D01*
X025743Y027780D01*
X029656Y026473D02*
X030656Y026473D01*
X030656Y009473D01*
X030656Y008473D01*
X030906Y008973D01*
X030656Y009473D01*
X030656Y008473D02*
X029656Y008473D01*
X029656Y026473D01*
X022538Y021599D02*
X022538Y021399D01*
X022498Y021359D01*
X022418Y021359D01*
X022378Y021399D01*
X022378Y021599D01*
X022262Y021519D02*
X022262Y021359D01*
X022262Y021479D02*
X022101Y021479D01*
X022101Y021519D02*
X022181Y021599D01*
X022262Y021519D01*
X022101Y021519D02*
X022101Y021359D01*
X021985Y021399D02*
X021985Y021439D01*
X021945Y021479D01*
X021825Y021479D01*
X021825Y021399D01*
X021865Y021359D01*
X021945Y021359D01*
X021985Y021399D01*
X021905Y021559D02*
X021825Y021479D01*
X021905Y021559D02*
X021985Y021599D01*
X021629Y021599D02*
X021629Y021359D01*
X021549Y021359D02*
X021709Y021359D01*
X021549Y021519D02*
X021629Y021599D01*
X021433Y021479D02*
X021273Y021479D01*
X021157Y021559D02*
X020996Y021399D01*
X021036Y021359D01*
X021117Y021359D01*
X021157Y021399D01*
X021157Y021559D01*
X021117Y021599D01*
X021036Y021599D01*
X020996Y021559D01*
X020996Y021399D01*
X020880Y021399D02*
X020880Y021439D01*
X020840Y021479D01*
X020720Y021479D01*
X020720Y021399D01*
X020760Y021359D01*
X020840Y021359D01*
X020880Y021399D01*
X020800Y021559D02*
X020720Y021479D01*
X020800Y021559D02*
X020880Y021599D01*
X020604Y021599D02*
X020444Y021599D01*
X020444Y021479D01*
X020524Y021519D01*
X020564Y021519D01*
X020604Y021479D01*
X020604Y021399D01*
X020564Y021359D01*
X020484Y021359D01*
X020444Y021399D01*
X020328Y021359D02*
X020168Y021359D01*
X020328Y021519D01*
X020328Y021559D01*
X020288Y021599D01*
X020208Y021599D01*
X020168Y021559D01*
X020052Y021519D02*
X020052Y021359D01*
X020052Y021479D02*
X019891Y021479D01*
X019891Y021519D02*
X019972Y021599D01*
X020052Y021519D01*
X019891Y021519D02*
X019891Y021359D01*
X019775Y021399D02*
X019775Y021479D01*
X019695Y021479D01*
X019615Y021559D02*
X019615Y021399D01*
X019655Y021359D01*
X019735Y021359D01*
X019775Y021399D01*
X019775Y021559D02*
X019735Y021599D01*
X019655Y021599D01*
X019615Y021559D01*
X019499Y021599D02*
X019339Y021599D01*
X019339Y021359D01*
X019499Y021359D01*
X019419Y021479D02*
X019339Y021479D01*
X019223Y021599D02*
X019223Y021359D01*
X019063Y021359D02*
X019063Y021599D01*
X019143Y021519D01*
X019223Y021599D01*
X018947Y021599D02*
X018787Y021599D01*
X018867Y021599D02*
X018867Y021359D01*
X018670Y021359D02*
X018670Y021519D01*
X018590Y021599D01*
X018510Y021519D01*
X018510Y021359D01*
X018510Y021479D02*
X018670Y021479D01*
X017022Y022435D02*
X017022Y022595D01*
X017022Y022515D02*
X016782Y022515D01*
X016862Y022435D01*
X016822Y022712D02*
X016782Y022752D01*
X016782Y022832D01*
X016822Y022872D01*
X016982Y022712D01*
X017022Y022752D01*
X017022Y022832D01*
X016982Y022872D01*
X016822Y022872D01*
X016822Y022988D02*
X016782Y023028D01*
X016782Y023108D01*
X016822Y023148D01*
X016982Y022988D01*
X017022Y023028D01*
X017022Y023108D01*
X016982Y023148D01*
X016822Y023148D01*
X016862Y023264D02*
X016862Y023384D01*
X016902Y023424D01*
X017022Y023424D01*
X017022Y023264D02*
X016862Y023264D01*
X016822Y022988D02*
X016982Y022988D01*
X016982Y022712D02*
X016822Y022712D01*
X016545Y022410D02*
X016042Y022410D01*
X016042Y023395D01*
X016545Y023395D01*
X016545Y022410D01*
X014451Y023476D02*
X014371Y023396D01*
X011853Y025380D02*
X011853Y025540D01*
X011853Y025460D02*
X011613Y025460D01*
X011693Y025380D01*
X011476Y025232D02*
X010973Y025232D01*
X010973Y026217D01*
X011476Y026217D01*
X011476Y025232D01*
X011653Y025656D02*
X011613Y025696D01*
X011613Y025776D01*
X011653Y025816D01*
X011813Y025656D01*
X011853Y025696D01*
X011853Y025776D01*
X011813Y025816D01*
X011653Y025816D01*
X011613Y025932D02*
X011853Y025932D01*
X011773Y025932D02*
X011693Y026053D01*
X011773Y025932D02*
X011853Y026053D01*
X011813Y025656D02*
X011653Y025656D01*
X011477Y023854D02*
X011397Y023774D01*
X011513Y021804D02*
X011473Y021764D01*
X011473Y021603D01*
X011357Y021563D02*
X011197Y021563D01*
X011277Y021563D02*
X011277Y021804D01*
X011197Y021724D01*
X011175Y019975D02*
X011500Y019975D01*
X011175Y019975D02*
X011175Y019600D01*
X011575Y019450D02*
X011875Y019450D01*
X012275Y019600D02*
X012275Y019975D01*
X011950Y019975D01*
X008444Y015975D02*
X008364Y015975D01*
X008324Y015935D01*
X008444Y015975D02*
X008484Y015935D01*
X008484Y015895D01*
X008324Y015735D01*
X008484Y015735D01*
X008208Y015855D02*
X008048Y015855D01*
X008168Y015975D01*
X008168Y015735D01*
X007932Y015855D02*
X007772Y015855D01*
X007656Y015735D02*
X007656Y015975D01*
X007496Y015975D02*
X007656Y015735D01*
X007496Y015735D02*
X007496Y015975D01*
X007380Y015935D02*
X007380Y015855D01*
X007339Y015815D01*
X007219Y015815D01*
X007219Y015735D02*
X007219Y015975D01*
X007339Y015975D01*
X007380Y015935D01*
X007299Y015815D02*
X007380Y015735D01*
X011223Y014367D02*
X011223Y013382D01*
X011726Y013382D01*
X011726Y014367D01*
X011223Y014367D01*
X012063Y013980D02*
X012063Y013900D01*
X012103Y013860D01*
X012263Y013860D01*
X012103Y014020D01*
X012263Y014020D01*
X012303Y013980D01*
X012303Y013900D01*
X012263Y013860D01*
X012263Y013744D02*
X012303Y013704D01*
X012303Y013624D01*
X012263Y013584D01*
X012103Y013744D01*
X012263Y013744D01*
X012103Y013744D02*
X012063Y013704D01*
X012063Y013624D01*
X012103Y013584D01*
X012263Y013584D01*
X012303Y013468D02*
X012303Y013308D01*
X012303Y013388D02*
X012063Y013388D01*
X012143Y013308D01*
X012063Y013980D02*
X012103Y014020D01*
X012143Y014136D02*
X012143Y014257D01*
X012183Y014297D01*
X012303Y014297D01*
X012303Y014136D02*
X012143Y014136D01*
X013124Y013293D02*
X013124Y013053D01*
X013284Y013053D02*
X013124Y013293D01*
X013284Y013293D02*
X013284Y013053D01*
X013400Y013093D02*
X013441Y013053D01*
X013521Y013053D01*
X013561Y013093D01*
X013677Y013053D02*
X013677Y013293D01*
X013797Y013293D01*
X013837Y013253D01*
X013837Y013173D01*
X013797Y013133D01*
X013677Y013133D01*
X013561Y013253D02*
X013521Y013293D01*
X013441Y013293D01*
X013400Y013253D01*
X013400Y013093D01*
X013953Y013093D02*
X013993Y013053D01*
X014073Y013053D01*
X014113Y013093D01*
X014113Y013133D01*
X014073Y013173D01*
X014033Y013173D01*
X014073Y013173D02*
X014113Y013213D01*
X014113Y013253D01*
X014073Y013293D01*
X013993Y013293D01*
X013953Y013253D01*
X013961Y013378D02*
X014315Y013378D01*
X015103Y013378D01*
X015457Y013378D01*
X015454Y013293D02*
X015334Y013293D01*
X015334Y013053D01*
X015454Y013053D01*
X015494Y013093D01*
X015494Y013253D01*
X015454Y013293D01*
X015610Y013293D02*
X015730Y013293D01*
X015771Y013253D01*
X015771Y013173D01*
X015730Y013133D01*
X015610Y013133D01*
X015610Y013053D02*
X015610Y013293D01*
X015690Y013133D02*
X015771Y013053D01*
X015887Y013053D02*
X016047Y013213D01*
X016047Y013253D01*
X016007Y013293D01*
X015927Y013293D01*
X015887Y013253D01*
X015887Y013053D02*
X016047Y013053D01*
X016163Y013093D02*
X016203Y013053D01*
X016283Y013053D01*
X016323Y013093D01*
X016323Y013173D01*
X016243Y013173D01*
X016163Y013253D02*
X016163Y013093D01*
X016163Y013253D02*
X016203Y013293D01*
X016283Y013293D01*
X016323Y013253D01*
X016174Y012867D02*
X012867Y012867D01*
X012867Y009481D01*
X016174Y009481D01*
X016174Y012867D01*
X016679Y012099D02*
X017479Y012099D01*
X017479Y010249D01*
X016679Y010249D01*
X016679Y012099D01*
X017860Y012099D02*
X018660Y012099D01*
X018660Y010249D01*
X017860Y010249D01*
X017860Y012099D01*
X018856Y011925D02*
X021454Y011925D01*
X021454Y009681D01*
X021100Y009327D01*
X019210Y009327D01*
X018856Y009681D01*
X018856Y011925D01*
X018325Y010110D02*
X018245Y010110D01*
X018205Y010070D01*
X018089Y010070D02*
X018049Y010110D01*
X017969Y010110D01*
X017929Y010070D01*
X018089Y010070D02*
X018089Y010030D01*
X017929Y009869D01*
X018089Y009869D01*
X018205Y009869D02*
X018365Y010030D01*
X018365Y010070D01*
X018325Y010110D01*
X018481Y010030D02*
X018481Y009909D01*
X018521Y009869D01*
X018641Y009869D01*
X018641Y010030D01*
X018365Y009869D02*
X018205Y009869D01*
X017391Y009850D02*
X017391Y010011D01*
X017231Y010011D02*
X017231Y009891D01*
X017271Y009850D01*
X017391Y009850D01*
X017115Y009850D02*
X016955Y009850D01*
X017115Y010011D01*
X017115Y010051D01*
X017075Y010091D01*
X016995Y010091D01*
X016955Y010051D01*
X016839Y010051D02*
X016799Y010091D01*
X016719Y010091D01*
X016679Y010051D01*
X016839Y010051D02*
X016839Y010011D01*
X016679Y009850D01*
X016839Y009850D01*
X019167Y008887D02*
X019247Y008967D01*
X019247Y008727D01*
X019167Y008727D02*
X019327Y008727D01*
X019443Y008767D02*
X019483Y008727D01*
X019563Y008727D01*
X019603Y008767D01*
X019603Y008927D01*
X019443Y008767D01*
X019443Y008927D01*
X019483Y008967D01*
X019563Y008967D01*
X019603Y008927D01*
X019719Y008927D02*
X019759Y008967D01*
X019839Y008967D01*
X019879Y008927D01*
X019719Y008767D01*
X019759Y008727D01*
X019839Y008727D01*
X019879Y008767D01*
X019879Y008927D01*
X019995Y008887D02*
X019995Y008767D01*
X020035Y008727D01*
X020155Y008727D01*
X020155Y008887D01*
X020272Y008727D02*
X020432Y008967D01*
X020548Y008927D02*
X020588Y008967D01*
X020668Y008967D01*
X020708Y008927D01*
X020708Y008887D01*
X020548Y008727D01*
X020708Y008727D01*
X020824Y008767D02*
X020864Y008727D01*
X020944Y008727D01*
X020984Y008767D01*
X020984Y008847D01*
X020944Y008887D01*
X020904Y008887D01*
X020824Y008847D01*
X020824Y008967D01*
X020984Y008967D01*
X021100Y008967D02*
X021100Y008807D01*
X021180Y008727D01*
X021260Y008807D01*
X021260Y008967D01*
X019719Y008927D02*
X019719Y008767D01*
X019803Y007347D02*
X019763Y007307D01*
X019763Y007226D01*
X019803Y007186D01*
X019843Y007070D02*
X020003Y007070D01*
X020003Y006950D01*
X019963Y006910D01*
X019843Y006910D01*
X019843Y006794D02*
X019803Y006794D01*
X019763Y006754D01*
X019763Y006674D01*
X019803Y006634D01*
X019843Y006794D02*
X020003Y006634D01*
X020003Y006794D01*
X020003Y007186D02*
X019843Y007347D01*
X019803Y007347D01*
X020003Y007347D02*
X020003Y007186D01*
X020732Y007076D02*
X020732Y006573D01*
X021717Y006573D01*
X021717Y007076D01*
X020732Y007076D01*
X020867Y007163D02*
X020867Y007404D01*
X020747Y007284D01*
X020907Y007284D01*
X021023Y007203D02*
X021183Y007364D01*
X021183Y007404D01*
X021023Y007404D01*
X021023Y007203D02*
X021023Y007163D01*
X021299Y007203D02*
X021460Y007364D01*
X021460Y007203D01*
X021420Y007163D01*
X021339Y007163D01*
X021299Y007203D01*
X021299Y007364D01*
X021339Y007404D01*
X021420Y007404D01*
X021460Y007364D01*
X021576Y007324D02*
X021696Y007324D01*
X021736Y007284D01*
X021736Y007203D01*
X021696Y007163D01*
X021576Y007163D01*
X021576Y007083D02*
X021576Y007324D01*
X021461Y006365D02*
X020989Y006365D01*
X020989Y005184D01*
X021461Y005184D01*
X021461Y006365D01*
X022223Y006167D02*
X022726Y006167D01*
X022726Y005182D01*
X022223Y005182D01*
X022223Y006167D01*
X022493Y006360D02*
X022413Y006440D01*
X022653Y006440D01*
X022653Y006360D02*
X022653Y006520D01*
X022613Y006636D02*
X022653Y006676D01*
X022653Y006797D01*
X022493Y006797D01*
X022493Y006636D02*
X022613Y006636D01*
X023354Y006613D02*
X023354Y006773D01*
X023474Y006693D02*
X023474Y006613D01*
X023594Y006613D02*
X023354Y006613D01*
X023354Y006416D02*
X023594Y006416D01*
X023594Y006336D02*
X023594Y006497D01*
X023434Y006336D02*
X023354Y006416D01*
X023394Y006220D02*
X023354Y006180D01*
X023354Y006100D01*
X023394Y006060D01*
X023394Y005944D02*
X023354Y005904D01*
X023354Y005824D01*
X023394Y005784D01*
X023354Y005668D02*
X023394Y005588D01*
X023474Y005508D01*
X023474Y005628D01*
X023514Y005668D01*
X023554Y005668D01*
X023594Y005628D01*
X023594Y005548D01*
X023554Y005508D01*
X023474Y005508D01*
X023554Y005392D02*
X023394Y005392D01*
X023354Y005352D01*
X023354Y005231D01*
X023594Y005231D01*
X023594Y005352D01*
X023554Y005392D01*
X023554Y005115D02*
X023594Y005075D01*
X023594Y004955D01*
X023354Y004955D01*
X023354Y005075D01*
X023394Y005115D01*
X023434Y005115D01*
X023474Y005075D01*
X023474Y004955D01*
X023474Y005075D02*
X023514Y005115D01*
X023554Y005115D01*
X023551Y004845D02*
X023391Y004845D01*
X023391Y004725D01*
X023471Y004765D01*
X023511Y004765D01*
X023551Y004725D01*
X023551Y004645D01*
X023511Y004605D01*
X023431Y004605D01*
X023391Y004645D01*
X023275Y004605D02*
X023275Y004845D01*
X023194Y004765D01*
X023114Y004845D01*
X023114Y004605D01*
X022918Y004605D02*
X022918Y004725D01*
X022998Y004805D01*
X022998Y004845D01*
X022918Y004725D02*
X022838Y004805D01*
X022838Y004845D01*
X022722Y004805D02*
X022562Y004645D01*
X022602Y004605D01*
X022682Y004605D01*
X022722Y004645D01*
X022722Y004805D01*
X022682Y004845D01*
X022602Y004845D01*
X022562Y004805D01*
X022562Y004645D01*
X022464Y004645D02*
X022464Y004605D01*
X022424Y004605D01*
X022424Y004645D01*
X022464Y004645D01*
X022308Y004645D02*
X022268Y004605D01*
X022188Y004605D01*
X022148Y004645D01*
X022148Y004725D02*
X022228Y004765D01*
X022268Y004765D01*
X022308Y004725D01*
X022308Y004645D01*
X022148Y004725D02*
X022148Y004845D01*
X022308Y004845D01*
X022032Y004725D02*
X021871Y004725D01*
X021755Y004725D02*
X021755Y004645D01*
X021715Y004605D01*
X021635Y004605D01*
X021595Y004645D01*
X021595Y004725D02*
X021675Y004765D01*
X021715Y004765D01*
X021755Y004725D01*
X021755Y004845D02*
X021595Y004845D01*
X021595Y004725D01*
X021479Y004805D02*
X021319Y004645D01*
X021359Y004605D01*
X021439Y004605D01*
X021479Y004645D01*
X021479Y004805D01*
X021439Y004845D01*
X021359Y004845D01*
X021319Y004805D01*
X021319Y004645D01*
X021203Y004605D02*
X021043Y004605D01*
X021203Y004765D01*
X021203Y004805D01*
X021163Y004845D01*
X021083Y004845D01*
X021043Y004805D01*
X020927Y004845D02*
X020766Y004845D01*
X020766Y004725D01*
X020846Y004765D01*
X020887Y004765D01*
X020927Y004725D01*
X020927Y004645D01*
X020887Y004605D01*
X020806Y004605D01*
X020766Y004645D01*
X020650Y004645D02*
X020610Y004605D01*
X020530Y004605D01*
X020490Y004645D01*
X020490Y004805D01*
X020530Y004845D01*
X020610Y004845D01*
X020650Y004805D01*
X020386Y004845D02*
X020306Y004845D01*
X020346Y004845D02*
X020346Y004605D01*
X020306Y004605D02*
X020386Y004605D01*
X020190Y004605D02*
X020190Y004845D01*
X020110Y004765D01*
X020030Y004845D01*
X020030Y004605D01*
X019601Y004795D02*
X019561Y004755D01*
X019481Y004755D01*
X019441Y004795D01*
X019441Y004875D02*
X019521Y004915D01*
X019561Y004915D01*
X019601Y004875D01*
X019601Y004795D01*
X019441Y004875D02*
X019441Y004995D01*
X019601Y004995D01*
X019673Y005182D02*
X019673Y006167D01*
X020176Y006167D01*
X020176Y005182D01*
X019673Y005182D01*
X019325Y004995D02*
X019325Y004755D01*
X019164Y004755D02*
X019164Y004995D01*
X019244Y004915D01*
X019325Y004995D01*
X019226Y005182D02*
X018723Y005182D01*
X018723Y006167D01*
X019226Y006167D01*
X019226Y005182D01*
X019048Y004995D02*
X019048Y004955D01*
X018968Y004875D01*
X018968Y004755D01*
X018968Y004875D02*
X018888Y004955D01*
X018888Y004995D01*
X018772Y004955D02*
X018772Y004915D01*
X018732Y004875D01*
X018772Y004835D01*
X018772Y004795D01*
X018732Y004755D01*
X018652Y004755D01*
X018612Y004795D01*
X018514Y004795D02*
X018514Y004755D01*
X018474Y004755D01*
X018474Y004795D01*
X018514Y004795D01*
X018358Y004795D02*
X018318Y004755D01*
X018238Y004755D01*
X018198Y004795D01*
X018278Y004875D02*
X018318Y004875D01*
X018358Y004835D01*
X018358Y004795D01*
X018318Y004875D02*
X018358Y004915D01*
X018358Y004955D01*
X018318Y004995D01*
X018238Y004995D01*
X018198Y004955D01*
X018082Y004875D02*
X017921Y004875D01*
X017805Y004875D02*
X017765Y004915D01*
X017725Y004915D01*
X017645Y004875D01*
X017645Y004995D01*
X017805Y004995D01*
X017805Y004875D02*
X017805Y004795D01*
X017765Y004755D01*
X017685Y004755D01*
X017645Y004795D01*
X017529Y004795D02*
X017489Y004755D01*
X017409Y004755D01*
X017369Y004795D01*
X017529Y004955D01*
X017529Y004795D01*
X017529Y004955D02*
X017489Y004995D01*
X017409Y004995D01*
X017369Y004955D01*
X017369Y004795D01*
X017253Y004755D02*
X017093Y004755D01*
X017253Y004915D01*
X017253Y004955D01*
X017213Y004995D01*
X017133Y004995D01*
X017093Y004955D01*
X016977Y004995D02*
X016816Y004995D01*
X016816Y004875D01*
X016896Y004915D01*
X016937Y004915D01*
X016977Y004875D01*
X016977Y004795D01*
X016937Y004755D01*
X016856Y004755D01*
X016816Y004795D01*
X016700Y004795D02*
X016660Y004755D01*
X016580Y004755D01*
X016540Y004795D01*
X016540Y004955D01*
X016580Y004995D01*
X016660Y004995D01*
X016700Y004955D01*
X016726Y005182D02*
X016223Y005182D01*
X016223Y006167D01*
X016726Y006167D01*
X016726Y005182D01*
X016436Y004995D02*
X016356Y004995D01*
X016396Y004995D02*
X016396Y004755D01*
X016356Y004755D02*
X016436Y004755D01*
X016240Y004755D02*
X016240Y004995D01*
X016160Y004915D01*
X016080Y004995D01*
X016080Y004755D01*
X015521Y004825D02*
X015481Y004785D01*
X015401Y004785D01*
X015361Y004825D01*
X015361Y004905D02*
X015441Y004945D01*
X015481Y004945D01*
X015521Y004905D01*
X015521Y004825D01*
X015361Y004905D02*
X015361Y005025D01*
X015521Y005025D01*
X015576Y005182D02*
X015073Y005182D01*
X015073Y006167D01*
X015576Y006167D01*
X015576Y005182D01*
X015793Y005410D02*
X015713Y005490D01*
X015953Y005490D01*
X015953Y005410D02*
X015953Y005570D01*
X015913Y005686D02*
X015953Y005726D01*
X015953Y005847D01*
X015793Y005847D01*
X015793Y005686D02*
X015913Y005686D01*
X015245Y005025D02*
X015245Y004785D01*
X015084Y004785D02*
X015084Y005025D01*
X015164Y004945D01*
X015245Y005025D01*
X014968Y005025D02*
X014968Y004985D01*
X014888Y004905D01*
X014888Y004785D01*
X014888Y004905D02*
X014808Y004985D01*
X014808Y005025D01*
X014692Y005025D02*
X014612Y004985D01*
X014532Y004905D01*
X014652Y004905D01*
X014692Y004865D01*
X014692Y004825D01*
X014652Y004785D01*
X014572Y004785D01*
X014532Y004825D01*
X014532Y004905D01*
X014434Y004825D02*
X014434Y004785D01*
X014394Y004785D01*
X014394Y004825D01*
X014434Y004825D01*
X014278Y004825D02*
X014238Y004785D01*
X014158Y004785D01*
X014118Y004825D01*
X014198Y004905D02*
X014238Y004905D01*
X014278Y004865D01*
X014278Y004825D01*
X014238Y004905D02*
X014278Y004945D01*
X014278Y004985D01*
X014238Y005025D01*
X014158Y005025D01*
X014118Y004985D01*
X014002Y004905D02*
X013841Y004905D01*
X013725Y004905D02*
X013725Y004825D01*
X013685Y004785D01*
X013605Y004785D01*
X013565Y004825D01*
X013565Y004905D02*
X013645Y004945D01*
X013685Y004945D01*
X013725Y004905D01*
X013725Y005025D02*
X013565Y005025D01*
X013565Y004905D01*
X013449Y004985D02*
X013289Y004825D01*
X013329Y004785D01*
X013409Y004785D01*
X013449Y004825D01*
X013449Y004985D01*
X013409Y005025D01*
X013329Y005025D01*
X013289Y004985D01*
X013289Y004825D01*
X013173Y004785D02*
X013013Y004785D01*
X013173Y004945D01*
X013173Y004985D01*
X013133Y005025D01*
X013053Y005025D01*
X013013Y004985D01*
X012897Y005025D02*
X012736Y005025D01*
X012736Y004905D01*
X012816Y004945D01*
X012857Y004945D01*
X012897Y004905D01*
X012897Y004825D01*
X012857Y004785D01*
X012776Y004785D01*
X012736Y004825D01*
X012620Y004825D02*
X012580Y004785D01*
X012500Y004785D01*
X012460Y004825D01*
X012460Y004985D01*
X012500Y005025D01*
X012580Y005025D01*
X012620Y004985D01*
X012523Y005232D02*
X012523Y006217D01*
X013026Y006217D01*
X013026Y005232D01*
X012523Y005232D01*
X012356Y005025D02*
X012276Y005025D01*
X012316Y005025D02*
X012316Y004785D01*
X012276Y004785D02*
X012356Y004785D01*
X012160Y004785D02*
X012160Y005025D01*
X012080Y004945D01*
X012000Y005025D01*
X012000Y004785D01*
X013839Y005184D02*
X013839Y006365D01*
X014311Y006365D01*
X014311Y005184D01*
X013839Y005184D01*
X013632Y006623D02*
X013632Y007126D01*
X014617Y007126D01*
X014617Y006623D01*
X013632Y006623D01*
X012936Y006597D02*
X012776Y006757D01*
X012736Y006757D01*
X012696Y006717D01*
X012696Y006637D01*
X012736Y006597D01*
X012936Y006597D02*
X012936Y006757D01*
X012896Y006873D02*
X012936Y006913D01*
X012936Y007033D01*
X012776Y007033D01*
X012736Y007149D02*
X012696Y007189D01*
X012696Y007270D01*
X012736Y007310D01*
X012776Y007310D01*
X012936Y007149D01*
X012936Y007310D01*
X012896Y006873D02*
X012776Y006873D01*
X012317Y007323D02*
X012317Y007826D01*
X011332Y007826D01*
X011332Y007323D01*
X012317Y007323D01*
X011943Y007124D02*
X011823Y007044D01*
X011943Y006963D01*
X011823Y006963D02*
X011823Y007204D01*
X011627Y007204D02*
X011627Y006963D01*
X011547Y006963D02*
X011707Y006963D01*
X011547Y007124D02*
X011627Y007204D01*
X011332Y008223D02*
X011332Y008726D01*
X012317Y008726D01*
X012317Y008223D01*
X011332Y008223D01*
X011597Y008863D02*
X011757Y008863D01*
X011677Y008863D02*
X011677Y009104D01*
X011597Y009024D01*
X011873Y009104D02*
X011873Y008863D01*
X011873Y008944D02*
X011993Y009024D01*
X011873Y008944D02*
X011993Y008863D01*
X012438Y008883D02*
X012478Y008843D01*
X012518Y008843D01*
X012558Y008883D01*
X012558Y008963D01*
X012598Y009003D01*
X012638Y009003D01*
X012678Y008963D01*
X012678Y008883D01*
X012638Y008843D01*
X012438Y008883D02*
X012438Y008963D01*
X012478Y009003D01*
X012438Y009119D02*
X012438Y009239D01*
X012478Y009279D01*
X012558Y009279D01*
X012598Y009239D01*
X012598Y009119D01*
X012678Y009119D02*
X012438Y009119D01*
X012317Y009223D02*
X011332Y009223D01*
X011332Y009726D01*
X012317Y009726D01*
X012317Y009223D01*
X012438Y009395D02*
X012678Y009555D01*
X012438Y009555D01*
X012478Y009671D02*
X012518Y009671D01*
X012558Y009711D01*
X012558Y009791D01*
X012598Y009831D01*
X012638Y009831D01*
X012678Y009791D01*
X012678Y009711D01*
X012638Y009671D01*
X012598Y009671D01*
X012558Y009711D01*
X012558Y009791D02*
X012518Y009831D01*
X012478Y009831D01*
X012438Y009791D01*
X012438Y009711D01*
X012478Y009671D01*
X012478Y009948D02*
X012438Y009988D01*
X012438Y010068D01*
X012478Y010108D01*
X012638Y009948D01*
X012678Y009988D01*
X012678Y010068D01*
X012638Y010108D01*
X012478Y010108D01*
X012558Y010224D02*
X012558Y010384D01*
X012678Y010344D02*
X012438Y010344D01*
X012558Y010224D01*
X012638Y010500D02*
X012478Y010660D01*
X012638Y010660D01*
X012678Y010620D01*
X012678Y010540D01*
X012638Y010500D01*
X012478Y010500D01*
X012438Y010540D01*
X012438Y010620D01*
X012478Y010660D01*
X012558Y010776D02*
X012558Y010936D01*
X012518Y011052D02*
X012438Y011133D01*
X012678Y011133D01*
X012678Y011213D02*
X012678Y011052D01*
X012638Y011329D02*
X012478Y011489D01*
X012638Y011489D01*
X012678Y011449D01*
X012678Y011369D01*
X012638Y011329D01*
X012478Y011329D01*
X012438Y011369D01*
X012438Y011449D01*
X012478Y011489D01*
X012478Y011605D02*
X012438Y011645D01*
X012438Y011725D01*
X012478Y011765D01*
X012638Y011605D01*
X012678Y011645D01*
X012678Y011725D01*
X012638Y011765D01*
X012478Y011765D01*
X012438Y011881D02*
X012518Y011961D01*
X012438Y012041D01*
X012678Y012041D01*
X012678Y011881D02*
X012438Y011881D01*
X012478Y011605D02*
X012638Y011605D01*
X014229Y013053D02*
X014389Y013053D01*
X014309Y013053D02*
X014309Y013293D01*
X014229Y013213D01*
X014505Y013293D02*
X014666Y013293D01*
X014666Y013253D01*
X014505Y013093D01*
X014505Y013053D01*
X014782Y013093D02*
X014942Y013253D01*
X014942Y013093D01*
X014902Y013053D01*
X014822Y013053D01*
X014782Y013093D01*
X014782Y013253D01*
X014822Y013293D01*
X014902Y013293D01*
X014942Y013253D01*
X015058Y013213D02*
X015138Y013293D01*
X015218Y013213D01*
X015218Y013053D01*
X015218Y013173D02*
X015058Y013173D01*
X015058Y013213D02*
X015058Y013053D01*
X015103Y013378D02*
X015101Y013417D01*
X015095Y013455D01*
X015086Y013492D01*
X015073Y013529D01*
X015056Y013564D01*
X015037Y013597D01*
X015014Y013628D01*
X014988Y013657D01*
X014959Y013683D01*
X014928Y013706D01*
X014895Y013725D01*
X014860Y013742D01*
X014823Y013755D01*
X014786Y013764D01*
X014748Y013770D01*
X014709Y013772D01*
X014670Y013770D01*
X014632Y013764D01*
X014595Y013755D01*
X014558Y013742D01*
X014523Y013725D01*
X014490Y013706D01*
X014459Y013683D01*
X014430Y013657D01*
X014404Y013628D01*
X014381Y013597D01*
X014362Y013564D01*
X014345Y013529D01*
X014332Y013492D01*
X014323Y013455D01*
X014317Y013417D01*
X014315Y013378D01*
X012638Y009948D02*
X012478Y009948D01*
X012043Y010024D02*
X011923Y009944D01*
X012043Y009863D01*
X011923Y009863D02*
X011923Y010104D01*
X011727Y010104D02*
X011727Y009863D01*
X011647Y009863D02*
X011807Y009863D01*
X011647Y010024D02*
X011727Y010104D01*
X012438Y009395D02*
X012678Y009395D01*
X012678Y009279D02*
X012598Y009199D01*
X014797Y006884D02*
X014917Y007004D01*
X014917Y006763D01*
X014957Y006884D02*
X014797Y006884D01*
X015073Y006803D02*
X015073Y006763D01*
X015073Y006803D02*
X015233Y006964D01*
X015233Y007004D01*
X015073Y007004D01*
X015349Y006964D02*
X015389Y007004D01*
X015470Y007004D01*
X015510Y006964D01*
X015349Y006803D01*
X015389Y006763D01*
X015470Y006763D01*
X015510Y006803D01*
X015510Y006964D01*
X015626Y006924D02*
X015746Y006924D01*
X015786Y006884D01*
X015786Y006803D01*
X015746Y006763D01*
X015626Y006763D01*
X015626Y006683D02*
X015626Y006924D01*
X015349Y006964D02*
X015349Y006803D01*
X016413Y006654D02*
X016413Y006574D01*
X016453Y006534D01*
X016413Y006654D02*
X016453Y006694D01*
X016493Y006694D01*
X016653Y006534D01*
X016653Y006694D01*
X016613Y006810D02*
X016653Y006850D01*
X016653Y006970D01*
X016493Y006970D01*
X016453Y007086D02*
X016413Y007126D01*
X016413Y007207D01*
X016453Y007247D01*
X016493Y007247D01*
X016653Y007086D01*
X016653Y007247D01*
X016613Y006810D02*
X016493Y006810D01*
X017182Y006623D02*
X017182Y007126D01*
X018167Y007126D01*
X018167Y006623D01*
X017182Y006623D01*
X017489Y006365D02*
X017489Y005184D01*
X017961Y005184D01*
X017961Y006365D01*
X017489Y006365D01*
X017434Y007196D02*
X017434Y007236D01*
X017594Y007396D01*
X017594Y007436D01*
X017434Y007436D01*
X017278Y007436D02*
X017158Y007316D01*
X017318Y007316D01*
X017278Y007196D02*
X017278Y007436D01*
X017710Y007396D02*
X017710Y007236D01*
X017870Y007396D01*
X017870Y007236D01*
X017830Y007196D01*
X017750Y007196D01*
X017710Y007236D01*
X017710Y007396D02*
X017750Y007436D01*
X017830Y007436D01*
X017870Y007396D01*
X017986Y007356D02*
X018107Y007356D01*
X018147Y007316D01*
X018147Y007236D01*
X018107Y007196D01*
X017986Y007196D01*
X017986Y007116D02*
X017986Y007356D01*
X018863Y006790D02*
X019103Y006790D01*
X019103Y006710D02*
X019103Y006870D01*
X019063Y006986D02*
X019103Y007026D01*
X019103Y007147D01*
X018943Y007147D01*
X018943Y006986D02*
X019063Y006986D01*
X018863Y006790D02*
X018943Y006710D01*
X018732Y004995D02*
X018772Y004955D01*
X018732Y004995D02*
X018652Y004995D01*
X018612Y004955D01*
X018692Y004875D02*
X018732Y004875D01*
X023394Y005944D02*
X023434Y005944D01*
X023594Y005784D01*
X023594Y005944D01*
X023594Y006060D02*
X023434Y006220D01*
X023394Y006220D01*
X023594Y006220D02*
X023594Y006060D01*
X023474Y006889D02*
X023474Y007049D01*
X023474Y007165D02*
X023474Y007245D01*
X023354Y007165D02*
X023594Y007165D01*
X023594Y007325D01*
X023594Y007441D02*
X023434Y007601D01*
X023394Y007601D01*
X023354Y007561D01*
X023354Y007481D01*
X023394Y007441D01*
X023354Y007325D02*
X023354Y007165D01*
X023594Y007441D02*
X023594Y007601D01*
X024426Y007169D02*
X025922Y007169D01*
X027026Y006796D02*
X027066Y006836D01*
X027186Y006836D01*
X027323Y006767D02*
X027826Y006767D01*
X027826Y005782D01*
X027323Y005782D01*
X027323Y006767D01*
X027186Y006676D02*
X027026Y006676D01*
X027026Y006796D01*
X026986Y006560D02*
X027146Y006399D01*
X027186Y006439D01*
X027186Y006520D01*
X027146Y006560D01*
X026986Y006560D01*
X026946Y006520D01*
X026946Y006439D01*
X026986Y006399D01*
X027146Y006399D01*
X027146Y006283D02*
X027186Y006243D01*
X027186Y006163D01*
X027146Y006123D01*
X026986Y006283D01*
X027146Y006283D01*
X027146Y006123D02*
X026986Y006123D01*
X026946Y006163D01*
X026946Y006243D01*
X026986Y006283D01*
X027186Y006007D02*
X027186Y005847D01*
X027186Y005927D02*
X026946Y005927D01*
X027026Y005847D01*
X025922Y005280D02*
X025568Y005280D01*
X024781Y005280D01*
X024426Y005280D01*
X024780Y005280D02*
X024782Y005319D01*
X024788Y005357D01*
X024797Y005394D01*
X024810Y005431D01*
X024827Y005466D01*
X024846Y005499D01*
X024869Y005530D01*
X024895Y005559D01*
X024924Y005585D01*
X024955Y005608D01*
X024988Y005627D01*
X025023Y005644D01*
X025060Y005657D01*
X025097Y005666D01*
X025135Y005672D01*
X025174Y005674D01*
X025213Y005672D01*
X025251Y005666D01*
X025288Y005657D01*
X025325Y005644D01*
X025360Y005627D01*
X025393Y005608D01*
X025424Y005585D01*
X025453Y005559D01*
X025479Y005530D01*
X025502Y005499D01*
X025521Y005466D01*
X025538Y005431D01*
X025551Y005394D01*
X025560Y005357D01*
X025566Y005319D01*
X025568Y005280D01*
X025695Y009905D02*
X025655Y009945D01*
X025815Y010105D01*
X025815Y009945D01*
X025775Y009905D01*
X025695Y009905D01*
X025655Y009945D02*
X025655Y010105D01*
X025695Y010145D01*
X025775Y010145D01*
X025815Y010105D01*
X025931Y010145D02*
X026051Y010145D01*
X026091Y010105D01*
X026091Y010025D01*
X026051Y009985D01*
X025931Y009985D01*
X026011Y009985D02*
X026091Y009905D01*
X025931Y009905D02*
X025931Y010145D01*
X026425Y010275D02*
X025125Y010275D01*
X025125Y010975D01*
X026425Y010975D01*
X026425Y010275D01*
X022867Y011073D02*
X021882Y011073D01*
X021882Y011576D01*
X022867Y011576D01*
X022867Y011073D01*
X022728Y011663D02*
X022688Y011663D01*
X022688Y011703D01*
X022728Y011703D01*
X022728Y011663D01*
X022571Y011703D02*
X022531Y011663D01*
X022451Y011663D01*
X022411Y011703D01*
X022411Y011864D01*
X022451Y011904D01*
X022531Y011904D01*
X022571Y011864D01*
X022313Y011703D02*
X022313Y011663D01*
X022273Y011663D01*
X022273Y011703D01*
X022313Y011703D01*
X022157Y011663D02*
X022157Y011904D01*
X021997Y011904D02*
X021997Y011663D01*
X022157Y011663D02*
X021997Y011904D01*
X021867Y012945D02*
X021867Y013105D01*
X021867Y013025D02*
X021627Y013025D01*
X021707Y012945D01*
X021667Y013222D02*
X021627Y013262D01*
X021627Y013342D01*
X021667Y013382D01*
X021827Y013222D01*
X021867Y013262D01*
X021867Y013342D01*
X021827Y013382D01*
X021667Y013382D01*
X021667Y013498D02*
X021627Y013538D01*
X021627Y013618D01*
X021667Y013658D01*
X021827Y013498D01*
X021867Y013538D01*
X021867Y013618D01*
X021827Y013658D01*
X021667Y013658D01*
X021707Y013774D02*
X021827Y013774D01*
X021867Y013814D01*
X021867Y013934D01*
X021707Y013934D01*
X021867Y014050D02*
X021627Y014210D01*
X021667Y014326D02*
X021627Y014367D01*
X021627Y014447D01*
X021667Y014487D01*
X021707Y014487D01*
X021867Y014326D01*
X021867Y014487D01*
X021827Y014603D02*
X021867Y014643D01*
X021867Y014723D01*
X021827Y014763D01*
X021747Y014763D01*
X021707Y014723D01*
X021707Y014683D01*
X021747Y014603D01*
X021627Y014603D01*
X021627Y014763D01*
X021627Y014879D02*
X021787Y014879D01*
X021867Y014959D01*
X021787Y015039D01*
X021627Y015039D01*
X021667Y013498D02*
X021827Y013498D01*
X021827Y013222D02*
X021667Y013222D01*
X024104Y015486D02*
X024144Y015446D01*
X024224Y015446D01*
X024264Y015486D01*
X024264Y015566D01*
X024224Y015606D01*
X024184Y015606D01*
X024104Y015566D01*
X024104Y015686D01*
X024264Y015686D01*
X024380Y015566D02*
X024500Y015566D01*
X024540Y015526D01*
X024540Y015486D01*
X024500Y015446D01*
X024420Y015446D01*
X024380Y015486D01*
X024380Y015566D01*
X024460Y015646D01*
X024540Y015686D01*
X024656Y015646D02*
X024696Y015686D01*
X024776Y015686D01*
X024816Y015646D01*
X024656Y015486D01*
X024696Y015446D01*
X024776Y015446D01*
X024816Y015486D01*
X024816Y015646D01*
X024932Y015686D02*
X024932Y015446D01*
X024932Y015526D02*
X025053Y015606D01*
X024932Y015526D02*
X025053Y015446D01*
X025232Y015473D02*
X025232Y015976D01*
X026217Y015976D01*
X026217Y015473D01*
X025232Y015473D01*
X025232Y014976D02*
X026217Y014976D01*
X026217Y014473D01*
X025232Y014473D01*
X025232Y014976D01*
X025047Y014496D02*
X024886Y014336D01*
X024886Y014416D02*
X025047Y014416D01*
X025047Y014336D02*
X024886Y014496D01*
X024967Y014496D02*
X024967Y014336D01*
X024656Y015486D02*
X024656Y015646D01*
D13*
X016540Y020945D02*
X015910Y020945D01*
X015910Y022205D02*
X016540Y022205D01*
D14*
X020619Y015653D02*
X020619Y015460D01*
X020523Y015556D02*
X020716Y015556D01*
X019680Y009181D02*
X019680Y008987D01*
X019583Y009084D02*
X019777Y009084D01*
D15*
X010465Y008615D02*
X010465Y007788D01*
X010465Y007040D02*
X010465Y005150D01*
X005189Y005150D01*
X005189Y007040D01*
X005189Y007788D02*
X005189Y008615D01*
X005189Y014441D02*
X005189Y014599D01*
X005189Y015229D02*
X005898Y015229D01*
X009756Y015229D02*
X010465Y015229D01*
X010465Y014599D02*
X010465Y014441D01*
M02*
