G75*
%MOIN*%
%OFA0B0*%
%FSLAX24Y24*%
%IPPOS*%
%LPD*%
%AMOC8*
5,1,8,0,0,1.08239X$1,22.5*
%
%ADD10C,0.0000*%
%ADD11C,0.0827*%
%ADD12C,0.2087*%
%ADD13R,0.0640X0.0640*%
%ADD14C,0.0640*%
%ADD15C,0.0047*%
%ADD16C,0.0045*%
%ADD17R,0.0060X0.0720*%
%ADD18C,0.0047*%
%ADD19R,0.0840X0.0840*%
%ADD20C,0.0840*%
%ADD21C,0.0054*%
%ADD22C,0.0040*%
%ADD23C,0.0039*%
%ADD24C,0.0043*%
%ADD25R,0.0700X0.0700*%
%ADD26C,0.0700*%
%ADD27C,0.0046*%
%ADD28C,0.0045*%
%ADD29R,0.1240X0.1240*%
%ADD30C,0.1240*%
%ADD31C,0.0640*%
%ADD32C,0.0043*%
D10*
X004874Y004874D02*
X011174Y004874D01*
X011174Y001725D01*
X023772Y001725D01*
X023772Y004874D01*
X033221Y004874D01*
X033221Y030071D01*
X023772Y030071D01*
X023772Y033221D01*
X011174Y033221D01*
X011174Y030071D01*
X004874Y030071D01*
X004874Y026922D01*
X001725Y026922D01*
X001725Y008024D01*
X004874Y008024D01*
X004874Y004874D01*
X004230Y007774D02*
X004232Y007813D01*
X004238Y007852D01*
X004248Y007890D01*
X004261Y007927D01*
X004278Y007962D01*
X004298Y007996D01*
X004322Y008027D01*
X004349Y008056D01*
X004378Y008082D01*
X004410Y008105D01*
X004444Y008125D01*
X004480Y008141D01*
X004517Y008153D01*
X004556Y008162D01*
X004595Y008167D01*
X004634Y008168D01*
X004673Y008165D01*
X004712Y008158D01*
X004749Y008147D01*
X004786Y008133D01*
X004821Y008115D01*
X004854Y008094D01*
X004885Y008069D01*
X004913Y008042D01*
X004938Y008012D01*
X004960Y007979D01*
X004979Y007945D01*
X004994Y007909D01*
X005006Y007871D01*
X005014Y007833D01*
X005018Y007794D01*
X005018Y007754D01*
X005014Y007715D01*
X005006Y007677D01*
X004994Y007639D01*
X004979Y007603D01*
X004960Y007569D01*
X004938Y007536D01*
X004913Y007506D01*
X004885Y007479D01*
X004854Y007454D01*
X004821Y007433D01*
X004786Y007415D01*
X004749Y007401D01*
X004712Y007390D01*
X004673Y007383D01*
X004634Y007380D01*
X004595Y007381D01*
X004556Y007386D01*
X004517Y007395D01*
X004480Y007407D01*
X004444Y007423D01*
X004410Y007443D01*
X004378Y007466D01*
X004349Y007492D01*
X004322Y007521D01*
X004298Y007552D01*
X004278Y007586D01*
X004261Y007621D01*
X004248Y007658D01*
X004238Y007696D01*
X004232Y007735D01*
X004230Y007774D01*
X002276Y009599D02*
X002278Y009663D01*
X002284Y009726D01*
X002294Y009789D01*
X002308Y009851D01*
X002325Y009912D01*
X002347Y009972D01*
X002372Y010031D01*
X002400Y010088D01*
X002432Y010143D01*
X002468Y010196D01*
X002507Y010246D01*
X002548Y010294D01*
X002593Y010340D01*
X002640Y010382D01*
X002690Y010422D01*
X002743Y010458D01*
X002797Y010491D01*
X002854Y010521D01*
X002912Y010547D01*
X002971Y010569D01*
X003032Y010587D01*
X003094Y010602D01*
X003157Y010613D01*
X003220Y010620D01*
X003284Y010623D01*
X003348Y010622D01*
X003411Y010617D01*
X003474Y010608D01*
X003537Y010595D01*
X003598Y010579D01*
X003659Y010558D01*
X003717Y010534D01*
X003775Y010506D01*
X003830Y010475D01*
X003884Y010440D01*
X003935Y010402D01*
X003984Y010361D01*
X004030Y010317D01*
X004073Y010271D01*
X004113Y010221D01*
X004150Y010170D01*
X004184Y010116D01*
X004215Y010060D01*
X004241Y010002D01*
X004265Y009943D01*
X004284Y009882D01*
X004300Y009820D01*
X004312Y009758D01*
X004320Y009694D01*
X004324Y009631D01*
X004324Y009567D01*
X004320Y009504D01*
X004312Y009440D01*
X004300Y009378D01*
X004284Y009316D01*
X004265Y009255D01*
X004241Y009196D01*
X004215Y009138D01*
X004184Y009082D01*
X004150Y009028D01*
X004113Y008977D01*
X004073Y008927D01*
X004030Y008881D01*
X003984Y008837D01*
X003935Y008796D01*
X003884Y008758D01*
X003830Y008723D01*
X003775Y008692D01*
X003717Y008664D01*
X003659Y008640D01*
X003598Y008619D01*
X003537Y008603D01*
X003474Y008590D01*
X003411Y008581D01*
X003348Y008576D01*
X003284Y008575D01*
X003220Y008578D01*
X003157Y008585D01*
X003094Y008596D01*
X003032Y008611D01*
X002971Y008629D01*
X002912Y008651D01*
X002854Y008677D01*
X002797Y008707D01*
X002743Y008740D01*
X002690Y008776D01*
X002640Y008816D01*
X002593Y008858D01*
X002548Y008904D01*
X002507Y008952D01*
X002468Y009002D01*
X002432Y009055D01*
X002400Y009110D01*
X002372Y009167D01*
X002347Y009226D01*
X002325Y009286D01*
X002308Y009347D01*
X002294Y009409D01*
X002284Y009472D01*
X002278Y009535D01*
X002276Y009599D01*
X002276Y012748D02*
X002278Y012812D01*
X002284Y012875D01*
X002294Y012938D01*
X002308Y013000D01*
X002325Y013061D01*
X002347Y013121D01*
X002372Y013180D01*
X002400Y013237D01*
X002432Y013292D01*
X002468Y013345D01*
X002507Y013395D01*
X002548Y013443D01*
X002593Y013489D01*
X002640Y013531D01*
X002690Y013571D01*
X002743Y013607D01*
X002797Y013640D01*
X002854Y013670D01*
X002912Y013696D01*
X002971Y013718D01*
X003032Y013736D01*
X003094Y013751D01*
X003157Y013762D01*
X003220Y013769D01*
X003284Y013772D01*
X003348Y013771D01*
X003411Y013766D01*
X003474Y013757D01*
X003537Y013744D01*
X003598Y013728D01*
X003659Y013707D01*
X003717Y013683D01*
X003775Y013655D01*
X003830Y013624D01*
X003884Y013589D01*
X003935Y013551D01*
X003984Y013510D01*
X004030Y013466D01*
X004073Y013420D01*
X004113Y013370D01*
X004150Y013319D01*
X004184Y013265D01*
X004215Y013209D01*
X004241Y013151D01*
X004265Y013092D01*
X004284Y013031D01*
X004300Y012969D01*
X004312Y012907D01*
X004320Y012843D01*
X004324Y012780D01*
X004324Y012716D01*
X004320Y012653D01*
X004312Y012589D01*
X004300Y012527D01*
X004284Y012465D01*
X004265Y012404D01*
X004241Y012345D01*
X004215Y012287D01*
X004184Y012231D01*
X004150Y012177D01*
X004113Y012126D01*
X004073Y012076D01*
X004030Y012030D01*
X003984Y011986D01*
X003935Y011945D01*
X003884Y011907D01*
X003830Y011872D01*
X003775Y011841D01*
X003717Y011813D01*
X003659Y011789D01*
X003598Y011768D01*
X003537Y011752D01*
X003474Y011739D01*
X003411Y011730D01*
X003348Y011725D01*
X003284Y011724D01*
X003220Y011727D01*
X003157Y011734D01*
X003094Y011745D01*
X003032Y011760D01*
X002971Y011778D01*
X002912Y011800D01*
X002854Y011826D01*
X002797Y011856D01*
X002743Y011889D01*
X002690Y011925D01*
X002640Y011965D01*
X002593Y012007D01*
X002548Y012053D01*
X002507Y012101D01*
X002468Y012151D01*
X002432Y012204D01*
X002400Y012259D01*
X002372Y012316D01*
X002347Y012375D01*
X002325Y012435D01*
X002308Y012496D01*
X002294Y012558D01*
X002284Y012621D01*
X002278Y012684D01*
X002276Y012748D01*
X002276Y015898D02*
X002278Y015962D01*
X002284Y016025D01*
X002294Y016088D01*
X002308Y016150D01*
X002325Y016211D01*
X002347Y016271D01*
X002372Y016330D01*
X002400Y016387D01*
X002432Y016442D01*
X002468Y016495D01*
X002507Y016545D01*
X002548Y016593D01*
X002593Y016639D01*
X002640Y016681D01*
X002690Y016721D01*
X002743Y016757D01*
X002797Y016790D01*
X002854Y016820D01*
X002912Y016846D01*
X002971Y016868D01*
X003032Y016886D01*
X003094Y016901D01*
X003157Y016912D01*
X003220Y016919D01*
X003284Y016922D01*
X003348Y016921D01*
X003411Y016916D01*
X003474Y016907D01*
X003537Y016894D01*
X003598Y016878D01*
X003659Y016857D01*
X003717Y016833D01*
X003775Y016805D01*
X003830Y016774D01*
X003884Y016739D01*
X003935Y016701D01*
X003984Y016660D01*
X004030Y016616D01*
X004073Y016570D01*
X004113Y016520D01*
X004150Y016469D01*
X004184Y016415D01*
X004215Y016359D01*
X004241Y016301D01*
X004265Y016242D01*
X004284Y016181D01*
X004300Y016119D01*
X004312Y016057D01*
X004320Y015993D01*
X004324Y015930D01*
X004324Y015866D01*
X004320Y015803D01*
X004312Y015739D01*
X004300Y015677D01*
X004284Y015615D01*
X004265Y015554D01*
X004241Y015495D01*
X004215Y015437D01*
X004184Y015381D01*
X004150Y015327D01*
X004113Y015276D01*
X004073Y015226D01*
X004030Y015180D01*
X003984Y015136D01*
X003935Y015095D01*
X003884Y015057D01*
X003830Y015022D01*
X003775Y014991D01*
X003717Y014963D01*
X003659Y014939D01*
X003598Y014918D01*
X003537Y014902D01*
X003474Y014889D01*
X003411Y014880D01*
X003348Y014875D01*
X003284Y014874D01*
X003220Y014877D01*
X003157Y014884D01*
X003094Y014895D01*
X003032Y014910D01*
X002971Y014928D01*
X002912Y014950D01*
X002854Y014976D01*
X002797Y015006D01*
X002743Y015039D01*
X002690Y015075D01*
X002640Y015115D01*
X002593Y015157D01*
X002548Y015203D01*
X002507Y015251D01*
X002468Y015301D01*
X002432Y015354D01*
X002400Y015409D01*
X002372Y015466D01*
X002347Y015525D01*
X002325Y015585D01*
X002308Y015646D01*
X002294Y015708D01*
X002284Y015771D01*
X002278Y015834D01*
X002276Y015898D01*
X002276Y019048D02*
X002278Y019112D01*
X002284Y019175D01*
X002294Y019238D01*
X002308Y019300D01*
X002325Y019361D01*
X002347Y019421D01*
X002372Y019480D01*
X002400Y019537D01*
X002432Y019592D01*
X002468Y019645D01*
X002507Y019695D01*
X002548Y019743D01*
X002593Y019789D01*
X002640Y019831D01*
X002690Y019871D01*
X002743Y019907D01*
X002797Y019940D01*
X002854Y019970D01*
X002912Y019996D01*
X002971Y020018D01*
X003032Y020036D01*
X003094Y020051D01*
X003157Y020062D01*
X003220Y020069D01*
X003284Y020072D01*
X003348Y020071D01*
X003411Y020066D01*
X003474Y020057D01*
X003537Y020044D01*
X003598Y020028D01*
X003659Y020007D01*
X003717Y019983D01*
X003775Y019955D01*
X003830Y019924D01*
X003884Y019889D01*
X003935Y019851D01*
X003984Y019810D01*
X004030Y019766D01*
X004073Y019720D01*
X004113Y019670D01*
X004150Y019619D01*
X004184Y019565D01*
X004215Y019509D01*
X004241Y019451D01*
X004265Y019392D01*
X004284Y019331D01*
X004300Y019269D01*
X004312Y019207D01*
X004320Y019143D01*
X004324Y019080D01*
X004324Y019016D01*
X004320Y018953D01*
X004312Y018889D01*
X004300Y018827D01*
X004284Y018765D01*
X004265Y018704D01*
X004241Y018645D01*
X004215Y018587D01*
X004184Y018531D01*
X004150Y018477D01*
X004113Y018426D01*
X004073Y018376D01*
X004030Y018330D01*
X003984Y018286D01*
X003935Y018245D01*
X003884Y018207D01*
X003830Y018172D01*
X003775Y018141D01*
X003717Y018113D01*
X003659Y018089D01*
X003598Y018068D01*
X003537Y018052D01*
X003474Y018039D01*
X003411Y018030D01*
X003348Y018025D01*
X003284Y018024D01*
X003220Y018027D01*
X003157Y018034D01*
X003094Y018045D01*
X003032Y018060D01*
X002971Y018078D01*
X002912Y018100D01*
X002854Y018126D01*
X002797Y018156D01*
X002743Y018189D01*
X002690Y018225D01*
X002640Y018265D01*
X002593Y018307D01*
X002548Y018353D01*
X002507Y018401D01*
X002468Y018451D01*
X002432Y018504D01*
X002400Y018559D01*
X002372Y018616D01*
X002347Y018675D01*
X002325Y018735D01*
X002308Y018796D01*
X002294Y018858D01*
X002284Y018921D01*
X002278Y018984D01*
X002276Y019048D01*
X002276Y022197D02*
X002278Y022261D01*
X002284Y022324D01*
X002294Y022387D01*
X002308Y022449D01*
X002325Y022510D01*
X002347Y022570D01*
X002372Y022629D01*
X002400Y022686D01*
X002432Y022741D01*
X002468Y022794D01*
X002507Y022844D01*
X002548Y022892D01*
X002593Y022938D01*
X002640Y022980D01*
X002690Y023020D01*
X002743Y023056D01*
X002797Y023089D01*
X002854Y023119D01*
X002912Y023145D01*
X002971Y023167D01*
X003032Y023185D01*
X003094Y023200D01*
X003157Y023211D01*
X003220Y023218D01*
X003284Y023221D01*
X003348Y023220D01*
X003411Y023215D01*
X003474Y023206D01*
X003537Y023193D01*
X003598Y023177D01*
X003659Y023156D01*
X003717Y023132D01*
X003775Y023104D01*
X003830Y023073D01*
X003884Y023038D01*
X003935Y023000D01*
X003984Y022959D01*
X004030Y022915D01*
X004073Y022869D01*
X004113Y022819D01*
X004150Y022768D01*
X004184Y022714D01*
X004215Y022658D01*
X004241Y022600D01*
X004265Y022541D01*
X004284Y022480D01*
X004300Y022418D01*
X004312Y022356D01*
X004320Y022292D01*
X004324Y022229D01*
X004324Y022165D01*
X004320Y022102D01*
X004312Y022038D01*
X004300Y021976D01*
X004284Y021914D01*
X004265Y021853D01*
X004241Y021794D01*
X004215Y021736D01*
X004184Y021680D01*
X004150Y021626D01*
X004113Y021575D01*
X004073Y021525D01*
X004030Y021479D01*
X003984Y021435D01*
X003935Y021394D01*
X003884Y021356D01*
X003830Y021321D01*
X003775Y021290D01*
X003717Y021262D01*
X003659Y021238D01*
X003598Y021217D01*
X003537Y021201D01*
X003474Y021188D01*
X003411Y021179D01*
X003348Y021174D01*
X003284Y021173D01*
X003220Y021176D01*
X003157Y021183D01*
X003094Y021194D01*
X003032Y021209D01*
X002971Y021227D01*
X002912Y021249D01*
X002854Y021275D01*
X002797Y021305D01*
X002743Y021338D01*
X002690Y021374D01*
X002640Y021414D01*
X002593Y021456D01*
X002548Y021502D01*
X002507Y021550D01*
X002468Y021600D01*
X002432Y021653D01*
X002400Y021708D01*
X002372Y021765D01*
X002347Y021824D01*
X002325Y021884D01*
X002308Y021945D01*
X002294Y022007D01*
X002284Y022070D01*
X002278Y022133D01*
X002276Y022197D01*
X002276Y025347D02*
X002278Y025411D01*
X002284Y025474D01*
X002294Y025537D01*
X002308Y025599D01*
X002325Y025660D01*
X002347Y025720D01*
X002372Y025779D01*
X002400Y025836D01*
X002432Y025891D01*
X002468Y025944D01*
X002507Y025994D01*
X002548Y026042D01*
X002593Y026088D01*
X002640Y026130D01*
X002690Y026170D01*
X002743Y026206D01*
X002797Y026239D01*
X002854Y026269D01*
X002912Y026295D01*
X002971Y026317D01*
X003032Y026335D01*
X003094Y026350D01*
X003157Y026361D01*
X003220Y026368D01*
X003284Y026371D01*
X003348Y026370D01*
X003411Y026365D01*
X003474Y026356D01*
X003537Y026343D01*
X003598Y026327D01*
X003659Y026306D01*
X003717Y026282D01*
X003775Y026254D01*
X003830Y026223D01*
X003884Y026188D01*
X003935Y026150D01*
X003984Y026109D01*
X004030Y026065D01*
X004073Y026019D01*
X004113Y025969D01*
X004150Y025918D01*
X004184Y025864D01*
X004215Y025808D01*
X004241Y025750D01*
X004265Y025691D01*
X004284Y025630D01*
X004300Y025568D01*
X004312Y025506D01*
X004320Y025442D01*
X004324Y025379D01*
X004324Y025315D01*
X004320Y025252D01*
X004312Y025188D01*
X004300Y025126D01*
X004284Y025064D01*
X004265Y025003D01*
X004241Y024944D01*
X004215Y024886D01*
X004184Y024830D01*
X004150Y024776D01*
X004113Y024725D01*
X004073Y024675D01*
X004030Y024629D01*
X003984Y024585D01*
X003935Y024544D01*
X003884Y024506D01*
X003830Y024471D01*
X003775Y024440D01*
X003717Y024412D01*
X003659Y024388D01*
X003598Y024367D01*
X003537Y024351D01*
X003474Y024338D01*
X003411Y024329D01*
X003348Y024324D01*
X003284Y024323D01*
X003220Y024326D01*
X003157Y024333D01*
X003094Y024344D01*
X003032Y024359D01*
X002971Y024377D01*
X002912Y024399D01*
X002854Y024425D01*
X002797Y024455D01*
X002743Y024488D01*
X002690Y024524D01*
X002640Y024564D01*
X002593Y024606D01*
X002548Y024652D01*
X002507Y024700D01*
X002468Y024750D01*
X002432Y024803D01*
X002400Y024858D01*
X002372Y024915D01*
X002347Y024974D01*
X002325Y025034D01*
X002308Y025095D01*
X002294Y025157D01*
X002284Y025220D01*
X002278Y025283D01*
X002276Y025347D01*
X004230Y027172D02*
X004232Y027211D01*
X004238Y027250D01*
X004248Y027288D01*
X004261Y027325D01*
X004278Y027360D01*
X004298Y027394D01*
X004322Y027425D01*
X004349Y027454D01*
X004378Y027480D01*
X004410Y027503D01*
X004444Y027523D01*
X004480Y027539D01*
X004517Y027551D01*
X004556Y027560D01*
X004595Y027565D01*
X004634Y027566D01*
X004673Y027563D01*
X004712Y027556D01*
X004749Y027545D01*
X004786Y027531D01*
X004821Y027513D01*
X004854Y027492D01*
X004885Y027467D01*
X004913Y027440D01*
X004938Y027410D01*
X004960Y027377D01*
X004979Y027343D01*
X004994Y027307D01*
X005006Y027269D01*
X005014Y027231D01*
X005018Y027192D01*
X005018Y027152D01*
X005014Y027113D01*
X005006Y027075D01*
X004994Y027037D01*
X004979Y027001D01*
X004960Y026967D01*
X004938Y026934D01*
X004913Y026904D01*
X004885Y026877D01*
X004854Y026852D01*
X004821Y026831D01*
X004786Y026813D01*
X004749Y026799D01*
X004712Y026788D01*
X004673Y026781D01*
X004634Y026778D01*
X004595Y026779D01*
X004556Y026784D01*
X004517Y026793D01*
X004480Y026805D01*
X004444Y026821D01*
X004410Y026841D01*
X004378Y026864D01*
X004349Y026890D01*
X004322Y026919D01*
X004298Y026950D01*
X004278Y026984D01*
X004261Y027019D01*
X004248Y027056D01*
X004238Y027094D01*
X004232Y027133D01*
X004230Y027172D01*
X010530Y030321D02*
X010532Y030360D01*
X010538Y030399D01*
X010548Y030437D01*
X010561Y030474D01*
X010578Y030509D01*
X010598Y030543D01*
X010622Y030574D01*
X010649Y030603D01*
X010678Y030629D01*
X010710Y030652D01*
X010744Y030672D01*
X010780Y030688D01*
X010817Y030700D01*
X010856Y030709D01*
X010895Y030714D01*
X010934Y030715D01*
X010973Y030712D01*
X011012Y030705D01*
X011049Y030694D01*
X011086Y030680D01*
X011121Y030662D01*
X011154Y030641D01*
X011185Y030616D01*
X011213Y030589D01*
X011238Y030559D01*
X011260Y030526D01*
X011279Y030492D01*
X011294Y030456D01*
X011306Y030418D01*
X011314Y030380D01*
X011318Y030341D01*
X011318Y030301D01*
X011314Y030262D01*
X011306Y030224D01*
X011294Y030186D01*
X011279Y030150D01*
X011260Y030116D01*
X011238Y030083D01*
X011213Y030053D01*
X011185Y030026D01*
X011154Y030001D01*
X011121Y029980D01*
X011086Y029962D01*
X011049Y029948D01*
X011012Y029937D01*
X010973Y029930D01*
X010934Y029927D01*
X010895Y029928D01*
X010856Y029933D01*
X010817Y029942D01*
X010780Y029954D01*
X010744Y029970D01*
X010710Y029990D01*
X010678Y030013D01*
X010649Y030039D01*
X010622Y030068D01*
X010598Y030099D01*
X010578Y030133D01*
X010561Y030168D01*
X010548Y030205D01*
X010538Y030243D01*
X010532Y030282D01*
X010530Y030321D01*
X011724Y031646D02*
X011726Y031710D01*
X011732Y031773D01*
X011742Y031836D01*
X011756Y031898D01*
X011773Y031959D01*
X011795Y032019D01*
X011820Y032078D01*
X011848Y032135D01*
X011880Y032190D01*
X011916Y032243D01*
X011955Y032293D01*
X011996Y032341D01*
X012041Y032387D01*
X012088Y032429D01*
X012138Y032469D01*
X012191Y032505D01*
X012245Y032538D01*
X012302Y032568D01*
X012360Y032594D01*
X012419Y032616D01*
X012480Y032634D01*
X012542Y032649D01*
X012605Y032660D01*
X012668Y032667D01*
X012732Y032670D01*
X012796Y032669D01*
X012859Y032664D01*
X012922Y032655D01*
X012985Y032642D01*
X013046Y032626D01*
X013107Y032605D01*
X013165Y032581D01*
X013223Y032553D01*
X013278Y032522D01*
X013332Y032487D01*
X013383Y032449D01*
X013432Y032408D01*
X013478Y032364D01*
X013521Y032318D01*
X013561Y032268D01*
X013598Y032217D01*
X013632Y032163D01*
X013663Y032107D01*
X013689Y032049D01*
X013713Y031990D01*
X013732Y031929D01*
X013748Y031867D01*
X013760Y031805D01*
X013768Y031741D01*
X013772Y031678D01*
X013772Y031614D01*
X013768Y031551D01*
X013760Y031487D01*
X013748Y031425D01*
X013732Y031363D01*
X013713Y031302D01*
X013689Y031243D01*
X013663Y031185D01*
X013632Y031129D01*
X013598Y031075D01*
X013561Y031024D01*
X013521Y030974D01*
X013478Y030928D01*
X013432Y030884D01*
X013383Y030843D01*
X013332Y030805D01*
X013278Y030770D01*
X013223Y030739D01*
X013165Y030711D01*
X013107Y030687D01*
X013046Y030666D01*
X012985Y030650D01*
X012922Y030637D01*
X012859Y030628D01*
X012796Y030623D01*
X012732Y030622D01*
X012668Y030625D01*
X012605Y030632D01*
X012542Y030643D01*
X012480Y030658D01*
X012419Y030676D01*
X012360Y030698D01*
X012302Y030724D01*
X012245Y030754D01*
X012191Y030787D01*
X012138Y030823D01*
X012088Y030863D01*
X012041Y030905D01*
X011996Y030951D01*
X011955Y030999D01*
X011916Y031049D01*
X011880Y031102D01*
X011848Y031157D01*
X011820Y031214D01*
X011795Y031273D01*
X011773Y031333D01*
X011756Y031394D01*
X011742Y031456D01*
X011732Y031519D01*
X011726Y031582D01*
X011724Y031646D01*
X014874Y031646D02*
X014876Y031710D01*
X014882Y031773D01*
X014892Y031836D01*
X014906Y031898D01*
X014923Y031959D01*
X014945Y032019D01*
X014970Y032078D01*
X014998Y032135D01*
X015030Y032190D01*
X015066Y032243D01*
X015105Y032293D01*
X015146Y032341D01*
X015191Y032387D01*
X015238Y032429D01*
X015288Y032469D01*
X015341Y032505D01*
X015395Y032538D01*
X015452Y032568D01*
X015510Y032594D01*
X015569Y032616D01*
X015630Y032634D01*
X015692Y032649D01*
X015755Y032660D01*
X015818Y032667D01*
X015882Y032670D01*
X015946Y032669D01*
X016009Y032664D01*
X016072Y032655D01*
X016135Y032642D01*
X016196Y032626D01*
X016257Y032605D01*
X016315Y032581D01*
X016373Y032553D01*
X016428Y032522D01*
X016482Y032487D01*
X016533Y032449D01*
X016582Y032408D01*
X016628Y032364D01*
X016671Y032318D01*
X016711Y032268D01*
X016748Y032217D01*
X016782Y032163D01*
X016813Y032107D01*
X016839Y032049D01*
X016863Y031990D01*
X016882Y031929D01*
X016898Y031867D01*
X016910Y031805D01*
X016918Y031741D01*
X016922Y031678D01*
X016922Y031614D01*
X016918Y031551D01*
X016910Y031487D01*
X016898Y031425D01*
X016882Y031363D01*
X016863Y031302D01*
X016839Y031243D01*
X016813Y031185D01*
X016782Y031129D01*
X016748Y031075D01*
X016711Y031024D01*
X016671Y030974D01*
X016628Y030928D01*
X016582Y030884D01*
X016533Y030843D01*
X016482Y030805D01*
X016428Y030770D01*
X016373Y030739D01*
X016315Y030711D01*
X016257Y030687D01*
X016196Y030666D01*
X016135Y030650D01*
X016072Y030637D01*
X016009Y030628D01*
X015946Y030623D01*
X015882Y030622D01*
X015818Y030625D01*
X015755Y030632D01*
X015692Y030643D01*
X015630Y030658D01*
X015569Y030676D01*
X015510Y030698D01*
X015452Y030724D01*
X015395Y030754D01*
X015341Y030787D01*
X015288Y030823D01*
X015238Y030863D01*
X015191Y030905D01*
X015146Y030951D01*
X015105Y030999D01*
X015066Y031049D01*
X015030Y031102D01*
X014998Y031157D01*
X014970Y031214D01*
X014945Y031273D01*
X014923Y031333D01*
X014906Y031394D01*
X014892Y031456D01*
X014882Y031519D01*
X014876Y031582D01*
X014874Y031646D01*
X018024Y031646D02*
X018026Y031710D01*
X018032Y031773D01*
X018042Y031836D01*
X018056Y031898D01*
X018073Y031959D01*
X018095Y032019D01*
X018120Y032078D01*
X018148Y032135D01*
X018180Y032190D01*
X018216Y032243D01*
X018255Y032293D01*
X018296Y032341D01*
X018341Y032387D01*
X018388Y032429D01*
X018438Y032469D01*
X018491Y032505D01*
X018545Y032538D01*
X018602Y032568D01*
X018660Y032594D01*
X018719Y032616D01*
X018780Y032634D01*
X018842Y032649D01*
X018905Y032660D01*
X018968Y032667D01*
X019032Y032670D01*
X019096Y032669D01*
X019159Y032664D01*
X019222Y032655D01*
X019285Y032642D01*
X019346Y032626D01*
X019407Y032605D01*
X019465Y032581D01*
X019523Y032553D01*
X019578Y032522D01*
X019632Y032487D01*
X019683Y032449D01*
X019732Y032408D01*
X019778Y032364D01*
X019821Y032318D01*
X019861Y032268D01*
X019898Y032217D01*
X019932Y032163D01*
X019963Y032107D01*
X019989Y032049D01*
X020013Y031990D01*
X020032Y031929D01*
X020048Y031867D01*
X020060Y031805D01*
X020068Y031741D01*
X020072Y031678D01*
X020072Y031614D01*
X020068Y031551D01*
X020060Y031487D01*
X020048Y031425D01*
X020032Y031363D01*
X020013Y031302D01*
X019989Y031243D01*
X019963Y031185D01*
X019932Y031129D01*
X019898Y031075D01*
X019861Y031024D01*
X019821Y030974D01*
X019778Y030928D01*
X019732Y030884D01*
X019683Y030843D01*
X019632Y030805D01*
X019578Y030770D01*
X019523Y030739D01*
X019465Y030711D01*
X019407Y030687D01*
X019346Y030666D01*
X019285Y030650D01*
X019222Y030637D01*
X019159Y030628D01*
X019096Y030623D01*
X019032Y030622D01*
X018968Y030625D01*
X018905Y030632D01*
X018842Y030643D01*
X018780Y030658D01*
X018719Y030676D01*
X018660Y030698D01*
X018602Y030724D01*
X018545Y030754D01*
X018491Y030787D01*
X018438Y030823D01*
X018388Y030863D01*
X018341Y030905D01*
X018296Y030951D01*
X018255Y030999D01*
X018216Y031049D01*
X018180Y031102D01*
X018148Y031157D01*
X018120Y031214D01*
X018095Y031273D01*
X018073Y031333D01*
X018056Y031394D01*
X018042Y031456D01*
X018032Y031519D01*
X018026Y031582D01*
X018024Y031646D01*
X021173Y031646D02*
X021175Y031710D01*
X021181Y031773D01*
X021191Y031836D01*
X021205Y031898D01*
X021222Y031959D01*
X021244Y032019D01*
X021269Y032078D01*
X021297Y032135D01*
X021329Y032190D01*
X021365Y032243D01*
X021404Y032293D01*
X021445Y032341D01*
X021490Y032387D01*
X021537Y032429D01*
X021587Y032469D01*
X021640Y032505D01*
X021694Y032538D01*
X021751Y032568D01*
X021809Y032594D01*
X021868Y032616D01*
X021929Y032634D01*
X021991Y032649D01*
X022054Y032660D01*
X022117Y032667D01*
X022181Y032670D01*
X022245Y032669D01*
X022308Y032664D01*
X022371Y032655D01*
X022434Y032642D01*
X022495Y032626D01*
X022556Y032605D01*
X022614Y032581D01*
X022672Y032553D01*
X022727Y032522D01*
X022781Y032487D01*
X022832Y032449D01*
X022881Y032408D01*
X022927Y032364D01*
X022970Y032318D01*
X023010Y032268D01*
X023047Y032217D01*
X023081Y032163D01*
X023112Y032107D01*
X023138Y032049D01*
X023162Y031990D01*
X023181Y031929D01*
X023197Y031867D01*
X023209Y031805D01*
X023217Y031741D01*
X023221Y031678D01*
X023221Y031614D01*
X023217Y031551D01*
X023209Y031487D01*
X023197Y031425D01*
X023181Y031363D01*
X023162Y031302D01*
X023138Y031243D01*
X023112Y031185D01*
X023081Y031129D01*
X023047Y031075D01*
X023010Y031024D01*
X022970Y030974D01*
X022927Y030928D01*
X022881Y030884D01*
X022832Y030843D01*
X022781Y030805D01*
X022727Y030770D01*
X022672Y030739D01*
X022614Y030711D01*
X022556Y030687D01*
X022495Y030666D01*
X022434Y030650D01*
X022371Y030637D01*
X022308Y030628D01*
X022245Y030623D01*
X022181Y030622D01*
X022117Y030625D01*
X022054Y030632D01*
X021991Y030643D01*
X021929Y030658D01*
X021868Y030676D01*
X021809Y030698D01*
X021751Y030724D01*
X021694Y030754D01*
X021640Y030787D01*
X021587Y030823D01*
X021537Y030863D01*
X021490Y030905D01*
X021445Y030951D01*
X021404Y030999D01*
X021365Y031049D01*
X021329Y031102D01*
X021297Y031157D01*
X021269Y031214D01*
X021244Y031273D01*
X021222Y031333D01*
X021205Y031394D01*
X021191Y031456D01*
X021181Y031519D01*
X021175Y031582D01*
X021173Y031646D01*
X023628Y030321D02*
X023630Y030360D01*
X023636Y030399D01*
X023646Y030437D01*
X023659Y030474D01*
X023676Y030509D01*
X023696Y030543D01*
X023720Y030574D01*
X023747Y030603D01*
X023776Y030629D01*
X023808Y030652D01*
X023842Y030672D01*
X023878Y030688D01*
X023915Y030700D01*
X023954Y030709D01*
X023993Y030714D01*
X024032Y030715D01*
X024071Y030712D01*
X024110Y030705D01*
X024147Y030694D01*
X024184Y030680D01*
X024219Y030662D01*
X024252Y030641D01*
X024283Y030616D01*
X024311Y030589D01*
X024336Y030559D01*
X024358Y030526D01*
X024377Y030492D01*
X024392Y030456D01*
X024404Y030418D01*
X024412Y030380D01*
X024416Y030341D01*
X024416Y030301D01*
X024412Y030262D01*
X024404Y030224D01*
X024392Y030186D01*
X024377Y030150D01*
X024358Y030116D01*
X024336Y030083D01*
X024311Y030053D01*
X024283Y030026D01*
X024252Y030001D01*
X024219Y029980D01*
X024184Y029962D01*
X024147Y029948D01*
X024110Y029937D01*
X024071Y029930D01*
X024032Y029927D01*
X023993Y029928D01*
X023954Y029933D01*
X023915Y029942D01*
X023878Y029954D01*
X023842Y029970D01*
X023808Y029990D01*
X023776Y030013D01*
X023747Y030039D01*
X023720Y030068D01*
X023696Y030099D01*
X023676Y030133D01*
X023659Y030168D01*
X023646Y030205D01*
X023636Y030243D01*
X023630Y030282D01*
X023628Y030321D01*
X030622Y028496D02*
X030624Y028560D01*
X030630Y028623D01*
X030640Y028686D01*
X030654Y028748D01*
X030671Y028809D01*
X030693Y028869D01*
X030718Y028928D01*
X030746Y028985D01*
X030778Y029040D01*
X030814Y029093D01*
X030853Y029143D01*
X030894Y029191D01*
X030939Y029237D01*
X030986Y029279D01*
X031036Y029319D01*
X031089Y029355D01*
X031143Y029388D01*
X031200Y029418D01*
X031258Y029444D01*
X031317Y029466D01*
X031378Y029484D01*
X031440Y029499D01*
X031503Y029510D01*
X031566Y029517D01*
X031630Y029520D01*
X031694Y029519D01*
X031757Y029514D01*
X031820Y029505D01*
X031883Y029492D01*
X031944Y029476D01*
X032005Y029455D01*
X032063Y029431D01*
X032121Y029403D01*
X032176Y029372D01*
X032230Y029337D01*
X032281Y029299D01*
X032330Y029258D01*
X032376Y029214D01*
X032419Y029168D01*
X032459Y029118D01*
X032496Y029067D01*
X032530Y029013D01*
X032561Y028957D01*
X032587Y028899D01*
X032611Y028840D01*
X032630Y028779D01*
X032646Y028717D01*
X032658Y028655D01*
X032666Y028591D01*
X032670Y028528D01*
X032670Y028464D01*
X032666Y028401D01*
X032658Y028337D01*
X032646Y028275D01*
X032630Y028213D01*
X032611Y028152D01*
X032587Y028093D01*
X032561Y028035D01*
X032530Y027979D01*
X032496Y027925D01*
X032459Y027874D01*
X032419Y027824D01*
X032376Y027778D01*
X032330Y027734D01*
X032281Y027693D01*
X032230Y027655D01*
X032176Y027620D01*
X032121Y027589D01*
X032063Y027561D01*
X032005Y027537D01*
X031944Y027516D01*
X031883Y027500D01*
X031820Y027487D01*
X031757Y027478D01*
X031694Y027473D01*
X031630Y027472D01*
X031566Y027475D01*
X031503Y027482D01*
X031440Y027493D01*
X031378Y027508D01*
X031317Y027526D01*
X031258Y027548D01*
X031200Y027574D01*
X031143Y027604D01*
X031089Y027637D01*
X031036Y027673D01*
X030986Y027713D01*
X030939Y027755D01*
X030894Y027801D01*
X030853Y027849D01*
X030814Y027899D01*
X030778Y027952D01*
X030746Y028007D01*
X030718Y028064D01*
X030693Y028123D01*
X030671Y028183D01*
X030654Y028244D01*
X030640Y028306D01*
X030630Y028369D01*
X030624Y028432D01*
X030622Y028496D01*
X030622Y006449D02*
X030624Y006513D01*
X030630Y006576D01*
X030640Y006639D01*
X030654Y006701D01*
X030671Y006762D01*
X030693Y006822D01*
X030718Y006881D01*
X030746Y006938D01*
X030778Y006993D01*
X030814Y007046D01*
X030853Y007096D01*
X030894Y007144D01*
X030939Y007190D01*
X030986Y007232D01*
X031036Y007272D01*
X031089Y007308D01*
X031143Y007341D01*
X031200Y007371D01*
X031258Y007397D01*
X031317Y007419D01*
X031378Y007437D01*
X031440Y007452D01*
X031503Y007463D01*
X031566Y007470D01*
X031630Y007473D01*
X031694Y007472D01*
X031757Y007467D01*
X031820Y007458D01*
X031883Y007445D01*
X031944Y007429D01*
X032005Y007408D01*
X032063Y007384D01*
X032121Y007356D01*
X032176Y007325D01*
X032230Y007290D01*
X032281Y007252D01*
X032330Y007211D01*
X032376Y007167D01*
X032419Y007121D01*
X032459Y007071D01*
X032496Y007020D01*
X032530Y006966D01*
X032561Y006910D01*
X032587Y006852D01*
X032611Y006793D01*
X032630Y006732D01*
X032646Y006670D01*
X032658Y006608D01*
X032666Y006544D01*
X032670Y006481D01*
X032670Y006417D01*
X032666Y006354D01*
X032658Y006290D01*
X032646Y006228D01*
X032630Y006166D01*
X032611Y006105D01*
X032587Y006046D01*
X032561Y005988D01*
X032530Y005932D01*
X032496Y005878D01*
X032459Y005827D01*
X032419Y005777D01*
X032376Y005731D01*
X032330Y005687D01*
X032281Y005646D01*
X032230Y005608D01*
X032176Y005573D01*
X032121Y005542D01*
X032063Y005514D01*
X032005Y005490D01*
X031944Y005469D01*
X031883Y005453D01*
X031820Y005440D01*
X031757Y005431D01*
X031694Y005426D01*
X031630Y005425D01*
X031566Y005428D01*
X031503Y005435D01*
X031440Y005446D01*
X031378Y005461D01*
X031317Y005479D01*
X031258Y005501D01*
X031200Y005527D01*
X031143Y005557D01*
X031089Y005590D01*
X031036Y005626D01*
X030986Y005666D01*
X030939Y005708D01*
X030894Y005754D01*
X030853Y005802D01*
X030814Y005852D01*
X030778Y005905D01*
X030746Y005960D01*
X030718Y006017D01*
X030693Y006076D01*
X030671Y006136D01*
X030654Y006197D01*
X030640Y006259D01*
X030630Y006322D01*
X030624Y006385D01*
X030622Y006449D01*
X023628Y004624D02*
X023630Y004663D01*
X023636Y004702D01*
X023646Y004740D01*
X023659Y004777D01*
X023676Y004812D01*
X023696Y004846D01*
X023720Y004877D01*
X023747Y004906D01*
X023776Y004932D01*
X023808Y004955D01*
X023842Y004975D01*
X023878Y004991D01*
X023915Y005003D01*
X023954Y005012D01*
X023993Y005017D01*
X024032Y005018D01*
X024071Y005015D01*
X024110Y005008D01*
X024147Y004997D01*
X024184Y004983D01*
X024219Y004965D01*
X024252Y004944D01*
X024283Y004919D01*
X024311Y004892D01*
X024336Y004862D01*
X024358Y004829D01*
X024377Y004795D01*
X024392Y004759D01*
X024404Y004721D01*
X024412Y004683D01*
X024416Y004644D01*
X024416Y004604D01*
X024412Y004565D01*
X024404Y004527D01*
X024392Y004489D01*
X024377Y004453D01*
X024358Y004419D01*
X024336Y004386D01*
X024311Y004356D01*
X024283Y004329D01*
X024252Y004304D01*
X024219Y004283D01*
X024184Y004265D01*
X024147Y004251D01*
X024110Y004240D01*
X024071Y004233D01*
X024032Y004230D01*
X023993Y004231D01*
X023954Y004236D01*
X023915Y004245D01*
X023878Y004257D01*
X023842Y004273D01*
X023808Y004293D01*
X023776Y004316D01*
X023747Y004342D01*
X023720Y004371D01*
X023696Y004402D01*
X023676Y004436D01*
X023659Y004471D01*
X023646Y004508D01*
X023636Y004546D01*
X023630Y004585D01*
X023628Y004624D01*
X021173Y003300D02*
X021175Y003364D01*
X021181Y003427D01*
X021191Y003490D01*
X021205Y003552D01*
X021222Y003613D01*
X021244Y003673D01*
X021269Y003732D01*
X021297Y003789D01*
X021329Y003844D01*
X021365Y003897D01*
X021404Y003947D01*
X021445Y003995D01*
X021490Y004041D01*
X021537Y004083D01*
X021587Y004123D01*
X021640Y004159D01*
X021694Y004192D01*
X021751Y004222D01*
X021809Y004248D01*
X021868Y004270D01*
X021929Y004288D01*
X021991Y004303D01*
X022054Y004314D01*
X022117Y004321D01*
X022181Y004324D01*
X022245Y004323D01*
X022308Y004318D01*
X022371Y004309D01*
X022434Y004296D01*
X022495Y004280D01*
X022556Y004259D01*
X022614Y004235D01*
X022672Y004207D01*
X022727Y004176D01*
X022781Y004141D01*
X022832Y004103D01*
X022881Y004062D01*
X022927Y004018D01*
X022970Y003972D01*
X023010Y003922D01*
X023047Y003871D01*
X023081Y003817D01*
X023112Y003761D01*
X023138Y003703D01*
X023162Y003644D01*
X023181Y003583D01*
X023197Y003521D01*
X023209Y003459D01*
X023217Y003395D01*
X023221Y003332D01*
X023221Y003268D01*
X023217Y003205D01*
X023209Y003141D01*
X023197Y003079D01*
X023181Y003017D01*
X023162Y002956D01*
X023138Y002897D01*
X023112Y002839D01*
X023081Y002783D01*
X023047Y002729D01*
X023010Y002678D01*
X022970Y002628D01*
X022927Y002582D01*
X022881Y002538D01*
X022832Y002497D01*
X022781Y002459D01*
X022727Y002424D01*
X022672Y002393D01*
X022614Y002365D01*
X022556Y002341D01*
X022495Y002320D01*
X022434Y002304D01*
X022371Y002291D01*
X022308Y002282D01*
X022245Y002277D01*
X022181Y002276D01*
X022117Y002279D01*
X022054Y002286D01*
X021991Y002297D01*
X021929Y002312D01*
X021868Y002330D01*
X021809Y002352D01*
X021751Y002378D01*
X021694Y002408D01*
X021640Y002441D01*
X021587Y002477D01*
X021537Y002517D01*
X021490Y002559D01*
X021445Y002605D01*
X021404Y002653D01*
X021365Y002703D01*
X021329Y002756D01*
X021297Y002811D01*
X021269Y002868D01*
X021244Y002927D01*
X021222Y002987D01*
X021205Y003048D01*
X021191Y003110D01*
X021181Y003173D01*
X021175Y003236D01*
X021173Y003300D01*
X018024Y003300D02*
X018026Y003364D01*
X018032Y003427D01*
X018042Y003490D01*
X018056Y003552D01*
X018073Y003613D01*
X018095Y003673D01*
X018120Y003732D01*
X018148Y003789D01*
X018180Y003844D01*
X018216Y003897D01*
X018255Y003947D01*
X018296Y003995D01*
X018341Y004041D01*
X018388Y004083D01*
X018438Y004123D01*
X018491Y004159D01*
X018545Y004192D01*
X018602Y004222D01*
X018660Y004248D01*
X018719Y004270D01*
X018780Y004288D01*
X018842Y004303D01*
X018905Y004314D01*
X018968Y004321D01*
X019032Y004324D01*
X019096Y004323D01*
X019159Y004318D01*
X019222Y004309D01*
X019285Y004296D01*
X019346Y004280D01*
X019407Y004259D01*
X019465Y004235D01*
X019523Y004207D01*
X019578Y004176D01*
X019632Y004141D01*
X019683Y004103D01*
X019732Y004062D01*
X019778Y004018D01*
X019821Y003972D01*
X019861Y003922D01*
X019898Y003871D01*
X019932Y003817D01*
X019963Y003761D01*
X019989Y003703D01*
X020013Y003644D01*
X020032Y003583D01*
X020048Y003521D01*
X020060Y003459D01*
X020068Y003395D01*
X020072Y003332D01*
X020072Y003268D01*
X020068Y003205D01*
X020060Y003141D01*
X020048Y003079D01*
X020032Y003017D01*
X020013Y002956D01*
X019989Y002897D01*
X019963Y002839D01*
X019932Y002783D01*
X019898Y002729D01*
X019861Y002678D01*
X019821Y002628D01*
X019778Y002582D01*
X019732Y002538D01*
X019683Y002497D01*
X019632Y002459D01*
X019578Y002424D01*
X019523Y002393D01*
X019465Y002365D01*
X019407Y002341D01*
X019346Y002320D01*
X019285Y002304D01*
X019222Y002291D01*
X019159Y002282D01*
X019096Y002277D01*
X019032Y002276D01*
X018968Y002279D01*
X018905Y002286D01*
X018842Y002297D01*
X018780Y002312D01*
X018719Y002330D01*
X018660Y002352D01*
X018602Y002378D01*
X018545Y002408D01*
X018491Y002441D01*
X018438Y002477D01*
X018388Y002517D01*
X018341Y002559D01*
X018296Y002605D01*
X018255Y002653D01*
X018216Y002703D01*
X018180Y002756D01*
X018148Y002811D01*
X018120Y002868D01*
X018095Y002927D01*
X018073Y002987D01*
X018056Y003048D01*
X018042Y003110D01*
X018032Y003173D01*
X018026Y003236D01*
X018024Y003300D01*
X014874Y003300D02*
X014876Y003364D01*
X014882Y003427D01*
X014892Y003490D01*
X014906Y003552D01*
X014923Y003613D01*
X014945Y003673D01*
X014970Y003732D01*
X014998Y003789D01*
X015030Y003844D01*
X015066Y003897D01*
X015105Y003947D01*
X015146Y003995D01*
X015191Y004041D01*
X015238Y004083D01*
X015288Y004123D01*
X015341Y004159D01*
X015395Y004192D01*
X015452Y004222D01*
X015510Y004248D01*
X015569Y004270D01*
X015630Y004288D01*
X015692Y004303D01*
X015755Y004314D01*
X015818Y004321D01*
X015882Y004324D01*
X015946Y004323D01*
X016009Y004318D01*
X016072Y004309D01*
X016135Y004296D01*
X016196Y004280D01*
X016257Y004259D01*
X016315Y004235D01*
X016373Y004207D01*
X016428Y004176D01*
X016482Y004141D01*
X016533Y004103D01*
X016582Y004062D01*
X016628Y004018D01*
X016671Y003972D01*
X016711Y003922D01*
X016748Y003871D01*
X016782Y003817D01*
X016813Y003761D01*
X016839Y003703D01*
X016863Y003644D01*
X016882Y003583D01*
X016898Y003521D01*
X016910Y003459D01*
X016918Y003395D01*
X016922Y003332D01*
X016922Y003268D01*
X016918Y003205D01*
X016910Y003141D01*
X016898Y003079D01*
X016882Y003017D01*
X016863Y002956D01*
X016839Y002897D01*
X016813Y002839D01*
X016782Y002783D01*
X016748Y002729D01*
X016711Y002678D01*
X016671Y002628D01*
X016628Y002582D01*
X016582Y002538D01*
X016533Y002497D01*
X016482Y002459D01*
X016428Y002424D01*
X016373Y002393D01*
X016315Y002365D01*
X016257Y002341D01*
X016196Y002320D01*
X016135Y002304D01*
X016072Y002291D01*
X016009Y002282D01*
X015946Y002277D01*
X015882Y002276D01*
X015818Y002279D01*
X015755Y002286D01*
X015692Y002297D01*
X015630Y002312D01*
X015569Y002330D01*
X015510Y002352D01*
X015452Y002378D01*
X015395Y002408D01*
X015341Y002441D01*
X015288Y002477D01*
X015238Y002517D01*
X015191Y002559D01*
X015146Y002605D01*
X015105Y002653D01*
X015066Y002703D01*
X015030Y002756D01*
X014998Y002811D01*
X014970Y002868D01*
X014945Y002927D01*
X014923Y002987D01*
X014906Y003048D01*
X014892Y003110D01*
X014882Y003173D01*
X014876Y003236D01*
X014874Y003300D01*
X011724Y003300D02*
X011726Y003364D01*
X011732Y003427D01*
X011742Y003490D01*
X011756Y003552D01*
X011773Y003613D01*
X011795Y003673D01*
X011820Y003732D01*
X011848Y003789D01*
X011880Y003844D01*
X011916Y003897D01*
X011955Y003947D01*
X011996Y003995D01*
X012041Y004041D01*
X012088Y004083D01*
X012138Y004123D01*
X012191Y004159D01*
X012245Y004192D01*
X012302Y004222D01*
X012360Y004248D01*
X012419Y004270D01*
X012480Y004288D01*
X012542Y004303D01*
X012605Y004314D01*
X012668Y004321D01*
X012732Y004324D01*
X012796Y004323D01*
X012859Y004318D01*
X012922Y004309D01*
X012985Y004296D01*
X013046Y004280D01*
X013107Y004259D01*
X013165Y004235D01*
X013223Y004207D01*
X013278Y004176D01*
X013332Y004141D01*
X013383Y004103D01*
X013432Y004062D01*
X013478Y004018D01*
X013521Y003972D01*
X013561Y003922D01*
X013598Y003871D01*
X013632Y003817D01*
X013663Y003761D01*
X013689Y003703D01*
X013713Y003644D01*
X013732Y003583D01*
X013748Y003521D01*
X013760Y003459D01*
X013768Y003395D01*
X013772Y003332D01*
X013772Y003268D01*
X013768Y003205D01*
X013760Y003141D01*
X013748Y003079D01*
X013732Y003017D01*
X013713Y002956D01*
X013689Y002897D01*
X013663Y002839D01*
X013632Y002783D01*
X013598Y002729D01*
X013561Y002678D01*
X013521Y002628D01*
X013478Y002582D01*
X013432Y002538D01*
X013383Y002497D01*
X013332Y002459D01*
X013278Y002424D01*
X013223Y002393D01*
X013165Y002365D01*
X013107Y002341D01*
X013046Y002320D01*
X012985Y002304D01*
X012922Y002291D01*
X012859Y002282D01*
X012796Y002277D01*
X012732Y002276D01*
X012668Y002279D01*
X012605Y002286D01*
X012542Y002297D01*
X012480Y002312D01*
X012419Y002330D01*
X012360Y002352D01*
X012302Y002378D01*
X012245Y002408D01*
X012191Y002441D01*
X012138Y002477D01*
X012088Y002517D01*
X012041Y002559D01*
X011996Y002605D01*
X011955Y002653D01*
X011916Y002703D01*
X011880Y002756D01*
X011848Y002811D01*
X011820Y002868D01*
X011795Y002927D01*
X011773Y002987D01*
X011756Y003048D01*
X011742Y003110D01*
X011732Y003173D01*
X011726Y003236D01*
X011724Y003300D01*
X010530Y004624D02*
X010532Y004663D01*
X010538Y004702D01*
X010548Y004740D01*
X010561Y004777D01*
X010578Y004812D01*
X010598Y004846D01*
X010622Y004877D01*
X010649Y004906D01*
X010678Y004932D01*
X010710Y004955D01*
X010744Y004975D01*
X010780Y004991D01*
X010817Y005003D01*
X010856Y005012D01*
X010895Y005017D01*
X010934Y005018D01*
X010973Y005015D01*
X011012Y005008D01*
X011049Y004997D01*
X011086Y004983D01*
X011121Y004965D01*
X011154Y004944D01*
X011185Y004919D01*
X011213Y004892D01*
X011238Y004862D01*
X011260Y004829D01*
X011279Y004795D01*
X011294Y004759D01*
X011306Y004721D01*
X011314Y004683D01*
X011318Y004644D01*
X011318Y004604D01*
X011314Y004565D01*
X011306Y004527D01*
X011294Y004489D01*
X011279Y004453D01*
X011260Y004419D01*
X011238Y004386D01*
X011213Y004356D01*
X011185Y004329D01*
X011154Y004304D01*
X011121Y004283D01*
X011086Y004265D01*
X011049Y004251D01*
X011012Y004240D01*
X010973Y004233D01*
X010934Y004230D01*
X010895Y004231D01*
X010856Y004236D01*
X010817Y004245D01*
X010780Y004257D01*
X010744Y004273D01*
X010710Y004293D01*
X010678Y004316D01*
X010649Y004342D01*
X010622Y004371D01*
X010598Y004402D01*
X010578Y004436D01*
X010561Y004471D01*
X010548Y004508D01*
X010538Y004546D01*
X010532Y004585D01*
X010530Y004624D01*
D11*
X010924Y004624D03*
X004624Y007774D03*
X004624Y027172D03*
X010924Y030321D03*
X024022Y030321D03*
X024022Y004624D03*
D12*
X022197Y003300D03*
X019048Y003300D03*
X015898Y003300D03*
X012748Y003300D03*
X003300Y009599D03*
X003300Y012748D03*
X003300Y015898D03*
X003300Y019048D03*
X003300Y022197D03*
X003300Y025347D03*
X012748Y031646D03*
X015898Y031646D03*
X019048Y031646D03*
X022197Y031646D03*
X031646Y028496D03*
X031646Y006449D03*
D13*
X028906Y006973D03*
X023725Y007975D03*
X014725Y007975D03*
X011125Y026975D03*
X021725Y026975D03*
X028906Y028973D03*
D14*
X028725Y026975D03*
X027725Y026975D03*
X026725Y026975D03*
X025725Y026975D03*
X024725Y026975D03*
X023725Y026975D03*
X022725Y026975D03*
X020125Y026975D03*
X019125Y026975D03*
X018125Y026975D03*
X017125Y026975D03*
X016125Y026975D03*
X015125Y026975D03*
X014125Y026975D03*
X013125Y026975D03*
X012125Y026975D03*
X015725Y007975D03*
X016725Y007975D03*
X017725Y007975D03*
X018725Y007975D03*
X019725Y007975D03*
X020725Y007975D03*
X021725Y007975D03*
X024725Y007975D03*
X025725Y007975D03*
X026725Y007975D03*
X027725Y007975D03*
X028725Y007975D03*
D15*
X027749Y006685D02*
X027749Y006455D01*
X027401Y006455D01*
X027401Y006685D01*
X027749Y006685D01*
X027749Y006501D02*
X027401Y006501D01*
X027401Y006547D02*
X027749Y006547D01*
X027749Y006593D02*
X027401Y006593D01*
X027401Y006639D02*
X027749Y006639D01*
X027749Y006685D02*
X027401Y006685D01*
X027749Y006095D02*
X027749Y005865D01*
X027401Y005865D01*
X027401Y006095D01*
X027749Y006095D01*
X027749Y005911D02*
X027401Y005911D01*
X027401Y005957D02*
X027749Y005957D01*
X027749Y006003D02*
X027401Y006003D01*
X027401Y006049D02*
X027749Y006049D01*
X027749Y006095D02*
X027401Y006095D01*
X026628Y006089D02*
X026628Y005859D01*
X025768Y005859D01*
X025768Y006089D01*
X026628Y006089D01*
X026628Y005905D02*
X025768Y005905D01*
X025768Y005951D02*
X026628Y005951D01*
X026628Y005997D02*
X025768Y005997D01*
X025768Y006043D02*
X026628Y006043D01*
X026628Y006089D02*
X025768Y006089D01*
X026628Y006359D02*
X026628Y006589D01*
X026628Y006359D02*
X025768Y006359D01*
X025768Y006589D01*
X026628Y006589D01*
X026628Y006405D02*
X025768Y006405D01*
X025768Y006451D02*
X026628Y006451D01*
X026628Y006497D02*
X025768Y006497D01*
X025768Y006543D02*
X026628Y006543D01*
X026628Y006589D02*
X025768Y006589D01*
X026628Y006859D02*
X026628Y007089D01*
X026628Y006859D02*
X025768Y006859D01*
X025768Y007089D01*
X026628Y007089D01*
X026628Y006905D02*
X025768Y006905D01*
X025768Y006951D02*
X026628Y006951D01*
X026628Y006997D02*
X025768Y006997D01*
X025768Y007043D02*
X026628Y007043D01*
X026628Y007089D02*
X025768Y007089D01*
X024581Y007089D02*
X024581Y006859D01*
X023721Y006859D01*
X023721Y007089D01*
X024581Y007089D01*
X024581Y006905D02*
X023721Y006905D01*
X023721Y006951D02*
X024581Y006951D01*
X024581Y006997D02*
X023721Y006997D01*
X023721Y007043D02*
X024581Y007043D01*
X024581Y007089D02*
X023721Y007089D01*
X024581Y006589D02*
X024581Y006359D01*
X023721Y006359D01*
X023721Y006589D01*
X024581Y006589D01*
X024581Y006405D02*
X023721Y006405D01*
X023721Y006451D02*
X024581Y006451D01*
X024581Y006497D02*
X023721Y006497D01*
X023721Y006543D02*
X024581Y006543D01*
X024581Y006589D02*
X023721Y006589D01*
X024581Y006089D02*
X024581Y005859D01*
X023721Y005859D01*
X023721Y006089D01*
X024581Y006089D01*
X024581Y005905D02*
X023721Y005905D01*
X023721Y005951D02*
X024581Y005951D01*
X024581Y005997D02*
X023721Y005997D01*
X023721Y006043D02*
X024581Y006043D01*
X024581Y006089D02*
X023721Y006089D01*
X024581Y005589D02*
X024581Y005359D01*
X023721Y005359D01*
X023721Y005589D01*
X024581Y005589D01*
X024581Y005405D02*
X023721Y005405D01*
X023721Y005451D02*
X024581Y005451D01*
X024581Y005497D02*
X023721Y005497D01*
X023721Y005543D02*
X024581Y005543D01*
X024581Y005589D02*
X023721Y005589D01*
X022301Y005495D02*
X022301Y005265D01*
X022301Y005495D02*
X022649Y005495D01*
X022649Y005265D01*
X022301Y005265D01*
X022301Y005311D02*
X022649Y005311D01*
X022649Y005357D02*
X022301Y005357D01*
X022301Y005403D02*
X022649Y005403D01*
X022649Y005449D02*
X022301Y005449D01*
X022301Y005495D02*
X022649Y005495D01*
X022301Y005855D02*
X022301Y006085D01*
X022649Y006085D01*
X022649Y005855D01*
X022301Y005855D01*
X022301Y005901D02*
X022649Y005901D01*
X022649Y005947D02*
X022301Y005947D01*
X022301Y005993D02*
X022649Y005993D01*
X022649Y006039D02*
X022301Y006039D01*
X022301Y006085D02*
X022649Y006085D01*
X021635Y006999D02*
X021405Y006999D01*
X021635Y006999D02*
X021635Y006651D01*
X021405Y006651D01*
X021405Y006999D01*
X021405Y006697D02*
X021635Y006697D01*
X021635Y006743D02*
X021405Y006743D01*
X021405Y006789D02*
X021635Y006789D01*
X021635Y006835D02*
X021405Y006835D01*
X021405Y006881D02*
X021635Y006881D01*
X021635Y006927D02*
X021405Y006927D01*
X021405Y006973D02*
X021635Y006973D01*
X021045Y006999D02*
X020815Y006999D01*
X021045Y006999D02*
X021045Y006651D01*
X020815Y006651D01*
X020815Y006999D01*
X020815Y006697D02*
X021045Y006697D01*
X021045Y006743D02*
X020815Y006743D01*
X020815Y006789D02*
X021045Y006789D01*
X021045Y006835D02*
X020815Y006835D01*
X020815Y006881D02*
X021045Y006881D01*
X021045Y006927D02*
X020815Y006927D01*
X020815Y006973D02*
X021045Y006973D01*
X019751Y006085D02*
X019751Y005855D01*
X019751Y006085D02*
X020099Y006085D01*
X020099Y005855D01*
X019751Y005855D01*
X019751Y005901D02*
X020099Y005901D01*
X020099Y005947D02*
X019751Y005947D01*
X019751Y005993D02*
X020099Y005993D01*
X020099Y006039D02*
X019751Y006039D01*
X019751Y006085D02*
X020099Y006085D01*
X019751Y005495D02*
X019751Y005265D01*
X019751Y005495D02*
X020099Y005495D01*
X020099Y005265D01*
X019751Y005265D01*
X019751Y005311D02*
X020099Y005311D01*
X020099Y005357D02*
X019751Y005357D01*
X019751Y005403D02*
X020099Y005403D01*
X020099Y005449D02*
X019751Y005449D01*
X019751Y005495D02*
X020099Y005495D01*
X018801Y005495D02*
X018801Y005265D01*
X018801Y005495D02*
X019149Y005495D01*
X019149Y005265D01*
X018801Y005265D01*
X018801Y005311D02*
X019149Y005311D01*
X019149Y005357D02*
X018801Y005357D01*
X018801Y005403D02*
X019149Y005403D01*
X019149Y005449D02*
X018801Y005449D01*
X018801Y005495D02*
X019149Y005495D01*
X018801Y005855D02*
X018801Y006085D01*
X019149Y006085D01*
X019149Y005855D01*
X018801Y005855D01*
X018801Y005901D02*
X019149Y005901D01*
X019149Y005947D02*
X018801Y005947D01*
X018801Y005993D02*
X019149Y005993D01*
X019149Y006039D02*
X018801Y006039D01*
X018801Y006085D02*
X019149Y006085D01*
X018085Y007049D02*
X017855Y007049D01*
X018085Y007049D02*
X018085Y006701D01*
X017855Y006701D01*
X017855Y007049D01*
X017855Y006747D02*
X018085Y006747D01*
X018085Y006793D02*
X017855Y006793D01*
X017855Y006839D02*
X018085Y006839D01*
X018085Y006885D02*
X017855Y006885D01*
X017855Y006931D02*
X018085Y006931D01*
X018085Y006977D02*
X017855Y006977D01*
X017855Y007023D02*
X018085Y007023D01*
X017495Y007049D02*
X017265Y007049D01*
X017495Y007049D02*
X017495Y006701D01*
X017265Y006701D01*
X017265Y007049D01*
X017265Y006747D02*
X017495Y006747D01*
X017495Y006793D02*
X017265Y006793D01*
X017265Y006839D02*
X017495Y006839D01*
X017495Y006885D02*
X017265Y006885D01*
X017265Y006931D02*
X017495Y006931D01*
X017495Y006977D02*
X017265Y006977D01*
X017265Y007023D02*
X017495Y007023D01*
X016301Y006085D02*
X016301Y005855D01*
X016301Y006085D02*
X016649Y006085D01*
X016649Y005855D01*
X016301Y005855D01*
X016301Y005901D02*
X016649Y005901D01*
X016649Y005947D02*
X016301Y005947D01*
X016301Y005993D02*
X016649Y005993D01*
X016649Y006039D02*
X016301Y006039D01*
X016301Y006085D02*
X016649Y006085D01*
X016301Y005495D02*
X016301Y005265D01*
X016301Y005495D02*
X016649Y005495D01*
X016649Y005265D01*
X016301Y005265D01*
X016301Y005311D02*
X016649Y005311D01*
X016649Y005357D02*
X016301Y005357D01*
X016301Y005403D02*
X016649Y005403D01*
X016649Y005449D02*
X016301Y005449D01*
X016301Y005495D02*
X016649Y005495D01*
X015151Y005495D02*
X015151Y005265D01*
X015151Y005495D02*
X015499Y005495D01*
X015499Y005265D01*
X015151Y005265D01*
X015151Y005311D02*
X015499Y005311D01*
X015499Y005357D02*
X015151Y005357D01*
X015151Y005403D02*
X015499Y005403D01*
X015499Y005449D02*
X015151Y005449D01*
X015151Y005495D02*
X015499Y005495D01*
X015151Y005855D02*
X015151Y006085D01*
X015499Y006085D01*
X015499Y005855D01*
X015151Y005855D01*
X015151Y005901D02*
X015499Y005901D01*
X015499Y005947D02*
X015151Y005947D01*
X015151Y005993D02*
X015499Y005993D01*
X015499Y006039D02*
X015151Y006039D01*
X015151Y006085D02*
X015499Y006085D01*
X014535Y007049D02*
X014305Y007049D01*
X014535Y007049D02*
X014535Y006701D01*
X014305Y006701D01*
X014305Y007049D01*
X014305Y006747D02*
X014535Y006747D01*
X014535Y006793D02*
X014305Y006793D01*
X014305Y006839D02*
X014535Y006839D01*
X014535Y006885D02*
X014305Y006885D01*
X014305Y006931D02*
X014535Y006931D01*
X014535Y006977D02*
X014305Y006977D01*
X014305Y007023D02*
X014535Y007023D01*
X013945Y007049D02*
X013715Y007049D01*
X013945Y007049D02*
X013945Y006701D01*
X013715Y006701D01*
X013715Y007049D01*
X013715Y006747D02*
X013945Y006747D01*
X013945Y006793D02*
X013715Y006793D01*
X013715Y006839D02*
X013945Y006839D01*
X013945Y006885D02*
X013715Y006885D01*
X013715Y006931D02*
X013945Y006931D01*
X013945Y006977D02*
X013715Y006977D01*
X013715Y007023D02*
X013945Y007023D01*
X012601Y006135D02*
X012601Y005905D01*
X012601Y006135D02*
X012949Y006135D01*
X012949Y005905D01*
X012601Y005905D01*
X012601Y005951D02*
X012949Y005951D01*
X012949Y005997D02*
X012601Y005997D01*
X012601Y006043D02*
X012949Y006043D01*
X012949Y006089D02*
X012601Y006089D01*
X012601Y006135D02*
X012949Y006135D01*
X012601Y005545D02*
X012601Y005315D01*
X012601Y005545D02*
X012949Y005545D01*
X012949Y005315D01*
X012601Y005315D01*
X012601Y005361D02*
X012949Y005361D01*
X012949Y005407D02*
X012601Y005407D01*
X012601Y005453D02*
X012949Y005453D01*
X012949Y005499D02*
X012601Y005499D01*
X012601Y005545D02*
X012949Y005545D01*
X012235Y007749D02*
X012005Y007749D01*
X012235Y007749D02*
X012235Y007401D01*
X012005Y007401D01*
X012005Y007749D01*
X012005Y007447D02*
X012235Y007447D01*
X012235Y007493D02*
X012005Y007493D01*
X012005Y007539D02*
X012235Y007539D01*
X012235Y007585D02*
X012005Y007585D01*
X012005Y007631D02*
X012235Y007631D01*
X012235Y007677D02*
X012005Y007677D01*
X012005Y007723D02*
X012235Y007723D01*
X012235Y008649D02*
X012005Y008649D01*
X012235Y008649D02*
X012235Y008301D01*
X012005Y008301D01*
X012005Y008649D01*
X012005Y008347D02*
X012235Y008347D01*
X012235Y008393D02*
X012005Y008393D01*
X012005Y008439D02*
X012235Y008439D01*
X012235Y008485D02*
X012005Y008485D01*
X012005Y008531D02*
X012235Y008531D01*
X012235Y008577D02*
X012005Y008577D01*
X012005Y008623D02*
X012235Y008623D01*
X011645Y008649D02*
X011415Y008649D01*
X011645Y008649D02*
X011645Y008301D01*
X011415Y008301D01*
X011415Y008649D01*
X011415Y008347D02*
X011645Y008347D01*
X011645Y008393D02*
X011415Y008393D01*
X011415Y008439D02*
X011645Y008439D01*
X011645Y008485D02*
X011415Y008485D01*
X011415Y008531D02*
X011645Y008531D01*
X011645Y008577D02*
X011415Y008577D01*
X011415Y008623D02*
X011645Y008623D01*
X011645Y009301D02*
X011415Y009301D01*
X011415Y009649D01*
X011645Y009649D01*
X011645Y009301D01*
X011645Y009347D02*
X011415Y009347D01*
X011415Y009393D02*
X011645Y009393D01*
X011645Y009439D02*
X011415Y009439D01*
X011415Y009485D02*
X011645Y009485D01*
X011645Y009531D02*
X011415Y009531D01*
X011415Y009577D02*
X011645Y009577D01*
X011645Y009623D02*
X011415Y009623D01*
X012005Y009301D02*
X012235Y009301D01*
X012005Y009301D02*
X012005Y009649D01*
X012235Y009649D01*
X012235Y009301D01*
X012235Y009347D02*
X012005Y009347D01*
X012005Y009393D02*
X012235Y009393D01*
X012235Y009439D02*
X012005Y009439D01*
X012005Y009485D02*
X012235Y009485D01*
X012235Y009531D02*
X012005Y009531D01*
X012005Y009577D02*
X012235Y009577D01*
X012235Y009623D02*
X012005Y009623D01*
X011645Y007749D02*
X011415Y007749D01*
X011645Y007749D02*
X011645Y007401D01*
X011415Y007401D01*
X011415Y007749D01*
X011415Y007447D02*
X011645Y007447D01*
X011645Y007493D02*
X011415Y007493D01*
X011415Y007539D02*
X011645Y007539D01*
X011645Y007585D02*
X011415Y007585D01*
X011415Y007631D02*
X011645Y007631D01*
X011645Y007677D02*
X011415Y007677D01*
X011415Y007723D02*
X011645Y007723D01*
X011301Y013465D02*
X011301Y013695D01*
X011649Y013695D01*
X011649Y013465D01*
X011301Y013465D01*
X011301Y013511D02*
X011649Y013511D01*
X011649Y013557D02*
X011301Y013557D01*
X011301Y013603D02*
X011649Y013603D01*
X011649Y013649D02*
X011301Y013649D01*
X011301Y013695D02*
X011649Y013695D01*
X011301Y014055D02*
X011301Y014285D01*
X011649Y014285D01*
X011649Y014055D01*
X011301Y014055D01*
X011301Y014101D02*
X011649Y014101D01*
X011649Y014147D02*
X011301Y014147D01*
X011301Y014193D02*
X011649Y014193D01*
X011649Y014239D02*
X011301Y014239D01*
X011301Y014285D02*
X011649Y014285D01*
X014115Y014188D02*
X014115Y013958D01*
X013255Y013958D01*
X013255Y014188D01*
X014115Y014188D01*
X014115Y014004D02*
X013255Y014004D01*
X013255Y014050D02*
X014115Y014050D01*
X014115Y014096D02*
X013255Y014096D01*
X013255Y014142D02*
X014115Y014142D01*
X014115Y014188D02*
X013255Y014188D01*
X014115Y014458D02*
X014115Y014688D01*
X014115Y014458D02*
X013255Y014458D01*
X013255Y014688D01*
X014115Y014688D01*
X014115Y014504D02*
X013255Y014504D01*
X013255Y014550D02*
X014115Y014550D01*
X014115Y014596D02*
X013255Y014596D01*
X013255Y014642D02*
X014115Y014642D01*
X014115Y014688D02*
X013255Y014688D01*
X014115Y014958D02*
X014115Y015188D01*
X014115Y014958D02*
X013255Y014958D01*
X013255Y015188D01*
X014115Y015188D01*
X014115Y015004D02*
X013255Y015004D01*
X013255Y015050D02*
X014115Y015050D01*
X014115Y015096D02*
X013255Y015096D01*
X013255Y015142D02*
X014115Y015142D01*
X014115Y015188D02*
X013255Y015188D01*
X013519Y015724D02*
X013749Y015724D01*
X013519Y015724D02*
X013519Y016072D01*
X013749Y016072D01*
X013749Y015724D01*
X013749Y015770D02*
X013519Y015770D01*
X013519Y015816D02*
X013749Y015816D01*
X013749Y015862D02*
X013519Y015862D01*
X013519Y015908D02*
X013749Y015908D01*
X013749Y015954D02*
X013519Y015954D01*
X013519Y016000D02*
X013749Y016000D01*
X013749Y016046D02*
X013519Y016046D01*
X013519Y016859D02*
X013749Y016859D01*
X013749Y016511D01*
X013519Y016511D01*
X013519Y016859D01*
X013519Y016557D02*
X013749Y016557D01*
X013749Y016603D02*
X013519Y016603D01*
X013519Y016649D02*
X013749Y016649D01*
X013749Y016695D02*
X013519Y016695D01*
X013519Y016741D02*
X013749Y016741D01*
X013749Y016787D02*
X013519Y016787D01*
X013519Y016833D02*
X013749Y016833D01*
X014110Y016859D02*
X014340Y016859D01*
X014340Y016511D01*
X014110Y016511D01*
X014110Y016859D01*
X014110Y016557D02*
X014340Y016557D01*
X014340Y016603D02*
X014110Y016603D01*
X014110Y016649D02*
X014340Y016649D01*
X014340Y016695D02*
X014110Y016695D01*
X014110Y016741D02*
X014340Y016741D01*
X014340Y016787D02*
X014110Y016787D01*
X014110Y016833D02*
X014340Y016833D01*
X014897Y016511D02*
X015127Y016511D01*
X014897Y016511D02*
X014897Y016859D01*
X015127Y016859D01*
X015127Y016511D01*
X015127Y016557D02*
X014897Y016557D01*
X014897Y016603D02*
X015127Y016603D01*
X015127Y016649D02*
X014897Y016649D01*
X014897Y016695D02*
X015127Y016695D01*
X015127Y016741D02*
X014897Y016741D01*
X014897Y016787D02*
X015127Y016787D01*
X015127Y016833D02*
X014897Y016833D01*
X015488Y016511D02*
X015718Y016511D01*
X015488Y016511D02*
X015488Y016859D01*
X015718Y016859D01*
X015718Y016511D01*
X015718Y016557D02*
X015488Y016557D01*
X015488Y016603D02*
X015718Y016603D01*
X015718Y016649D02*
X015488Y016649D01*
X015488Y016695D02*
X015718Y016695D01*
X015718Y016741D02*
X015488Y016741D01*
X015488Y016787D02*
X015718Y016787D01*
X015718Y016833D02*
X015488Y016833D01*
X016275Y016859D02*
X016505Y016859D01*
X016505Y016511D01*
X016275Y016511D01*
X016275Y016859D01*
X016275Y016557D02*
X016505Y016557D01*
X016505Y016603D02*
X016275Y016603D01*
X016275Y016649D02*
X016505Y016649D01*
X016505Y016695D02*
X016275Y016695D01*
X016275Y016741D02*
X016505Y016741D01*
X016505Y016787D02*
X016275Y016787D01*
X016275Y016833D02*
X016505Y016833D01*
X016866Y016859D02*
X017096Y016859D01*
X017096Y016511D01*
X016866Y016511D01*
X016866Y016859D01*
X016866Y016557D02*
X017096Y016557D01*
X017096Y016603D02*
X016866Y016603D01*
X016866Y016649D02*
X017096Y016649D01*
X017096Y016695D02*
X016866Y016695D01*
X016866Y016741D02*
X017096Y016741D01*
X017096Y016787D02*
X016866Y016787D01*
X016866Y016833D02*
X017096Y016833D01*
X017096Y015724D02*
X016866Y015724D01*
X016866Y016072D01*
X017096Y016072D01*
X017096Y015724D01*
X017096Y015770D02*
X016866Y015770D01*
X016866Y015816D02*
X017096Y015816D01*
X017096Y015862D02*
X016866Y015862D01*
X016866Y015908D02*
X017096Y015908D01*
X017096Y015954D02*
X016866Y015954D01*
X016866Y016000D02*
X017096Y016000D01*
X017096Y016046D02*
X016866Y016046D01*
X016505Y015724D02*
X016275Y015724D01*
X016275Y016072D01*
X016505Y016072D01*
X016505Y015724D01*
X016505Y015770D02*
X016275Y015770D01*
X016275Y015816D02*
X016505Y015816D01*
X016505Y015862D02*
X016275Y015862D01*
X016275Y015908D02*
X016505Y015908D01*
X016505Y015954D02*
X016275Y015954D01*
X016275Y016000D02*
X016505Y016000D01*
X016505Y016046D02*
X016275Y016046D01*
X015718Y015724D02*
X015488Y015724D01*
X015488Y016072D01*
X015718Y016072D01*
X015718Y015724D01*
X015718Y015770D02*
X015488Y015770D01*
X015488Y015816D02*
X015718Y015816D01*
X015718Y015862D02*
X015488Y015862D01*
X015488Y015908D02*
X015718Y015908D01*
X015718Y015954D02*
X015488Y015954D01*
X015488Y016000D02*
X015718Y016000D01*
X015718Y016046D02*
X015488Y016046D01*
X015127Y015724D02*
X014897Y015724D01*
X014897Y016072D01*
X015127Y016072D01*
X015127Y015724D01*
X015127Y015770D02*
X014897Y015770D01*
X014897Y015816D02*
X015127Y015816D01*
X015127Y015862D02*
X014897Y015862D01*
X014897Y015908D02*
X015127Y015908D01*
X015127Y015954D02*
X014897Y015954D01*
X014897Y016000D02*
X015127Y016000D01*
X015127Y016046D02*
X014897Y016046D01*
X014340Y015724D02*
X014110Y015724D01*
X014110Y016072D01*
X014340Y016072D01*
X014340Y015724D01*
X014340Y015770D02*
X014110Y015770D01*
X014110Y015816D02*
X014340Y015816D01*
X014340Y015862D02*
X014110Y015862D01*
X014110Y015908D02*
X014340Y015908D01*
X014340Y015954D02*
X014110Y015954D01*
X014110Y016000D02*
X014340Y016000D01*
X014340Y016046D02*
X014110Y016046D01*
X016163Y015188D02*
X016163Y014958D01*
X015303Y014958D01*
X015303Y015188D01*
X016163Y015188D01*
X016163Y015004D02*
X015303Y015004D01*
X015303Y015050D02*
X016163Y015050D01*
X016163Y015096D02*
X015303Y015096D01*
X015303Y015142D02*
X016163Y015142D01*
X016163Y015188D02*
X015303Y015188D01*
X016163Y014688D02*
X016163Y014458D01*
X015303Y014458D01*
X015303Y014688D01*
X016163Y014688D01*
X016163Y014504D02*
X015303Y014504D01*
X015303Y014550D02*
X016163Y014550D01*
X016163Y014596D02*
X015303Y014596D01*
X015303Y014642D02*
X016163Y014642D01*
X016163Y014688D02*
X015303Y014688D01*
X016163Y014188D02*
X016163Y013958D01*
X015303Y013958D01*
X015303Y014188D01*
X016163Y014188D01*
X016163Y014004D02*
X015303Y014004D01*
X015303Y014050D02*
X016163Y014050D01*
X016163Y014096D02*
X015303Y014096D01*
X015303Y014142D02*
X016163Y014142D01*
X016163Y014188D02*
X015303Y014188D01*
X016163Y013688D02*
X016163Y013458D01*
X015303Y013458D01*
X015303Y013688D01*
X016163Y013688D01*
X016163Y013504D02*
X015303Y013504D01*
X015303Y013550D02*
X016163Y013550D01*
X016163Y013596D02*
X015303Y013596D01*
X015303Y013642D02*
X016163Y013642D01*
X016163Y013688D02*
X015303Y013688D01*
X014115Y013688D02*
X014115Y013458D01*
X013255Y013458D01*
X013255Y013688D01*
X014115Y013688D01*
X014115Y013504D02*
X013255Y013504D01*
X013255Y013550D02*
X014115Y013550D01*
X014115Y013596D02*
X013255Y013596D01*
X013255Y013642D02*
X014115Y013642D01*
X014115Y013688D02*
X013255Y013688D01*
X013315Y018999D02*
X013545Y018999D01*
X013545Y018651D01*
X013315Y018651D01*
X013315Y018999D01*
X013315Y018697D02*
X013545Y018697D01*
X013545Y018743D02*
X013315Y018743D01*
X013315Y018789D02*
X013545Y018789D01*
X013545Y018835D02*
X013315Y018835D01*
X013315Y018881D02*
X013545Y018881D01*
X013545Y018927D02*
X013315Y018927D01*
X013315Y018973D02*
X013545Y018973D01*
X013905Y018999D02*
X014135Y018999D01*
X014135Y018651D01*
X013905Y018651D01*
X013905Y018999D01*
X013905Y018697D02*
X014135Y018697D01*
X014135Y018743D02*
X013905Y018743D01*
X013905Y018789D02*
X014135Y018789D01*
X014135Y018835D02*
X013905Y018835D01*
X013905Y018881D02*
X014135Y018881D01*
X014135Y018927D02*
X013905Y018927D01*
X013905Y018973D02*
X014135Y018973D01*
X014135Y019949D02*
X013905Y019949D01*
X014135Y019949D02*
X014135Y019601D01*
X013905Y019601D01*
X013905Y019949D01*
X013905Y019647D02*
X014135Y019647D01*
X014135Y019693D02*
X013905Y019693D01*
X013905Y019739D02*
X014135Y019739D01*
X014135Y019785D02*
X013905Y019785D01*
X013905Y019831D02*
X014135Y019831D01*
X014135Y019877D02*
X013905Y019877D01*
X013905Y019923D02*
X014135Y019923D01*
X013545Y019949D02*
X013315Y019949D01*
X013545Y019949D02*
X013545Y019601D01*
X013315Y019601D01*
X013315Y019949D01*
X013315Y019647D02*
X013545Y019647D01*
X013545Y019693D02*
X013315Y019693D01*
X013315Y019739D02*
X013545Y019739D01*
X013545Y019785D02*
X013315Y019785D01*
X013315Y019831D02*
X013545Y019831D01*
X013545Y019877D02*
X013315Y019877D01*
X013315Y019923D02*
X013545Y019923D01*
X013568Y020524D02*
X013338Y020524D01*
X013338Y020872D01*
X013568Y020872D01*
X013568Y020524D01*
X013568Y020570D02*
X013338Y020570D01*
X013338Y020616D02*
X013568Y020616D01*
X013568Y020662D02*
X013338Y020662D01*
X013338Y020708D02*
X013568Y020708D01*
X013568Y020754D02*
X013338Y020754D01*
X013338Y020800D02*
X013568Y020800D01*
X013568Y020846D02*
X013338Y020846D01*
X013929Y020524D02*
X014159Y020524D01*
X013929Y020524D02*
X013929Y020872D01*
X014159Y020872D01*
X014159Y020524D01*
X014159Y020570D02*
X013929Y020570D01*
X013929Y020616D02*
X014159Y020616D01*
X014159Y020662D02*
X013929Y020662D01*
X013929Y020708D02*
X014159Y020708D01*
X014159Y020754D02*
X013929Y020754D01*
X013929Y020800D02*
X014159Y020800D01*
X014159Y020846D02*
X013929Y020846D01*
X013929Y021449D02*
X014159Y021449D01*
X013929Y021449D02*
X013929Y021797D01*
X014159Y021797D01*
X014159Y021449D01*
X014159Y021495D02*
X013929Y021495D01*
X013929Y021541D02*
X014159Y021541D01*
X014159Y021587D02*
X013929Y021587D01*
X013929Y021633D02*
X014159Y021633D01*
X014159Y021679D02*
X013929Y021679D01*
X013929Y021725D02*
X014159Y021725D01*
X014159Y021771D02*
X013929Y021771D01*
X013568Y021449D02*
X013338Y021449D01*
X013338Y021797D01*
X013568Y021797D01*
X013568Y021449D01*
X013568Y021495D02*
X013338Y021495D01*
X013338Y021541D02*
X013568Y021541D01*
X013568Y021587D02*
X013338Y021587D01*
X013338Y021633D02*
X013568Y021633D01*
X013568Y021679D02*
X013338Y021679D01*
X013338Y021725D02*
X013568Y021725D01*
X013568Y021771D02*
X013338Y021771D01*
X013338Y022324D02*
X013568Y022324D01*
X013338Y022324D02*
X013338Y022672D01*
X013568Y022672D01*
X013568Y022324D01*
X013568Y022370D02*
X013338Y022370D01*
X013338Y022416D02*
X013568Y022416D01*
X013568Y022462D02*
X013338Y022462D01*
X013338Y022508D02*
X013568Y022508D01*
X013568Y022554D02*
X013338Y022554D01*
X013338Y022600D02*
X013568Y022600D01*
X013568Y022646D02*
X013338Y022646D01*
X013338Y023173D02*
X013568Y023173D01*
X013338Y023173D02*
X013338Y023521D01*
X013568Y023521D01*
X013568Y023173D01*
X013568Y023219D02*
X013338Y023219D01*
X013338Y023265D02*
X013568Y023265D01*
X013568Y023311D02*
X013338Y023311D01*
X013338Y023357D02*
X013568Y023357D01*
X013568Y023403D02*
X013338Y023403D01*
X013338Y023449D02*
X013568Y023449D01*
X013568Y023495D02*
X013338Y023495D01*
X013338Y023998D02*
X013568Y023998D01*
X013338Y023998D02*
X013338Y024346D01*
X013568Y024346D01*
X013568Y023998D01*
X013568Y024044D02*
X013338Y024044D01*
X013338Y024090D02*
X013568Y024090D01*
X013568Y024136D02*
X013338Y024136D01*
X013338Y024182D02*
X013568Y024182D01*
X013568Y024228D02*
X013338Y024228D01*
X013338Y024274D02*
X013568Y024274D01*
X013568Y024320D02*
X013338Y024320D01*
X013929Y023998D02*
X014159Y023998D01*
X013929Y023998D02*
X013929Y024346D01*
X014159Y024346D01*
X014159Y023998D01*
X014159Y024044D02*
X013929Y024044D01*
X013929Y024090D02*
X014159Y024090D01*
X014159Y024136D02*
X013929Y024136D01*
X013929Y024182D02*
X014159Y024182D01*
X014159Y024228D02*
X013929Y024228D01*
X013929Y024274D02*
X014159Y024274D01*
X014159Y024320D02*
X013929Y024320D01*
X013929Y023173D02*
X014159Y023173D01*
X013929Y023173D02*
X013929Y023521D01*
X014159Y023521D01*
X014159Y023173D01*
X014159Y023219D02*
X013929Y023219D01*
X013929Y023265D02*
X014159Y023265D01*
X014159Y023311D02*
X013929Y023311D01*
X013929Y023357D02*
X014159Y023357D01*
X014159Y023403D02*
X013929Y023403D01*
X013929Y023449D02*
X014159Y023449D01*
X014159Y023495D02*
X013929Y023495D01*
X013929Y022324D02*
X014159Y022324D01*
X013929Y022324D02*
X013929Y022672D01*
X014159Y022672D01*
X014159Y022324D01*
X014159Y022370D02*
X013929Y022370D01*
X013929Y022416D02*
X014159Y022416D01*
X014159Y022462D02*
X013929Y022462D01*
X013929Y022508D02*
X014159Y022508D01*
X014159Y022554D02*
X013929Y022554D01*
X013929Y022600D02*
X014159Y022600D01*
X014159Y022646D02*
X013929Y022646D01*
X015299Y021985D02*
X015299Y021755D01*
X014951Y021755D01*
X014951Y021985D01*
X015299Y021985D01*
X015299Y021801D02*
X014951Y021801D01*
X014951Y021847D02*
X015299Y021847D01*
X015299Y021893D02*
X014951Y021893D01*
X014951Y021939D02*
X015299Y021939D01*
X015299Y021985D02*
X014951Y021985D01*
X015299Y021395D02*
X015299Y021165D01*
X014951Y021165D01*
X014951Y021395D01*
X015299Y021395D01*
X015299Y021211D02*
X014951Y021211D01*
X014951Y021257D02*
X015299Y021257D01*
X015299Y021303D02*
X014951Y021303D01*
X014951Y021349D02*
X015299Y021349D01*
X015299Y021395D02*
X014951Y021395D01*
X016119Y022492D02*
X016119Y022722D01*
X016467Y022722D01*
X016467Y022492D01*
X016119Y022492D01*
X016119Y022538D02*
X016467Y022538D01*
X016467Y022584D02*
X016119Y022584D01*
X016119Y022630D02*
X016467Y022630D01*
X016467Y022676D02*
X016119Y022676D01*
X016119Y022722D02*
X016467Y022722D01*
X016119Y023083D02*
X016119Y023313D01*
X016467Y023313D01*
X016467Y023083D01*
X016119Y023083D01*
X016119Y023129D02*
X016467Y023129D01*
X016467Y023175D02*
X016119Y023175D01*
X016119Y023221D02*
X016467Y023221D01*
X016467Y023267D02*
X016119Y023267D01*
X016119Y023313D02*
X016467Y023313D01*
X020665Y025449D02*
X020895Y025449D01*
X020895Y025101D01*
X020665Y025101D01*
X020665Y025449D01*
X020665Y025147D02*
X020895Y025147D01*
X020895Y025193D02*
X020665Y025193D01*
X020665Y025239D02*
X020895Y025239D01*
X020895Y025285D02*
X020665Y025285D01*
X020665Y025331D02*
X020895Y025331D01*
X020895Y025377D02*
X020665Y025377D01*
X020665Y025423D02*
X020895Y025423D01*
X021255Y025449D02*
X021485Y025449D01*
X021485Y025101D01*
X021255Y025101D01*
X021255Y025449D01*
X021255Y025147D02*
X021485Y025147D01*
X021485Y025193D02*
X021255Y025193D01*
X021255Y025239D02*
X021485Y025239D01*
X021485Y025285D02*
X021255Y025285D01*
X021255Y025331D02*
X021485Y025331D01*
X021485Y025377D02*
X021255Y025377D01*
X021255Y025423D02*
X021485Y025423D01*
X024755Y027859D02*
X024755Y028089D01*
X024755Y027859D02*
X023895Y027859D01*
X023895Y028089D01*
X024755Y028089D01*
X024755Y027905D02*
X023895Y027905D01*
X023895Y027951D02*
X024755Y027951D01*
X024755Y027997D02*
X023895Y027997D01*
X023895Y028043D02*
X024755Y028043D01*
X024755Y028089D02*
X023895Y028089D01*
X024755Y028359D02*
X024755Y028589D01*
X024755Y028359D02*
X023895Y028359D01*
X023895Y028589D01*
X024755Y028589D01*
X024755Y028405D02*
X023895Y028405D01*
X023895Y028451D02*
X024755Y028451D01*
X024755Y028497D02*
X023895Y028497D01*
X023895Y028543D02*
X024755Y028543D01*
X024755Y028589D02*
X023895Y028589D01*
X024755Y028859D02*
X024755Y029089D01*
X024755Y028859D02*
X023895Y028859D01*
X023895Y029089D01*
X024755Y029089D01*
X024755Y028905D02*
X023895Y028905D01*
X023895Y028951D02*
X024755Y028951D01*
X024755Y028997D02*
X023895Y028997D01*
X023895Y029043D02*
X024755Y029043D01*
X024755Y029089D02*
X023895Y029089D01*
X024755Y029359D02*
X024755Y029589D01*
X024755Y029359D02*
X023895Y029359D01*
X023895Y029589D01*
X024755Y029589D01*
X024755Y029405D02*
X023895Y029405D01*
X023895Y029451D02*
X024755Y029451D01*
X024755Y029497D02*
X023895Y029497D01*
X023895Y029543D02*
X024755Y029543D01*
X024755Y029589D02*
X023895Y029589D01*
X026802Y029589D02*
X026802Y029359D01*
X025942Y029359D01*
X025942Y029589D01*
X026802Y029589D01*
X026802Y029405D02*
X025942Y029405D01*
X025942Y029451D02*
X026802Y029451D01*
X026802Y029497D02*
X025942Y029497D01*
X025942Y029543D02*
X026802Y029543D01*
X026802Y029589D02*
X025942Y029589D01*
X026802Y029089D02*
X026802Y028859D01*
X025942Y028859D01*
X025942Y029089D01*
X026802Y029089D01*
X026802Y028905D02*
X025942Y028905D01*
X025942Y028951D02*
X026802Y028951D01*
X026802Y028997D02*
X025942Y028997D01*
X025942Y029043D02*
X026802Y029043D01*
X026802Y029089D02*
X025942Y029089D01*
X026802Y028589D02*
X026802Y028359D01*
X025942Y028359D01*
X025942Y028589D01*
X026802Y028589D01*
X026802Y028405D02*
X025942Y028405D01*
X025942Y028451D02*
X026802Y028451D01*
X026802Y028497D02*
X025942Y028497D01*
X025942Y028543D02*
X026802Y028543D01*
X026802Y028589D02*
X025942Y028589D01*
X026802Y028089D02*
X026802Y027859D01*
X025942Y027859D01*
X025942Y028089D01*
X026802Y028089D01*
X026802Y027905D02*
X025942Y027905D01*
X025942Y027951D02*
X026802Y027951D01*
X026802Y027997D02*
X025942Y027997D01*
X025942Y028043D02*
X026802Y028043D01*
X026802Y028089D02*
X025942Y028089D01*
X027501Y028365D02*
X027501Y028595D01*
X027849Y028595D01*
X027849Y028365D01*
X027501Y028365D01*
X027501Y028411D02*
X027849Y028411D01*
X027849Y028457D02*
X027501Y028457D01*
X027501Y028503D02*
X027849Y028503D01*
X027849Y028549D02*
X027501Y028549D01*
X027501Y028595D02*
X027849Y028595D01*
X027501Y028955D02*
X027501Y029185D01*
X027849Y029185D01*
X027849Y028955D01*
X027501Y028955D01*
X027501Y029001D02*
X027849Y029001D01*
X027849Y029047D02*
X027501Y029047D01*
X027501Y029093D02*
X027849Y029093D01*
X027849Y029139D02*
X027501Y029139D01*
X027501Y029185D02*
X027849Y029185D01*
X024401Y025635D02*
X024401Y025405D01*
X024401Y025635D02*
X024749Y025635D01*
X024749Y025405D01*
X024401Y025405D01*
X024401Y025451D02*
X024749Y025451D01*
X024749Y025497D02*
X024401Y025497D01*
X024401Y025543D02*
X024749Y025543D01*
X024749Y025589D02*
X024401Y025589D01*
X024401Y025635D02*
X024749Y025635D01*
X024401Y025045D02*
X024401Y024815D01*
X024401Y025045D02*
X024749Y025045D01*
X024749Y024815D01*
X024401Y024815D01*
X024401Y024861D02*
X024749Y024861D01*
X024749Y024907D02*
X024401Y024907D01*
X024401Y024953D02*
X024749Y024953D01*
X024749Y024999D02*
X024401Y024999D01*
X024401Y025045D02*
X024749Y025045D01*
X024401Y024385D02*
X024401Y024155D01*
X024401Y024385D02*
X024749Y024385D01*
X024749Y024155D01*
X024401Y024155D01*
X024401Y024201D02*
X024749Y024201D01*
X024749Y024247D02*
X024401Y024247D01*
X024401Y024293D02*
X024749Y024293D01*
X024749Y024339D02*
X024401Y024339D01*
X024401Y024385D02*
X024749Y024385D01*
X024401Y023795D02*
X024401Y023565D01*
X024401Y023795D02*
X024749Y023795D01*
X024749Y023565D01*
X024401Y023565D01*
X024401Y023611D02*
X024749Y023611D01*
X024749Y023657D02*
X024401Y023657D01*
X024401Y023703D02*
X024749Y023703D01*
X024749Y023749D02*
X024401Y023749D01*
X024401Y023795D02*
X024749Y023795D01*
X024749Y023285D02*
X024749Y023055D01*
X024401Y023055D01*
X024401Y023285D01*
X024749Y023285D01*
X024749Y023101D02*
X024401Y023101D01*
X024401Y023147D02*
X024749Y023147D01*
X024749Y023193D02*
X024401Y023193D01*
X024401Y023239D02*
X024749Y023239D01*
X024749Y023285D02*
X024401Y023285D01*
X024749Y022695D02*
X024749Y022465D01*
X024401Y022465D01*
X024401Y022695D01*
X024749Y022695D01*
X024749Y022511D02*
X024401Y022511D01*
X024401Y022557D02*
X024749Y022557D01*
X024749Y022603D02*
X024401Y022603D01*
X024401Y022649D02*
X024749Y022649D01*
X024749Y022695D02*
X024401Y022695D01*
X025315Y022649D02*
X025545Y022649D01*
X025545Y022301D01*
X025315Y022301D01*
X025315Y022649D01*
X025315Y022347D02*
X025545Y022347D01*
X025545Y022393D02*
X025315Y022393D01*
X025315Y022439D02*
X025545Y022439D01*
X025545Y022485D02*
X025315Y022485D01*
X025315Y022531D02*
X025545Y022531D01*
X025545Y022577D02*
X025315Y022577D01*
X025315Y022623D02*
X025545Y022623D01*
X025905Y022649D02*
X026135Y022649D01*
X026135Y022301D01*
X025905Y022301D01*
X025905Y022649D01*
X025905Y022347D02*
X026135Y022347D01*
X026135Y022393D02*
X025905Y022393D01*
X025905Y022439D02*
X026135Y022439D01*
X026135Y022485D02*
X025905Y022485D01*
X025905Y022531D02*
X026135Y022531D01*
X026135Y022577D02*
X025905Y022577D01*
X025905Y022623D02*
X026135Y022623D01*
X026135Y021301D02*
X025905Y021301D01*
X025905Y021649D01*
X026135Y021649D01*
X026135Y021301D01*
X026135Y021347D02*
X025905Y021347D01*
X025905Y021393D02*
X026135Y021393D01*
X026135Y021439D02*
X025905Y021439D01*
X025905Y021485D02*
X026135Y021485D01*
X026135Y021531D02*
X025905Y021531D01*
X025905Y021577D02*
X026135Y021577D01*
X026135Y021623D02*
X025905Y021623D01*
X025545Y021301D02*
X025315Y021301D01*
X025315Y021649D01*
X025545Y021649D01*
X025545Y021301D01*
X025545Y021347D02*
X025315Y021347D01*
X025315Y021393D02*
X025545Y021393D01*
X025545Y021439D02*
X025315Y021439D01*
X025315Y021485D02*
X025545Y021485D01*
X025545Y021531D02*
X025315Y021531D01*
X025315Y021577D02*
X025545Y021577D01*
X025545Y021623D02*
X025315Y021623D01*
X025315Y020799D02*
X025545Y020799D01*
X025545Y020451D01*
X025315Y020451D01*
X025315Y020799D01*
X025315Y020497D02*
X025545Y020497D01*
X025545Y020543D02*
X025315Y020543D01*
X025315Y020589D02*
X025545Y020589D01*
X025545Y020635D02*
X025315Y020635D01*
X025315Y020681D02*
X025545Y020681D01*
X025545Y020727D02*
X025315Y020727D01*
X025315Y020773D02*
X025545Y020773D01*
X025905Y020799D02*
X026135Y020799D01*
X026135Y020451D01*
X025905Y020451D01*
X025905Y020799D01*
X025905Y020497D02*
X026135Y020497D01*
X026135Y020543D02*
X025905Y020543D01*
X025905Y020589D02*
X026135Y020589D01*
X026135Y020635D02*
X025905Y020635D01*
X025905Y020681D02*
X026135Y020681D01*
X026135Y020727D02*
X025905Y020727D01*
X025905Y020773D02*
X026135Y020773D01*
X026135Y019899D02*
X025905Y019899D01*
X026135Y019899D02*
X026135Y019551D01*
X025905Y019551D01*
X025905Y019899D01*
X025905Y019597D02*
X026135Y019597D01*
X026135Y019643D02*
X025905Y019643D01*
X025905Y019689D02*
X026135Y019689D01*
X026135Y019735D02*
X025905Y019735D01*
X025905Y019781D02*
X026135Y019781D01*
X026135Y019827D02*
X025905Y019827D01*
X025905Y019873D02*
X026135Y019873D01*
X025545Y019899D02*
X025315Y019899D01*
X025545Y019899D02*
X025545Y019551D01*
X025315Y019551D01*
X025315Y019899D01*
X025315Y019597D02*
X025545Y019597D01*
X025545Y019643D02*
X025315Y019643D01*
X025315Y019689D02*
X025545Y019689D01*
X025545Y019735D02*
X025315Y019735D01*
X025315Y019781D02*
X025545Y019781D01*
X025545Y019827D02*
X025315Y019827D01*
X025315Y019873D02*
X025545Y019873D01*
X025545Y018551D02*
X025315Y018551D01*
X025315Y018899D01*
X025545Y018899D01*
X025545Y018551D01*
X025545Y018597D02*
X025315Y018597D01*
X025315Y018643D02*
X025545Y018643D01*
X025545Y018689D02*
X025315Y018689D01*
X025315Y018735D02*
X025545Y018735D01*
X025545Y018781D02*
X025315Y018781D01*
X025315Y018827D02*
X025545Y018827D01*
X025545Y018873D02*
X025315Y018873D01*
X025905Y018551D02*
X026135Y018551D01*
X025905Y018551D02*
X025905Y018899D01*
X026135Y018899D01*
X026135Y018551D01*
X026135Y018597D02*
X025905Y018597D01*
X025905Y018643D02*
X026135Y018643D01*
X026135Y018689D02*
X025905Y018689D01*
X025905Y018735D02*
X026135Y018735D01*
X026135Y018781D02*
X025905Y018781D01*
X025905Y018827D02*
X026135Y018827D01*
X026135Y018873D02*
X025905Y018873D01*
X025905Y015899D02*
X026135Y015899D01*
X026135Y015551D01*
X025905Y015551D01*
X025905Y015899D01*
X025905Y015597D02*
X026135Y015597D01*
X026135Y015643D02*
X025905Y015643D01*
X025905Y015689D02*
X026135Y015689D01*
X026135Y015735D02*
X025905Y015735D01*
X025905Y015781D02*
X026135Y015781D01*
X026135Y015827D02*
X025905Y015827D01*
X025905Y015873D02*
X026135Y015873D01*
X025545Y015899D02*
X025315Y015899D01*
X025545Y015899D02*
X025545Y015551D01*
X025315Y015551D01*
X025315Y015899D01*
X025315Y015597D02*
X025545Y015597D01*
X025545Y015643D02*
X025315Y015643D01*
X025315Y015689D02*
X025545Y015689D01*
X025545Y015735D02*
X025315Y015735D01*
X025315Y015781D02*
X025545Y015781D01*
X025545Y015827D02*
X025315Y015827D01*
X025315Y015873D02*
X025545Y015873D01*
X025545Y014899D02*
X025315Y014899D01*
X025545Y014899D02*
X025545Y014551D01*
X025315Y014551D01*
X025315Y014899D01*
X025315Y014597D02*
X025545Y014597D01*
X025545Y014643D02*
X025315Y014643D01*
X025315Y014689D02*
X025545Y014689D01*
X025545Y014735D02*
X025315Y014735D01*
X025315Y014781D02*
X025545Y014781D01*
X025545Y014827D02*
X025315Y014827D01*
X025315Y014873D02*
X025545Y014873D01*
X025905Y014899D02*
X026135Y014899D01*
X026135Y014551D01*
X025905Y014551D01*
X025905Y014899D01*
X025905Y014597D02*
X026135Y014597D01*
X026135Y014643D02*
X025905Y014643D01*
X025905Y014689D02*
X026135Y014689D01*
X026135Y014735D02*
X025905Y014735D01*
X025905Y014781D02*
X026135Y014781D01*
X026135Y014827D02*
X025905Y014827D01*
X025905Y014873D02*
X026135Y014873D01*
X022785Y011151D02*
X022555Y011151D01*
X022555Y011499D01*
X022785Y011499D01*
X022785Y011151D01*
X022785Y011197D02*
X022555Y011197D01*
X022555Y011243D02*
X022785Y011243D01*
X022785Y011289D02*
X022555Y011289D01*
X022555Y011335D02*
X022785Y011335D01*
X022785Y011381D02*
X022555Y011381D01*
X022555Y011427D02*
X022785Y011427D01*
X022785Y011473D02*
X022555Y011473D01*
X022195Y011151D02*
X021965Y011151D01*
X021965Y011499D01*
X022195Y011499D01*
X022195Y011151D01*
X022195Y011197D02*
X021965Y011197D01*
X021965Y011243D02*
X022195Y011243D01*
X022195Y011289D02*
X021965Y011289D01*
X021965Y011335D02*
X022195Y011335D01*
X022195Y011381D02*
X021965Y011381D01*
X021965Y011427D02*
X022195Y011427D01*
X022195Y011473D02*
X021965Y011473D01*
X020685Y017151D02*
X020455Y017151D01*
X020455Y017499D01*
X020685Y017499D01*
X020685Y017151D01*
X020685Y017197D02*
X020455Y017197D01*
X020455Y017243D02*
X020685Y017243D01*
X020685Y017289D02*
X020455Y017289D01*
X020455Y017335D02*
X020685Y017335D01*
X020685Y017381D02*
X020455Y017381D01*
X020455Y017427D02*
X020685Y017427D01*
X020685Y017473D02*
X020455Y017473D01*
X020095Y017151D02*
X019865Y017151D01*
X019865Y017499D01*
X020095Y017499D01*
X020095Y017151D01*
X020095Y017197D02*
X019865Y017197D01*
X019865Y017243D02*
X020095Y017243D01*
X020095Y017289D02*
X019865Y017289D01*
X019865Y017335D02*
X020095Y017335D01*
X020095Y017381D02*
X019865Y017381D01*
X019865Y017427D02*
X020095Y017427D01*
X020095Y017473D02*
X019865Y017473D01*
X012135Y021399D02*
X011905Y021399D01*
X012135Y021399D02*
X012135Y021051D01*
X011905Y021051D01*
X011905Y021399D01*
X011905Y021097D02*
X012135Y021097D01*
X012135Y021143D02*
X011905Y021143D01*
X011905Y021189D02*
X012135Y021189D01*
X012135Y021235D02*
X011905Y021235D01*
X011905Y021281D02*
X012135Y021281D01*
X012135Y021327D02*
X011905Y021327D01*
X011905Y021373D02*
X012135Y021373D01*
X011545Y021399D02*
X011315Y021399D01*
X011545Y021399D02*
X011545Y021051D01*
X011315Y021051D01*
X011315Y021399D01*
X011315Y021097D02*
X011545Y021097D01*
X011545Y021143D02*
X011315Y021143D01*
X011315Y021189D02*
X011545Y021189D01*
X011545Y021235D02*
X011315Y021235D01*
X011315Y021281D02*
X011545Y021281D01*
X011545Y021327D02*
X011315Y021327D01*
X011315Y021373D02*
X011545Y021373D01*
X011545Y022349D02*
X011315Y022349D01*
X011545Y022349D02*
X011545Y022001D01*
X011315Y022001D01*
X011315Y022349D01*
X011315Y022047D02*
X011545Y022047D01*
X011545Y022093D02*
X011315Y022093D01*
X011315Y022139D02*
X011545Y022139D01*
X011545Y022185D02*
X011315Y022185D01*
X011315Y022231D02*
X011545Y022231D01*
X011545Y022277D02*
X011315Y022277D01*
X011315Y022323D02*
X011545Y022323D01*
X011905Y022349D02*
X012135Y022349D01*
X012135Y022001D01*
X011905Y022001D01*
X011905Y022349D01*
X011905Y022047D02*
X012135Y022047D01*
X012135Y022093D02*
X011905Y022093D01*
X011905Y022139D02*
X012135Y022139D01*
X012135Y022185D02*
X011905Y022185D01*
X011905Y022231D02*
X012135Y022231D01*
X012135Y022277D02*
X011905Y022277D01*
X011905Y022323D02*
X012135Y022323D01*
X012135Y023051D02*
X011905Y023051D01*
X011905Y023399D01*
X012135Y023399D01*
X012135Y023051D01*
X012135Y023097D02*
X011905Y023097D01*
X011905Y023143D02*
X012135Y023143D01*
X012135Y023189D02*
X011905Y023189D01*
X011905Y023235D02*
X012135Y023235D01*
X012135Y023281D02*
X011905Y023281D01*
X011905Y023327D02*
X012135Y023327D01*
X012135Y023373D02*
X011905Y023373D01*
X011545Y023051D02*
X011315Y023051D01*
X011315Y023399D01*
X011545Y023399D01*
X011545Y023051D01*
X011545Y023097D02*
X011315Y023097D01*
X011315Y023143D02*
X011545Y023143D01*
X011545Y023189D02*
X011315Y023189D01*
X011315Y023235D02*
X011545Y023235D01*
X011545Y023281D02*
X011315Y023281D01*
X011315Y023327D02*
X011545Y023327D01*
X011545Y023373D02*
X011315Y023373D01*
X011315Y024051D02*
X011545Y024051D01*
X011315Y024051D02*
X011315Y024399D01*
X011545Y024399D01*
X011545Y024051D01*
X011545Y024097D02*
X011315Y024097D01*
X011315Y024143D02*
X011545Y024143D01*
X011545Y024189D02*
X011315Y024189D01*
X011315Y024235D02*
X011545Y024235D01*
X011545Y024281D02*
X011315Y024281D01*
X011315Y024327D02*
X011545Y024327D01*
X011545Y024373D02*
X011315Y024373D01*
X011905Y024051D02*
X012135Y024051D01*
X011905Y024051D02*
X011905Y024399D01*
X012135Y024399D01*
X012135Y024051D01*
X012135Y024097D02*
X011905Y024097D01*
X011905Y024143D02*
X012135Y024143D01*
X012135Y024189D02*
X011905Y024189D01*
X011905Y024235D02*
X012135Y024235D01*
X012135Y024281D02*
X011905Y024281D01*
X011905Y024327D02*
X012135Y024327D01*
X012135Y024373D02*
X011905Y024373D01*
X012051Y025315D02*
X012051Y025545D01*
X012399Y025545D01*
X012399Y025315D01*
X012051Y025315D01*
X012051Y025361D02*
X012399Y025361D01*
X012399Y025407D02*
X012051Y025407D01*
X012051Y025453D02*
X012399Y025453D01*
X012399Y025499D02*
X012051Y025499D01*
X012051Y025545D02*
X012399Y025545D01*
X012051Y025905D02*
X012051Y026135D01*
X012399Y026135D01*
X012399Y025905D01*
X012051Y025905D01*
X012051Y025951D02*
X012399Y025951D01*
X012399Y025997D02*
X012051Y025997D01*
X012051Y026043D02*
X012399Y026043D01*
X012399Y026089D02*
X012051Y026089D01*
X012051Y026135D02*
X012399Y026135D01*
X011051Y026135D02*
X011051Y025905D01*
X011051Y026135D02*
X011399Y026135D01*
X011399Y025905D01*
X011051Y025905D01*
X011051Y025951D02*
X011399Y025951D01*
X011399Y025997D02*
X011051Y025997D01*
X011051Y026043D02*
X011399Y026043D01*
X011399Y026089D02*
X011051Y026089D01*
X011051Y026135D02*
X011399Y026135D01*
X011051Y025545D02*
X011051Y025315D01*
X011051Y025545D02*
X011399Y025545D01*
X011399Y025315D01*
X011051Y025315D01*
X011051Y025361D02*
X011399Y025361D01*
X011399Y025407D02*
X011051Y025407D01*
X011051Y025453D02*
X011399Y025453D01*
X011399Y025499D02*
X011051Y025499D01*
X011051Y025545D02*
X011399Y025545D01*
X012315Y028549D02*
X012545Y028549D01*
X012545Y028201D01*
X012315Y028201D01*
X012315Y028549D01*
X012315Y028247D02*
X012545Y028247D01*
X012545Y028293D02*
X012315Y028293D01*
X012315Y028339D02*
X012545Y028339D01*
X012545Y028385D02*
X012315Y028385D01*
X012315Y028431D02*
X012545Y028431D01*
X012545Y028477D02*
X012315Y028477D01*
X012315Y028523D02*
X012545Y028523D01*
X012905Y028549D02*
X013135Y028549D01*
X013135Y028201D01*
X012905Y028201D01*
X012905Y028549D01*
X012905Y028247D02*
X013135Y028247D01*
X013135Y028293D02*
X012905Y028293D01*
X012905Y028339D02*
X013135Y028339D01*
X013135Y028385D02*
X012905Y028385D01*
X012905Y028431D02*
X013135Y028431D01*
X013135Y028477D02*
X012905Y028477D01*
X012905Y028523D02*
X013135Y028523D01*
X013135Y029449D02*
X012905Y029449D01*
X013135Y029449D02*
X013135Y029101D01*
X012905Y029101D01*
X012905Y029449D01*
X012905Y029147D02*
X013135Y029147D01*
X013135Y029193D02*
X012905Y029193D01*
X012905Y029239D02*
X013135Y029239D01*
X013135Y029285D02*
X012905Y029285D01*
X012905Y029331D02*
X013135Y029331D01*
X013135Y029377D02*
X012905Y029377D01*
X012905Y029423D02*
X013135Y029423D01*
X012545Y029449D02*
X012315Y029449D01*
X012545Y029449D02*
X012545Y029101D01*
X012315Y029101D01*
X012315Y029449D01*
X012315Y029147D02*
X012545Y029147D01*
X012545Y029193D02*
X012315Y029193D01*
X012315Y029239D02*
X012545Y029239D01*
X012545Y029285D02*
X012315Y029285D01*
X012315Y029331D02*
X012545Y029331D01*
X012545Y029377D02*
X012315Y029377D01*
X012315Y029423D02*
X012545Y029423D01*
X010085Y029499D02*
X009855Y029499D01*
X010085Y029499D02*
X010085Y029151D01*
X009855Y029151D01*
X009855Y029499D01*
X009855Y029197D02*
X010085Y029197D01*
X010085Y029243D02*
X009855Y029243D01*
X009855Y029289D02*
X010085Y029289D01*
X010085Y029335D02*
X009855Y029335D01*
X009855Y029381D02*
X010085Y029381D01*
X010085Y029427D02*
X009855Y029427D01*
X009855Y029473D02*
X010085Y029473D01*
X009495Y029499D02*
X009265Y029499D01*
X009495Y029499D02*
X009495Y029151D01*
X009265Y029151D01*
X009265Y029499D01*
X009265Y029197D02*
X009495Y029197D01*
X009495Y029243D02*
X009265Y029243D01*
X009265Y029289D02*
X009495Y029289D01*
X009495Y029335D02*
X009265Y029335D01*
X009265Y029381D02*
X009495Y029381D01*
X009495Y029427D02*
X009265Y029427D01*
X009265Y029473D02*
X009495Y029473D01*
X009495Y028549D02*
X009265Y028549D01*
X009495Y028549D02*
X009495Y028201D01*
X009265Y028201D01*
X009265Y028549D01*
X009265Y028247D02*
X009495Y028247D01*
X009495Y028293D02*
X009265Y028293D01*
X009265Y028339D02*
X009495Y028339D01*
X009495Y028385D02*
X009265Y028385D01*
X009265Y028431D02*
X009495Y028431D01*
X009495Y028477D02*
X009265Y028477D01*
X009265Y028523D02*
X009495Y028523D01*
X009855Y028549D02*
X010085Y028549D01*
X010085Y028201D01*
X009855Y028201D01*
X009855Y028549D01*
X009855Y028247D02*
X010085Y028247D01*
X010085Y028293D02*
X009855Y028293D01*
X009855Y028339D02*
X010085Y028339D01*
X010085Y028385D02*
X009855Y028385D01*
X009855Y028431D02*
X010085Y028431D01*
X010085Y028477D02*
X009855Y028477D01*
X009855Y028523D02*
X010085Y028523D01*
X026628Y005589D02*
X026628Y005359D01*
X025768Y005359D01*
X025768Y005589D01*
X026628Y005589D01*
X026628Y005405D02*
X025768Y005405D01*
X025768Y005451D02*
X026628Y005451D01*
X026628Y005497D02*
X025768Y005497D01*
X025768Y005543D02*
X026628Y005543D01*
X026628Y005589D02*
X025768Y005589D01*
D16*
X011742Y029118D02*
X011286Y029118D01*
X011742Y029118D02*
X011742Y028492D01*
X011286Y028492D01*
X011286Y029118D01*
X011286Y028536D02*
X011742Y028536D01*
X011742Y028580D02*
X011286Y028580D01*
X011286Y028624D02*
X011742Y028624D01*
X011742Y028668D02*
X011286Y028668D01*
X011286Y028712D02*
X011742Y028712D01*
X011742Y028756D02*
X011286Y028756D01*
X011286Y028800D02*
X011742Y028800D01*
X011742Y028844D02*
X011286Y028844D01*
X011286Y028888D02*
X011742Y028888D01*
X011742Y028932D02*
X011286Y028932D01*
X011286Y028976D02*
X011742Y028976D01*
X011742Y029020D02*
X011286Y029020D01*
X011286Y029064D02*
X011742Y029064D01*
X011742Y029108D02*
X011286Y029108D01*
X011142Y029118D02*
X010686Y029118D01*
X011142Y029118D02*
X011142Y028492D01*
X010686Y028492D01*
X010686Y029118D01*
X010686Y028536D02*
X011142Y028536D01*
X011142Y028580D02*
X010686Y028580D01*
X010686Y028624D02*
X011142Y028624D01*
X011142Y028668D02*
X010686Y028668D01*
X010686Y028712D02*
X011142Y028712D01*
X011142Y028756D02*
X010686Y028756D01*
X010686Y028800D02*
X011142Y028800D01*
X011142Y028844D02*
X010686Y028844D01*
X010686Y028888D02*
X011142Y028888D01*
X011142Y028932D02*
X010686Y028932D01*
X010686Y028976D02*
X011142Y028976D01*
X011142Y029020D02*
X010686Y029020D01*
X010686Y029064D02*
X011142Y029064D01*
X011142Y029108D02*
X010686Y029108D01*
D17*
X011214Y028805D03*
D18*
X015835Y021834D02*
X016615Y021834D01*
X015835Y021834D02*
X015835Y022104D01*
X016615Y022104D01*
X016615Y021834D01*
X016615Y021880D02*
X015835Y021880D01*
X015835Y021926D02*
X016615Y021926D01*
X016615Y021972D02*
X015835Y021972D01*
X015835Y022018D02*
X016615Y022018D01*
X016615Y022064D02*
X015835Y022064D01*
X015835Y021440D02*
X016615Y021440D01*
X015835Y021440D02*
X015835Y021710D01*
X016615Y021710D01*
X016615Y021440D01*
X016615Y021486D02*
X015835Y021486D01*
X015835Y021532D02*
X016615Y021532D01*
X016615Y021578D02*
X015835Y021578D01*
X015835Y021624D02*
X016615Y021624D01*
X016615Y021670D02*
X015835Y021670D01*
X015835Y021046D02*
X016615Y021046D01*
X015835Y021046D02*
X015835Y021316D01*
X016615Y021316D01*
X016615Y021046D01*
X016615Y021092D02*
X015835Y021092D01*
X015835Y021138D02*
X016615Y021138D01*
X016615Y021184D02*
X015835Y021184D01*
X015835Y021230D02*
X016615Y021230D01*
X016615Y021276D02*
X015835Y021276D01*
X014393Y006284D02*
X014393Y006014D01*
X014393Y006284D02*
X014781Y006284D01*
X014781Y006014D01*
X014393Y006014D01*
X014393Y006060D02*
X014781Y006060D01*
X014781Y006106D02*
X014393Y006106D01*
X014393Y006152D02*
X014781Y006152D01*
X014781Y006198D02*
X014393Y006198D01*
X014393Y006244D02*
X014781Y006244D01*
X014781Y005910D02*
X014781Y005640D01*
X014393Y005640D01*
X014393Y005910D01*
X014781Y005910D01*
X014781Y005686D02*
X014393Y005686D01*
X014393Y005732D02*
X014781Y005732D01*
X014781Y005778D02*
X014393Y005778D01*
X014393Y005824D02*
X014781Y005824D01*
X014781Y005870D02*
X014393Y005870D01*
X014781Y005536D02*
X014781Y005266D01*
X014393Y005266D01*
X014393Y005536D01*
X014781Y005536D01*
X014781Y005312D02*
X014393Y005312D01*
X014393Y005358D02*
X014781Y005358D01*
X014781Y005404D02*
X014393Y005404D01*
X014393Y005450D02*
X014781Y005450D01*
X014781Y005496D02*
X014393Y005496D01*
X013757Y005536D02*
X013757Y005266D01*
X013369Y005266D01*
X013369Y005536D01*
X013757Y005536D01*
X013757Y005312D02*
X013369Y005312D01*
X013369Y005358D02*
X013757Y005358D01*
X013757Y005404D02*
X013369Y005404D01*
X013369Y005450D02*
X013757Y005450D01*
X013757Y005496D02*
X013369Y005496D01*
X013369Y006014D02*
X013369Y006284D01*
X013757Y006284D01*
X013757Y006014D01*
X013369Y006014D01*
X013369Y006060D02*
X013757Y006060D01*
X013757Y006106D02*
X013369Y006106D01*
X013369Y006152D02*
X013757Y006152D01*
X013757Y006198D02*
X013369Y006198D01*
X013369Y006244D02*
X013757Y006244D01*
X017019Y006284D02*
X017019Y006014D01*
X017019Y006284D02*
X017407Y006284D01*
X017407Y006014D01*
X017019Y006014D01*
X017019Y006060D02*
X017407Y006060D01*
X017407Y006106D02*
X017019Y006106D01*
X017019Y006152D02*
X017407Y006152D01*
X017407Y006198D02*
X017019Y006198D01*
X017019Y006244D02*
X017407Y006244D01*
X017407Y005536D02*
X017407Y005266D01*
X017019Y005266D01*
X017019Y005536D01*
X017407Y005536D01*
X017407Y005312D02*
X017019Y005312D01*
X017019Y005358D02*
X017407Y005358D01*
X017407Y005404D02*
X017019Y005404D01*
X017019Y005450D02*
X017407Y005450D01*
X017407Y005496D02*
X017019Y005496D01*
X018431Y005536D02*
X018431Y005266D01*
X018043Y005266D01*
X018043Y005536D01*
X018431Y005536D01*
X018431Y005312D02*
X018043Y005312D01*
X018043Y005358D02*
X018431Y005358D01*
X018431Y005404D02*
X018043Y005404D01*
X018043Y005450D02*
X018431Y005450D01*
X018431Y005496D02*
X018043Y005496D01*
X018431Y005640D02*
X018431Y005910D01*
X018431Y005640D02*
X018043Y005640D01*
X018043Y005910D01*
X018431Y005910D01*
X018431Y005686D02*
X018043Y005686D01*
X018043Y005732D02*
X018431Y005732D01*
X018431Y005778D02*
X018043Y005778D01*
X018043Y005824D02*
X018431Y005824D01*
X018431Y005870D02*
X018043Y005870D01*
X018043Y006014D02*
X018043Y006284D01*
X018431Y006284D01*
X018431Y006014D01*
X018043Y006014D01*
X018043Y006060D02*
X018431Y006060D01*
X018431Y006106D02*
X018043Y006106D01*
X018043Y006152D02*
X018431Y006152D01*
X018431Y006198D02*
X018043Y006198D01*
X018043Y006244D02*
X018431Y006244D01*
X020519Y006284D02*
X020519Y006014D01*
X020519Y006284D02*
X020907Y006284D01*
X020907Y006014D01*
X020519Y006014D01*
X020519Y006060D02*
X020907Y006060D01*
X020907Y006106D02*
X020519Y006106D01*
X020519Y006152D02*
X020907Y006152D01*
X020907Y006198D02*
X020519Y006198D01*
X020519Y006244D02*
X020907Y006244D01*
X020907Y005536D02*
X020907Y005266D01*
X020519Y005266D01*
X020519Y005536D01*
X020907Y005536D01*
X020907Y005312D02*
X020519Y005312D01*
X020519Y005358D02*
X020907Y005358D01*
X020907Y005404D02*
X020519Y005404D01*
X020519Y005450D02*
X020907Y005450D01*
X020907Y005496D02*
X020519Y005496D01*
X021931Y005536D02*
X021931Y005266D01*
X021543Y005266D01*
X021543Y005536D01*
X021931Y005536D01*
X021931Y005312D02*
X021543Y005312D01*
X021543Y005358D02*
X021931Y005358D01*
X021931Y005404D02*
X021543Y005404D01*
X021543Y005450D02*
X021931Y005450D01*
X021931Y005496D02*
X021543Y005496D01*
X021931Y005640D02*
X021931Y005910D01*
X021931Y005640D02*
X021543Y005640D01*
X021543Y005910D01*
X021931Y005910D01*
X021931Y005686D02*
X021543Y005686D01*
X021543Y005732D02*
X021931Y005732D01*
X021931Y005778D02*
X021543Y005778D01*
X021543Y005824D02*
X021931Y005824D01*
X021931Y005870D02*
X021543Y005870D01*
X021543Y006014D02*
X021543Y006284D01*
X021931Y006284D01*
X021931Y006014D01*
X021543Y006014D01*
X021543Y006060D02*
X021931Y006060D01*
X021931Y006106D02*
X021543Y006106D01*
X021543Y006152D02*
X021931Y006152D01*
X021931Y006198D02*
X021543Y006198D01*
X021543Y006244D02*
X021931Y006244D01*
D19*
X005875Y027975D03*
D20*
X005875Y028975D03*
X006875Y028975D03*
X006875Y027975D03*
X007875Y027975D03*
X007875Y028975D03*
D21*
X017091Y023779D02*
X017667Y023779D01*
X017667Y023683D01*
X017091Y023683D01*
X017091Y023779D01*
X017091Y023736D02*
X017667Y023736D01*
X017667Y023487D02*
X017091Y023487D01*
X017091Y023583D01*
X017667Y023583D01*
X017667Y023487D01*
X017667Y023540D02*
X017091Y023540D01*
X017091Y023290D02*
X017667Y023290D01*
X017091Y023290D02*
X017091Y023386D01*
X017667Y023386D01*
X017667Y023290D01*
X017667Y023343D02*
X017091Y023343D01*
X017091Y023093D02*
X017667Y023093D01*
X017091Y023093D02*
X017091Y023189D01*
X017667Y023189D01*
X017667Y023093D01*
X017667Y023146D02*
X017091Y023146D01*
X017091Y022896D02*
X017667Y022896D01*
X017091Y022896D02*
X017091Y022992D01*
X017667Y022992D01*
X017667Y022896D01*
X017667Y022949D02*
X017091Y022949D01*
X017091Y022699D02*
X017667Y022699D01*
X017091Y022699D02*
X017091Y022795D01*
X017667Y022795D01*
X017667Y022699D01*
X017667Y022752D02*
X017091Y022752D01*
X017091Y022502D02*
X017667Y022502D01*
X017091Y022502D02*
X017091Y022598D01*
X017667Y022598D01*
X017667Y022502D01*
X017667Y022555D02*
X017091Y022555D01*
X017091Y022306D02*
X017667Y022306D01*
X017091Y022306D02*
X017091Y022402D01*
X017667Y022402D01*
X017667Y022306D01*
X017667Y022359D02*
X017091Y022359D01*
X017091Y022109D02*
X017667Y022109D01*
X017091Y022109D02*
X017091Y022205D01*
X017667Y022205D01*
X017667Y022109D01*
X017667Y022162D02*
X017091Y022162D01*
X017091Y021912D02*
X017667Y021912D01*
X017091Y021912D02*
X017091Y022008D01*
X017667Y022008D01*
X017667Y021912D01*
X017667Y021965D02*
X017091Y021965D01*
X017091Y021715D02*
X017667Y021715D01*
X017091Y021715D02*
X017091Y021811D01*
X017667Y021811D01*
X017667Y021715D01*
X017667Y021768D02*
X017091Y021768D01*
X017091Y021518D02*
X017667Y021518D01*
X017091Y021518D02*
X017091Y021614D01*
X017667Y021614D01*
X017667Y021518D01*
X017667Y021571D02*
X017091Y021571D01*
X017091Y021321D02*
X017667Y021321D01*
X017091Y021321D02*
X017091Y021417D01*
X017667Y021417D01*
X017667Y021321D01*
X017667Y021374D02*
X017091Y021374D01*
X017091Y021124D02*
X017667Y021124D01*
X017091Y021124D02*
X017091Y021220D01*
X017667Y021220D01*
X017667Y021124D01*
X017667Y021177D02*
X017091Y021177D01*
X017091Y020928D02*
X017667Y020928D01*
X017091Y020928D02*
X017091Y021024D01*
X017667Y021024D01*
X017667Y020928D01*
X017667Y020981D02*
X017091Y020981D01*
X017091Y020731D02*
X017667Y020731D01*
X017091Y020731D02*
X017091Y020827D01*
X017667Y020827D01*
X017667Y020731D01*
X017667Y020784D02*
X017091Y020784D01*
X017091Y020534D02*
X017667Y020534D01*
X017091Y020534D02*
X017091Y020630D01*
X017667Y020630D01*
X017667Y020534D01*
X017667Y020587D02*
X017091Y020587D01*
X017091Y020337D02*
X017667Y020337D01*
X017091Y020337D02*
X017091Y020433D01*
X017667Y020433D01*
X017667Y020337D01*
X017667Y020390D02*
X017091Y020390D01*
X017091Y020140D02*
X017667Y020140D01*
X017091Y020140D02*
X017091Y020236D01*
X017667Y020236D01*
X017667Y020140D01*
X017667Y020193D02*
X017091Y020193D01*
X017091Y019943D02*
X017667Y019943D01*
X017091Y019943D02*
X017091Y020039D01*
X017667Y020039D01*
X017667Y019943D01*
X017667Y019996D02*
X017091Y019996D01*
X017091Y019746D02*
X017667Y019746D01*
X017091Y019746D02*
X017091Y019842D01*
X017667Y019842D01*
X017667Y019746D01*
X017667Y019799D02*
X017091Y019799D01*
X017091Y019550D02*
X017667Y019550D01*
X017091Y019550D02*
X017091Y019646D01*
X017667Y019646D01*
X017667Y019550D01*
X017667Y019603D02*
X017091Y019603D01*
X017091Y019353D02*
X017667Y019353D01*
X017091Y019353D02*
X017091Y019449D01*
X017667Y019449D01*
X017667Y019353D01*
X017667Y019406D02*
X017091Y019406D01*
X017091Y019156D02*
X017667Y019156D01*
X017091Y019156D02*
X017091Y019252D01*
X017667Y019252D01*
X017667Y019156D01*
X017667Y019209D02*
X017091Y019209D01*
X017091Y018959D02*
X017667Y018959D01*
X017091Y018959D02*
X017091Y019055D01*
X017667Y019055D01*
X017667Y018959D01*
X017667Y019012D02*
X017091Y019012D01*
X018119Y018508D02*
X018119Y017932D01*
X018119Y018508D02*
X018215Y018508D01*
X018215Y017932D01*
X018119Y017932D01*
X018119Y017985D02*
X018215Y017985D01*
X018215Y018038D02*
X018119Y018038D01*
X018119Y018091D02*
X018215Y018091D01*
X018215Y018144D02*
X018119Y018144D01*
X018119Y018197D02*
X018215Y018197D01*
X018215Y018250D02*
X018119Y018250D01*
X018119Y018303D02*
X018215Y018303D01*
X018215Y018356D02*
X018119Y018356D01*
X018119Y018409D02*
X018215Y018409D01*
X018215Y018462D02*
X018119Y018462D01*
X018315Y018508D02*
X018315Y017932D01*
X018315Y018508D02*
X018411Y018508D01*
X018411Y017932D01*
X018315Y017932D01*
X018315Y017985D02*
X018411Y017985D01*
X018411Y018038D02*
X018315Y018038D01*
X018315Y018091D02*
X018411Y018091D01*
X018411Y018144D02*
X018315Y018144D01*
X018315Y018197D02*
X018411Y018197D01*
X018411Y018250D02*
X018315Y018250D01*
X018315Y018303D02*
X018411Y018303D01*
X018411Y018356D02*
X018315Y018356D01*
X018315Y018409D02*
X018411Y018409D01*
X018411Y018462D02*
X018315Y018462D01*
X018512Y018508D02*
X018512Y017932D01*
X018512Y018508D02*
X018608Y018508D01*
X018608Y017932D01*
X018512Y017932D01*
X018512Y017985D02*
X018608Y017985D01*
X018608Y018038D02*
X018512Y018038D01*
X018512Y018091D02*
X018608Y018091D01*
X018608Y018144D02*
X018512Y018144D01*
X018512Y018197D02*
X018608Y018197D01*
X018608Y018250D02*
X018512Y018250D01*
X018512Y018303D02*
X018608Y018303D01*
X018608Y018356D02*
X018512Y018356D01*
X018512Y018409D02*
X018608Y018409D01*
X018608Y018462D02*
X018512Y018462D01*
X018709Y018508D02*
X018709Y017932D01*
X018709Y018508D02*
X018805Y018508D01*
X018805Y017932D01*
X018709Y017932D01*
X018709Y017985D02*
X018805Y017985D01*
X018805Y018038D02*
X018709Y018038D01*
X018709Y018091D02*
X018805Y018091D01*
X018805Y018144D02*
X018709Y018144D01*
X018709Y018197D02*
X018805Y018197D01*
X018805Y018250D02*
X018709Y018250D01*
X018709Y018303D02*
X018805Y018303D01*
X018805Y018356D02*
X018709Y018356D01*
X018709Y018409D02*
X018805Y018409D01*
X018805Y018462D02*
X018709Y018462D01*
X018906Y018508D02*
X018906Y017932D01*
X018906Y018508D02*
X019002Y018508D01*
X019002Y017932D01*
X018906Y017932D01*
X018906Y017985D02*
X019002Y017985D01*
X019002Y018038D02*
X018906Y018038D01*
X018906Y018091D02*
X019002Y018091D01*
X019002Y018144D02*
X018906Y018144D01*
X018906Y018197D02*
X019002Y018197D01*
X019002Y018250D02*
X018906Y018250D01*
X018906Y018303D02*
X019002Y018303D01*
X019002Y018356D02*
X018906Y018356D01*
X018906Y018409D02*
X019002Y018409D01*
X019002Y018462D02*
X018906Y018462D01*
X019103Y018508D02*
X019103Y017932D01*
X019103Y018508D02*
X019199Y018508D01*
X019199Y017932D01*
X019103Y017932D01*
X019103Y017985D02*
X019199Y017985D01*
X019199Y018038D02*
X019103Y018038D01*
X019103Y018091D02*
X019199Y018091D01*
X019199Y018144D02*
X019103Y018144D01*
X019103Y018197D02*
X019199Y018197D01*
X019199Y018250D02*
X019103Y018250D01*
X019103Y018303D02*
X019199Y018303D01*
X019199Y018356D02*
X019103Y018356D01*
X019103Y018409D02*
X019199Y018409D01*
X019199Y018462D02*
X019103Y018462D01*
X019300Y018508D02*
X019300Y017932D01*
X019300Y018508D02*
X019396Y018508D01*
X019396Y017932D01*
X019300Y017932D01*
X019300Y017985D02*
X019396Y017985D01*
X019396Y018038D02*
X019300Y018038D01*
X019300Y018091D02*
X019396Y018091D01*
X019396Y018144D02*
X019300Y018144D01*
X019300Y018197D02*
X019396Y018197D01*
X019396Y018250D02*
X019300Y018250D01*
X019300Y018303D02*
X019396Y018303D01*
X019396Y018356D02*
X019300Y018356D01*
X019300Y018409D02*
X019396Y018409D01*
X019396Y018462D02*
X019300Y018462D01*
X019496Y018508D02*
X019496Y017932D01*
X019496Y018508D02*
X019592Y018508D01*
X019592Y017932D01*
X019496Y017932D01*
X019496Y017985D02*
X019592Y017985D01*
X019592Y018038D02*
X019496Y018038D01*
X019496Y018091D02*
X019592Y018091D01*
X019592Y018144D02*
X019496Y018144D01*
X019496Y018197D02*
X019592Y018197D01*
X019592Y018250D02*
X019496Y018250D01*
X019496Y018303D02*
X019592Y018303D01*
X019592Y018356D02*
X019496Y018356D01*
X019496Y018409D02*
X019592Y018409D01*
X019592Y018462D02*
X019496Y018462D01*
X019693Y018508D02*
X019693Y017932D01*
X019693Y018508D02*
X019789Y018508D01*
X019789Y017932D01*
X019693Y017932D01*
X019693Y017985D02*
X019789Y017985D01*
X019789Y018038D02*
X019693Y018038D01*
X019693Y018091D02*
X019789Y018091D01*
X019789Y018144D02*
X019693Y018144D01*
X019693Y018197D02*
X019789Y018197D01*
X019789Y018250D02*
X019693Y018250D01*
X019693Y018303D02*
X019789Y018303D01*
X019789Y018356D02*
X019693Y018356D01*
X019693Y018409D02*
X019789Y018409D01*
X019789Y018462D02*
X019693Y018462D01*
X019890Y018508D02*
X019890Y017932D01*
X019890Y018508D02*
X019986Y018508D01*
X019986Y017932D01*
X019890Y017932D01*
X019890Y017985D02*
X019986Y017985D01*
X019986Y018038D02*
X019890Y018038D01*
X019890Y018091D02*
X019986Y018091D01*
X019986Y018144D02*
X019890Y018144D01*
X019890Y018197D02*
X019986Y018197D01*
X019986Y018250D02*
X019890Y018250D01*
X019890Y018303D02*
X019986Y018303D01*
X019986Y018356D02*
X019890Y018356D01*
X019890Y018409D02*
X019986Y018409D01*
X019986Y018462D02*
X019890Y018462D01*
X020087Y018508D02*
X020087Y017932D01*
X020087Y018508D02*
X020183Y018508D01*
X020183Y017932D01*
X020087Y017932D01*
X020087Y017985D02*
X020183Y017985D01*
X020183Y018038D02*
X020087Y018038D01*
X020087Y018091D02*
X020183Y018091D01*
X020183Y018144D02*
X020087Y018144D01*
X020087Y018197D02*
X020183Y018197D01*
X020183Y018250D02*
X020087Y018250D01*
X020087Y018303D02*
X020183Y018303D01*
X020183Y018356D02*
X020087Y018356D01*
X020087Y018409D02*
X020183Y018409D01*
X020183Y018462D02*
X020087Y018462D01*
X020284Y018508D02*
X020284Y017932D01*
X020284Y018508D02*
X020380Y018508D01*
X020380Y017932D01*
X020284Y017932D01*
X020284Y017985D02*
X020380Y017985D01*
X020380Y018038D02*
X020284Y018038D01*
X020284Y018091D02*
X020380Y018091D01*
X020380Y018144D02*
X020284Y018144D01*
X020284Y018197D02*
X020380Y018197D01*
X020380Y018250D02*
X020284Y018250D01*
X020284Y018303D02*
X020380Y018303D01*
X020380Y018356D02*
X020284Y018356D01*
X020284Y018409D02*
X020380Y018409D01*
X020380Y018462D02*
X020284Y018462D01*
X020481Y018508D02*
X020481Y017932D01*
X020481Y018508D02*
X020577Y018508D01*
X020577Y017932D01*
X020481Y017932D01*
X020481Y017985D02*
X020577Y017985D01*
X020577Y018038D02*
X020481Y018038D01*
X020481Y018091D02*
X020577Y018091D01*
X020577Y018144D02*
X020481Y018144D01*
X020481Y018197D02*
X020577Y018197D01*
X020577Y018250D02*
X020481Y018250D01*
X020481Y018303D02*
X020577Y018303D01*
X020577Y018356D02*
X020481Y018356D01*
X020481Y018409D02*
X020577Y018409D01*
X020577Y018462D02*
X020481Y018462D01*
X020678Y018508D02*
X020678Y017932D01*
X020678Y018508D02*
X020774Y018508D01*
X020774Y017932D01*
X020678Y017932D01*
X020678Y017985D02*
X020774Y017985D01*
X020774Y018038D02*
X020678Y018038D01*
X020678Y018091D02*
X020774Y018091D01*
X020774Y018144D02*
X020678Y018144D01*
X020678Y018197D02*
X020774Y018197D01*
X020774Y018250D02*
X020678Y018250D01*
X020678Y018303D02*
X020774Y018303D01*
X020774Y018356D02*
X020678Y018356D01*
X020678Y018409D02*
X020774Y018409D01*
X020774Y018462D02*
X020678Y018462D01*
X020874Y018508D02*
X020874Y017932D01*
X020874Y018508D02*
X020970Y018508D01*
X020970Y017932D01*
X020874Y017932D01*
X020874Y017985D02*
X020970Y017985D01*
X020970Y018038D02*
X020874Y018038D01*
X020874Y018091D02*
X020970Y018091D01*
X020970Y018144D02*
X020874Y018144D01*
X020874Y018197D02*
X020970Y018197D01*
X020970Y018250D02*
X020874Y018250D01*
X020874Y018303D02*
X020970Y018303D01*
X020970Y018356D02*
X020874Y018356D01*
X020874Y018409D02*
X020970Y018409D01*
X020970Y018462D02*
X020874Y018462D01*
X021071Y018508D02*
X021071Y017932D01*
X021071Y018508D02*
X021167Y018508D01*
X021167Y017932D01*
X021071Y017932D01*
X021071Y017985D02*
X021167Y017985D01*
X021167Y018038D02*
X021071Y018038D01*
X021071Y018091D02*
X021167Y018091D01*
X021167Y018144D02*
X021071Y018144D01*
X021071Y018197D02*
X021167Y018197D01*
X021167Y018250D02*
X021071Y018250D01*
X021071Y018303D02*
X021167Y018303D01*
X021167Y018356D02*
X021071Y018356D01*
X021071Y018409D02*
X021167Y018409D01*
X021167Y018462D02*
X021071Y018462D01*
X021268Y018508D02*
X021268Y017932D01*
X021268Y018508D02*
X021364Y018508D01*
X021364Y017932D01*
X021268Y017932D01*
X021268Y017985D02*
X021364Y017985D01*
X021364Y018038D02*
X021268Y018038D01*
X021268Y018091D02*
X021364Y018091D01*
X021364Y018144D02*
X021268Y018144D01*
X021268Y018197D02*
X021364Y018197D01*
X021364Y018250D02*
X021268Y018250D01*
X021268Y018303D02*
X021364Y018303D01*
X021364Y018356D02*
X021268Y018356D01*
X021268Y018409D02*
X021364Y018409D01*
X021364Y018462D02*
X021268Y018462D01*
X021465Y018508D02*
X021465Y017932D01*
X021465Y018508D02*
X021561Y018508D01*
X021561Y017932D01*
X021465Y017932D01*
X021465Y017985D02*
X021561Y017985D01*
X021561Y018038D02*
X021465Y018038D01*
X021465Y018091D02*
X021561Y018091D01*
X021561Y018144D02*
X021465Y018144D01*
X021465Y018197D02*
X021561Y018197D01*
X021561Y018250D02*
X021465Y018250D01*
X021465Y018303D02*
X021561Y018303D01*
X021561Y018356D02*
X021465Y018356D01*
X021465Y018409D02*
X021561Y018409D01*
X021561Y018462D02*
X021465Y018462D01*
X021662Y018508D02*
X021662Y017932D01*
X021662Y018508D02*
X021758Y018508D01*
X021758Y017932D01*
X021662Y017932D01*
X021662Y017985D02*
X021758Y017985D01*
X021758Y018038D02*
X021662Y018038D01*
X021662Y018091D02*
X021758Y018091D01*
X021758Y018144D02*
X021662Y018144D01*
X021662Y018197D02*
X021758Y018197D01*
X021758Y018250D02*
X021662Y018250D01*
X021662Y018303D02*
X021758Y018303D01*
X021758Y018356D02*
X021662Y018356D01*
X021662Y018409D02*
X021758Y018409D01*
X021758Y018462D02*
X021662Y018462D01*
X021859Y018508D02*
X021859Y017932D01*
X021859Y018508D02*
X021955Y018508D01*
X021955Y017932D01*
X021859Y017932D01*
X021859Y017985D02*
X021955Y017985D01*
X021955Y018038D02*
X021859Y018038D01*
X021859Y018091D02*
X021955Y018091D01*
X021955Y018144D02*
X021859Y018144D01*
X021859Y018197D02*
X021955Y018197D01*
X021955Y018250D02*
X021859Y018250D01*
X021859Y018303D02*
X021955Y018303D01*
X021955Y018356D02*
X021859Y018356D01*
X021859Y018409D02*
X021955Y018409D01*
X021955Y018462D02*
X021859Y018462D01*
X022056Y018508D02*
X022056Y017932D01*
X022056Y018508D02*
X022152Y018508D01*
X022152Y017932D01*
X022056Y017932D01*
X022056Y017985D02*
X022152Y017985D01*
X022152Y018038D02*
X022056Y018038D01*
X022056Y018091D02*
X022152Y018091D01*
X022152Y018144D02*
X022056Y018144D01*
X022056Y018197D02*
X022152Y018197D01*
X022152Y018250D02*
X022056Y018250D01*
X022056Y018303D02*
X022152Y018303D01*
X022152Y018356D02*
X022056Y018356D01*
X022056Y018409D02*
X022152Y018409D01*
X022152Y018462D02*
X022056Y018462D01*
X022252Y018508D02*
X022252Y017932D01*
X022252Y018508D02*
X022348Y018508D01*
X022348Y017932D01*
X022252Y017932D01*
X022252Y017985D02*
X022348Y017985D01*
X022348Y018038D02*
X022252Y018038D01*
X022252Y018091D02*
X022348Y018091D01*
X022348Y018144D02*
X022252Y018144D01*
X022252Y018197D02*
X022348Y018197D01*
X022348Y018250D02*
X022252Y018250D01*
X022252Y018303D02*
X022348Y018303D01*
X022348Y018356D02*
X022252Y018356D01*
X022252Y018409D02*
X022348Y018409D01*
X022348Y018462D02*
X022252Y018462D01*
X022449Y018508D02*
X022449Y017932D01*
X022449Y018508D02*
X022545Y018508D01*
X022545Y017932D01*
X022449Y017932D01*
X022449Y017985D02*
X022545Y017985D01*
X022545Y018038D02*
X022449Y018038D01*
X022449Y018091D02*
X022545Y018091D01*
X022545Y018144D02*
X022449Y018144D01*
X022449Y018197D02*
X022545Y018197D01*
X022545Y018250D02*
X022449Y018250D01*
X022449Y018303D02*
X022545Y018303D01*
X022545Y018356D02*
X022449Y018356D01*
X022449Y018409D02*
X022545Y018409D01*
X022545Y018462D02*
X022449Y018462D01*
X022646Y018508D02*
X022646Y017932D01*
X022646Y018508D02*
X022742Y018508D01*
X022742Y017932D01*
X022646Y017932D01*
X022646Y017985D02*
X022742Y017985D01*
X022742Y018038D02*
X022646Y018038D01*
X022646Y018091D02*
X022742Y018091D01*
X022742Y018144D02*
X022646Y018144D01*
X022646Y018197D02*
X022742Y018197D01*
X022742Y018250D02*
X022646Y018250D01*
X022646Y018303D02*
X022742Y018303D01*
X022742Y018356D02*
X022646Y018356D01*
X022646Y018409D02*
X022742Y018409D01*
X022742Y018462D02*
X022646Y018462D01*
X022843Y018508D02*
X022843Y017932D01*
X022843Y018508D02*
X022939Y018508D01*
X022939Y017932D01*
X022843Y017932D01*
X022843Y017985D02*
X022939Y017985D01*
X022939Y018038D02*
X022843Y018038D01*
X022843Y018091D02*
X022939Y018091D01*
X022939Y018144D02*
X022843Y018144D01*
X022843Y018197D02*
X022939Y018197D01*
X022939Y018250D02*
X022843Y018250D01*
X022843Y018303D02*
X022939Y018303D01*
X022939Y018356D02*
X022843Y018356D01*
X022843Y018409D02*
X022939Y018409D01*
X022939Y018462D02*
X022843Y018462D01*
X023390Y018959D02*
X023966Y018959D01*
X023390Y018959D02*
X023390Y019055D01*
X023966Y019055D01*
X023966Y018959D01*
X023966Y019012D02*
X023390Y019012D01*
X023390Y019156D02*
X023966Y019156D01*
X023390Y019156D02*
X023390Y019252D01*
X023966Y019252D01*
X023966Y019156D01*
X023966Y019209D02*
X023390Y019209D01*
X023390Y019353D02*
X023966Y019353D01*
X023390Y019353D02*
X023390Y019449D01*
X023966Y019449D01*
X023966Y019353D01*
X023966Y019406D02*
X023390Y019406D01*
X023390Y019550D02*
X023966Y019550D01*
X023390Y019550D02*
X023390Y019646D01*
X023966Y019646D01*
X023966Y019550D01*
X023966Y019603D02*
X023390Y019603D01*
X023390Y019746D02*
X023966Y019746D01*
X023390Y019746D02*
X023390Y019842D01*
X023966Y019842D01*
X023966Y019746D01*
X023966Y019799D02*
X023390Y019799D01*
X023390Y019943D02*
X023966Y019943D01*
X023390Y019943D02*
X023390Y020039D01*
X023966Y020039D01*
X023966Y019943D01*
X023966Y019996D02*
X023390Y019996D01*
X023390Y020140D02*
X023966Y020140D01*
X023390Y020140D02*
X023390Y020236D01*
X023966Y020236D01*
X023966Y020140D01*
X023966Y020193D02*
X023390Y020193D01*
X023390Y020337D02*
X023966Y020337D01*
X023390Y020337D02*
X023390Y020433D01*
X023966Y020433D01*
X023966Y020337D01*
X023966Y020390D02*
X023390Y020390D01*
X023390Y020534D02*
X023966Y020534D01*
X023390Y020534D02*
X023390Y020630D01*
X023966Y020630D01*
X023966Y020534D01*
X023966Y020587D02*
X023390Y020587D01*
X023390Y020731D02*
X023966Y020731D01*
X023390Y020731D02*
X023390Y020827D01*
X023966Y020827D01*
X023966Y020731D01*
X023966Y020784D02*
X023390Y020784D01*
X023390Y020928D02*
X023966Y020928D01*
X023390Y020928D02*
X023390Y021024D01*
X023966Y021024D01*
X023966Y020928D01*
X023966Y020981D02*
X023390Y020981D01*
X023390Y021124D02*
X023966Y021124D01*
X023390Y021124D02*
X023390Y021220D01*
X023966Y021220D01*
X023966Y021124D01*
X023966Y021177D02*
X023390Y021177D01*
X023390Y021321D02*
X023966Y021321D01*
X023390Y021321D02*
X023390Y021417D01*
X023966Y021417D01*
X023966Y021321D01*
X023966Y021374D02*
X023390Y021374D01*
X023390Y021518D02*
X023966Y021518D01*
X023390Y021518D02*
X023390Y021614D01*
X023966Y021614D01*
X023966Y021518D01*
X023966Y021571D02*
X023390Y021571D01*
X023390Y021715D02*
X023966Y021715D01*
X023390Y021715D02*
X023390Y021811D01*
X023966Y021811D01*
X023966Y021715D01*
X023966Y021768D02*
X023390Y021768D01*
X023390Y021912D02*
X023966Y021912D01*
X023390Y021912D02*
X023390Y022008D01*
X023966Y022008D01*
X023966Y021912D01*
X023966Y021965D02*
X023390Y021965D01*
X023390Y022109D02*
X023966Y022109D01*
X023390Y022109D02*
X023390Y022205D01*
X023966Y022205D01*
X023966Y022109D01*
X023966Y022162D02*
X023390Y022162D01*
X023390Y022306D02*
X023966Y022306D01*
X023390Y022306D02*
X023390Y022402D01*
X023966Y022402D01*
X023966Y022306D01*
X023966Y022359D02*
X023390Y022359D01*
X023390Y022502D02*
X023966Y022502D01*
X023390Y022502D02*
X023390Y022598D01*
X023966Y022598D01*
X023966Y022502D01*
X023966Y022555D02*
X023390Y022555D01*
X023390Y022699D02*
X023966Y022699D01*
X023390Y022699D02*
X023390Y022795D01*
X023966Y022795D01*
X023966Y022699D01*
X023966Y022752D02*
X023390Y022752D01*
X023390Y022896D02*
X023966Y022896D01*
X023390Y022896D02*
X023390Y022992D01*
X023966Y022992D01*
X023966Y022896D01*
X023966Y022949D02*
X023390Y022949D01*
X023390Y023093D02*
X023966Y023093D01*
X023390Y023093D02*
X023390Y023189D01*
X023966Y023189D01*
X023966Y023093D01*
X023966Y023146D02*
X023390Y023146D01*
X023390Y023290D02*
X023966Y023290D01*
X023390Y023290D02*
X023390Y023386D01*
X023966Y023386D01*
X023966Y023290D01*
X023966Y023343D02*
X023390Y023343D01*
X023390Y023487D02*
X023966Y023487D01*
X023390Y023487D02*
X023390Y023583D01*
X023966Y023583D01*
X023966Y023487D01*
X023966Y023540D02*
X023390Y023540D01*
X023390Y023683D02*
X023966Y023683D01*
X023390Y023683D02*
X023390Y023779D01*
X023966Y023779D01*
X023966Y023683D01*
X023966Y023736D02*
X023390Y023736D01*
X022843Y024231D02*
X022843Y024807D01*
X022939Y024807D01*
X022939Y024231D01*
X022843Y024231D01*
X022843Y024284D02*
X022939Y024284D01*
X022939Y024337D02*
X022843Y024337D01*
X022843Y024390D02*
X022939Y024390D01*
X022939Y024443D02*
X022843Y024443D01*
X022843Y024496D02*
X022939Y024496D01*
X022939Y024549D02*
X022843Y024549D01*
X022843Y024602D02*
X022939Y024602D01*
X022939Y024655D02*
X022843Y024655D01*
X022843Y024708D02*
X022939Y024708D01*
X022939Y024761D02*
X022843Y024761D01*
X022646Y024807D02*
X022646Y024231D01*
X022646Y024807D02*
X022742Y024807D01*
X022742Y024231D01*
X022646Y024231D01*
X022646Y024284D02*
X022742Y024284D01*
X022742Y024337D02*
X022646Y024337D01*
X022646Y024390D02*
X022742Y024390D01*
X022742Y024443D02*
X022646Y024443D01*
X022646Y024496D02*
X022742Y024496D01*
X022742Y024549D02*
X022646Y024549D01*
X022646Y024602D02*
X022742Y024602D01*
X022742Y024655D02*
X022646Y024655D01*
X022646Y024708D02*
X022742Y024708D01*
X022742Y024761D02*
X022646Y024761D01*
X022449Y024807D02*
X022449Y024231D01*
X022449Y024807D02*
X022545Y024807D01*
X022545Y024231D01*
X022449Y024231D01*
X022449Y024284D02*
X022545Y024284D01*
X022545Y024337D02*
X022449Y024337D01*
X022449Y024390D02*
X022545Y024390D01*
X022545Y024443D02*
X022449Y024443D01*
X022449Y024496D02*
X022545Y024496D01*
X022545Y024549D02*
X022449Y024549D01*
X022449Y024602D02*
X022545Y024602D01*
X022545Y024655D02*
X022449Y024655D01*
X022449Y024708D02*
X022545Y024708D01*
X022545Y024761D02*
X022449Y024761D01*
X022252Y024807D02*
X022252Y024231D01*
X022252Y024807D02*
X022348Y024807D01*
X022348Y024231D01*
X022252Y024231D01*
X022252Y024284D02*
X022348Y024284D01*
X022348Y024337D02*
X022252Y024337D01*
X022252Y024390D02*
X022348Y024390D01*
X022348Y024443D02*
X022252Y024443D01*
X022252Y024496D02*
X022348Y024496D01*
X022348Y024549D02*
X022252Y024549D01*
X022252Y024602D02*
X022348Y024602D01*
X022348Y024655D02*
X022252Y024655D01*
X022252Y024708D02*
X022348Y024708D01*
X022348Y024761D02*
X022252Y024761D01*
X022056Y024807D02*
X022056Y024231D01*
X022056Y024807D02*
X022152Y024807D01*
X022152Y024231D01*
X022056Y024231D01*
X022056Y024284D02*
X022152Y024284D01*
X022152Y024337D02*
X022056Y024337D01*
X022056Y024390D02*
X022152Y024390D01*
X022152Y024443D02*
X022056Y024443D01*
X022056Y024496D02*
X022152Y024496D01*
X022152Y024549D02*
X022056Y024549D01*
X022056Y024602D02*
X022152Y024602D01*
X022152Y024655D02*
X022056Y024655D01*
X022056Y024708D02*
X022152Y024708D01*
X022152Y024761D02*
X022056Y024761D01*
X021859Y024807D02*
X021859Y024231D01*
X021859Y024807D02*
X021955Y024807D01*
X021955Y024231D01*
X021859Y024231D01*
X021859Y024284D02*
X021955Y024284D01*
X021955Y024337D02*
X021859Y024337D01*
X021859Y024390D02*
X021955Y024390D01*
X021955Y024443D02*
X021859Y024443D01*
X021859Y024496D02*
X021955Y024496D01*
X021955Y024549D02*
X021859Y024549D01*
X021859Y024602D02*
X021955Y024602D01*
X021955Y024655D02*
X021859Y024655D01*
X021859Y024708D02*
X021955Y024708D01*
X021955Y024761D02*
X021859Y024761D01*
X021662Y024807D02*
X021662Y024231D01*
X021662Y024807D02*
X021758Y024807D01*
X021758Y024231D01*
X021662Y024231D01*
X021662Y024284D02*
X021758Y024284D01*
X021758Y024337D02*
X021662Y024337D01*
X021662Y024390D02*
X021758Y024390D01*
X021758Y024443D02*
X021662Y024443D01*
X021662Y024496D02*
X021758Y024496D01*
X021758Y024549D02*
X021662Y024549D01*
X021662Y024602D02*
X021758Y024602D01*
X021758Y024655D02*
X021662Y024655D01*
X021662Y024708D02*
X021758Y024708D01*
X021758Y024761D02*
X021662Y024761D01*
X021465Y024807D02*
X021465Y024231D01*
X021465Y024807D02*
X021561Y024807D01*
X021561Y024231D01*
X021465Y024231D01*
X021465Y024284D02*
X021561Y024284D01*
X021561Y024337D02*
X021465Y024337D01*
X021465Y024390D02*
X021561Y024390D01*
X021561Y024443D02*
X021465Y024443D01*
X021465Y024496D02*
X021561Y024496D01*
X021561Y024549D02*
X021465Y024549D01*
X021465Y024602D02*
X021561Y024602D01*
X021561Y024655D02*
X021465Y024655D01*
X021465Y024708D02*
X021561Y024708D01*
X021561Y024761D02*
X021465Y024761D01*
X021268Y024807D02*
X021268Y024231D01*
X021268Y024807D02*
X021364Y024807D01*
X021364Y024231D01*
X021268Y024231D01*
X021268Y024284D02*
X021364Y024284D01*
X021364Y024337D02*
X021268Y024337D01*
X021268Y024390D02*
X021364Y024390D01*
X021364Y024443D02*
X021268Y024443D01*
X021268Y024496D02*
X021364Y024496D01*
X021364Y024549D02*
X021268Y024549D01*
X021268Y024602D02*
X021364Y024602D01*
X021364Y024655D02*
X021268Y024655D01*
X021268Y024708D02*
X021364Y024708D01*
X021364Y024761D02*
X021268Y024761D01*
X021071Y024807D02*
X021071Y024231D01*
X021071Y024807D02*
X021167Y024807D01*
X021167Y024231D01*
X021071Y024231D01*
X021071Y024284D02*
X021167Y024284D01*
X021167Y024337D02*
X021071Y024337D01*
X021071Y024390D02*
X021167Y024390D01*
X021167Y024443D02*
X021071Y024443D01*
X021071Y024496D02*
X021167Y024496D01*
X021167Y024549D02*
X021071Y024549D01*
X021071Y024602D02*
X021167Y024602D01*
X021167Y024655D02*
X021071Y024655D01*
X021071Y024708D02*
X021167Y024708D01*
X021167Y024761D02*
X021071Y024761D01*
X020874Y024807D02*
X020874Y024231D01*
X020874Y024807D02*
X020970Y024807D01*
X020970Y024231D01*
X020874Y024231D01*
X020874Y024284D02*
X020970Y024284D01*
X020970Y024337D02*
X020874Y024337D01*
X020874Y024390D02*
X020970Y024390D01*
X020970Y024443D02*
X020874Y024443D01*
X020874Y024496D02*
X020970Y024496D01*
X020970Y024549D02*
X020874Y024549D01*
X020874Y024602D02*
X020970Y024602D01*
X020970Y024655D02*
X020874Y024655D01*
X020874Y024708D02*
X020970Y024708D01*
X020970Y024761D02*
X020874Y024761D01*
X020678Y024807D02*
X020678Y024231D01*
X020678Y024807D02*
X020774Y024807D01*
X020774Y024231D01*
X020678Y024231D01*
X020678Y024284D02*
X020774Y024284D01*
X020774Y024337D02*
X020678Y024337D01*
X020678Y024390D02*
X020774Y024390D01*
X020774Y024443D02*
X020678Y024443D01*
X020678Y024496D02*
X020774Y024496D01*
X020774Y024549D02*
X020678Y024549D01*
X020678Y024602D02*
X020774Y024602D01*
X020774Y024655D02*
X020678Y024655D01*
X020678Y024708D02*
X020774Y024708D01*
X020774Y024761D02*
X020678Y024761D01*
X020481Y024807D02*
X020481Y024231D01*
X020481Y024807D02*
X020577Y024807D01*
X020577Y024231D01*
X020481Y024231D01*
X020481Y024284D02*
X020577Y024284D01*
X020577Y024337D02*
X020481Y024337D01*
X020481Y024390D02*
X020577Y024390D01*
X020577Y024443D02*
X020481Y024443D01*
X020481Y024496D02*
X020577Y024496D01*
X020577Y024549D02*
X020481Y024549D01*
X020481Y024602D02*
X020577Y024602D01*
X020577Y024655D02*
X020481Y024655D01*
X020481Y024708D02*
X020577Y024708D01*
X020577Y024761D02*
X020481Y024761D01*
X020284Y024807D02*
X020284Y024231D01*
X020284Y024807D02*
X020380Y024807D01*
X020380Y024231D01*
X020284Y024231D01*
X020284Y024284D02*
X020380Y024284D01*
X020380Y024337D02*
X020284Y024337D01*
X020284Y024390D02*
X020380Y024390D01*
X020380Y024443D02*
X020284Y024443D01*
X020284Y024496D02*
X020380Y024496D01*
X020380Y024549D02*
X020284Y024549D01*
X020284Y024602D02*
X020380Y024602D01*
X020380Y024655D02*
X020284Y024655D01*
X020284Y024708D02*
X020380Y024708D01*
X020380Y024761D02*
X020284Y024761D01*
X020087Y024807D02*
X020087Y024231D01*
X020087Y024807D02*
X020183Y024807D01*
X020183Y024231D01*
X020087Y024231D01*
X020087Y024284D02*
X020183Y024284D01*
X020183Y024337D02*
X020087Y024337D01*
X020087Y024390D02*
X020183Y024390D01*
X020183Y024443D02*
X020087Y024443D01*
X020087Y024496D02*
X020183Y024496D01*
X020183Y024549D02*
X020087Y024549D01*
X020087Y024602D02*
X020183Y024602D01*
X020183Y024655D02*
X020087Y024655D01*
X020087Y024708D02*
X020183Y024708D01*
X020183Y024761D02*
X020087Y024761D01*
X019890Y024807D02*
X019890Y024231D01*
X019890Y024807D02*
X019986Y024807D01*
X019986Y024231D01*
X019890Y024231D01*
X019890Y024284D02*
X019986Y024284D01*
X019986Y024337D02*
X019890Y024337D01*
X019890Y024390D02*
X019986Y024390D01*
X019986Y024443D02*
X019890Y024443D01*
X019890Y024496D02*
X019986Y024496D01*
X019986Y024549D02*
X019890Y024549D01*
X019890Y024602D02*
X019986Y024602D01*
X019986Y024655D02*
X019890Y024655D01*
X019890Y024708D02*
X019986Y024708D01*
X019986Y024761D02*
X019890Y024761D01*
X019693Y024807D02*
X019693Y024231D01*
X019693Y024807D02*
X019789Y024807D01*
X019789Y024231D01*
X019693Y024231D01*
X019693Y024284D02*
X019789Y024284D01*
X019789Y024337D02*
X019693Y024337D01*
X019693Y024390D02*
X019789Y024390D01*
X019789Y024443D02*
X019693Y024443D01*
X019693Y024496D02*
X019789Y024496D01*
X019789Y024549D02*
X019693Y024549D01*
X019693Y024602D02*
X019789Y024602D01*
X019789Y024655D02*
X019693Y024655D01*
X019693Y024708D02*
X019789Y024708D01*
X019789Y024761D02*
X019693Y024761D01*
X019496Y024807D02*
X019496Y024231D01*
X019496Y024807D02*
X019592Y024807D01*
X019592Y024231D01*
X019496Y024231D01*
X019496Y024284D02*
X019592Y024284D01*
X019592Y024337D02*
X019496Y024337D01*
X019496Y024390D02*
X019592Y024390D01*
X019592Y024443D02*
X019496Y024443D01*
X019496Y024496D02*
X019592Y024496D01*
X019592Y024549D02*
X019496Y024549D01*
X019496Y024602D02*
X019592Y024602D01*
X019592Y024655D02*
X019496Y024655D01*
X019496Y024708D02*
X019592Y024708D01*
X019592Y024761D02*
X019496Y024761D01*
X019300Y024807D02*
X019300Y024231D01*
X019300Y024807D02*
X019396Y024807D01*
X019396Y024231D01*
X019300Y024231D01*
X019300Y024284D02*
X019396Y024284D01*
X019396Y024337D02*
X019300Y024337D01*
X019300Y024390D02*
X019396Y024390D01*
X019396Y024443D02*
X019300Y024443D01*
X019300Y024496D02*
X019396Y024496D01*
X019396Y024549D02*
X019300Y024549D01*
X019300Y024602D02*
X019396Y024602D01*
X019396Y024655D02*
X019300Y024655D01*
X019300Y024708D02*
X019396Y024708D01*
X019396Y024761D02*
X019300Y024761D01*
X019103Y024807D02*
X019103Y024231D01*
X019103Y024807D02*
X019199Y024807D01*
X019199Y024231D01*
X019103Y024231D01*
X019103Y024284D02*
X019199Y024284D01*
X019199Y024337D02*
X019103Y024337D01*
X019103Y024390D02*
X019199Y024390D01*
X019199Y024443D02*
X019103Y024443D01*
X019103Y024496D02*
X019199Y024496D01*
X019199Y024549D02*
X019103Y024549D01*
X019103Y024602D02*
X019199Y024602D01*
X019199Y024655D02*
X019103Y024655D01*
X019103Y024708D02*
X019199Y024708D01*
X019199Y024761D02*
X019103Y024761D01*
X018906Y024807D02*
X018906Y024231D01*
X018906Y024807D02*
X019002Y024807D01*
X019002Y024231D01*
X018906Y024231D01*
X018906Y024284D02*
X019002Y024284D01*
X019002Y024337D02*
X018906Y024337D01*
X018906Y024390D02*
X019002Y024390D01*
X019002Y024443D02*
X018906Y024443D01*
X018906Y024496D02*
X019002Y024496D01*
X019002Y024549D02*
X018906Y024549D01*
X018906Y024602D02*
X019002Y024602D01*
X019002Y024655D02*
X018906Y024655D01*
X018906Y024708D02*
X019002Y024708D01*
X019002Y024761D02*
X018906Y024761D01*
X018709Y024807D02*
X018709Y024231D01*
X018709Y024807D02*
X018805Y024807D01*
X018805Y024231D01*
X018709Y024231D01*
X018709Y024284D02*
X018805Y024284D01*
X018805Y024337D02*
X018709Y024337D01*
X018709Y024390D02*
X018805Y024390D01*
X018805Y024443D02*
X018709Y024443D01*
X018709Y024496D02*
X018805Y024496D01*
X018805Y024549D02*
X018709Y024549D01*
X018709Y024602D02*
X018805Y024602D01*
X018805Y024655D02*
X018709Y024655D01*
X018709Y024708D02*
X018805Y024708D01*
X018805Y024761D02*
X018709Y024761D01*
X018512Y024807D02*
X018512Y024231D01*
X018512Y024807D02*
X018608Y024807D01*
X018608Y024231D01*
X018512Y024231D01*
X018512Y024284D02*
X018608Y024284D01*
X018608Y024337D02*
X018512Y024337D01*
X018512Y024390D02*
X018608Y024390D01*
X018608Y024443D02*
X018512Y024443D01*
X018512Y024496D02*
X018608Y024496D01*
X018608Y024549D02*
X018512Y024549D01*
X018512Y024602D02*
X018608Y024602D01*
X018608Y024655D02*
X018512Y024655D01*
X018512Y024708D02*
X018608Y024708D01*
X018608Y024761D02*
X018512Y024761D01*
X018315Y024807D02*
X018315Y024231D01*
X018315Y024807D02*
X018411Y024807D01*
X018411Y024231D01*
X018315Y024231D01*
X018315Y024284D02*
X018411Y024284D01*
X018411Y024337D02*
X018315Y024337D01*
X018315Y024390D02*
X018411Y024390D01*
X018411Y024443D02*
X018315Y024443D01*
X018315Y024496D02*
X018411Y024496D01*
X018411Y024549D02*
X018315Y024549D01*
X018315Y024602D02*
X018411Y024602D01*
X018411Y024655D02*
X018315Y024655D01*
X018315Y024708D02*
X018411Y024708D01*
X018411Y024761D02*
X018315Y024761D01*
X018119Y024807D02*
X018119Y024231D01*
X018119Y024807D02*
X018215Y024807D01*
X018215Y024231D01*
X018119Y024231D01*
X018119Y024284D02*
X018215Y024284D01*
X018215Y024337D02*
X018119Y024337D01*
X018119Y024390D02*
X018215Y024390D01*
X018215Y024443D02*
X018119Y024443D01*
X018119Y024496D02*
X018215Y024496D01*
X018215Y024549D02*
X018119Y024549D01*
X018119Y024602D02*
X018215Y024602D01*
X018215Y024655D02*
X018119Y024655D01*
X018119Y024708D02*
X018215Y024708D01*
X018215Y024761D02*
X018119Y024761D01*
D22*
X017906Y014402D02*
X017906Y013772D01*
X017906Y014402D02*
X018614Y014402D01*
X018614Y013772D01*
X017906Y013772D01*
X017906Y013811D02*
X018614Y013811D01*
X018614Y013850D02*
X017906Y013850D01*
X017906Y013889D02*
X018614Y013889D01*
X018614Y013928D02*
X017906Y013928D01*
X017906Y013967D02*
X018614Y013967D01*
X018614Y014006D02*
X017906Y014006D01*
X017906Y014045D02*
X018614Y014045D01*
X018614Y014084D02*
X017906Y014084D01*
X017906Y014123D02*
X018614Y014123D01*
X018614Y014162D02*
X017906Y014162D01*
X017906Y014201D02*
X018614Y014201D01*
X018614Y014240D02*
X017906Y014240D01*
X017906Y014279D02*
X018614Y014279D01*
X018614Y014318D02*
X017906Y014318D01*
X017906Y014357D02*
X018614Y014357D01*
X018614Y014396D02*
X017906Y014396D01*
X016725Y014402D02*
X016725Y013772D01*
X016725Y014402D02*
X017433Y014402D01*
X017433Y013772D01*
X016725Y013772D01*
X016725Y013811D02*
X017433Y013811D01*
X017433Y013850D02*
X016725Y013850D01*
X016725Y013889D02*
X017433Y013889D01*
X017433Y013928D02*
X016725Y013928D01*
X016725Y013967D02*
X017433Y013967D01*
X017433Y014006D02*
X016725Y014006D01*
X016725Y014045D02*
X017433Y014045D01*
X017433Y014084D02*
X016725Y014084D01*
X016725Y014123D02*
X017433Y014123D01*
X017433Y014162D02*
X016725Y014162D01*
X016725Y014201D02*
X017433Y014201D01*
X017433Y014240D02*
X016725Y014240D01*
X016725Y014279D02*
X017433Y014279D01*
X017433Y014318D02*
X016725Y014318D01*
X016725Y014357D02*
X017433Y014357D01*
X017433Y014396D02*
X016725Y014396D01*
X016725Y013300D02*
X016725Y012670D01*
X016725Y013300D02*
X017433Y013300D01*
X017433Y012670D01*
X016725Y012670D01*
X016725Y012709D02*
X017433Y012709D01*
X017433Y012748D02*
X016725Y012748D01*
X016725Y012787D02*
X017433Y012787D01*
X017433Y012826D02*
X016725Y012826D01*
X016725Y012865D02*
X017433Y012865D01*
X017433Y012904D02*
X016725Y012904D01*
X016725Y012943D02*
X017433Y012943D01*
X017433Y012982D02*
X016725Y012982D01*
X016725Y013021D02*
X017433Y013021D01*
X017433Y013060D02*
X016725Y013060D01*
X016725Y013099D02*
X017433Y013099D01*
X017433Y013138D02*
X016725Y013138D01*
X016725Y013177D02*
X017433Y013177D01*
X017433Y013216D02*
X016725Y013216D01*
X016725Y013255D02*
X017433Y013255D01*
X017433Y013294D02*
X016725Y013294D01*
X017906Y013300D02*
X017906Y012670D01*
X017906Y013300D02*
X018614Y013300D01*
X018614Y012670D01*
X017906Y012670D01*
X017906Y012709D02*
X018614Y012709D01*
X018614Y012748D02*
X017906Y012748D01*
X017906Y012787D02*
X018614Y012787D01*
X018614Y012826D02*
X017906Y012826D01*
X017906Y012865D02*
X018614Y012865D01*
X018614Y012904D02*
X017906Y012904D01*
X017906Y012943D02*
X018614Y012943D01*
X018614Y012982D02*
X017906Y012982D01*
X017906Y013021D02*
X018614Y013021D01*
X018614Y013060D02*
X017906Y013060D01*
X017906Y013099D02*
X018614Y013099D01*
X018614Y013138D02*
X017906Y013138D01*
X017906Y013177D02*
X018614Y013177D01*
X018614Y013216D02*
X017906Y013216D01*
X017906Y013255D02*
X018614Y013255D01*
X018614Y013294D02*
X017906Y013294D01*
X018614Y012040D02*
X018614Y011410D01*
X017906Y011410D01*
X017906Y012040D01*
X018614Y012040D01*
X018614Y011449D02*
X017906Y011449D01*
X017906Y011488D02*
X018614Y011488D01*
X018614Y011527D02*
X017906Y011527D01*
X017906Y011566D02*
X018614Y011566D01*
X018614Y011605D02*
X017906Y011605D01*
X017906Y011644D02*
X018614Y011644D01*
X018614Y011683D02*
X017906Y011683D01*
X017906Y011722D02*
X018614Y011722D01*
X018614Y011761D02*
X017906Y011761D01*
X017906Y011800D02*
X018614Y011800D01*
X018614Y011839D02*
X017906Y011839D01*
X017906Y011878D02*
X018614Y011878D01*
X018614Y011917D02*
X017906Y011917D01*
X017906Y011956D02*
X018614Y011956D01*
X018614Y011995D02*
X017906Y011995D01*
X017906Y012034D02*
X018614Y012034D01*
X018614Y010937D02*
X018614Y010307D01*
X017906Y010307D01*
X017906Y010937D01*
X018614Y010937D01*
X018614Y010346D02*
X017906Y010346D01*
X017906Y010385D02*
X018614Y010385D01*
X018614Y010424D02*
X017906Y010424D01*
X017906Y010463D02*
X018614Y010463D01*
X018614Y010502D02*
X017906Y010502D01*
X017906Y010541D02*
X018614Y010541D01*
X018614Y010580D02*
X017906Y010580D01*
X017906Y010619D02*
X018614Y010619D01*
X018614Y010658D02*
X017906Y010658D01*
X017906Y010697D02*
X018614Y010697D01*
X018614Y010736D02*
X017906Y010736D01*
X017906Y010775D02*
X018614Y010775D01*
X018614Y010814D02*
X017906Y010814D01*
X017906Y010853D02*
X018614Y010853D01*
X018614Y010892D02*
X017906Y010892D01*
X017906Y010931D02*
X018614Y010931D01*
X017433Y010937D02*
X017433Y010307D01*
X016725Y010307D01*
X016725Y010937D01*
X017433Y010937D01*
X017433Y010346D02*
X016725Y010346D01*
X016725Y010385D02*
X017433Y010385D01*
X017433Y010424D02*
X016725Y010424D01*
X016725Y010463D02*
X017433Y010463D01*
X017433Y010502D02*
X016725Y010502D01*
X016725Y010541D02*
X017433Y010541D01*
X017433Y010580D02*
X016725Y010580D01*
X016725Y010619D02*
X017433Y010619D01*
X017433Y010658D02*
X016725Y010658D01*
X016725Y010697D02*
X017433Y010697D01*
X017433Y010736D02*
X016725Y010736D01*
X016725Y010775D02*
X017433Y010775D01*
X017433Y010814D02*
X016725Y010814D01*
X016725Y010853D02*
X017433Y010853D01*
X017433Y010892D02*
X016725Y010892D01*
X016725Y010931D02*
X017433Y010931D01*
X017433Y011410D02*
X017433Y012040D01*
X017433Y011410D02*
X016725Y011410D01*
X016725Y012040D01*
X017433Y012040D01*
X017433Y011449D02*
X016725Y011449D01*
X016725Y011488D02*
X017433Y011488D01*
X017433Y011527D02*
X016725Y011527D01*
X016725Y011566D02*
X017433Y011566D01*
X017433Y011605D02*
X016725Y011605D01*
X016725Y011644D02*
X017433Y011644D01*
X017433Y011683D02*
X016725Y011683D01*
X016725Y011722D02*
X017433Y011722D01*
X017433Y011761D02*
X016725Y011761D01*
X016725Y011800D02*
X017433Y011800D01*
X017433Y011839D02*
X016725Y011839D01*
X016725Y011878D02*
X017433Y011878D01*
X017433Y011917D02*
X016725Y011917D01*
X016725Y011956D02*
X017433Y011956D01*
X017433Y011995D02*
X016725Y011995D01*
X016725Y012034D02*
X017433Y012034D01*
D23*
X012944Y011842D02*
X012944Y012788D01*
X016096Y012788D01*
X016096Y011842D01*
X012944Y011842D01*
X012944Y011880D02*
X016096Y011880D01*
X016096Y011918D02*
X012944Y011918D01*
X012944Y011956D02*
X016096Y011956D01*
X016096Y011994D02*
X012944Y011994D01*
X012944Y012032D02*
X016096Y012032D01*
X016096Y012070D02*
X012944Y012070D01*
X012944Y012108D02*
X016096Y012108D01*
X016096Y012146D02*
X012944Y012146D01*
X012944Y012184D02*
X016096Y012184D01*
X016096Y012222D02*
X012944Y012222D01*
X012944Y012260D02*
X016096Y012260D01*
X016096Y012298D02*
X012944Y012298D01*
X012944Y012336D02*
X016096Y012336D01*
X016096Y012374D02*
X012944Y012374D01*
X012944Y012412D02*
X016096Y012412D01*
X016096Y012450D02*
X012944Y012450D01*
X012944Y012488D02*
X016096Y012488D01*
X016096Y012526D02*
X012944Y012526D01*
X012944Y012564D02*
X016096Y012564D01*
X016096Y012602D02*
X012944Y012602D01*
X012944Y012640D02*
X016096Y012640D01*
X016096Y012678D02*
X012944Y012678D01*
X012944Y012716D02*
X016096Y012716D01*
X016096Y012754D02*
X012944Y012754D01*
X012944Y010505D02*
X012944Y009559D01*
X012944Y010505D02*
X016096Y010505D01*
X016096Y009559D01*
X012944Y009559D01*
X012944Y009597D02*
X016096Y009597D01*
X016096Y009635D02*
X012944Y009635D01*
X012944Y009673D02*
X016096Y009673D01*
X016096Y009711D02*
X012944Y009711D01*
X012944Y009749D02*
X016096Y009749D01*
X016096Y009787D02*
X012944Y009787D01*
X012944Y009825D02*
X016096Y009825D01*
X016096Y009863D02*
X012944Y009863D01*
X012944Y009901D02*
X016096Y009901D01*
X016096Y009939D02*
X012944Y009939D01*
X012944Y009977D02*
X016096Y009977D01*
X016096Y010015D02*
X012944Y010015D01*
X012944Y010053D02*
X016096Y010053D01*
X016096Y010091D02*
X012944Y010091D01*
X012944Y010129D02*
X016096Y010129D01*
X016096Y010167D02*
X012944Y010167D01*
X012944Y010205D02*
X016096Y010205D01*
X016096Y010243D02*
X012944Y010243D01*
X012944Y010281D02*
X016096Y010281D01*
X016096Y010319D02*
X012944Y010319D01*
X012944Y010357D02*
X016096Y010357D01*
X016096Y010395D02*
X012944Y010395D01*
X012944Y010433D02*
X016096Y010433D01*
X016096Y010471D02*
X012944Y010471D01*
D24*
X020351Y010309D02*
X020351Y009131D01*
X019959Y009131D01*
X019959Y010309D01*
X020351Y010309D01*
X020351Y009173D02*
X019959Y009173D01*
X019959Y009215D02*
X020351Y009215D01*
X020351Y009257D02*
X019959Y009257D01*
X019959Y009299D02*
X020351Y009299D01*
X020351Y009341D02*
X019959Y009341D01*
X019959Y009383D02*
X020351Y009383D01*
X020351Y009425D02*
X019959Y009425D01*
X019959Y009467D02*
X020351Y009467D01*
X020351Y009509D02*
X019959Y009509D01*
X019959Y009551D02*
X020351Y009551D01*
X020351Y009593D02*
X019959Y009593D01*
X019959Y009635D02*
X020351Y009635D01*
X020351Y009677D02*
X019959Y009677D01*
X019959Y009719D02*
X020351Y009719D01*
X020351Y009761D02*
X019959Y009761D01*
X019959Y009803D02*
X020351Y009803D01*
X020351Y009845D02*
X019959Y009845D01*
X019959Y009887D02*
X020351Y009887D01*
X020351Y009929D02*
X019959Y009929D01*
X019959Y009971D02*
X020351Y009971D01*
X020351Y010013D02*
X019959Y010013D01*
X019959Y010055D02*
X020351Y010055D01*
X020351Y010097D02*
X019959Y010097D01*
X019959Y010139D02*
X020351Y010139D01*
X020351Y010181D02*
X019959Y010181D01*
X019959Y010223D02*
X020351Y010223D01*
X020351Y010265D02*
X019959Y010265D01*
X019959Y010307D02*
X020351Y010307D01*
X020351Y010942D02*
X020351Y012120D01*
X020351Y010942D02*
X019959Y010942D01*
X019959Y012120D01*
X020351Y012120D01*
X020351Y010984D02*
X019959Y010984D01*
X019959Y011026D02*
X020351Y011026D01*
X020351Y011068D02*
X019959Y011068D01*
X019959Y011110D02*
X020351Y011110D01*
X020351Y011152D02*
X019959Y011152D01*
X019959Y011194D02*
X020351Y011194D01*
X020351Y011236D02*
X019959Y011236D01*
X019959Y011278D02*
X020351Y011278D01*
X020351Y011320D02*
X019959Y011320D01*
X019959Y011362D02*
X020351Y011362D01*
X020351Y011404D02*
X019959Y011404D01*
X019959Y011446D02*
X020351Y011446D01*
X020351Y011488D02*
X019959Y011488D01*
X019959Y011530D02*
X020351Y011530D01*
X020351Y011572D02*
X019959Y011572D01*
X019959Y011614D02*
X020351Y011614D01*
X020351Y011656D02*
X019959Y011656D01*
X019959Y011698D02*
X020351Y011698D01*
X020351Y011740D02*
X019959Y011740D01*
X019959Y011782D02*
X020351Y011782D01*
X020351Y011824D02*
X019959Y011824D01*
X019959Y011866D02*
X020351Y011866D01*
X020351Y011908D02*
X019959Y011908D01*
X019959Y011950D02*
X020351Y011950D01*
X020351Y011992D02*
X019959Y011992D01*
X019959Y012034D02*
X020351Y012034D01*
X020351Y012076D02*
X019959Y012076D01*
X019959Y012118D02*
X020351Y012118D01*
X019948Y012591D02*
X019948Y013769D01*
X020340Y013769D01*
X020340Y012591D01*
X019948Y012591D01*
X019948Y012633D02*
X020340Y012633D01*
X020340Y012675D02*
X019948Y012675D01*
X019948Y012717D02*
X020340Y012717D01*
X020340Y012759D02*
X019948Y012759D01*
X019948Y012801D02*
X020340Y012801D01*
X020340Y012843D02*
X019948Y012843D01*
X019948Y012885D02*
X020340Y012885D01*
X020340Y012927D02*
X019948Y012927D01*
X019948Y012969D02*
X020340Y012969D01*
X020340Y013011D02*
X019948Y013011D01*
X019948Y013053D02*
X020340Y013053D01*
X020340Y013095D02*
X019948Y013095D01*
X019948Y013137D02*
X020340Y013137D01*
X020340Y013179D02*
X019948Y013179D01*
X019948Y013221D02*
X020340Y013221D01*
X020340Y013263D02*
X019948Y013263D01*
X019948Y013305D02*
X020340Y013305D01*
X020340Y013347D02*
X019948Y013347D01*
X019948Y013389D02*
X020340Y013389D01*
X020340Y013431D02*
X019948Y013431D01*
X019948Y013473D02*
X020340Y013473D01*
X020340Y013515D02*
X019948Y013515D01*
X019948Y013557D02*
X020340Y013557D01*
X020340Y013599D02*
X019948Y013599D01*
X019948Y013641D02*
X020340Y013641D01*
X020340Y013683D02*
X019948Y013683D01*
X019948Y013725D02*
X020340Y013725D01*
X020340Y013767D02*
X019948Y013767D01*
X019948Y014402D02*
X019948Y015580D01*
X020340Y015580D01*
X020340Y014402D01*
X019948Y014402D01*
X019948Y014444D02*
X020340Y014444D01*
X020340Y014486D02*
X019948Y014486D01*
X019948Y014528D02*
X020340Y014528D01*
X020340Y014570D02*
X019948Y014570D01*
X019948Y014612D02*
X020340Y014612D01*
X020340Y014654D02*
X019948Y014654D01*
X019948Y014696D02*
X020340Y014696D01*
X020340Y014738D02*
X019948Y014738D01*
X019948Y014780D02*
X020340Y014780D01*
X020340Y014822D02*
X019948Y014822D01*
X019948Y014864D02*
X020340Y014864D01*
X020340Y014906D02*
X019948Y014906D01*
X019948Y014948D02*
X020340Y014948D01*
X020340Y014990D02*
X019948Y014990D01*
X019948Y015032D02*
X020340Y015032D01*
X020340Y015074D02*
X019948Y015074D01*
X019948Y015116D02*
X020340Y015116D01*
X020340Y015158D02*
X019948Y015158D01*
X019948Y015200D02*
X020340Y015200D01*
X020340Y015242D02*
X019948Y015242D01*
X019948Y015284D02*
X020340Y015284D01*
X020340Y015326D02*
X019948Y015326D01*
X019948Y015368D02*
X020340Y015368D01*
X020340Y015410D02*
X019948Y015410D01*
X019948Y015452D02*
X020340Y015452D01*
X020340Y015494D02*
X019948Y015494D01*
X019948Y015536D02*
X020340Y015536D01*
X020340Y015578D02*
X019948Y015578D01*
X012295Y019018D02*
X011903Y019018D01*
X011903Y019566D01*
X012295Y019566D01*
X012295Y019018D01*
X012295Y019060D02*
X011903Y019060D01*
X011903Y019102D02*
X012295Y019102D01*
X012295Y019144D02*
X011903Y019144D01*
X011903Y019186D02*
X012295Y019186D01*
X012295Y019228D02*
X011903Y019228D01*
X011903Y019270D02*
X012295Y019270D01*
X012295Y019312D02*
X011903Y019312D01*
X011903Y019354D02*
X012295Y019354D01*
X012295Y019396D02*
X011903Y019396D01*
X011903Y019438D02*
X012295Y019438D01*
X012295Y019480D02*
X011903Y019480D01*
X011903Y019522D02*
X012295Y019522D01*
X012295Y019564D02*
X011903Y019564D01*
X011547Y019018D02*
X011155Y019018D01*
X011155Y019566D01*
X011547Y019566D01*
X011547Y019018D01*
X011547Y019060D02*
X011155Y019060D01*
X011155Y019102D02*
X011547Y019102D01*
X011547Y019144D02*
X011155Y019144D01*
X011155Y019186D02*
X011547Y019186D01*
X011547Y019228D02*
X011155Y019228D01*
X011155Y019270D02*
X011547Y019270D01*
X011547Y019312D02*
X011155Y019312D01*
X011155Y019354D02*
X011547Y019354D01*
X011547Y019396D02*
X011155Y019396D01*
X011155Y019438D02*
X011547Y019438D01*
X011547Y019480D02*
X011155Y019480D01*
X011155Y019522D02*
X011547Y019522D01*
X011547Y019564D02*
X011155Y019564D01*
X011529Y019884D02*
X011921Y019884D01*
X011529Y019884D02*
X011529Y020432D01*
X011921Y020432D01*
X011921Y019884D01*
X011921Y019926D02*
X011529Y019926D01*
X011529Y019968D02*
X011921Y019968D01*
X011921Y020010D02*
X011529Y020010D01*
X011529Y020052D02*
X011921Y020052D01*
X011921Y020094D02*
X011529Y020094D01*
X011529Y020136D02*
X011921Y020136D01*
X011921Y020178D02*
X011529Y020178D01*
X011529Y020220D02*
X011921Y020220D01*
X011921Y020262D02*
X011529Y020262D01*
X011529Y020304D02*
X011921Y020304D01*
X011921Y020346D02*
X011529Y020346D01*
X011529Y020388D02*
X011921Y020388D01*
X011921Y020430D02*
X011529Y020430D01*
D25*
X028906Y008973D03*
D26*
X027906Y008973D03*
X026906Y008973D03*
X026906Y010973D03*
X026906Y011973D03*
X026906Y012973D03*
X026906Y013973D03*
X026906Y014973D03*
X026906Y015973D03*
X026906Y016973D03*
X026906Y017973D03*
X026906Y018973D03*
X026906Y019973D03*
X026906Y020973D03*
X026906Y021973D03*
X026906Y022973D03*
X026906Y023973D03*
X026906Y024973D03*
X026906Y025973D03*
X027906Y025973D03*
X028906Y025973D03*
X028906Y024973D03*
X027906Y024973D03*
X027906Y023973D03*
X028906Y023973D03*
X028906Y022973D03*
X027906Y022973D03*
X027906Y021973D03*
X027906Y020973D03*
X028906Y020973D03*
X028906Y021973D03*
X028906Y019973D03*
X027906Y019973D03*
X027906Y018973D03*
X028906Y018973D03*
X028906Y017973D03*
X027906Y017973D03*
X027906Y016973D03*
X028906Y016973D03*
X028906Y015973D03*
X027906Y015973D03*
X027906Y014973D03*
X028906Y014973D03*
X028906Y013973D03*
X028906Y012973D03*
X027906Y012973D03*
X027906Y013973D03*
X027906Y011973D03*
X028906Y011973D03*
X028906Y010973D03*
X027906Y010973D03*
D27*
X010718Y010973D02*
X010212Y010973D01*
X010718Y010973D02*
X010718Y010665D01*
X010212Y010665D01*
X010212Y010973D01*
X010212Y010710D02*
X010718Y010710D01*
X010718Y010755D02*
X010212Y010755D01*
X010212Y010800D02*
X010718Y010800D01*
X010718Y010845D02*
X010212Y010845D01*
X010212Y010890D02*
X010718Y010890D01*
X010718Y010935D02*
X010212Y010935D01*
X010212Y011446D02*
X010718Y011446D01*
X010718Y011138D01*
X010212Y011138D01*
X010212Y011446D01*
X010212Y011183D02*
X010718Y011183D01*
X010718Y011228D02*
X010212Y011228D01*
X010212Y011273D02*
X010718Y011273D01*
X010718Y011318D02*
X010212Y011318D01*
X010212Y011363D02*
X010718Y011363D01*
X010718Y011408D02*
X010212Y011408D01*
X010212Y011918D02*
X010718Y011918D01*
X010718Y011610D01*
X010212Y011610D01*
X010212Y011918D01*
X010212Y011655D02*
X010718Y011655D01*
X010718Y011700D02*
X010212Y011700D01*
X010212Y011745D02*
X010718Y011745D01*
X010718Y011790D02*
X010212Y011790D01*
X010212Y011835D02*
X010718Y011835D01*
X010718Y011880D02*
X010212Y011880D01*
X010212Y012391D02*
X010718Y012391D01*
X010718Y012083D01*
X010212Y012083D01*
X010212Y012391D01*
X010212Y012128D02*
X010718Y012128D01*
X010718Y012173D02*
X010212Y012173D01*
X010212Y012218D02*
X010718Y012218D01*
X010718Y012263D02*
X010212Y012263D01*
X010212Y012308D02*
X010718Y012308D01*
X010718Y012353D02*
X010212Y012353D01*
X010212Y012863D02*
X010718Y012863D01*
X010718Y012555D01*
X010212Y012555D01*
X010212Y012863D01*
X010212Y012600D02*
X010718Y012600D01*
X010718Y012645D02*
X010212Y012645D01*
X010212Y012690D02*
X010718Y012690D01*
X010718Y012735D02*
X010212Y012735D01*
X010212Y012780D02*
X010718Y012780D01*
X010718Y012825D02*
X010212Y012825D01*
X010212Y013335D02*
X010718Y013335D01*
X010718Y013027D01*
X010212Y013027D01*
X010212Y013335D01*
X010212Y013072D02*
X010718Y013072D01*
X010718Y013117D02*
X010212Y013117D01*
X010212Y013162D02*
X010718Y013162D01*
X010718Y013207D02*
X010212Y013207D01*
X010212Y013252D02*
X010718Y013252D01*
X010718Y013297D02*
X010212Y013297D01*
X010212Y013808D02*
X010718Y013808D01*
X010718Y013500D01*
X010212Y013500D01*
X010212Y013808D01*
X010212Y013545D02*
X010718Y013545D01*
X010718Y013590D02*
X010212Y013590D01*
X010212Y013635D02*
X010718Y013635D01*
X010718Y013680D02*
X010212Y013680D01*
X010212Y013725D02*
X010718Y013725D01*
X010718Y013770D02*
X010212Y013770D01*
X010212Y014280D02*
X010718Y014280D01*
X010718Y013972D01*
X010212Y013972D01*
X010212Y014280D01*
X010212Y014017D02*
X010718Y014017D01*
X010718Y014062D02*
X010212Y014062D01*
X010212Y014107D02*
X010718Y014107D01*
X010718Y014152D02*
X010212Y014152D01*
X010212Y014197D02*
X010718Y014197D01*
X010718Y014242D02*
X010212Y014242D01*
X010462Y015107D02*
X009956Y015107D01*
X010462Y015107D02*
X010462Y014799D01*
X009956Y014799D01*
X009956Y015107D01*
X009956Y014844D02*
X010462Y014844D01*
X010462Y014889D02*
X009956Y014889D01*
X009956Y014934D02*
X010462Y014934D01*
X010462Y014979D02*
X009956Y014979D01*
X009956Y015024D02*
X010462Y015024D01*
X010462Y015069D02*
X009956Y015069D01*
X008690Y014976D02*
X008690Y015482D01*
X008690Y014976D02*
X008382Y014976D01*
X008382Y015482D01*
X008690Y015482D01*
X008690Y015021D02*
X008382Y015021D01*
X008382Y015066D02*
X008690Y015066D01*
X008690Y015111D02*
X008382Y015111D01*
X008382Y015156D02*
X008690Y015156D01*
X008690Y015201D02*
X008382Y015201D01*
X008382Y015246D02*
X008690Y015246D01*
X008690Y015291D02*
X008382Y015291D01*
X008382Y015336D02*
X008690Y015336D01*
X008690Y015381D02*
X008382Y015381D01*
X008382Y015426D02*
X008690Y015426D01*
X008690Y015471D02*
X008382Y015471D01*
X008217Y015482D02*
X008217Y014976D01*
X007909Y014976D01*
X007909Y015482D01*
X008217Y015482D01*
X008217Y015021D02*
X007909Y015021D01*
X007909Y015066D02*
X008217Y015066D01*
X008217Y015111D02*
X007909Y015111D01*
X007909Y015156D02*
X008217Y015156D01*
X008217Y015201D02*
X007909Y015201D01*
X007909Y015246D02*
X008217Y015246D01*
X008217Y015291D02*
X007909Y015291D01*
X007909Y015336D02*
X008217Y015336D01*
X008217Y015381D02*
X007909Y015381D01*
X007909Y015426D02*
X008217Y015426D01*
X008217Y015471D02*
X007909Y015471D01*
X007745Y015482D02*
X007745Y014976D01*
X007437Y014976D01*
X007437Y015482D01*
X007745Y015482D01*
X007745Y015021D02*
X007437Y015021D01*
X007437Y015066D02*
X007745Y015066D01*
X007745Y015111D02*
X007437Y015111D01*
X007437Y015156D02*
X007745Y015156D01*
X007745Y015201D02*
X007437Y015201D01*
X007437Y015246D02*
X007745Y015246D01*
X007745Y015291D02*
X007437Y015291D01*
X007437Y015336D02*
X007745Y015336D01*
X007745Y015381D02*
X007437Y015381D01*
X007437Y015426D02*
X007745Y015426D01*
X007745Y015471D02*
X007437Y015471D01*
X007273Y015482D02*
X007273Y014976D01*
X006965Y014976D01*
X006965Y015482D01*
X007273Y015482D01*
X007273Y015021D02*
X006965Y015021D01*
X006965Y015066D02*
X007273Y015066D01*
X007273Y015111D02*
X006965Y015111D01*
X006965Y015156D02*
X007273Y015156D01*
X007273Y015201D02*
X006965Y015201D01*
X006965Y015246D02*
X007273Y015246D01*
X007273Y015291D02*
X006965Y015291D01*
X006965Y015336D02*
X007273Y015336D01*
X007273Y015381D02*
X006965Y015381D01*
X006965Y015426D02*
X007273Y015426D01*
X007273Y015471D02*
X006965Y015471D01*
X005698Y015107D02*
X005192Y015107D01*
X005698Y015107D02*
X005698Y014799D01*
X005192Y014799D01*
X005192Y015107D01*
X005192Y014844D02*
X005698Y014844D01*
X005698Y014889D02*
X005192Y014889D01*
X005192Y014934D02*
X005698Y014934D01*
X005698Y014979D02*
X005192Y014979D01*
X005192Y015024D02*
X005698Y015024D01*
X005698Y015069D02*
X005192Y015069D01*
X005442Y014280D02*
X004936Y014280D01*
X005442Y014280D02*
X005442Y013972D01*
X004936Y013972D01*
X004936Y014280D01*
X004936Y014017D02*
X005442Y014017D01*
X005442Y014062D02*
X004936Y014062D01*
X004936Y014107D02*
X005442Y014107D01*
X005442Y014152D02*
X004936Y014152D01*
X004936Y014197D02*
X005442Y014197D01*
X005442Y014242D02*
X004936Y014242D01*
X004936Y013808D02*
X005442Y013808D01*
X005442Y013500D01*
X004936Y013500D01*
X004936Y013808D01*
X004936Y013545D02*
X005442Y013545D01*
X005442Y013590D02*
X004936Y013590D01*
X004936Y013635D02*
X005442Y013635D01*
X005442Y013680D02*
X004936Y013680D01*
X004936Y013725D02*
X005442Y013725D01*
X005442Y013770D02*
X004936Y013770D01*
X004936Y013335D02*
X005442Y013335D01*
X005442Y013027D01*
X004936Y013027D01*
X004936Y013335D01*
X004936Y013072D02*
X005442Y013072D01*
X005442Y013117D02*
X004936Y013117D01*
X004936Y013162D02*
X005442Y013162D01*
X005442Y013207D02*
X004936Y013207D01*
X004936Y013252D02*
X005442Y013252D01*
X005442Y013297D02*
X004936Y013297D01*
X004936Y012863D02*
X005442Y012863D01*
X005442Y012555D01*
X004936Y012555D01*
X004936Y012863D01*
X004936Y012600D02*
X005442Y012600D01*
X005442Y012645D02*
X004936Y012645D01*
X004936Y012690D02*
X005442Y012690D01*
X005442Y012735D02*
X004936Y012735D01*
X004936Y012780D02*
X005442Y012780D01*
X005442Y012825D02*
X004936Y012825D01*
X004936Y012391D02*
X005442Y012391D01*
X005442Y012083D01*
X004936Y012083D01*
X004936Y012391D01*
X004936Y012128D02*
X005442Y012128D01*
X005442Y012173D02*
X004936Y012173D01*
X004936Y012218D02*
X005442Y012218D01*
X005442Y012263D02*
X004936Y012263D01*
X004936Y012308D02*
X005442Y012308D01*
X005442Y012353D02*
X004936Y012353D01*
X004936Y011918D02*
X005442Y011918D01*
X005442Y011610D01*
X004936Y011610D01*
X004936Y011918D01*
X004936Y011655D02*
X005442Y011655D01*
X005442Y011700D02*
X004936Y011700D01*
X004936Y011745D02*
X005442Y011745D01*
X005442Y011790D02*
X004936Y011790D01*
X004936Y011835D02*
X005442Y011835D01*
X005442Y011880D02*
X004936Y011880D01*
X004936Y011446D02*
X005442Y011446D01*
X005442Y011138D01*
X004936Y011138D01*
X004936Y011446D01*
X004936Y011183D02*
X005442Y011183D01*
X005442Y011228D02*
X004936Y011228D01*
X004936Y011273D02*
X005442Y011273D01*
X005442Y011318D02*
X004936Y011318D01*
X004936Y011363D02*
X005442Y011363D01*
X005442Y011408D02*
X004936Y011408D01*
X004936Y010973D02*
X005442Y010973D01*
X005442Y010665D01*
X004936Y010665D01*
X004936Y010973D01*
X004936Y010710D02*
X005442Y010710D01*
X005442Y010755D02*
X004936Y010755D01*
X004936Y010800D02*
X005442Y010800D01*
X005442Y010845D02*
X004936Y010845D01*
X004936Y010890D02*
X005442Y010890D01*
X005442Y010935D02*
X004936Y010935D01*
X004936Y010501D02*
X005442Y010501D01*
X005442Y010193D01*
X004936Y010193D01*
X004936Y010501D01*
X004936Y010238D02*
X005442Y010238D01*
X005442Y010283D02*
X004936Y010283D01*
X004936Y010328D02*
X005442Y010328D01*
X005442Y010373D02*
X004936Y010373D01*
X004936Y010418D02*
X005442Y010418D01*
X005442Y010463D02*
X004936Y010463D01*
X004936Y010028D02*
X005442Y010028D01*
X005442Y009720D01*
X004936Y009720D01*
X004936Y010028D01*
X004936Y009765D02*
X005442Y009765D01*
X005442Y009810D02*
X004936Y009810D01*
X004936Y009855D02*
X005442Y009855D01*
X005442Y009900D02*
X004936Y009900D01*
X004936Y009945D02*
X005442Y009945D01*
X005442Y009990D02*
X004936Y009990D01*
X004936Y009556D02*
X005442Y009556D01*
X005442Y009248D01*
X004936Y009248D01*
X004936Y009556D01*
X004936Y009293D02*
X005442Y009293D01*
X005442Y009338D02*
X004936Y009338D01*
X004936Y009383D02*
X005442Y009383D01*
X005442Y009428D02*
X004936Y009428D01*
X004936Y009473D02*
X005442Y009473D01*
X005442Y009518D02*
X004936Y009518D01*
X004936Y009084D02*
X005442Y009084D01*
X005442Y008776D01*
X004936Y008776D01*
X004936Y009084D01*
X004936Y008821D02*
X005442Y008821D01*
X005442Y008866D02*
X004936Y008866D01*
X004936Y008911D02*
X005442Y008911D01*
X005442Y008956D02*
X004936Y008956D01*
X004936Y009001D02*
X005442Y009001D01*
X005442Y009046D02*
X004936Y009046D01*
X005192Y007627D02*
X005698Y007627D01*
X005698Y007319D01*
X005192Y007319D01*
X005192Y007627D01*
X005192Y007364D02*
X005698Y007364D01*
X005698Y007409D02*
X005192Y007409D01*
X005192Y007454D02*
X005698Y007454D01*
X005698Y007499D02*
X005192Y007499D01*
X005192Y007544D02*
X005698Y007544D01*
X005698Y007589D02*
X005192Y007589D01*
X009956Y007627D02*
X010462Y007627D01*
X010462Y007319D01*
X009956Y007319D01*
X009956Y007627D01*
X009956Y007364D02*
X010462Y007364D01*
X010462Y007409D02*
X009956Y007409D01*
X009956Y007454D02*
X010462Y007454D01*
X010462Y007499D02*
X009956Y007499D01*
X009956Y007544D02*
X010462Y007544D01*
X010462Y007589D02*
X009956Y007589D01*
X010212Y009084D02*
X010718Y009084D01*
X010718Y008776D01*
X010212Y008776D01*
X010212Y009084D01*
X010212Y008821D02*
X010718Y008821D01*
X010718Y008866D02*
X010212Y008866D01*
X010212Y008911D02*
X010718Y008911D01*
X010718Y008956D02*
X010212Y008956D01*
X010212Y009001D02*
X010718Y009001D01*
X010718Y009046D02*
X010212Y009046D01*
X010212Y009556D02*
X010718Y009556D01*
X010718Y009248D01*
X010212Y009248D01*
X010212Y009556D01*
X010212Y009293D02*
X010718Y009293D01*
X010718Y009338D02*
X010212Y009338D01*
X010212Y009383D02*
X010718Y009383D01*
X010718Y009428D02*
X010212Y009428D01*
X010212Y009473D02*
X010718Y009473D01*
X010718Y009518D02*
X010212Y009518D01*
X010212Y010028D02*
X010718Y010028D01*
X010718Y009720D01*
X010212Y009720D01*
X010212Y010028D01*
X010212Y009765D02*
X010718Y009765D01*
X010718Y009810D02*
X010212Y009810D01*
X010212Y009855D02*
X010718Y009855D01*
X010718Y009900D02*
X010212Y009900D01*
X010212Y009945D02*
X010718Y009945D01*
X010718Y009990D02*
X010212Y009990D01*
X010212Y010501D02*
X010718Y010501D01*
X010718Y010193D01*
X010212Y010193D01*
X010212Y010501D01*
X010212Y010238D02*
X010718Y010238D01*
X010718Y010283D02*
X010212Y010283D01*
X010212Y010328D02*
X010718Y010328D01*
X010718Y010373D02*
X010212Y010373D01*
X010212Y010418D02*
X010718Y010418D01*
X010718Y010463D02*
X010212Y010463D01*
D28*
X009592Y014975D02*
X009592Y015483D01*
X009592Y014975D02*
X009290Y014975D01*
X009290Y015483D01*
X009592Y015483D01*
X009592Y015019D02*
X009290Y015019D01*
X009290Y015063D02*
X009592Y015063D01*
X009592Y015107D02*
X009290Y015107D01*
X009290Y015151D02*
X009592Y015151D01*
X009592Y015195D02*
X009290Y015195D01*
X009290Y015239D02*
X009592Y015239D01*
X009592Y015283D02*
X009290Y015283D01*
X009290Y015327D02*
X009592Y015327D01*
X009592Y015371D02*
X009290Y015371D01*
X009290Y015415D02*
X009592Y015415D01*
X009592Y015459D02*
X009290Y015459D01*
X009199Y015483D02*
X009199Y014975D01*
X008897Y014975D01*
X008897Y015483D01*
X009199Y015483D01*
X009199Y015019D02*
X008897Y015019D01*
X008897Y015063D02*
X009199Y015063D01*
X009199Y015107D02*
X008897Y015107D01*
X008897Y015151D02*
X009199Y015151D01*
X009199Y015195D02*
X008897Y015195D01*
X008897Y015239D02*
X009199Y015239D01*
X009199Y015283D02*
X008897Y015283D01*
X008897Y015327D02*
X009199Y015327D01*
X009199Y015371D02*
X008897Y015371D01*
X008897Y015415D02*
X009199Y015415D01*
X009199Y015459D02*
X008897Y015459D01*
X006758Y015483D02*
X006758Y014975D01*
X006456Y014975D01*
X006456Y015483D01*
X006758Y015483D01*
X006758Y015019D02*
X006456Y015019D01*
X006456Y015063D02*
X006758Y015063D01*
X006758Y015107D02*
X006456Y015107D01*
X006456Y015151D02*
X006758Y015151D01*
X006758Y015195D02*
X006456Y015195D01*
X006456Y015239D02*
X006758Y015239D01*
X006758Y015283D02*
X006456Y015283D01*
X006456Y015327D02*
X006758Y015327D01*
X006758Y015371D02*
X006456Y015371D01*
X006456Y015415D02*
X006758Y015415D01*
X006758Y015459D02*
X006456Y015459D01*
X006364Y015483D02*
X006364Y014975D01*
X006062Y014975D01*
X006062Y015483D01*
X006364Y015483D01*
X006364Y015019D02*
X006062Y015019D01*
X006062Y015063D02*
X006364Y015063D01*
X006364Y015107D02*
X006062Y015107D01*
X006062Y015151D02*
X006364Y015151D01*
X006364Y015195D02*
X006062Y015195D01*
X006062Y015239D02*
X006364Y015239D01*
X006364Y015283D02*
X006062Y015283D01*
X006062Y015327D02*
X006364Y015327D01*
X006364Y015371D02*
X006062Y015371D01*
X006062Y015415D02*
X006364Y015415D01*
X006364Y015459D02*
X006062Y015459D01*
D29*
X006725Y024075D03*
D30*
X009725Y024075D03*
D31*
X028606Y027973D02*
X029206Y027973D01*
X029206Y005973D02*
X028606Y005973D01*
D32*
X026374Y010326D02*
X025876Y010326D01*
X025876Y010924D01*
X026374Y010924D01*
X026374Y010326D01*
X026374Y010368D02*
X025876Y010368D01*
X025876Y010410D02*
X026374Y010410D01*
X026374Y010452D02*
X025876Y010452D01*
X025876Y010494D02*
X026374Y010494D01*
X026374Y010536D02*
X025876Y010536D01*
X025876Y010578D02*
X026374Y010578D01*
X026374Y010620D02*
X025876Y010620D01*
X025876Y010662D02*
X026374Y010662D01*
X026374Y010704D02*
X025876Y010704D01*
X025876Y010746D02*
X026374Y010746D01*
X026374Y010788D02*
X025876Y010788D01*
X025876Y010830D02*
X026374Y010830D01*
X026374Y010872D02*
X025876Y010872D01*
X025876Y010914D02*
X026374Y010914D01*
X025674Y010326D02*
X025176Y010326D01*
X025176Y010924D01*
X025674Y010924D01*
X025674Y010326D01*
X025674Y010368D02*
X025176Y010368D01*
X025176Y010410D02*
X025674Y010410D01*
X025674Y010452D02*
X025176Y010452D01*
X025176Y010494D02*
X025674Y010494D01*
X025674Y010536D02*
X025176Y010536D01*
X025176Y010578D02*
X025674Y010578D01*
X025674Y010620D02*
X025176Y010620D01*
X025176Y010662D02*
X025674Y010662D01*
X025674Y010704D02*
X025176Y010704D01*
X025176Y010746D02*
X025674Y010746D01*
X025674Y010788D02*
X025176Y010788D01*
X025176Y010830D02*
X025674Y010830D01*
X025674Y010872D02*
X025176Y010872D01*
X025176Y010914D02*
X025674Y010914D01*
M02*
