%
M48
M72
T01C0.0120
T02C0.0130
T03C0.0200
T04C0.0236
T05C0.0240
T06C0.0400
T07C0.0787
T08C0.2047
%
T01
X10961Y6470
X10705Y7198
X10928Y7925
X10710Y8232
X10925Y8993
X12647Y12391
X12383Y12622
X11757Y13097
X11882Y14170
X9814Y13575
X8283Y13659
X6737Y13631
X6639Y15717
X5492Y17085
X4659Y17061
X9043Y15699
X8365Y16759
X10598Y16755
X11931Y18781
X12525Y18790
X12531Y19358
X13110Y19883
X13328Y20284
X13466Y21056
X12988Y21096
X12723Y21694
X12054Y21649
X12376Y20589
X13777Y19197
X14015Y19384
X14575Y19045
X14721Y19400
X14289Y20082
X14487Y20707
X14463Y21007
X14076Y21221
X14898Y20510
X15565Y21569
X15884Y22617
X15867Y23254
X16615Y22866
X16559Y24000
X15870Y24358
X16245Y25075
X16696Y24903
X17595Y24925
X17909Y24343
X18027Y23562
X18020Y22815
X19065Y25105
X20459Y25141
X20775Y25675
X21289Y25679
X21556Y26198
X22336Y26217
X22515Y25905
X23595Y25975
X24038Y26306
X24961Y25560
X26395Y26225
X27355Y25475
X25515Y24005
X24975Y23675
X25605Y22945
X25725Y22175
X25175Y22175
X25025Y21375
X25025Y20675
X25037Y19725
X26352Y19754
X26375Y20725
X26325Y21425
X27405Y21265
X26375Y18475
X24855Y17995
X25395Y16335
X25093Y15970
X25098Y14724
X24668Y13710
X24568Y13278
X25214Y12989
X25419Y13452
X25103Y12539
X25225Y12155
X25425Y11275
X26295Y11215
X25161Y9979
X25150Y9615
X25650Y9043
X23601Y9118
X23237Y9556
X23310Y10018
X23275Y10725
X23375Y11615
X23843Y12548
X23555Y13215
X23192Y13538
X22414Y12727
X22635Y12405
X21995Y10675
X21603Y10355
X21733Y9335
X20372Y6466
X20049Y5046
X15461Y7486
X16150Y7420
X15607Y8499
X15802Y9241
X16159Y9149
X16865Y8525
X18225Y8885
X17673Y10651
X15042Y14589
X14686Y15865
X14335Y17455
X13946Y17547
X13973Y18462
X13649Y18477
X14505Y18475
X12950Y17864
X10474Y19837
X10279Y21296
X9473Y22182
X11137Y23597
X12472Y25051
X12719Y24662
X12864Y24312
X12869Y23764
X12775Y23104
X14013Y25101
X13787Y25350
X13409Y25840
X14425Y25325
X14673Y26362
X14489Y26619
X15255Y26305
X16055Y26455
X14752Y27675
X14441Y27683
X13712Y27411
X12100Y29259
X10356Y29015
X10348Y28551
X10695Y27967
X10062Y27669
X10044Y27009
X10643Y27009
X7929Y26780
X7435Y27237
X6954Y27237
X7673Y23546
X8494Y19788
X16468Y19308
X16739Y18898
X16465Y18555
X16905Y18438
X17440Y18727
X17978Y19175
X17455Y17496
X16974Y17504
X16595Y17435
X16575Y15175
X17422Y15227
X17945Y15305
X19525Y16275
X20455Y16345
X20562Y16924
X19620Y17717
X19621Y19085
X21510Y19078
X22148Y18995
X22138Y19296
X22141Y19617
X22133Y19919
X23185Y20108
X23196Y19791
X22805Y18717
X22446Y18699
X22104Y18695
X22117Y17574
X22418Y17619
X22718Y17503
X23065Y16655
X22183Y16618
X22165Y16195
X21750Y16826
X21619Y17682
X22195Y14585
X26375Y15725
X21294Y23694
X20291Y23803
X18955Y26495
X20384Y27495
X20685Y27492
X20702Y28222
X20359Y28215
X21647Y27808
X22667Y27868
X16496Y20689
T02
X26375Y14725
T03
X5355Y17975
X7605Y20575
X8475Y19375
X9895Y21025
X9135Y21825
X9835Y22495
X8905Y24385
X7625Y23975
X6285Y23175
X7845Y26165
X9525Y26905
X10935Y24385
X10815Y18785
X10755Y17415
X8425Y17215
X5855Y14155
X6765Y11645
X5795Y10935
X9735Y7895
X20695Y11555
X19745Y12305
X19585Y13195
X20665Y13195
X18515Y12355
X18085Y12355
X17295Y12355
X16845Y12355
X13235Y17485
T04
X12225Y6025
X24925Y5325
X25175Y5975
X27025Y5525
X27575Y6975
X22975Y5975
X25125Y28475
X25125Y27925
X27125Y27975
X27675Y28075
T05
X15325Y6325
X16475Y6325
X18925Y6425
X19925Y6375
T06
X5875Y27975
X5875Y28975
X6875Y28975
X6875Y27975
X7875Y27975
X7875Y28975
X23725Y26975
X22725Y26975
X21725Y26975
X20125Y26975
X19125Y26975
X18125Y26975
X17125Y26975
X16125Y26975
X15125Y26975
X14125Y26975
X13125Y26975
X12125Y26975
X11125Y26975
X9725Y24075
X6725Y24075
X14725Y7975
X15725Y7975
X16725Y7975
X17725Y7975
X18725Y7975
X19725Y7975
X20725Y7975
X21725Y7975
X23725Y7975
X24725Y7975
X25725Y7975
X26725Y7975
X27725Y7975
X28725Y7975
X28906Y8973
X27906Y8973
X26906Y8973
X26906Y10973
X26906Y11973
X26906Y12973
X26906Y13973
X26906Y14973
X26906Y15973
X26906Y16973
X26906Y17973
X26906Y18973
X26906Y19973
X26906Y20973
X26906Y21973
X26906Y22973
X26906Y23973
X26906Y24973
X26906Y25973
X27906Y25973
X28906Y25973
X28906Y24973
X27906Y24973
X27906Y23973
X28906Y23973
X28906Y22973
X27906Y22973
X27906Y21973
X27906Y20973
X28906Y20973
X28906Y21973
X28906Y19973
X27906Y19973
X27906Y18973
X28906Y18973
X28906Y17973
X27906Y17973
X27906Y16973
X28906Y16973
X28906Y15973
X27906Y15973
X27906Y14973
X28906Y14973
X28906Y13973
X28906Y12973
X27906Y12973
X27906Y13973
X27906Y11973
X28906Y11973
X28906Y10973
X27906Y10973
X28906Y6973
X28906Y5973
X24725Y26975
X25725Y26975
X26725Y26975
X27725Y26975
X28725Y26975
X28906Y27973
X28906Y28973
T07
X10924Y4624
X24022Y4624
X24022Y30321
X10924Y30321
X4624Y27172
X4624Y7774
T08
X3300Y9599
X3300Y12748
X3300Y15898
X3300Y19048
X3300Y22197
X3300Y25347
X12748Y31646
X15898Y31646
X19048Y31646
X22197Y31646
X31646Y28496
X31646Y6449
X22197Y3300
X19048Y3300
X15898Y3300
X12748Y3300
M30
