G75*
%MOIN*%
%OFA0B0*%
%FSLAX24Y24*%
%IPPOS*%
%LPD*%
%AMOC8*
5,1,8,0,0,1.08239X$1,22.5*
%
%ADD10C,0.0000*%
%ADD11C,0.0827*%
%ADD12C,0.2087*%
%ADD13R,0.0640X0.0640*%
%ADD14C,0.0640*%
%ADD15R,0.0840X0.0840*%
%ADD16C,0.0840*%
%ADD17C,0.0043*%
%ADD18R,0.0700X0.0700*%
%ADD19C,0.0700*%
%ADD20C,0.0276*%
%ADD21C,0.0054*%
%ADD22C,0.0041*%
%ADD23R,0.1240X0.1240*%
%ADD24C,0.1240*%
%ADD25C,0.0640*%
D10*
X004874Y004874D02*
X011174Y004874D01*
X011174Y001725D01*
X023772Y001725D01*
X023772Y004874D01*
X033221Y004874D01*
X033221Y030071D01*
X023772Y030071D01*
X023772Y033221D01*
X011174Y033221D01*
X011174Y030071D01*
X004874Y030071D01*
X004874Y026922D01*
X001725Y026922D01*
X001725Y008024D01*
X004874Y008024D01*
X004874Y004874D01*
X004230Y007774D02*
X004232Y007813D01*
X004238Y007852D01*
X004248Y007890D01*
X004261Y007927D01*
X004278Y007962D01*
X004298Y007996D01*
X004322Y008027D01*
X004349Y008056D01*
X004378Y008082D01*
X004410Y008105D01*
X004444Y008125D01*
X004480Y008141D01*
X004517Y008153D01*
X004556Y008162D01*
X004595Y008167D01*
X004634Y008168D01*
X004673Y008165D01*
X004712Y008158D01*
X004749Y008147D01*
X004786Y008133D01*
X004821Y008115D01*
X004854Y008094D01*
X004885Y008069D01*
X004913Y008042D01*
X004938Y008012D01*
X004960Y007979D01*
X004979Y007945D01*
X004994Y007909D01*
X005006Y007871D01*
X005014Y007833D01*
X005018Y007794D01*
X005018Y007754D01*
X005014Y007715D01*
X005006Y007677D01*
X004994Y007639D01*
X004979Y007603D01*
X004960Y007569D01*
X004938Y007536D01*
X004913Y007506D01*
X004885Y007479D01*
X004854Y007454D01*
X004821Y007433D01*
X004786Y007415D01*
X004749Y007401D01*
X004712Y007390D01*
X004673Y007383D01*
X004634Y007380D01*
X004595Y007381D01*
X004556Y007386D01*
X004517Y007395D01*
X004480Y007407D01*
X004444Y007423D01*
X004410Y007443D01*
X004378Y007466D01*
X004349Y007492D01*
X004322Y007521D01*
X004298Y007552D01*
X004278Y007586D01*
X004261Y007621D01*
X004248Y007658D01*
X004238Y007696D01*
X004232Y007735D01*
X004230Y007774D01*
X002276Y009599D02*
X002278Y009663D01*
X002284Y009726D01*
X002294Y009789D01*
X002308Y009851D01*
X002325Y009912D01*
X002347Y009972D01*
X002372Y010031D01*
X002400Y010088D01*
X002432Y010143D01*
X002468Y010196D01*
X002507Y010246D01*
X002548Y010294D01*
X002593Y010340D01*
X002640Y010382D01*
X002690Y010422D01*
X002743Y010458D01*
X002797Y010491D01*
X002854Y010521D01*
X002912Y010547D01*
X002971Y010569D01*
X003032Y010587D01*
X003094Y010602D01*
X003157Y010613D01*
X003220Y010620D01*
X003284Y010623D01*
X003348Y010622D01*
X003411Y010617D01*
X003474Y010608D01*
X003537Y010595D01*
X003598Y010579D01*
X003659Y010558D01*
X003717Y010534D01*
X003775Y010506D01*
X003830Y010475D01*
X003884Y010440D01*
X003935Y010402D01*
X003984Y010361D01*
X004030Y010317D01*
X004073Y010271D01*
X004113Y010221D01*
X004150Y010170D01*
X004184Y010116D01*
X004215Y010060D01*
X004241Y010002D01*
X004265Y009943D01*
X004284Y009882D01*
X004300Y009820D01*
X004312Y009758D01*
X004320Y009694D01*
X004324Y009631D01*
X004324Y009567D01*
X004320Y009504D01*
X004312Y009440D01*
X004300Y009378D01*
X004284Y009316D01*
X004265Y009255D01*
X004241Y009196D01*
X004215Y009138D01*
X004184Y009082D01*
X004150Y009028D01*
X004113Y008977D01*
X004073Y008927D01*
X004030Y008881D01*
X003984Y008837D01*
X003935Y008796D01*
X003884Y008758D01*
X003830Y008723D01*
X003775Y008692D01*
X003717Y008664D01*
X003659Y008640D01*
X003598Y008619D01*
X003537Y008603D01*
X003474Y008590D01*
X003411Y008581D01*
X003348Y008576D01*
X003284Y008575D01*
X003220Y008578D01*
X003157Y008585D01*
X003094Y008596D01*
X003032Y008611D01*
X002971Y008629D01*
X002912Y008651D01*
X002854Y008677D01*
X002797Y008707D01*
X002743Y008740D01*
X002690Y008776D01*
X002640Y008816D01*
X002593Y008858D01*
X002548Y008904D01*
X002507Y008952D01*
X002468Y009002D01*
X002432Y009055D01*
X002400Y009110D01*
X002372Y009167D01*
X002347Y009226D01*
X002325Y009286D01*
X002308Y009347D01*
X002294Y009409D01*
X002284Y009472D01*
X002278Y009535D01*
X002276Y009599D01*
X002276Y012748D02*
X002278Y012812D01*
X002284Y012875D01*
X002294Y012938D01*
X002308Y013000D01*
X002325Y013061D01*
X002347Y013121D01*
X002372Y013180D01*
X002400Y013237D01*
X002432Y013292D01*
X002468Y013345D01*
X002507Y013395D01*
X002548Y013443D01*
X002593Y013489D01*
X002640Y013531D01*
X002690Y013571D01*
X002743Y013607D01*
X002797Y013640D01*
X002854Y013670D01*
X002912Y013696D01*
X002971Y013718D01*
X003032Y013736D01*
X003094Y013751D01*
X003157Y013762D01*
X003220Y013769D01*
X003284Y013772D01*
X003348Y013771D01*
X003411Y013766D01*
X003474Y013757D01*
X003537Y013744D01*
X003598Y013728D01*
X003659Y013707D01*
X003717Y013683D01*
X003775Y013655D01*
X003830Y013624D01*
X003884Y013589D01*
X003935Y013551D01*
X003984Y013510D01*
X004030Y013466D01*
X004073Y013420D01*
X004113Y013370D01*
X004150Y013319D01*
X004184Y013265D01*
X004215Y013209D01*
X004241Y013151D01*
X004265Y013092D01*
X004284Y013031D01*
X004300Y012969D01*
X004312Y012907D01*
X004320Y012843D01*
X004324Y012780D01*
X004324Y012716D01*
X004320Y012653D01*
X004312Y012589D01*
X004300Y012527D01*
X004284Y012465D01*
X004265Y012404D01*
X004241Y012345D01*
X004215Y012287D01*
X004184Y012231D01*
X004150Y012177D01*
X004113Y012126D01*
X004073Y012076D01*
X004030Y012030D01*
X003984Y011986D01*
X003935Y011945D01*
X003884Y011907D01*
X003830Y011872D01*
X003775Y011841D01*
X003717Y011813D01*
X003659Y011789D01*
X003598Y011768D01*
X003537Y011752D01*
X003474Y011739D01*
X003411Y011730D01*
X003348Y011725D01*
X003284Y011724D01*
X003220Y011727D01*
X003157Y011734D01*
X003094Y011745D01*
X003032Y011760D01*
X002971Y011778D01*
X002912Y011800D01*
X002854Y011826D01*
X002797Y011856D01*
X002743Y011889D01*
X002690Y011925D01*
X002640Y011965D01*
X002593Y012007D01*
X002548Y012053D01*
X002507Y012101D01*
X002468Y012151D01*
X002432Y012204D01*
X002400Y012259D01*
X002372Y012316D01*
X002347Y012375D01*
X002325Y012435D01*
X002308Y012496D01*
X002294Y012558D01*
X002284Y012621D01*
X002278Y012684D01*
X002276Y012748D01*
X002276Y015898D02*
X002278Y015962D01*
X002284Y016025D01*
X002294Y016088D01*
X002308Y016150D01*
X002325Y016211D01*
X002347Y016271D01*
X002372Y016330D01*
X002400Y016387D01*
X002432Y016442D01*
X002468Y016495D01*
X002507Y016545D01*
X002548Y016593D01*
X002593Y016639D01*
X002640Y016681D01*
X002690Y016721D01*
X002743Y016757D01*
X002797Y016790D01*
X002854Y016820D01*
X002912Y016846D01*
X002971Y016868D01*
X003032Y016886D01*
X003094Y016901D01*
X003157Y016912D01*
X003220Y016919D01*
X003284Y016922D01*
X003348Y016921D01*
X003411Y016916D01*
X003474Y016907D01*
X003537Y016894D01*
X003598Y016878D01*
X003659Y016857D01*
X003717Y016833D01*
X003775Y016805D01*
X003830Y016774D01*
X003884Y016739D01*
X003935Y016701D01*
X003984Y016660D01*
X004030Y016616D01*
X004073Y016570D01*
X004113Y016520D01*
X004150Y016469D01*
X004184Y016415D01*
X004215Y016359D01*
X004241Y016301D01*
X004265Y016242D01*
X004284Y016181D01*
X004300Y016119D01*
X004312Y016057D01*
X004320Y015993D01*
X004324Y015930D01*
X004324Y015866D01*
X004320Y015803D01*
X004312Y015739D01*
X004300Y015677D01*
X004284Y015615D01*
X004265Y015554D01*
X004241Y015495D01*
X004215Y015437D01*
X004184Y015381D01*
X004150Y015327D01*
X004113Y015276D01*
X004073Y015226D01*
X004030Y015180D01*
X003984Y015136D01*
X003935Y015095D01*
X003884Y015057D01*
X003830Y015022D01*
X003775Y014991D01*
X003717Y014963D01*
X003659Y014939D01*
X003598Y014918D01*
X003537Y014902D01*
X003474Y014889D01*
X003411Y014880D01*
X003348Y014875D01*
X003284Y014874D01*
X003220Y014877D01*
X003157Y014884D01*
X003094Y014895D01*
X003032Y014910D01*
X002971Y014928D01*
X002912Y014950D01*
X002854Y014976D01*
X002797Y015006D01*
X002743Y015039D01*
X002690Y015075D01*
X002640Y015115D01*
X002593Y015157D01*
X002548Y015203D01*
X002507Y015251D01*
X002468Y015301D01*
X002432Y015354D01*
X002400Y015409D01*
X002372Y015466D01*
X002347Y015525D01*
X002325Y015585D01*
X002308Y015646D01*
X002294Y015708D01*
X002284Y015771D01*
X002278Y015834D01*
X002276Y015898D01*
X002276Y019048D02*
X002278Y019112D01*
X002284Y019175D01*
X002294Y019238D01*
X002308Y019300D01*
X002325Y019361D01*
X002347Y019421D01*
X002372Y019480D01*
X002400Y019537D01*
X002432Y019592D01*
X002468Y019645D01*
X002507Y019695D01*
X002548Y019743D01*
X002593Y019789D01*
X002640Y019831D01*
X002690Y019871D01*
X002743Y019907D01*
X002797Y019940D01*
X002854Y019970D01*
X002912Y019996D01*
X002971Y020018D01*
X003032Y020036D01*
X003094Y020051D01*
X003157Y020062D01*
X003220Y020069D01*
X003284Y020072D01*
X003348Y020071D01*
X003411Y020066D01*
X003474Y020057D01*
X003537Y020044D01*
X003598Y020028D01*
X003659Y020007D01*
X003717Y019983D01*
X003775Y019955D01*
X003830Y019924D01*
X003884Y019889D01*
X003935Y019851D01*
X003984Y019810D01*
X004030Y019766D01*
X004073Y019720D01*
X004113Y019670D01*
X004150Y019619D01*
X004184Y019565D01*
X004215Y019509D01*
X004241Y019451D01*
X004265Y019392D01*
X004284Y019331D01*
X004300Y019269D01*
X004312Y019207D01*
X004320Y019143D01*
X004324Y019080D01*
X004324Y019016D01*
X004320Y018953D01*
X004312Y018889D01*
X004300Y018827D01*
X004284Y018765D01*
X004265Y018704D01*
X004241Y018645D01*
X004215Y018587D01*
X004184Y018531D01*
X004150Y018477D01*
X004113Y018426D01*
X004073Y018376D01*
X004030Y018330D01*
X003984Y018286D01*
X003935Y018245D01*
X003884Y018207D01*
X003830Y018172D01*
X003775Y018141D01*
X003717Y018113D01*
X003659Y018089D01*
X003598Y018068D01*
X003537Y018052D01*
X003474Y018039D01*
X003411Y018030D01*
X003348Y018025D01*
X003284Y018024D01*
X003220Y018027D01*
X003157Y018034D01*
X003094Y018045D01*
X003032Y018060D01*
X002971Y018078D01*
X002912Y018100D01*
X002854Y018126D01*
X002797Y018156D01*
X002743Y018189D01*
X002690Y018225D01*
X002640Y018265D01*
X002593Y018307D01*
X002548Y018353D01*
X002507Y018401D01*
X002468Y018451D01*
X002432Y018504D01*
X002400Y018559D01*
X002372Y018616D01*
X002347Y018675D01*
X002325Y018735D01*
X002308Y018796D01*
X002294Y018858D01*
X002284Y018921D01*
X002278Y018984D01*
X002276Y019048D01*
X002276Y022197D02*
X002278Y022261D01*
X002284Y022324D01*
X002294Y022387D01*
X002308Y022449D01*
X002325Y022510D01*
X002347Y022570D01*
X002372Y022629D01*
X002400Y022686D01*
X002432Y022741D01*
X002468Y022794D01*
X002507Y022844D01*
X002548Y022892D01*
X002593Y022938D01*
X002640Y022980D01*
X002690Y023020D01*
X002743Y023056D01*
X002797Y023089D01*
X002854Y023119D01*
X002912Y023145D01*
X002971Y023167D01*
X003032Y023185D01*
X003094Y023200D01*
X003157Y023211D01*
X003220Y023218D01*
X003284Y023221D01*
X003348Y023220D01*
X003411Y023215D01*
X003474Y023206D01*
X003537Y023193D01*
X003598Y023177D01*
X003659Y023156D01*
X003717Y023132D01*
X003775Y023104D01*
X003830Y023073D01*
X003884Y023038D01*
X003935Y023000D01*
X003984Y022959D01*
X004030Y022915D01*
X004073Y022869D01*
X004113Y022819D01*
X004150Y022768D01*
X004184Y022714D01*
X004215Y022658D01*
X004241Y022600D01*
X004265Y022541D01*
X004284Y022480D01*
X004300Y022418D01*
X004312Y022356D01*
X004320Y022292D01*
X004324Y022229D01*
X004324Y022165D01*
X004320Y022102D01*
X004312Y022038D01*
X004300Y021976D01*
X004284Y021914D01*
X004265Y021853D01*
X004241Y021794D01*
X004215Y021736D01*
X004184Y021680D01*
X004150Y021626D01*
X004113Y021575D01*
X004073Y021525D01*
X004030Y021479D01*
X003984Y021435D01*
X003935Y021394D01*
X003884Y021356D01*
X003830Y021321D01*
X003775Y021290D01*
X003717Y021262D01*
X003659Y021238D01*
X003598Y021217D01*
X003537Y021201D01*
X003474Y021188D01*
X003411Y021179D01*
X003348Y021174D01*
X003284Y021173D01*
X003220Y021176D01*
X003157Y021183D01*
X003094Y021194D01*
X003032Y021209D01*
X002971Y021227D01*
X002912Y021249D01*
X002854Y021275D01*
X002797Y021305D01*
X002743Y021338D01*
X002690Y021374D01*
X002640Y021414D01*
X002593Y021456D01*
X002548Y021502D01*
X002507Y021550D01*
X002468Y021600D01*
X002432Y021653D01*
X002400Y021708D01*
X002372Y021765D01*
X002347Y021824D01*
X002325Y021884D01*
X002308Y021945D01*
X002294Y022007D01*
X002284Y022070D01*
X002278Y022133D01*
X002276Y022197D01*
X002276Y025347D02*
X002278Y025411D01*
X002284Y025474D01*
X002294Y025537D01*
X002308Y025599D01*
X002325Y025660D01*
X002347Y025720D01*
X002372Y025779D01*
X002400Y025836D01*
X002432Y025891D01*
X002468Y025944D01*
X002507Y025994D01*
X002548Y026042D01*
X002593Y026088D01*
X002640Y026130D01*
X002690Y026170D01*
X002743Y026206D01*
X002797Y026239D01*
X002854Y026269D01*
X002912Y026295D01*
X002971Y026317D01*
X003032Y026335D01*
X003094Y026350D01*
X003157Y026361D01*
X003220Y026368D01*
X003284Y026371D01*
X003348Y026370D01*
X003411Y026365D01*
X003474Y026356D01*
X003537Y026343D01*
X003598Y026327D01*
X003659Y026306D01*
X003717Y026282D01*
X003775Y026254D01*
X003830Y026223D01*
X003884Y026188D01*
X003935Y026150D01*
X003984Y026109D01*
X004030Y026065D01*
X004073Y026019D01*
X004113Y025969D01*
X004150Y025918D01*
X004184Y025864D01*
X004215Y025808D01*
X004241Y025750D01*
X004265Y025691D01*
X004284Y025630D01*
X004300Y025568D01*
X004312Y025506D01*
X004320Y025442D01*
X004324Y025379D01*
X004324Y025315D01*
X004320Y025252D01*
X004312Y025188D01*
X004300Y025126D01*
X004284Y025064D01*
X004265Y025003D01*
X004241Y024944D01*
X004215Y024886D01*
X004184Y024830D01*
X004150Y024776D01*
X004113Y024725D01*
X004073Y024675D01*
X004030Y024629D01*
X003984Y024585D01*
X003935Y024544D01*
X003884Y024506D01*
X003830Y024471D01*
X003775Y024440D01*
X003717Y024412D01*
X003659Y024388D01*
X003598Y024367D01*
X003537Y024351D01*
X003474Y024338D01*
X003411Y024329D01*
X003348Y024324D01*
X003284Y024323D01*
X003220Y024326D01*
X003157Y024333D01*
X003094Y024344D01*
X003032Y024359D01*
X002971Y024377D01*
X002912Y024399D01*
X002854Y024425D01*
X002797Y024455D01*
X002743Y024488D01*
X002690Y024524D01*
X002640Y024564D01*
X002593Y024606D01*
X002548Y024652D01*
X002507Y024700D01*
X002468Y024750D01*
X002432Y024803D01*
X002400Y024858D01*
X002372Y024915D01*
X002347Y024974D01*
X002325Y025034D01*
X002308Y025095D01*
X002294Y025157D01*
X002284Y025220D01*
X002278Y025283D01*
X002276Y025347D01*
X004230Y027172D02*
X004232Y027211D01*
X004238Y027250D01*
X004248Y027288D01*
X004261Y027325D01*
X004278Y027360D01*
X004298Y027394D01*
X004322Y027425D01*
X004349Y027454D01*
X004378Y027480D01*
X004410Y027503D01*
X004444Y027523D01*
X004480Y027539D01*
X004517Y027551D01*
X004556Y027560D01*
X004595Y027565D01*
X004634Y027566D01*
X004673Y027563D01*
X004712Y027556D01*
X004749Y027545D01*
X004786Y027531D01*
X004821Y027513D01*
X004854Y027492D01*
X004885Y027467D01*
X004913Y027440D01*
X004938Y027410D01*
X004960Y027377D01*
X004979Y027343D01*
X004994Y027307D01*
X005006Y027269D01*
X005014Y027231D01*
X005018Y027192D01*
X005018Y027152D01*
X005014Y027113D01*
X005006Y027075D01*
X004994Y027037D01*
X004979Y027001D01*
X004960Y026967D01*
X004938Y026934D01*
X004913Y026904D01*
X004885Y026877D01*
X004854Y026852D01*
X004821Y026831D01*
X004786Y026813D01*
X004749Y026799D01*
X004712Y026788D01*
X004673Y026781D01*
X004634Y026778D01*
X004595Y026779D01*
X004556Y026784D01*
X004517Y026793D01*
X004480Y026805D01*
X004444Y026821D01*
X004410Y026841D01*
X004378Y026864D01*
X004349Y026890D01*
X004322Y026919D01*
X004298Y026950D01*
X004278Y026984D01*
X004261Y027019D01*
X004248Y027056D01*
X004238Y027094D01*
X004232Y027133D01*
X004230Y027172D01*
X010530Y030321D02*
X010532Y030360D01*
X010538Y030399D01*
X010548Y030437D01*
X010561Y030474D01*
X010578Y030509D01*
X010598Y030543D01*
X010622Y030574D01*
X010649Y030603D01*
X010678Y030629D01*
X010710Y030652D01*
X010744Y030672D01*
X010780Y030688D01*
X010817Y030700D01*
X010856Y030709D01*
X010895Y030714D01*
X010934Y030715D01*
X010973Y030712D01*
X011012Y030705D01*
X011049Y030694D01*
X011086Y030680D01*
X011121Y030662D01*
X011154Y030641D01*
X011185Y030616D01*
X011213Y030589D01*
X011238Y030559D01*
X011260Y030526D01*
X011279Y030492D01*
X011294Y030456D01*
X011306Y030418D01*
X011314Y030380D01*
X011318Y030341D01*
X011318Y030301D01*
X011314Y030262D01*
X011306Y030224D01*
X011294Y030186D01*
X011279Y030150D01*
X011260Y030116D01*
X011238Y030083D01*
X011213Y030053D01*
X011185Y030026D01*
X011154Y030001D01*
X011121Y029980D01*
X011086Y029962D01*
X011049Y029948D01*
X011012Y029937D01*
X010973Y029930D01*
X010934Y029927D01*
X010895Y029928D01*
X010856Y029933D01*
X010817Y029942D01*
X010780Y029954D01*
X010744Y029970D01*
X010710Y029990D01*
X010678Y030013D01*
X010649Y030039D01*
X010622Y030068D01*
X010598Y030099D01*
X010578Y030133D01*
X010561Y030168D01*
X010548Y030205D01*
X010538Y030243D01*
X010532Y030282D01*
X010530Y030321D01*
X011724Y031646D02*
X011726Y031710D01*
X011732Y031773D01*
X011742Y031836D01*
X011756Y031898D01*
X011773Y031959D01*
X011795Y032019D01*
X011820Y032078D01*
X011848Y032135D01*
X011880Y032190D01*
X011916Y032243D01*
X011955Y032293D01*
X011996Y032341D01*
X012041Y032387D01*
X012088Y032429D01*
X012138Y032469D01*
X012191Y032505D01*
X012245Y032538D01*
X012302Y032568D01*
X012360Y032594D01*
X012419Y032616D01*
X012480Y032634D01*
X012542Y032649D01*
X012605Y032660D01*
X012668Y032667D01*
X012732Y032670D01*
X012796Y032669D01*
X012859Y032664D01*
X012922Y032655D01*
X012985Y032642D01*
X013046Y032626D01*
X013107Y032605D01*
X013165Y032581D01*
X013223Y032553D01*
X013278Y032522D01*
X013332Y032487D01*
X013383Y032449D01*
X013432Y032408D01*
X013478Y032364D01*
X013521Y032318D01*
X013561Y032268D01*
X013598Y032217D01*
X013632Y032163D01*
X013663Y032107D01*
X013689Y032049D01*
X013713Y031990D01*
X013732Y031929D01*
X013748Y031867D01*
X013760Y031805D01*
X013768Y031741D01*
X013772Y031678D01*
X013772Y031614D01*
X013768Y031551D01*
X013760Y031487D01*
X013748Y031425D01*
X013732Y031363D01*
X013713Y031302D01*
X013689Y031243D01*
X013663Y031185D01*
X013632Y031129D01*
X013598Y031075D01*
X013561Y031024D01*
X013521Y030974D01*
X013478Y030928D01*
X013432Y030884D01*
X013383Y030843D01*
X013332Y030805D01*
X013278Y030770D01*
X013223Y030739D01*
X013165Y030711D01*
X013107Y030687D01*
X013046Y030666D01*
X012985Y030650D01*
X012922Y030637D01*
X012859Y030628D01*
X012796Y030623D01*
X012732Y030622D01*
X012668Y030625D01*
X012605Y030632D01*
X012542Y030643D01*
X012480Y030658D01*
X012419Y030676D01*
X012360Y030698D01*
X012302Y030724D01*
X012245Y030754D01*
X012191Y030787D01*
X012138Y030823D01*
X012088Y030863D01*
X012041Y030905D01*
X011996Y030951D01*
X011955Y030999D01*
X011916Y031049D01*
X011880Y031102D01*
X011848Y031157D01*
X011820Y031214D01*
X011795Y031273D01*
X011773Y031333D01*
X011756Y031394D01*
X011742Y031456D01*
X011732Y031519D01*
X011726Y031582D01*
X011724Y031646D01*
X014874Y031646D02*
X014876Y031710D01*
X014882Y031773D01*
X014892Y031836D01*
X014906Y031898D01*
X014923Y031959D01*
X014945Y032019D01*
X014970Y032078D01*
X014998Y032135D01*
X015030Y032190D01*
X015066Y032243D01*
X015105Y032293D01*
X015146Y032341D01*
X015191Y032387D01*
X015238Y032429D01*
X015288Y032469D01*
X015341Y032505D01*
X015395Y032538D01*
X015452Y032568D01*
X015510Y032594D01*
X015569Y032616D01*
X015630Y032634D01*
X015692Y032649D01*
X015755Y032660D01*
X015818Y032667D01*
X015882Y032670D01*
X015946Y032669D01*
X016009Y032664D01*
X016072Y032655D01*
X016135Y032642D01*
X016196Y032626D01*
X016257Y032605D01*
X016315Y032581D01*
X016373Y032553D01*
X016428Y032522D01*
X016482Y032487D01*
X016533Y032449D01*
X016582Y032408D01*
X016628Y032364D01*
X016671Y032318D01*
X016711Y032268D01*
X016748Y032217D01*
X016782Y032163D01*
X016813Y032107D01*
X016839Y032049D01*
X016863Y031990D01*
X016882Y031929D01*
X016898Y031867D01*
X016910Y031805D01*
X016918Y031741D01*
X016922Y031678D01*
X016922Y031614D01*
X016918Y031551D01*
X016910Y031487D01*
X016898Y031425D01*
X016882Y031363D01*
X016863Y031302D01*
X016839Y031243D01*
X016813Y031185D01*
X016782Y031129D01*
X016748Y031075D01*
X016711Y031024D01*
X016671Y030974D01*
X016628Y030928D01*
X016582Y030884D01*
X016533Y030843D01*
X016482Y030805D01*
X016428Y030770D01*
X016373Y030739D01*
X016315Y030711D01*
X016257Y030687D01*
X016196Y030666D01*
X016135Y030650D01*
X016072Y030637D01*
X016009Y030628D01*
X015946Y030623D01*
X015882Y030622D01*
X015818Y030625D01*
X015755Y030632D01*
X015692Y030643D01*
X015630Y030658D01*
X015569Y030676D01*
X015510Y030698D01*
X015452Y030724D01*
X015395Y030754D01*
X015341Y030787D01*
X015288Y030823D01*
X015238Y030863D01*
X015191Y030905D01*
X015146Y030951D01*
X015105Y030999D01*
X015066Y031049D01*
X015030Y031102D01*
X014998Y031157D01*
X014970Y031214D01*
X014945Y031273D01*
X014923Y031333D01*
X014906Y031394D01*
X014892Y031456D01*
X014882Y031519D01*
X014876Y031582D01*
X014874Y031646D01*
X018024Y031646D02*
X018026Y031710D01*
X018032Y031773D01*
X018042Y031836D01*
X018056Y031898D01*
X018073Y031959D01*
X018095Y032019D01*
X018120Y032078D01*
X018148Y032135D01*
X018180Y032190D01*
X018216Y032243D01*
X018255Y032293D01*
X018296Y032341D01*
X018341Y032387D01*
X018388Y032429D01*
X018438Y032469D01*
X018491Y032505D01*
X018545Y032538D01*
X018602Y032568D01*
X018660Y032594D01*
X018719Y032616D01*
X018780Y032634D01*
X018842Y032649D01*
X018905Y032660D01*
X018968Y032667D01*
X019032Y032670D01*
X019096Y032669D01*
X019159Y032664D01*
X019222Y032655D01*
X019285Y032642D01*
X019346Y032626D01*
X019407Y032605D01*
X019465Y032581D01*
X019523Y032553D01*
X019578Y032522D01*
X019632Y032487D01*
X019683Y032449D01*
X019732Y032408D01*
X019778Y032364D01*
X019821Y032318D01*
X019861Y032268D01*
X019898Y032217D01*
X019932Y032163D01*
X019963Y032107D01*
X019989Y032049D01*
X020013Y031990D01*
X020032Y031929D01*
X020048Y031867D01*
X020060Y031805D01*
X020068Y031741D01*
X020072Y031678D01*
X020072Y031614D01*
X020068Y031551D01*
X020060Y031487D01*
X020048Y031425D01*
X020032Y031363D01*
X020013Y031302D01*
X019989Y031243D01*
X019963Y031185D01*
X019932Y031129D01*
X019898Y031075D01*
X019861Y031024D01*
X019821Y030974D01*
X019778Y030928D01*
X019732Y030884D01*
X019683Y030843D01*
X019632Y030805D01*
X019578Y030770D01*
X019523Y030739D01*
X019465Y030711D01*
X019407Y030687D01*
X019346Y030666D01*
X019285Y030650D01*
X019222Y030637D01*
X019159Y030628D01*
X019096Y030623D01*
X019032Y030622D01*
X018968Y030625D01*
X018905Y030632D01*
X018842Y030643D01*
X018780Y030658D01*
X018719Y030676D01*
X018660Y030698D01*
X018602Y030724D01*
X018545Y030754D01*
X018491Y030787D01*
X018438Y030823D01*
X018388Y030863D01*
X018341Y030905D01*
X018296Y030951D01*
X018255Y030999D01*
X018216Y031049D01*
X018180Y031102D01*
X018148Y031157D01*
X018120Y031214D01*
X018095Y031273D01*
X018073Y031333D01*
X018056Y031394D01*
X018042Y031456D01*
X018032Y031519D01*
X018026Y031582D01*
X018024Y031646D01*
X021173Y031646D02*
X021175Y031710D01*
X021181Y031773D01*
X021191Y031836D01*
X021205Y031898D01*
X021222Y031959D01*
X021244Y032019D01*
X021269Y032078D01*
X021297Y032135D01*
X021329Y032190D01*
X021365Y032243D01*
X021404Y032293D01*
X021445Y032341D01*
X021490Y032387D01*
X021537Y032429D01*
X021587Y032469D01*
X021640Y032505D01*
X021694Y032538D01*
X021751Y032568D01*
X021809Y032594D01*
X021868Y032616D01*
X021929Y032634D01*
X021991Y032649D01*
X022054Y032660D01*
X022117Y032667D01*
X022181Y032670D01*
X022245Y032669D01*
X022308Y032664D01*
X022371Y032655D01*
X022434Y032642D01*
X022495Y032626D01*
X022556Y032605D01*
X022614Y032581D01*
X022672Y032553D01*
X022727Y032522D01*
X022781Y032487D01*
X022832Y032449D01*
X022881Y032408D01*
X022927Y032364D01*
X022970Y032318D01*
X023010Y032268D01*
X023047Y032217D01*
X023081Y032163D01*
X023112Y032107D01*
X023138Y032049D01*
X023162Y031990D01*
X023181Y031929D01*
X023197Y031867D01*
X023209Y031805D01*
X023217Y031741D01*
X023221Y031678D01*
X023221Y031614D01*
X023217Y031551D01*
X023209Y031487D01*
X023197Y031425D01*
X023181Y031363D01*
X023162Y031302D01*
X023138Y031243D01*
X023112Y031185D01*
X023081Y031129D01*
X023047Y031075D01*
X023010Y031024D01*
X022970Y030974D01*
X022927Y030928D01*
X022881Y030884D01*
X022832Y030843D01*
X022781Y030805D01*
X022727Y030770D01*
X022672Y030739D01*
X022614Y030711D01*
X022556Y030687D01*
X022495Y030666D01*
X022434Y030650D01*
X022371Y030637D01*
X022308Y030628D01*
X022245Y030623D01*
X022181Y030622D01*
X022117Y030625D01*
X022054Y030632D01*
X021991Y030643D01*
X021929Y030658D01*
X021868Y030676D01*
X021809Y030698D01*
X021751Y030724D01*
X021694Y030754D01*
X021640Y030787D01*
X021587Y030823D01*
X021537Y030863D01*
X021490Y030905D01*
X021445Y030951D01*
X021404Y030999D01*
X021365Y031049D01*
X021329Y031102D01*
X021297Y031157D01*
X021269Y031214D01*
X021244Y031273D01*
X021222Y031333D01*
X021205Y031394D01*
X021191Y031456D01*
X021181Y031519D01*
X021175Y031582D01*
X021173Y031646D01*
X023628Y030321D02*
X023630Y030360D01*
X023636Y030399D01*
X023646Y030437D01*
X023659Y030474D01*
X023676Y030509D01*
X023696Y030543D01*
X023720Y030574D01*
X023747Y030603D01*
X023776Y030629D01*
X023808Y030652D01*
X023842Y030672D01*
X023878Y030688D01*
X023915Y030700D01*
X023954Y030709D01*
X023993Y030714D01*
X024032Y030715D01*
X024071Y030712D01*
X024110Y030705D01*
X024147Y030694D01*
X024184Y030680D01*
X024219Y030662D01*
X024252Y030641D01*
X024283Y030616D01*
X024311Y030589D01*
X024336Y030559D01*
X024358Y030526D01*
X024377Y030492D01*
X024392Y030456D01*
X024404Y030418D01*
X024412Y030380D01*
X024416Y030341D01*
X024416Y030301D01*
X024412Y030262D01*
X024404Y030224D01*
X024392Y030186D01*
X024377Y030150D01*
X024358Y030116D01*
X024336Y030083D01*
X024311Y030053D01*
X024283Y030026D01*
X024252Y030001D01*
X024219Y029980D01*
X024184Y029962D01*
X024147Y029948D01*
X024110Y029937D01*
X024071Y029930D01*
X024032Y029927D01*
X023993Y029928D01*
X023954Y029933D01*
X023915Y029942D01*
X023878Y029954D01*
X023842Y029970D01*
X023808Y029990D01*
X023776Y030013D01*
X023747Y030039D01*
X023720Y030068D01*
X023696Y030099D01*
X023676Y030133D01*
X023659Y030168D01*
X023646Y030205D01*
X023636Y030243D01*
X023630Y030282D01*
X023628Y030321D01*
X030622Y028496D02*
X030624Y028560D01*
X030630Y028623D01*
X030640Y028686D01*
X030654Y028748D01*
X030671Y028809D01*
X030693Y028869D01*
X030718Y028928D01*
X030746Y028985D01*
X030778Y029040D01*
X030814Y029093D01*
X030853Y029143D01*
X030894Y029191D01*
X030939Y029237D01*
X030986Y029279D01*
X031036Y029319D01*
X031089Y029355D01*
X031143Y029388D01*
X031200Y029418D01*
X031258Y029444D01*
X031317Y029466D01*
X031378Y029484D01*
X031440Y029499D01*
X031503Y029510D01*
X031566Y029517D01*
X031630Y029520D01*
X031694Y029519D01*
X031757Y029514D01*
X031820Y029505D01*
X031883Y029492D01*
X031944Y029476D01*
X032005Y029455D01*
X032063Y029431D01*
X032121Y029403D01*
X032176Y029372D01*
X032230Y029337D01*
X032281Y029299D01*
X032330Y029258D01*
X032376Y029214D01*
X032419Y029168D01*
X032459Y029118D01*
X032496Y029067D01*
X032530Y029013D01*
X032561Y028957D01*
X032587Y028899D01*
X032611Y028840D01*
X032630Y028779D01*
X032646Y028717D01*
X032658Y028655D01*
X032666Y028591D01*
X032670Y028528D01*
X032670Y028464D01*
X032666Y028401D01*
X032658Y028337D01*
X032646Y028275D01*
X032630Y028213D01*
X032611Y028152D01*
X032587Y028093D01*
X032561Y028035D01*
X032530Y027979D01*
X032496Y027925D01*
X032459Y027874D01*
X032419Y027824D01*
X032376Y027778D01*
X032330Y027734D01*
X032281Y027693D01*
X032230Y027655D01*
X032176Y027620D01*
X032121Y027589D01*
X032063Y027561D01*
X032005Y027537D01*
X031944Y027516D01*
X031883Y027500D01*
X031820Y027487D01*
X031757Y027478D01*
X031694Y027473D01*
X031630Y027472D01*
X031566Y027475D01*
X031503Y027482D01*
X031440Y027493D01*
X031378Y027508D01*
X031317Y027526D01*
X031258Y027548D01*
X031200Y027574D01*
X031143Y027604D01*
X031089Y027637D01*
X031036Y027673D01*
X030986Y027713D01*
X030939Y027755D01*
X030894Y027801D01*
X030853Y027849D01*
X030814Y027899D01*
X030778Y027952D01*
X030746Y028007D01*
X030718Y028064D01*
X030693Y028123D01*
X030671Y028183D01*
X030654Y028244D01*
X030640Y028306D01*
X030630Y028369D01*
X030624Y028432D01*
X030622Y028496D01*
X030622Y006449D02*
X030624Y006513D01*
X030630Y006576D01*
X030640Y006639D01*
X030654Y006701D01*
X030671Y006762D01*
X030693Y006822D01*
X030718Y006881D01*
X030746Y006938D01*
X030778Y006993D01*
X030814Y007046D01*
X030853Y007096D01*
X030894Y007144D01*
X030939Y007190D01*
X030986Y007232D01*
X031036Y007272D01*
X031089Y007308D01*
X031143Y007341D01*
X031200Y007371D01*
X031258Y007397D01*
X031317Y007419D01*
X031378Y007437D01*
X031440Y007452D01*
X031503Y007463D01*
X031566Y007470D01*
X031630Y007473D01*
X031694Y007472D01*
X031757Y007467D01*
X031820Y007458D01*
X031883Y007445D01*
X031944Y007429D01*
X032005Y007408D01*
X032063Y007384D01*
X032121Y007356D01*
X032176Y007325D01*
X032230Y007290D01*
X032281Y007252D01*
X032330Y007211D01*
X032376Y007167D01*
X032419Y007121D01*
X032459Y007071D01*
X032496Y007020D01*
X032530Y006966D01*
X032561Y006910D01*
X032587Y006852D01*
X032611Y006793D01*
X032630Y006732D01*
X032646Y006670D01*
X032658Y006608D01*
X032666Y006544D01*
X032670Y006481D01*
X032670Y006417D01*
X032666Y006354D01*
X032658Y006290D01*
X032646Y006228D01*
X032630Y006166D01*
X032611Y006105D01*
X032587Y006046D01*
X032561Y005988D01*
X032530Y005932D01*
X032496Y005878D01*
X032459Y005827D01*
X032419Y005777D01*
X032376Y005731D01*
X032330Y005687D01*
X032281Y005646D01*
X032230Y005608D01*
X032176Y005573D01*
X032121Y005542D01*
X032063Y005514D01*
X032005Y005490D01*
X031944Y005469D01*
X031883Y005453D01*
X031820Y005440D01*
X031757Y005431D01*
X031694Y005426D01*
X031630Y005425D01*
X031566Y005428D01*
X031503Y005435D01*
X031440Y005446D01*
X031378Y005461D01*
X031317Y005479D01*
X031258Y005501D01*
X031200Y005527D01*
X031143Y005557D01*
X031089Y005590D01*
X031036Y005626D01*
X030986Y005666D01*
X030939Y005708D01*
X030894Y005754D01*
X030853Y005802D01*
X030814Y005852D01*
X030778Y005905D01*
X030746Y005960D01*
X030718Y006017D01*
X030693Y006076D01*
X030671Y006136D01*
X030654Y006197D01*
X030640Y006259D01*
X030630Y006322D01*
X030624Y006385D01*
X030622Y006449D01*
X023628Y004624D02*
X023630Y004663D01*
X023636Y004702D01*
X023646Y004740D01*
X023659Y004777D01*
X023676Y004812D01*
X023696Y004846D01*
X023720Y004877D01*
X023747Y004906D01*
X023776Y004932D01*
X023808Y004955D01*
X023842Y004975D01*
X023878Y004991D01*
X023915Y005003D01*
X023954Y005012D01*
X023993Y005017D01*
X024032Y005018D01*
X024071Y005015D01*
X024110Y005008D01*
X024147Y004997D01*
X024184Y004983D01*
X024219Y004965D01*
X024252Y004944D01*
X024283Y004919D01*
X024311Y004892D01*
X024336Y004862D01*
X024358Y004829D01*
X024377Y004795D01*
X024392Y004759D01*
X024404Y004721D01*
X024412Y004683D01*
X024416Y004644D01*
X024416Y004604D01*
X024412Y004565D01*
X024404Y004527D01*
X024392Y004489D01*
X024377Y004453D01*
X024358Y004419D01*
X024336Y004386D01*
X024311Y004356D01*
X024283Y004329D01*
X024252Y004304D01*
X024219Y004283D01*
X024184Y004265D01*
X024147Y004251D01*
X024110Y004240D01*
X024071Y004233D01*
X024032Y004230D01*
X023993Y004231D01*
X023954Y004236D01*
X023915Y004245D01*
X023878Y004257D01*
X023842Y004273D01*
X023808Y004293D01*
X023776Y004316D01*
X023747Y004342D01*
X023720Y004371D01*
X023696Y004402D01*
X023676Y004436D01*
X023659Y004471D01*
X023646Y004508D01*
X023636Y004546D01*
X023630Y004585D01*
X023628Y004624D01*
X021173Y003300D02*
X021175Y003364D01*
X021181Y003427D01*
X021191Y003490D01*
X021205Y003552D01*
X021222Y003613D01*
X021244Y003673D01*
X021269Y003732D01*
X021297Y003789D01*
X021329Y003844D01*
X021365Y003897D01*
X021404Y003947D01*
X021445Y003995D01*
X021490Y004041D01*
X021537Y004083D01*
X021587Y004123D01*
X021640Y004159D01*
X021694Y004192D01*
X021751Y004222D01*
X021809Y004248D01*
X021868Y004270D01*
X021929Y004288D01*
X021991Y004303D01*
X022054Y004314D01*
X022117Y004321D01*
X022181Y004324D01*
X022245Y004323D01*
X022308Y004318D01*
X022371Y004309D01*
X022434Y004296D01*
X022495Y004280D01*
X022556Y004259D01*
X022614Y004235D01*
X022672Y004207D01*
X022727Y004176D01*
X022781Y004141D01*
X022832Y004103D01*
X022881Y004062D01*
X022927Y004018D01*
X022970Y003972D01*
X023010Y003922D01*
X023047Y003871D01*
X023081Y003817D01*
X023112Y003761D01*
X023138Y003703D01*
X023162Y003644D01*
X023181Y003583D01*
X023197Y003521D01*
X023209Y003459D01*
X023217Y003395D01*
X023221Y003332D01*
X023221Y003268D01*
X023217Y003205D01*
X023209Y003141D01*
X023197Y003079D01*
X023181Y003017D01*
X023162Y002956D01*
X023138Y002897D01*
X023112Y002839D01*
X023081Y002783D01*
X023047Y002729D01*
X023010Y002678D01*
X022970Y002628D01*
X022927Y002582D01*
X022881Y002538D01*
X022832Y002497D01*
X022781Y002459D01*
X022727Y002424D01*
X022672Y002393D01*
X022614Y002365D01*
X022556Y002341D01*
X022495Y002320D01*
X022434Y002304D01*
X022371Y002291D01*
X022308Y002282D01*
X022245Y002277D01*
X022181Y002276D01*
X022117Y002279D01*
X022054Y002286D01*
X021991Y002297D01*
X021929Y002312D01*
X021868Y002330D01*
X021809Y002352D01*
X021751Y002378D01*
X021694Y002408D01*
X021640Y002441D01*
X021587Y002477D01*
X021537Y002517D01*
X021490Y002559D01*
X021445Y002605D01*
X021404Y002653D01*
X021365Y002703D01*
X021329Y002756D01*
X021297Y002811D01*
X021269Y002868D01*
X021244Y002927D01*
X021222Y002987D01*
X021205Y003048D01*
X021191Y003110D01*
X021181Y003173D01*
X021175Y003236D01*
X021173Y003300D01*
X018024Y003300D02*
X018026Y003364D01*
X018032Y003427D01*
X018042Y003490D01*
X018056Y003552D01*
X018073Y003613D01*
X018095Y003673D01*
X018120Y003732D01*
X018148Y003789D01*
X018180Y003844D01*
X018216Y003897D01*
X018255Y003947D01*
X018296Y003995D01*
X018341Y004041D01*
X018388Y004083D01*
X018438Y004123D01*
X018491Y004159D01*
X018545Y004192D01*
X018602Y004222D01*
X018660Y004248D01*
X018719Y004270D01*
X018780Y004288D01*
X018842Y004303D01*
X018905Y004314D01*
X018968Y004321D01*
X019032Y004324D01*
X019096Y004323D01*
X019159Y004318D01*
X019222Y004309D01*
X019285Y004296D01*
X019346Y004280D01*
X019407Y004259D01*
X019465Y004235D01*
X019523Y004207D01*
X019578Y004176D01*
X019632Y004141D01*
X019683Y004103D01*
X019732Y004062D01*
X019778Y004018D01*
X019821Y003972D01*
X019861Y003922D01*
X019898Y003871D01*
X019932Y003817D01*
X019963Y003761D01*
X019989Y003703D01*
X020013Y003644D01*
X020032Y003583D01*
X020048Y003521D01*
X020060Y003459D01*
X020068Y003395D01*
X020072Y003332D01*
X020072Y003268D01*
X020068Y003205D01*
X020060Y003141D01*
X020048Y003079D01*
X020032Y003017D01*
X020013Y002956D01*
X019989Y002897D01*
X019963Y002839D01*
X019932Y002783D01*
X019898Y002729D01*
X019861Y002678D01*
X019821Y002628D01*
X019778Y002582D01*
X019732Y002538D01*
X019683Y002497D01*
X019632Y002459D01*
X019578Y002424D01*
X019523Y002393D01*
X019465Y002365D01*
X019407Y002341D01*
X019346Y002320D01*
X019285Y002304D01*
X019222Y002291D01*
X019159Y002282D01*
X019096Y002277D01*
X019032Y002276D01*
X018968Y002279D01*
X018905Y002286D01*
X018842Y002297D01*
X018780Y002312D01*
X018719Y002330D01*
X018660Y002352D01*
X018602Y002378D01*
X018545Y002408D01*
X018491Y002441D01*
X018438Y002477D01*
X018388Y002517D01*
X018341Y002559D01*
X018296Y002605D01*
X018255Y002653D01*
X018216Y002703D01*
X018180Y002756D01*
X018148Y002811D01*
X018120Y002868D01*
X018095Y002927D01*
X018073Y002987D01*
X018056Y003048D01*
X018042Y003110D01*
X018032Y003173D01*
X018026Y003236D01*
X018024Y003300D01*
X014874Y003300D02*
X014876Y003364D01*
X014882Y003427D01*
X014892Y003490D01*
X014906Y003552D01*
X014923Y003613D01*
X014945Y003673D01*
X014970Y003732D01*
X014998Y003789D01*
X015030Y003844D01*
X015066Y003897D01*
X015105Y003947D01*
X015146Y003995D01*
X015191Y004041D01*
X015238Y004083D01*
X015288Y004123D01*
X015341Y004159D01*
X015395Y004192D01*
X015452Y004222D01*
X015510Y004248D01*
X015569Y004270D01*
X015630Y004288D01*
X015692Y004303D01*
X015755Y004314D01*
X015818Y004321D01*
X015882Y004324D01*
X015946Y004323D01*
X016009Y004318D01*
X016072Y004309D01*
X016135Y004296D01*
X016196Y004280D01*
X016257Y004259D01*
X016315Y004235D01*
X016373Y004207D01*
X016428Y004176D01*
X016482Y004141D01*
X016533Y004103D01*
X016582Y004062D01*
X016628Y004018D01*
X016671Y003972D01*
X016711Y003922D01*
X016748Y003871D01*
X016782Y003817D01*
X016813Y003761D01*
X016839Y003703D01*
X016863Y003644D01*
X016882Y003583D01*
X016898Y003521D01*
X016910Y003459D01*
X016918Y003395D01*
X016922Y003332D01*
X016922Y003268D01*
X016918Y003205D01*
X016910Y003141D01*
X016898Y003079D01*
X016882Y003017D01*
X016863Y002956D01*
X016839Y002897D01*
X016813Y002839D01*
X016782Y002783D01*
X016748Y002729D01*
X016711Y002678D01*
X016671Y002628D01*
X016628Y002582D01*
X016582Y002538D01*
X016533Y002497D01*
X016482Y002459D01*
X016428Y002424D01*
X016373Y002393D01*
X016315Y002365D01*
X016257Y002341D01*
X016196Y002320D01*
X016135Y002304D01*
X016072Y002291D01*
X016009Y002282D01*
X015946Y002277D01*
X015882Y002276D01*
X015818Y002279D01*
X015755Y002286D01*
X015692Y002297D01*
X015630Y002312D01*
X015569Y002330D01*
X015510Y002352D01*
X015452Y002378D01*
X015395Y002408D01*
X015341Y002441D01*
X015288Y002477D01*
X015238Y002517D01*
X015191Y002559D01*
X015146Y002605D01*
X015105Y002653D01*
X015066Y002703D01*
X015030Y002756D01*
X014998Y002811D01*
X014970Y002868D01*
X014945Y002927D01*
X014923Y002987D01*
X014906Y003048D01*
X014892Y003110D01*
X014882Y003173D01*
X014876Y003236D01*
X014874Y003300D01*
X011724Y003300D02*
X011726Y003364D01*
X011732Y003427D01*
X011742Y003490D01*
X011756Y003552D01*
X011773Y003613D01*
X011795Y003673D01*
X011820Y003732D01*
X011848Y003789D01*
X011880Y003844D01*
X011916Y003897D01*
X011955Y003947D01*
X011996Y003995D01*
X012041Y004041D01*
X012088Y004083D01*
X012138Y004123D01*
X012191Y004159D01*
X012245Y004192D01*
X012302Y004222D01*
X012360Y004248D01*
X012419Y004270D01*
X012480Y004288D01*
X012542Y004303D01*
X012605Y004314D01*
X012668Y004321D01*
X012732Y004324D01*
X012796Y004323D01*
X012859Y004318D01*
X012922Y004309D01*
X012985Y004296D01*
X013046Y004280D01*
X013107Y004259D01*
X013165Y004235D01*
X013223Y004207D01*
X013278Y004176D01*
X013332Y004141D01*
X013383Y004103D01*
X013432Y004062D01*
X013478Y004018D01*
X013521Y003972D01*
X013561Y003922D01*
X013598Y003871D01*
X013632Y003817D01*
X013663Y003761D01*
X013689Y003703D01*
X013713Y003644D01*
X013732Y003583D01*
X013748Y003521D01*
X013760Y003459D01*
X013768Y003395D01*
X013772Y003332D01*
X013772Y003268D01*
X013768Y003205D01*
X013760Y003141D01*
X013748Y003079D01*
X013732Y003017D01*
X013713Y002956D01*
X013689Y002897D01*
X013663Y002839D01*
X013632Y002783D01*
X013598Y002729D01*
X013561Y002678D01*
X013521Y002628D01*
X013478Y002582D01*
X013432Y002538D01*
X013383Y002497D01*
X013332Y002459D01*
X013278Y002424D01*
X013223Y002393D01*
X013165Y002365D01*
X013107Y002341D01*
X013046Y002320D01*
X012985Y002304D01*
X012922Y002291D01*
X012859Y002282D01*
X012796Y002277D01*
X012732Y002276D01*
X012668Y002279D01*
X012605Y002286D01*
X012542Y002297D01*
X012480Y002312D01*
X012419Y002330D01*
X012360Y002352D01*
X012302Y002378D01*
X012245Y002408D01*
X012191Y002441D01*
X012138Y002477D01*
X012088Y002517D01*
X012041Y002559D01*
X011996Y002605D01*
X011955Y002653D01*
X011916Y002703D01*
X011880Y002756D01*
X011848Y002811D01*
X011820Y002868D01*
X011795Y002927D01*
X011773Y002987D01*
X011756Y003048D01*
X011742Y003110D01*
X011732Y003173D01*
X011726Y003236D01*
X011724Y003300D01*
X010530Y004624D02*
X010532Y004663D01*
X010538Y004702D01*
X010548Y004740D01*
X010561Y004777D01*
X010578Y004812D01*
X010598Y004846D01*
X010622Y004877D01*
X010649Y004906D01*
X010678Y004932D01*
X010710Y004955D01*
X010744Y004975D01*
X010780Y004991D01*
X010817Y005003D01*
X010856Y005012D01*
X010895Y005017D01*
X010934Y005018D01*
X010973Y005015D01*
X011012Y005008D01*
X011049Y004997D01*
X011086Y004983D01*
X011121Y004965D01*
X011154Y004944D01*
X011185Y004919D01*
X011213Y004892D01*
X011238Y004862D01*
X011260Y004829D01*
X011279Y004795D01*
X011294Y004759D01*
X011306Y004721D01*
X011314Y004683D01*
X011318Y004644D01*
X011318Y004604D01*
X011314Y004565D01*
X011306Y004527D01*
X011294Y004489D01*
X011279Y004453D01*
X011260Y004419D01*
X011238Y004386D01*
X011213Y004356D01*
X011185Y004329D01*
X011154Y004304D01*
X011121Y004283D01*
X011086Y004265D01*
X011049Y004251D01*
X011012Y004240D01*
X010973Y004233D01*
X010934Y004230D01*
X010895Y004231D01*
X010856Y004236D01*
X010817Y004245D01*
X010780Y004257D01*
X010744Y004273D01*
X010710Y004293D01*
X010678Y004316D01*
X010649Y004342D01*
X010622Y004371D01*
X010598Y004402D01*
X010578Y004436D01*
X010561Y004471D01*
X010548Y004508D01*
X010538Y004546D01*
X010532Y004585D01*
X010530Y004624D01*
D11*
X010924Y004624D03*
X004624Y007774D03*
X004624Y027172D03*
X010924Y030321D03*
X024022Y030321D03*
X024022Y004624D03*
D12*
X022197Y003300D03*
X019048Y003300D03*
X015898Y003300D03*
X012748Y003300D03*
X003300Y009599D03*
X003300Y012748D03*
X003300Y015898D03*
X003300Y019048D03*
X003300Y022197D03*
X003300Y025347D03*
X012748Y031646D03*
X015898Y031646D03*
X019048Y031646D03*
X022197Y031646D03*
X031646Y028496D03*
X031646Y006449D03*
D13*
X028906Y006973D03*
X023725Y007975D03*
X014725Y007975D03*
X011125Y026975D03*
X021725Y026975D03*
X028906Y028973D03*
D14*
X028725Y026975D03*
X027725Y026975D03*
X026725Y026975D03*
X025725Y026975D03*
X024725Y026975D03*
X023725Y026975D03*
X022725Y026975D03*
X020125Y026975D03*
X019125Y026975D03*
X018125Y026975D03*
X017125Y026975D03*
X016125Y026975D03*
X015125Y026975D03*
X014125Y026975D03*
X013125Y026975D03*
X012125Y026975D03*
X015725Y007975D03*
X016725Y007975D03*
X017725Y007975D03*
X018725Y007975D03*
X019725Y007975D03*
X020725Y007975D03*
X021725Y007975D03*
X024725Y007975D03*
X025725Y007975D03*
X026725Y007975D03*
X027725Y007975D03*
X028725Y007975D03*
D15*
X005875Y027975D03*
D16*
X005875Y028975D03*
X006875Y028975D03*
X006875Y027975D03*
X007875Y027975D03*
X007875Y028975D03*
D17*
X012346Y012057D02*
X012844Y012057D01*
X012844Y011459D01*
X012346Y011459D01*
X012346Y012057D01*
X012346Y011501D02*
X012844Y011501D01*
X012844Y011543D02*
X012346Y011543D01*
X012346Y011585D02*
X012844Y011585D01*
X012844Y011627D02*
X012346Y011627D01*
X012346Y011669D02*
X012844Y011669D01*
X012844Y011711D02*
X012346Y011711D01*
X012346Y011753D02*
X012844Y011753D01*
X012844Y011795D02*
X012346Y011795D01*
X012346Y011837D02*
X012844Y011837D01*
X012844Y011879D02*
X012346Y011879D01*
X012346Y011921D02*
X012844Y011921D01*
X012844Y011963D02*
X012346Y011963D01*
X012346Y012005D02*
X012844Y012005D01*
X012844Y012047D02*
X012346Y012047D01*
X013046Y012057D02*
X013544Y012057D01*
X013544Y011459D01*
X013046Y011459D01*
X013046Y012057D01*
X013046Y011501D02*
X013544Y011501D01*
X013544Y011543D02*
X013046Y011543D01*
X013046Y011585D02*
X013544Y011585D01*
X013544Y011627D02*
X013046Y011627D01*
X013046Y011669D02*
X013544Y011669D01*
X013544Y011711D02*
X013046Y011711D01*
X013046Y011753D02*
X013544Y011753D01*
X013544Y011795D02*
X013046Y011795D01*
X013046Y011837D02*
X013544Y011837D01*
X013544Y011879D02*
X013046Y011879D01*
X013046Y011921D02*
X013544Y011921D01*
X013544Y011963D02*
X013046Y011963D01*
X013046Y012005D02*
X013544Y012005D01*
X013544Y012047D02*
X013046Y012047D01*
X014315Y012057D02*
X014813Y012057D01*
X014813Y011459D01*
X014315Y011459D01*
X014315Y012057D01*
X014315Y011501D02*
X014813Y011501D01*
X014813Y011543D02*
X014315Y011543D01*
X014315Y011585D02*
X014813Y011585D01*
X014813Y011627D02*
X014315Y011627D01*
X014315Y011669D02*
X014813Y011669D01*
X014813Y011711D02*
X014315Y011711D01*
X014315Y011753D02*
X014813Y011753D01*
X014813Y011795D02*
X014315Y011795D01*
X014315Y011837D02*
X014813Y011837D01*
X014813Y011879D02*
X014315Y011879D01*
X014315Y011921D02*
X014813Y011921D01*
X014813Y011963D02*
X014315Y011963D01*
X014315Y012005D02*
X014813Y012005D01*
X014813Y012047D02*
X014315Y012047D01*
X015015Y012057D02*
X015513Y012057D01*
X015513Y011459D01*
X015015Y011459D01*
X015015Y012057D01*
X015015Y011501D02*
X015513Y011501D01*
X015513Y011543D02*
X015015Y011543D01*
X015015Y011585D02*
X015513Y011585D01*
X015513Y011627D02*
X015015Y011627D01*
X015015Y011669D02*
X015513Y011669D01*
X015513Y011711D02*
X015015Y011711D01*
X015015Y011753D02*
X015513Y011753D01*
X015513Y011795D02*
X015015Y011795D01*
X015015Y011837D02*
X015513Y011837D01*
X015513Y011879D02*
X015015Y011879D01*
X015015Y011921D02*
X015513Y011921D01*
X015513Y011963D02*
X015015Y011963D01*
X015015Y012005D02*
X015513Y012005D01*
X015513Y012047D02*
X015015Y012047D01*
X016283Y012057D02*
X016781Y012057D01*
X016781Y011459D01*
X016283Y011459D01*
X016283Y012057D01*
X016283Y011501D02*
X016781Y011501D01*
X016781Y011543D02*
X016283Y011543D01*
X016283Y011585D02*
X016781Y011585D01*
X016781Y011627D02*
X016283Y011627D01*
X016283Y011669D02*
X016781Y011669D01*
X016781Y011711D02*
X016283Y011711D01*
X016283Y011753D02*
X016781Y011753D01*
X016781Y011795D02*
X016283Y011795D01*
X016283Y011837D02*
X016781Y011837D01*
X016781Y011879D02*
X016283Y011879D01*
X016283Y011921D02*
X016781Y011921D01*
X016781Y011963D02*
X016283Y011963D01*
X016283Y012005D02*
X016781Y012005D01*
X016781Y012047D02*
X016283Y012047D01*
X016983Y012057D02*
X017481Y012057D01*
X017481Y011459D01*
X016983Y011459D01*
X016983Y012057D01*
X016983Y011501D02*
X017481Y011501D01*
X017481Y011543D02*
X016983Y011543D01*
X016983Y011585D02*
X017481Y011585D01*
X017481Y011627D02*
X016983Y011627D01*
X016983Y011669D02*
X017481Y011669D01*
X017481Y011711D02*
X016983Y011711D01*
X016983Y011753D02*
X017481Y011753D01*
X017481Y011795D02*
X016983Y011795D01*
X016983Y011837D02*
X017481Y011837D01*
X017481Y011879D02*
X016983Y011879D01*
X016983Y011921D02*
X017481Y011921D01*
X017481Y011963D02*
X016983Y011963D01*
X016983Y012005D02*
X017481Y012005D01*
X017481Y012047D02*
X016983Y012047D01*
X018252Y012057D02*
X018750Y012057D01*
X018750Y011459D01*
X018252Y011459D01*
X018252Y012057D01*
X018252Y011501D02*
X018750Y011501D01*
X018750Y011543D02*
X018252Y011543D01*
X018252Y011585D02*
X018750Y011585D01*
X018750Y011627D02*
X018252Y011627D01*
X018252Y011669D02*
X018750Y011669D01*
X018750Y011711D02*
X018252Y011711D01*
X018252Y011753D02*
X018750Y011753D01*
X018750Y011795D02*
X018252Y011795D01*
X018252Y011837D02*
X018750Y011837D01*
X018750Y011879D02*
X018252Y011879D01*
X018252Y011921D02*
X018750Y011921D01*
X018750Y011963D02*
X018252Y011963D01*
X018252Y012005D02*
X018750Y012005D01*
X018750Y012047D02*
X018252Y012047D01*
X018952Y012057D02*
X019450Y012057D01*
X019450Y011459D01*
X018952Y011459D01*
X018952Y012057D01*
X018952Y011501D02*
X019450Y011501D01*
X019450Y011543D02*
X018952Y011543D01*
X018952Y011585D02*
X019450Y011585D01*
X019450Y011627D02*
X018952Y011627D01*
X018952Y011669D02*
X019450Y011669D01*
X019450Y011711D02*
X018952Y011711D01*
X018952Y011753D02*
X019450Y011753D01*
X019450Y011795D02*
X018952Y011795D01*
X018952Y011837D02*
X019450Y011837D01*
X019450Y011879D02*
X018952Y011879D01*
X018952Y011921D02*
X019450Y011921D01*
X019450Y011963D02*
X018952Y011963D01*
X018952Y012005D02*
X019450Y012005D01*
X019450Y012047D02*
X018952Y012047D01*
D18*
X028906Y008973D03*
D19*
X027906Y008973D03*
X026906Y008973D03*
X026906Y010973D03*
X026906Y011973D03*
X026906Y012973D03*
X026906Y013973D03*
X026906Y014973D03*
X026906Y015973D03*
X026906Y016973D03*
X026906Y017973D03*
X026906Y018973D03*
X026906Y019973D03*
X026906Y020973D03*
X026906Y021973D03*
X026906Y022973D03*
X026906Y023973D03*
X026906Y024973D03*
X026906Y025973D03*
X027906Y025973D03*
X028906Y025973D03*
X028906Y024973D03*
X027906Y024973D03*
X027906Y023973D03*
X028906Y023973D03*
X028906Y022973D03*
X027906Y022973D03*
X027906Y021973D03*
X027906Y020973D03*
X028906Y020973D03*
X028906Y021973D03*
X028906Y019973D03*
X027906Y019973D03*
X027906Y018973D03*
X028906Y018973D03*
X028906Y017973D03*
X027906Y017973D03*
X027906Y016973D03*
X028906Y016973D03*
X028906Y015973D03*
X027906Y015973D03*
X027906Y014973D03*
X028906Y014973D03*
X028906Y013973D03*
X028906Y012973D03*
X027906Y012973D03*
X027906Y013973D03*
X027906Y011973D03*
X028906Y011973D03*
X028906Y010973D03*
X027906Y010973D03*
D20*
X022296Y015111D03*
X022296Y021410D03*
D21*
X023386Y021349D02*
X023386Y021511D01*
X024552Y021511D01*
X024552Y021349D01*
X023386Y021349D01*
X023386Y021402D02*
X024552Y021402D01*
X024552Y021455D02*
X023386Y021455D01*
X023386Y021508D02*
X024552Y021508D01*
X023386Y021624D02*
X023386Y021786D01*
X024552Y021786D01*
X024552Y021624D01*
X023386Y021624D01*
X023386Y021677D02*
X024552Y021677D01*
X024552Y021730D02*
X023386Y021730D01*
X023386Y021783D02*
X024552Y021783D01*
X023386Y021900D02*
X023386Y022062D01*
X024552Y022062D01*
X024552Y021900D01*
X023386Y021900D01*
X023386Y021953D02*
X024552Y021953D01*
X024552Y022006D02*
X023386Y022006D01*
X023386Y022059D02*
X024552Y022059D01*
X023386Y022175D02*
X023386Y022337D01*
X024552Y022337D01*
X024552Y022175D01*
X023386Y022175D01*
X023386Y022228D02*
X024552Y022228D01*
X024552Y022281D02*
X023386Y022281D01*
X023386Y022334D02*
X024552Y022334D01*
X023386Y021235D02*
X023386Y021073D01*
X023386Y021235D02*
X024552Y021235D01*
X024552Y021073D01*
X023386Y021073D01*
X023386Y021126D02*
X024552Y021126D01*
X024552Y021179D02*
X023386Y021179D01*
X023386Y021232D02*
X024552Y021232D01*
X023386Y020959D02*
X023386Y020797D01*
X023386Y020959D02*
X024552Y020959D01*
X024552Y020797D01*
X023386Y020797D01*
X023386Y020850D02*
X024552Y020850D01*
X024552Y020903D02*
X023386Y020903D01*
X023386Y020956D02*
X024552Y020956D01*
X023386Y020684D02*
X023386Y020522D01*
X023386Y020684D02*
X024552Y020684D01*
X024552Y020522D01*
X023386Y020522D01*
X023386Y020575D02*
X024552Y020575D01*
X024552Y020628D02*
X023386Y020628D01*
X023386Y020681D02*
X024552Y020681D01*
X023386Y020408D02*
X023386Y020246D01*
X023386Y020408D02*
X024552Y020408D01*
X024552Y020246D01*
X023386Y020246D01*
X023386Y020299D02*
X024552Y020299D01*
X024552Y020352D02*
X023386Y020352D01*
X023386Y020405D02*
X024552Y020405D01*
X023386Y020133D02*
X023386Y019971D01*
X023386Y020133D02*
X024552Y020133D01*
X024552Y019971D01*
X023386Y019971D01*
X023386Y020024D02*
X024552Y020024D01*
X024552Y020077D02*
X023386Y020077D01*
X023386Y020130D02*
X024552Y020130D01*
X023386Y019857D02*
X023386Y019695D01*
X023386Y019857D02*
X024552Y019857D01*
X024552Y019695D01*
X023386Y019695D01*
X023386Y019748D02*
X024552Y019748D01*
X024552Y019801D02*
X023386Y019801D01*
X023386Y019854D02*
X024552Y019854D01*
X023386Y019581D02*
X023386Y019419D01*
X023386Y019581D02*
X024552Y019581D01*
X024552Y019419D01*
X023386Y019419D01*
X023386Y019472D02*
X024552Y019472D01*
X024552Y019525D02*
X023386Y019525D01*
X023386Y019578D02*
X024552Y019578D01*
X023386Y019306D02*
X023386Y019144D01*
X023386Y019306D02*
X024552Y019306D01*
X024552Y019144D01*
X023386Y019144D01*
X023386Y019197D02*
X024552Y019197D01*
X024552Y019250D02*
X023386Y019250D01*
X023386Y019303D02*
X024552Y019303D01*
X023386Y019030D02*
X023386Y018868D01*
X023386Y019030D02*
X024552Y019030D01*
X024552Y018868D01*
X023386Y018868D01*
X023386Y018921D02*
X024552Y018921D01*
X024552Y018974D02*
X023386Y018974D01*
X023386Y019027D02*
X024552Y019027D01*
X023386Y018755D02*
X023386Y018593D01*
X023386Y018755D02*
X024552Y018755D01*
X024552Y018593D01*
X023386Y018593D01*
X023386Y018646D02*
X024552Y018646D01*
X024552Y018699D02*
X023386Y018699D01*
X023386Y018752D02*
X024552Y018752D01*
X023386Y018479D02*
X023386Y018317D01*
X023386Y018479D02*
X024552Y018479D01*
X024552Y018317D01*
X023386Y018317D01*
X023386Y018370D02*
X024552Y018370D01*
X024552Y018423D02*
X023386Y018423D01*
X023386Y018476D02*
X024552Y018476D01*
X023386Y018203D02*
X023386Y018041D01*
X023386Y018203D02*
X024552Y018203D01*
X024552Y018041D01*
X023386Y018041D01*
X023386Y018094D02*
X024552Y018094D01*
X024552Y018147D02*
X023386Y018147D01*
X023386Y018200D02*
X024552Y018200D01*
X023386Y017928D02*
X023386Y017766D01*
X023386Y017928D02*
X024552Y017928D01*
X024552Y017766D01*
X023386Y017766D01*
X023386Y017819D02*
X024552Y017819D01*
X024552Y017872D02*
X023386Y017872D01*
X023386Y017925D02*
X024552Y017925D01*
X023386Y017652D02*
X023386Y017490D01*
X023386Y017652D02*
X024552Y017652D01*
X024552Y017490D01*
X023386Y017490D01*
X023386Y017543D02*
X024552Y017543D01*
X024552Y017596D02*
X023386Y017596D01*
X023386Y017649D02*
X024552Y017649D01*
X023386Y017377D02*
X023386Y017215D01*
X023386Y017377D02*
X024552Y017377D01*
X024552Y017215D01*
X023386Y017215D01*
X023386Y017268D02*
X024552Y017268D01*
X024552Y017321D02*
X023386Y017321D01*
X023386Y017374D02*
X024552Y017374D01*
X023386Y017101D02*
X023386Y016939D01*
X023386Y017101D02*
X024552Y017101D01*
X024552Y016939D01*
X023386Y016939D01*
X023386Y016992D02*
X024552Y016992D01*
X024552Y017045D02*
X023386Y017045D01*
X023386Y017098D02*
X024552Y017098D01*
X023386Y016825D02*
X023386Y016663D01*
X023386Y016825D02*
X024552Y016825D01*
X024552Y016663D01*
X023386Y016663D01*
X023386Y016716D02*
X024552Y016716D01*
X024552Y016769D02*
X023386Y016769D01*
X023386Y016822D02*
X024552Y016822D01*
X023386Y016550D02*
X023386Y016388D01*
X023386Y016550D02*
X024552Y016550D01*
X024552Y016388D01*
X023386Y016388D01*
X023386Y016441D02*
X024552Y016441D01*
X024552Y016494D02*
X023386Y016494D01*
X023386Y016547D02*
X024552Y016547D01*
X023386Y016274D02*
X023386Y016112D01*
X023386Y016274D02*
X024552Y016274D01*
X024552Y016112D01*
X023386Y016112D01*
X023386Y016165D02*
X024552Y016165D01*
X024552Y016218D02*
X023386Y016218D01*
X023386Y016271D02*
X024552Y016271D01*
X023386Y015999D02*
X023386Y015837D01*
X023386Y015999D02*
X024552Y015999D01*
X024552Y015837D01*
X023386Y015837D01*
X023386Y015890D02*
X024552Y015890D01*
X024552Y015943D02*
X023386Y015943D01*
X023386Y015996D02*
X024552Y015996D01*
X023386Y015723D02*
X023386Y015561D01*
X023386Y015723D02*
X024552Y015723D01*
X024552Y015561D01*
X023386Y015561D01*
X023386Y015614D02*
X024552Y015614D01*
X024552Y015667D02*
X023386Y015667D01*
X023386Y015720D02*
X024552Y015720D01*
X023386Y015448D02*
X023386Y015286D01*
X023386Y015448D02*
X024552Y015448D01*
X024552Y015286D01*
X023386Y015286D01*
X023386Y015339D02*
X024552Y015339D01*
X024552Y015392D02*
X023386Y015392D01*
X023386Y015445D02*
X024552Y015445D01*
X023386Y015172D02*
X023386Y015010D01*
X023386Y015172D02*
X024552Y015172D01*
X024552Y015010D01*
X023386Y015010D01*
X023386Y015063D02*
X024552Y015063D01*
X024552Y015116D02*
X023386Y015116D01*
X023386Y015169D02*
X024552Y015169D01*
X023386Y014896D02*
X023386Y014734D01*
X023386Y014896D02*
X024552Y014896D01*
X024552Y014734D01*
X023386Y014734D01*
X023386Y014787D02*
X024552Y014787D01*
X024552Y014840D02*
X023386Y014840D01*
X023386Y014893D02*
X024552Y014893D01*
X023386Y014621D02*
X023386Y014459D01*
X023386Y014621D02*
X024552Y014621D01*
X024552Y014459D01*
X023386Y014459D01*
X023386Y014512D02*
X024552Y014512D01*
X024552Y014565D02*
X023386Y014565D01*
X023386Y014618D02*
X024552Y014618D01*
X023386Y014345D02*
X023386Y014183D01*
X023386Y014345D02*
X024552Y014345D01*
X024552Y014183D01*
X023386Y014183D01*
X023386Y014236D02*
X024552Y014236D01*
X024552Y014289D02*
X023386Y014289D01*
X023386Y014342D02*
X024552Y014342D01*
D22*
X010780Y014737D02*
X010780Y015287D01*
X011606Y015287D01*
X011606Y014737D01*
X010780Y014737D01*
X010780Y014777D02*
X011606Y014777D01*
X011606Y014817D02*
X010780Y014817D01*
X010780Y014857D02*
X011606Y014857D01*
X011606Y014897D02*
X010780Y014897D01*
X010780Y014937D02*
X011606Y014937D01*
X011606Y014977D02*
X010780Y014977D01*
X010780Y015017D02*
X011606Y015017D01*
X011606Y015057D02*
X010780Y015057D01*
X010780Y015097D02*
X011606Y015097D01*
X011606Y015137D02*
X010780Y015137D01*
X010780Y015177D02*
X011606Y015177D01*
X011606Y015217D02*
X010780Y015217D01*
X010780Y015257D02*
X011606Y015257D01*
X010780Y013909D02*
X010780Y013359D01*
X010780Y013909D02*
X011606Y013909D01*
X011606Y013359D01*
X010780Y013359D01*
X010780Y013399D02*
X011606Y013399D01*
X011606Y013439D02*
X010780Y013439D01*
X010780Y013479D02*
X011606Y013479D01*
X011606Y013519D02*
X010780Y013519D01*
X010780Y013559D02*
X011606Y013559D01*
X011606Y013599D02*
X010780Y013599D01*
X010780Y013639D02*
X011606Y013639D01*
X011606Y013679D02*
X010780Y013679D01*
X010780Y013719D02*
X011606Y013719D01*
X011606Y013759D02*
X010780Y013759D01*
X010780Y013799D02*
X011606Y013799D01*
X011606Y013839D02*
X010780Y013839D01*
X010780Y013879D02*
X011606Y013879D01*
X010780Y012138D02*
X010780Y011588D01*
X010780Y012138D02*
X011606Y012138D01*
X011606Y011588D01*
X010780Y011588D01*
X010780Y011628D02*
X011606Y011628D01*
X011606Y011668D02*
X010780Y011668D01*
X010780Y011708D02*
X011606Y011708D01*
X011606Y011748D02*
X010780Y011748D01*
X010780Y011788D02*
X011606Y011788D01*
X011606Y011828D02*
X010780Y011828D01*
X010780Y011868D02*
X011606Y011868D01*
X011606Y011908D02*
X010780Y011908D01*
X010780Y011948D02*
X011606Y011948D01*
X011606Y011988D02*
X010780Y011988D01*
X010780Y012028D02*
X011606Y012028D01*
X011606Y012068D02*
X010780Y012068D01*
X010780Y012108D02*
X011606Y012108D01*
X007198Y012138D02*
X007198Y011588D01*
X007198Y012138D02*
X008024Y012138D01*
X008024Y011588D01*
X007198Y011588D01*
X007198Y011628D02*
X008024Y011628D01*
X008024Y011668D02*
X007198Y011668D01*
X007198Y011708D02*
X008024Y011708D01*
X008024Y011748D02*
X007198Y011748D01*
X007198Y011788D02*
X008024Y011788D01*
X008024Y011828D02*
X007198Y011828D01*
X007198Y011868D02*
X008024Y011868D01*
X008024Y011908D02*
X007198Y011908D01*
X007198Y011948D02*
X008024Y011948D01*
X008024Y011988D02*
X007198Y011988D01*
X007198Y012028D02*
X008024Y012028D01*
X008024Y012068D02*
X007198Y012068D01*
X007198Y012108D02*
X008024Y012108D01*
X007198Y013359D02*
X007198Y013909D01*
X008024Y013909D01*
X008024Y013359D01*
X007198Y013359D01*
X007198Y013399D02*
X008024Y013399D01*
X008024Y013439D02*
X007198Y013439D01*
X007198Y013479D02*
X008024Y013479D01*
X008024Y013519D02*
X007198Y013519D01*
X007198Y013559D02*
X008024Y013559D01*
X008024Y013599D02*
X007198Y013599D01*
X007198Y013639D02*
X008024Y013639D01*
X008024Y013679D02*
X007198Y013679D01*
X007198Y013719D02*
X008024Y013719D01*
X008024Y013759D02*
X007198Y013759D01*
X007198Y013799D02*
X008024Y013799D01*
X008024Y013839D02*
X007198Y013839D01*
X007198Y013879D02*
X008024Y013879D01*
X007198Y014737D02*
X007198Y015287D01*
X008024Y015287D01*
X008024Y014737D01*
X007198Y014737D01*
X007198Y014777D02*
X008024Y014777D01*
X008024Y014817D02*
X007198Y014817D01*
X007198Y014857D02*
X008024Y014857D01*
X008024Y014897D02*
X007198Y014897D01*
X007198Y014937D02*
X008024Y014937D01*
X008024Y014977D02*
X007198Y014977D01*
X007198Y015017D02*
X008024Y015017D01*
X008024Y015057D02*
X007198Y015057D01*
X007198Y015097D02*
X008024Y015097D01*
X008024Y015137D02*
X007198Y015137D01*
X007198Y015177D02*
X008024Y015177D01*
X008024Y015217D02*
X007198Y015217D01*
X007198Y015257D02*
X008024Y015257D01*
X007198Y016509D02*
X007198Y017059D01*
X008024Y017059D01*
X008024Y016509D01*
X007198Y016509D01*
X007198Y016549D02*
X008024Y016549D01*
X008024Y016589D02*
X007198Y016589D01*
X007198Y016629D02*
X008024Y016629D01*
X008024Y016669D02*
X007198Y016669D01*
X007198Y016709D02*
X008024Y016709D01*
X008024Y016749D02*
X007198Y016749D01*
X007198Y016789D02*
X008024Y016789D01*
X008024Y016829D02*
X007198Y016829D01*
X007198Y016869D02*
X008024Y016869D01*
X008024Y016909D02*
X007198Y016909D01*
X007198Y016949D02*
X008024Y016949D01*
X008024Y016989D02*
X007198Y016989D01*
X007198Y017029D02*
X008024Y017029D01*
X007198Y017887D02*
X007198Y018437D01*
X008024Y018437D01*
X008024Y017887D01*
X007198Y017887D01*
X007198Y017927D02*
X008024Y017927D01*
X008024Y017967D02*
X007198Y017967D01*
X007198Y018007D02*
X008024Y018007D01*
X008024Y018047D02*
X007198Y018047D01*
X007198Y018087D02*
X008024Y018087D01*
X008024Y018127D02*
X007198Y018127D01*
X007198Y018167D02*
X008024Y018167D01*
X008024Y018207D02*
X007198Y018207D01*
X007198Y018247D02*
X008024Y018247D01*
X008024Y018287D02*
X007198Y018287D01*
X007198Y018327D02*
X008024Y018327D01*
X008024Y018367D02*
X007198Y018367D01*
X007198Y018407D02*
X008024Y018407D01*
X007198Y019658D02*
X007198Y020208D01*
X008024Y020208D01*
X008024Y019658D01*
X007198Y019658D01*
X007198Y019698D02*
X008024Y019698D01*
X008024Y019738D02*
X007198Y019738D01*
X007198Y019778D02*
X008024Y019778D01*
X008024Y019818D02*
X007198Y019818D01*
X007198Y019858D02*
X008024Y019858D01*
X008024Y019898D02*
X007198Y019898D01*
X007198Y019938D02*
X008024Y019938D01*
X008024Y019978D02*
X007198Y019978D01*
X007198Y020018D02*
X008024Y020018D01*
X008024Y020058D02*
X007198Y020058D01*
X007198Y020098D02*
X008024Y020098D01*
X008024Y020138D02*
X007198Y020138D01*
X007198Y020178D02*
X008024Y020178D01*
X007198Y021036D02*
X007198Y021586D01*
X008024Y021586D01*
X008024Y021036D01*
X007198Y021036D01*
X007198Y021076D02*
X008024Y021076D01*
X008024Y021116D02*
X007198Y021116D01*
X007198Y021156D02*
X008024Y021156D01*
X008024Y021196D02*
X007198Y021196D01*
X007198Y021236D02*
X008024Y021236D01*
X008024Y021276D02*
X007198Y021276D01*
X007198Y021316D02*
X008024Y021316D01*
X008024Y021356D02*
X007198Y021356D01*
X007198Y021396D02*
X008024Y021396D01*
X008024Y021436D02*
X007198Y021436D01*
X007198Y021476D02*
X008024Y021476D01*
X008024Y021516D02*
X007198Y021516D01*
X007198Y021556D02*
X008024Y021556D01*
X007198Y022808D02*
X007198Y023358D01*
X008024Y023358D01*
X008024Y022808D01*
X007198Y022808D01*
X007198Y022848D02*
X008024Y022848D01*
X008024Y022888D02*
X007198Y022888D01*
X007198Y022928D02*
X008024Y022928D01*
X008024Y022968D02*
X007198Y022968D01*
X007198Y023008D02*
X008024Y023008D01*
X008024Y023048D02*
X007198Y023048D01*
X007198Y023088D02*
X008024Y023088D01*
X008024Y023128D02*
X007198Y023128D01*
X007198Y023168D02*
X008024Y023168D01*
X008024Y023208D02*
X007198Y023208D01*
X007198Y023248D02*
X008024Y023248D01*
X008024Y023288D02*
X007198Y023288D01*
X007198Y023328D02*
X008024Y023328D01*
X010780Y023358D02*
X010780Y022808D01*
X010780Y023358D02*
X011606Y023358D01*
X011606Y022808D01*
X010780Y022808D01*
X010780Y022848D02*
X011606Y022848D01*
X011606Y022888D02*
X010780Y022888D01*
X010780Y022928D02*
X011606Y022928D01*
X011606Y022968D02*
X010780Y022968D01*
X010780Y023008D02*
X011606Y023008D01*
X011606Y023048D02*
X010780Y023048D01*
X010780Y023088D02*
X011606Y023088D01*
X011606Y023128D02*
X010780Y023128D01*
X010780Y023168D02*
X011606Y023168D01*
X011606Y023208D02*
X010780Y023208D01*
X010780Y023248D02*
X011606Y023248D01*
X011606Y023288D02*
X010780Y023288D01*
X010780Y023328D02*
X011606Y023328D01*
X010780Y021586D02*
X010780Y021036D01*
X010780Y021586D02*
X011606Y021586D01*
X011606Y021036D01*
X010780Y021036D01*
X010780Y021076D02*
X011606Y021076D01*
X011606Y021116D02*
X010780Y021116D01*
X010780Y021156D02*
X011606Y021156D01*
X011606Y021196D02*
X010780Y021196D01*
X010780Y021236D02*
X011606Y021236D01*
X011606Y021276D02*
X010780Y021276D01*
X010780Y021316D02*
X011606Y021316D01*
X011606Y021356D02*
X010780Y021356D01*
X010780Y021396D02*
X011606Y021396D01*
X011606Y021436D02*
X010780Y021436D01*
X010780Y021476D02*
X011606Y021476D01*
X011606Y021516D02*
X010780Y021516D01*
X010780Y021556D02*
X011606Y021556D01*
X010780Y020208D02*
X010780Y019658D01*
X010780Y020208D02*
X011606Y020208D01*
X011606Y019658D01*
X010780Y019658D01*
X010780Y019698D02*
X011606Y019698D01*
X011606Y019738D02*
X010780Y019738D01*
X010780Y019778D02*
X011606Y019778D01*
X011606Y019818D02*
X010780Y019818D01*
X010780Y019858D02*
X011606Y019858D01*
X011606Y019898D02*
X010780Y019898D01*
X010780Y019938D02*
X011606Y019938D01*
X011606Y019978D02*
X010780Y019978D01*
X010780Y020018D02*
X011606Y020018D01*
X011606Y020058D02*
X010780Y020058D01*
X010780Y020098D02*
X011606Y020098D01*
X011606Y020138D02*
X010780Y020138D01*
X010780Y020178D02*
X011606Y020178D01*
X010780Y018437D02*
X010780Y017887D01*
X010780Y018437D02*
X011606Y018437D01*
X011606Y017887D01*
X010780Y017887D01*
X010780Y017927D02*
X011606Y017927D01*
X011606Y017967D02*
X010780Y017967D01*
X010780Y018007D02*
X011606Y018007D01*
X011606Y018047D02*
X010780Y018047D01*
X010780Y018087D02*
X011606Y018087D01*
X011606Y018127D02*
X010780Y018127D01*
X010780Y018167D02*
X011606Y018167D01*
X011606Y018207D02*
X010780Y018207D01*
X010780Y018247D02*
X011606Y018247D01*
X011606Y018287D02*
X010780Y018287D01*
X010780Y018327D02*
X011606Y018327D01*
X011606Y018367D02*
X010780Y018367D01*
X010780Y018407D02*
X011606Y018407D01*
X010780Y017059D02*
X010780Y016509D01*
X010780Y017059D02*
X011606Y017059D01*
X011606Y016509D01*
X010780Y016509D01*
X010780Y016549D02*
X011606Y016549D01*
X011606Y016589D02*
X010780Y016589D01*
X010780Y016629D02*
X011606Y016629D01*
X011606Y016669D02*
X010780Y016669D01*
X010780Y016709D02*
X011606Y016709D01*
X011606Y016749D02*
X010780Y016749D01*
X010780Y016789D02*
X011606Y016789D01*
X011606Y016829D02*
X010780Y016829D01*
X010780Y016869D02*
X011606Y016869D01*
X011606Y016909D02*
X010780Y016909D01*
X010780Y016949D02*
X011606Y016949D01*
X011606Y016989D02*
X010780Y016989D01*
X010780Y017029D02*
X011606Y017029D01*
D23*
X006725Y024075D03*
D24*
X009725Y024075D03*
D25*
X028606Y027973D02*
X029206Y027973D01*
X029206Y005973D02*
X028606Y005973D01*
M02*
